<?xml version="1.0" encoding="UTF-8"?>
<svg version="1.1" viewBox="0 0 2048 1365" width="600" height="400" xmlns="http://www.w3.org/2000/svg">
<path transform="translate(0)" d="m0 0h2048v1365h-2048z" fill="#D6E3FD"/>
<path transform="translate(0)" d="m0 0h2048v1365h-2048zm979 111-32 3-32 6-28 7-36 12-25 10-30 14-31 16-27 16-19 12-17 11-20 11-15 6-17 5-24 4-9 1-21 1h-117l-26 1-21 2-22 4-21 6-18 8-18 11-11 10-4 3v2l-3 1-8 10-10 15-11 23-8 26-4 20-3 27-2 34-2 90-1 21-4 34-5 25-10 29-10 20-11 16-9 11-12 14-16 17-14 15-9 11-12 14-12 16-9 13-9 16-7 16-7 21-5 24-3 27-1 13v28l2 27 4 24 5 20 9 25 9 21 10 18 12 17 10 12 1 2h2l2 4 11 11 8 7 1 2h-2v2l-9 1-19 7-11 6-2 2 1 6 10 7 19 7 21 5 40 7 44 6 68 7 73 6 79 5 91 4 78 3 70 2 131 2h255l116-2 97-3 121-5 73-4 91-7 61-6 56-7 35-6 30-7 15-5 12-6 4-4-1-6-10-6-27-9-18-4h-5v-4l13-9 16-13 13-12 8-7 16-16 7-8 13-15 12-16 10-14 12-19 11-19 12-25 10-26 8-26 4-21 1-10v-39l-3-24-5-20-7-19-8-16-9-15-12-16-13-15-11-13-14-19-9-15-13-24-8-17-9-24-6-19-6-24-5-26-5-43-3-43-4-75-3-34-5-26-8-24-10-19-8-10-10-10-13-9-16-8-21-7-26-5-23-2-33 1-42 4-47 7-37 6-30 4-9 1h-53l-33-4-31-6-27-7-32-10-31-12-31-13-32-14-35-15-33-13-40-13-29-7-22-4-19-2z" fill="#FCFCFD"/>
<path transform="translate(1336,332)" d="m0 0h11l14 3 19 8 16 5 17 4 16 8 8 8 7 11 2 7 2 21 9 10 8 9 2 5v14l-4 8-8 11-2 8 6 13-1 6-5 4-16 5-9 1h-29l-12-1 2 8 11 1 24 5 17 5 14 7 9 9 6 10 5 12 1 3 240 1 12 5 8 6 7 7 7 11 5 12 3 12v18l-10 59-24 139-2 15-2 8-10 59-5 23-6 15-6 11-8 11-10 11-13 10-11 6-15 7-16 4-8 1-21 1v14l3 68v35l-4 6-4 3h-5l-5-5-3-16-3-22-6-45-5-35v-3l-85-1 3 57 1 28v33l-4 6-4 3h-5l-5-5-3-16-3-21-2-17-3-19-3-24-3-21v-4l-201 1 2 30 7 64v10h-62l-3-5-5-20-2-6-38-1-3-7-7-27-5-18-11-47-6-29-3-19-3-18-3-28-1-3v-36l2-12 4-12 8-11 10-10 17-12 25-14 27-12 34-13 28-10 32-10 22-6-2-29-4-45-9-7-8-6-7-12-2-11v-7l-2-7-9 2-34 13-27 9-18 5-6 1h-17l-14-4-16-8-14-9-13-11-12-11-9-8-2-1-9 1-16 6-10 3h-9l-12-4-4-5-1-2v-11l1-1 1-7 2-1 22-2 6-3 6-2v-2l-13-5-1-4h20l11 4 13 7 11 8 14 8 27 12 20 8 9-1 17-7 31-16 15-9 8-6 18-13 16-10 17-8 24-8 25-5h4l-1-4-6 1-9 2h-8l-11-4-6-7-2-4-2-7-5-5-11-6-11-9-7-10-2-6v-16l5-9 7-9 1-3v-26l5-8 16-8 6-5 5-15 3-6 8-7 10-5z" fill="#527FE9"/>
<path transform="translate(356,600)" d="m0 0h11l14 3 12 6 9 9 7 14 2 8v17l-7 43v17l5 14 16 31 3 10-1 12-7 33v19l5 13 11 19 9 16 6 15 2 11v21l-5 19-8 16-8 11-9 8-10 6-13 5-4 1h-24l-4-1 1 75h36l2 3v30h34l2 7 2 10 5 12 10 13 12 9 14 6 8 2 9 1h510l13-1 1-11h-2v-2h-7l-10-5-10-8-8-9-5-10-1-5v-13l3-11 1-2h154l7 2v9l-3 5-12 11-9 6-3 3 8 4h10l16-5 10-5h2v-2l5-1v-2l6-4 1-1v-9l-1-10 3 3 5 20 2 4 62 1-8-74-1-11v-19l6-1h195l4 25 4 31 3 17 2 16 4 30 2 5 3 2h5l5-4 2-4v-33l-3-70v-15h83l2 1 3 16 5 37 6 42 3 23 3 5 2 2 7-1 4-5 1-2 1-24h12l57 5 45 5 24 3 45 6 36 7 26 8 14 7 2 3-1 5-5 4-12 6-25 7-34 7-41 6-62 7-71 6-53 4-93 5-129 5-69 2-116 2h-255l-131-2-96-3-100-4-59-3-76-5-72-6-64-7-43-6-38-7-22-6-13-5-10-7-1-6 5-4 18-8 14-4 25-5 44-7 43-6h10v-42l6-2h34v-72l-7-2-33-5-12-4-9-5-8-7-7-11-4-8-4-15v-22l4-15 13-31 5-13 1-4v-28l-4-38-1-23 2-12 6-18 8-21 5-18 1-10v-46l1-12 6-12 8-9 8-5 9-3z" fill="#B1CCFC"/>
<path transform="translate(1336,332)" d="m0 0h11l14 3 19 8 16 5 17 4 16 8 8 8 7 11 2 7 2 21 9 10 8 9 2 5v14l-4 8-8 11-2 8 6 13-1 6-5 4-16 5-9 1h-29l-12-1 2 8 11 1 24 5 17 5 14 7 9 9 6 10 5 12 3 17 1 10v15l-2 10-4 10-8 24-4 9-6 12-3 9-4 9-5 11-1 5h2l1 11v33l-3 3-1 43-2 19-4 20-7 21-8 15-10 11-5 2v2l-15 6-17 3-27 2-71 3-23 2-13 4-6 4v19l4 45 2 26 4 39 7 67 1 8v10h-62l-3-5-5-20-2-6-38-1-3-7-7-27-5-18-11-47-6-29-3-19-3-18-3-28-1-3v-36l2-12 4-12 8-11 10-10 17-12 25-14 27-12 34-13 28-10 32-10 22-6-2-29-4-45-9-7-8-6-7-12-2-11v-7l-2-7-9 2-34 13-27 9-18 5-6 1h-17l-14-4-16-8-14-9-13-11-12-11-9-8-2-1-9 1-16 6-10 3h-9l-12-4-4-5-1-2v-11l1-1 1-7 2-1 22-2 6-3 6-2v-2l-13-5-1-4h20l11 4 13 7 11 8 14 8 27 12 20 8 9-1 17-7 31-16 15-9 8-6 18-13 16-10 17-8 24-8 25-5h4l-1-4-6 1-9 2h-8l-11-4-6-7-2-4-2-7-5-5-11-6-11-9-7-10-2-6v-16l5-9 7-9 1-3v-26l5-8 16-8 6-5 5-15 3-6 8-7 10-5z" fill="#FD6C66"/>
<path transform="translate(644,436)" d="m0 0h15l4 3-1 6 3-1h15l10 3 8 6 6 9 3 10v21l7 2 1 1v7l-3 4v23l-4 13-9 11-10 8-9 6 1 9 3 8 15 3 14 5 9 5 7 4 7 8 12 15 22 33 1 6-7 8-12 9 3 3 12 36 11 24 3 6v2l5 2 20 10 3 3 17 5 9 6 5 6 5 14 1 6v32l-3 28-6 31-5 16-4 2 14 14 8 7 2 2 30 1v11l-1 1-181 1h-191l-8-2-9-4-8-6-7-8-6-10-5-17v-22l4-14 6-11 6-8 11-8 8-4 7-1h103l-12-9-7-10-3-10v-19l1-4v-9l-10-88v-19l3-24 3-12 7-13 9-9 13-8 16-7 13-5h4l-2-16-3-5-22-16h-16l-10-3-9-6-7-9-4-13v-21l3-16 4-10 6-8 7 1 7-8 10-9 6-4 4 1 4 2 1-3 10-7z" fill="#FD6D66"/>
<path transform="translate(837,223)" d="m0 0h42l26 5 27 9 19 9 14 9 9 7 14 12 9 11 9 13 7 14 5 15 3 15v25l-4 19-6 16-8 15-9 12-12 13-13 11-19 12-16 8-16 6-24 6-12 2-29 2-9 2-9 8-9 12-8 9-11 9-12 7-9 3h-3l2-6 7-14 6-15 4-15v-7l-9-3-16-8-19-10-12-8-13-11-9-10-12-16-7-12-6-16-4-17-1-7v-18l4-19 6-16 8-16 8-11 8-10h2l2-4 10-9 15-11 25-13 21-7 21-5z" fill="#B1CCFC"/>
<path transform="translate(1307,730)" d="m0 0 7 4 15 8 15 6 13 4 17 3 9 1h13l15-2 16-4 13-5h2l-1 43-2 19-4 20-7 21-8 15-10 11-5 2v2l-15 6-17 3-27 2-71 3-23 2-13 4-6 4v19l4 45 2 26 4 39 7 67 1 8v10h-62l-3-5-5-20-2-6-38-1-3-7-7-27-5-18-11-47-6-29-3-19-3-18-3-28-1-3v-36l2-12 4-12 8-11 10-10 17-12 25-14 27-12 34-13 28-10 32-10z" fill="#18097B"/>
<path transform="translate(1508,679)" d="m0 0h19l14 5 9 7 7 7 6 10 3 12v10l-3 16-10 36-16 57-7 25-8 30-8 28-7 20-9 17-8 11-12 13-13 10-15 9-11 5-8 3v1l-189 1v9h-1l-4-39-4-48v-21l90-1h48l17-2 11-4 10-6 7-7 8-14 8-24 7-22 7-28 4-17 5-18 12-43 4-15 7-13 10-11 10-6z" fill="#7496F9"/>
<path transform="translate(356,600)" d="m0 0h11l14 3 12 6 9 9 7 14 2 8v17l-7 43v17l5 14 16 31 3 10-1 12-7 33v19l5 13 11 19 9 16 6 15 2 11v21l-5 19-8 16-8 11-9 8-10 6-13 5-4 1h-24l-4-1v75h-1v-111l10-14 14-20 8-11-5 4-6 9-10 14-10 15h-1l-1-59 1-134h-3l1 5v129l-3-1-14-30-12-25-5-11v3l8 16 6 13 14 31 5 10 1 31v96l-1 40h-35v-1h34v-72l-7-2-33-5-12-4-9-5-8-7-7-11-4-8-4-15v-22l4-15 13-31 5-13 1-4v-28l-4-38-1-23 2-12 6-18 8-21 5-18 1-10v-46l1-12 6-12 8-9 8-5 9-3z" fill="#B1CCFC"/>
<path transform="translate(644,436)" d="m0 0h15l4 3-1 6 3-1h15l10 3 8 6 6 9 3 10v21l7 2 1 1v7l-3 4v23l-4 13-9 11-10 8-9 6 1 9 3 8 15 3 14 5 9 5 7 4 7 8 12 15 22 33 1 6-7 8-12 9-14 7-1 1 1 15 3 19 5 9 11 16 9 14 1 5-1 2-9-1h-12l-14-1-1-1-20-3-9-4-10-9-11-11-11-14-9-12-8-13-4-9-6 1v2l-9 3v2l-8 4h-3v2l-4 3 3 8 11 12v2l3 1 5 5 11 10 13 10 14 10 3 1 2 5-47 7-40 3h-5l-11-96v-19l3-24 3-12 7-13 9-9 13-8 16-7 13-5h4l-2-16-3-5-22-16h-16l-10-3-9-6-7-9-4-13v-21l3-16 4-10 6-8 7 1 7-8 10-9 6-4 4 1 4 2 1-3 10-7z" fill="#7395F9"/>
<path transform="translate(935,1045)" d="m0 0h66l26 1v12l-3 3h-272l-3-1v2l-6 1-10 5-8 7h-2l-2 4-5 7-3 7-2 6-1 14 2 1-1 3 2 1-1 2 2 1 2 5v2h2v3h2l5 7 4 2 2 2 12 6 6 2h276v2h2v11l-4 1-10 1h-510l-14-2-15-6-10-7-7-6-9-13-5-13-1-7v-12l3-13 7-13 9-10 7-6 14-7 15-4h252z" fill="#EE4B47"/>
<path transform="translate(1475,561)" d="m0 0h241l12 5 8 6 7 7 7 11 5 12v5l-2-3-10-18-11-12-9-7-8-3-7-1h-15l-10 2-13 7-8 7-8 10-5 9-6 12-12 31-8 18-8 11-5 4-8 4-13 2-46 1-9 1-7-2h-19l-12 4-9 6-8 9-8 16-8 30-9 32-14 56-8 25-7 21-8 14-8 8-10 6-11 4-17 2h-138v8h-1v-19l5-4 10-4 12-2 104-5 18-2 15-4 6-3h3v-2l8-6 8-10 8-17 6-20 4-23 1-12 1-44 3-2v-44h-2l1-7 7-15 3-7 2-7 1-3h2l3-10 5-12 4-12 4-10 3-9 1-7v-15z" fill="#3874DD"/>
<path transform="translate(508,835)" d="m0 0h97l15 2 22 4h75l23-1v6l-1 2-13 1-43 1-10 6-6 7h-2l-1 4-5 10-1 4v23l3 10 8 12 8 7 6 3h41l2-24 37 1 8 8 2 1v2l4 2 11 11 3-24 34-1 3 1 14 14 8 7 2 2 30 1v11l-1 1-181 1h-191l-8-2-9-4-8-6-7-8-6-10-5-17v-22l4-14 6-11 6-8 11-8 8-4z" fill="#303AC2"/>
<path transform="translate(1286,644)" d="m0 0 11 7 6 5 4 45 2 24v6l-16 4-29 9-33 11-34 13-25 11-16 8-16 9-14 10-10 9-6 7-5 8-3 10-2 12-1 30h-1l-2-7-3-8-13-40-27-87-1-5v-15l4-13 7-11 9-9 12-6 7-2h16l4 1h147l10-5 9-10 5-11z" fill="#517EE8"/>
<path transform="translate(1142,322)" d="m0 0h22l22 4 16 6 15 8 11 9 7 7 9 14 5 11 3 15v13l-4 14-7 14-11 13-13 11-15 9-14 7 2 12 5 13 3 7-2 1-10-5-10-9-14-14-27-3-21-6-14-6-11-7-11-9-8-10-9-15-4-12v-22l4-16 6-12 9-11 7-7 14-10 14-7 17-5z" fill="#B1CCFC"/>
<path transform="translate(881,948)" d="m0 0 6 1 47 1 13 4 9 6 8 8 8 14 2 6v18l-5 14-9 12-8 7-10 5-7 2-186 1h-224l1-10 1-1 212-1 12-5 9-8 4-7 4-11v-12l-3-10-6-9-7-6-10-5-4-1-212-1v-10z" fill="#7395F9"/>
<path transform="translate(775,265)" d="m0 0h22l12 6 12 11 8 5 3 1h13l17-5 7-2h12l5 4-2 6-13 11-9 7-10 9-4 5h-2v3l6 2 13 7 19 13 12 7h2v-38l7-8 12-6 8-3 19-2 16 1 10 4 5 4 3 5 1 7-4 12-7 12-6 8-2 1v2l13 8 7 6 4 7v10l-7 14-10 10-6 3h-15l-7-2h-9l-7 4-4 5-5 7-11 8-5 2-6 1h-18l-9-4-8-6-4-5-1-3v-13l8-14 3-9-6-2-11-9-5-4v-2l-4-2-12-12-15-11-9-5h-2l-3 8v12l2 10v15l-6 8-3 3-9 3h-9l-9-3-6-4-4-5-1-2v-11l6-10 8-10 3-9v-10l-15 5-12 7-13 13h-2l1-4 12-12 15-9 8-3h4l-5-9-8-11-4-9v-11l5-10 7-7 10-5z" fill="#120C5D"/>
<path transform="translate(1336,332)" d="m0 0h11l14 3 19 8 16 5 17 4 16 8 8 8 7 11 2 7 2 21 9 10 8 9 2 5v14l-4 8-8 11-2 8 6 13-1 6-5 4-16 5-9 1h-29l-11-1-1-1v-16l5-13 10-19 10-4 5-6 1-7-4-4-6-1-9 2-7-6-9-14-7-15-7-14-7-3-3-1h-7l-4 4-4 12-5 6-10 6-5 5v2l9 1 1 5-11-2-2 9 5-2 4 1 2 5-2 3h-6l-3-3-1 2h-2l-1 3-4 2 1 10 4 16 7 14 7 7 6 3 6 2 1 7v8l-8 3-7 1h-8l-11-4-6-7-2-4-2-7-5-5-11-6-11-9-7-10-2-6v-16l5-9 7-9 1-3v-26l5-8 16-8 6-5 5-15 3-6 8-7 10-5z" fill="#040426"/>
<path transform="translate(1248,1011)" d="m0 0h195l4 25 4 31 3 17v13l-13-1-32-1-52-1-50-2-57-1-2-2-6-58v-19z" fill="#D6E3FD"/>
<path transform="translate(644,436)" d="m0 0h15l4 3-1 6 3-1h15l10 3 8 6 6 9 3 10v21l7 2 1 1v7l-3 4v23l-4 13-9 11-10 8-9 6 1 9 2 7v7l-6 4-12 3h-12l-4-3-1-3-1-14-3-9-12-9-11-8h-16l-10-3-9-6-7-9-4-13v-21l3-16 4-10 6-8 7 1 7-8 10-9 6-4 4 1 4 2 1-3 10-7z" fill="#FEA18B"/>
<path transform="translate(914,1075)" d="m0 0h49l27 1 2 1-1 4-3 5-3 14v13l3 10 8 11 9 8 9 5 4 3h-255l9-19 8-11 11-11 16-10 18-8 23-7 29-6 22-2z" fill="#FCFCFD"/>
<path transform="translate(1294,538)" d="m0 0 4 1 7 6v2h2l5 5 14 7h3l-1-4-3-7v-5l5 3 9 11 4 8 4 20 12 16v2h2l8 12 11 14 18 27h2l23-46 5-9 3-1 29 8 14 3 3-12h1v7l-5 13-8 24-4 9-6 12-3 9-4 9-7 15-9 13-9 10-9 8-11 4h-9l-8-4-10-11-9-15-8-16-9-19-11-28-14-40-2-4-10-7-16-7-5-2-6-9-4-5-3-6 1-5 3 1-2-3 1-5 4 1 3 1-2-6 4-1 6 5 3 3-6-9z" fill="#FEA38D"/>
<path transform="translate(1091,679)" d="m0 0h16l4 1 20 1v1l-11 1 10 6 9 10 8 16 15 49 3 11v3h3l-1 3-24 13-17 12-10 9-6 7-5 8-3 10-2 12-1 30h-1l-2-7-3-8-13-40-27-87-1-5v-15l4-13 7-11 9-9 12-6z" fill="#7496F9"/>
<path transform="translate(1615,284)" d="m0 0h22l11 3 15 9 5 5 6 7v2h2l4 8 2 7 1 9v14l-2 10-2 7-3 6-7 9-6 6-3 1-1 2h-3v2l-10 5-12 3h-13l-13-3-10-4-8-6v-2l-4-1-3-5-5-5-3-9h-2l-4-14v-18l4-13 6-11 4-5h2l2-4 8-7 13-6z" fill="#FAFBFD"/>
<path transform="translate(1046,545)" d="m0 0h20l11 4 13 7 11 8 14 8 27 12 20 8 9-1 17-7 31-16 15-9 8-6h3l-2 3 5 9 13 20 9 14 3 6-29 11-30 11-28 8-6 1h-17l-14-4-16-8-14-9-13-11-12-11-9-8-2-1-9 1-16 6-10 3h-9l-12-4-4-5-1-2v-11l1-1 1-7 2-1 22-2 6-3 6-2v-2l-13-5z" fill="#FEA28C"/>
<path transform="translate(749,1060)" d="m0 0 266 1-5 5-9 5-6 4h-82l-22 2-30 5-24 6-17 6-17 8-14 10-10 10-8 13-7 14-3 2h-12l-9-3v-2h-5v-2l-6-2v-2l-5-2-4-5v-2h-2v-3h-2l-4-8-2-7v-14l1-4h2l-1-3 7-12 4-5 10-8h2l1-2 3-1h3l1-2 2 1 1-2 3 1z" fill="#B1CCFC"/>
<path transform="translate(748,682)" d="m0 0h6l13 38 11 24 3 6v2l5 2 20 10 3 3 17 5 9 6 5 6 5 14 1 6v32l-3 28-6 31-5 16-2 2h-39l-2 25-7-6-7-7-2-1v-2l-4-2-7-7 2-1 5-1 8-13 9-20 3-9 2-4 2-1 1-4h2l3-9 5-12 1-10h2v-20l-2-8-4-8-7-9-9-4-2-1v-2h-2v-2l-10-3-5-2-1-3h2l-6-12-12-17-8-12-3-15-2-15v-7l5-4z" fill="#FD6C66"/>
<path transform="translate(552,973)" d="m0 0h70l22 3 18 4 21 7 18 10 12 11 7 9 6 13v5h-182l-1-6 8-9 5-10 2-8-1-11-5-14z" fill="#FCFCFD"/>
<path transform="translate(1352,377)" d="m0 0h7l10 4 5 8 9 20 7 12 6 7 3 2 12-2 5 3 3 3-2 9-7 6-7 2-12 23-3 11v18l1 5 11 1 16 3v1l-13-1-13-2-3 7-5 4-12 4h-11l-8-3-5-6-1-6-3-1h4l-3-20-9-3-8-7-6-9-5-13-3-16 1-5 4-2 1-2h2l1-3 3 3h6l1-4-2-3-8 1 1-7 1-2 8 1 3 1-1-4-9-2-1-3 9-7 9-6 3-5 3-10z" fill="#FEA08B"/>
<path transform="translate(1474,1011)" d="m0 0h83l2 1 3 16 5 37 4 30v8l-63-3-26-1-4-1-1-2-3-70z" fill="#D7E4FD"/>
<path transform="translate(1464,652)" d="m0 0 3 2 3 27 2 27 1 2-4 12-9 34-7 26-5 18-5 21-4 14-12 39-8 16-9 10-9 6-9 4-9 2-12 1h-138v8h-1v-19l5-4 10-4 12-2 104-5 18-2 15-4 6-3h3v-2l8-6 8-10 8-17 6-20 4-23 1-12 1-44 3-2v-44h-2l1-7 7-15 2-3 1 1 2-5 3-3 5-13z" fill="#507DE7"/>
<path transform="translate(644,436)" d="m0 0h15l4 3-1 6 3-1h15l10 3 8 6 6 9 3 10v15l-1 6-4-5-7-8-4-2v-2l-5-2-3-1-2 5-3 3-10 1-13-3-3-1 2 4 1 1v5l-7 2-15 2-4 1-3 9-9 25-4 1-4-1h-9l-5 5 1 7 5 6 10 2 8-1 2 5-2 1h-14l-10-3-9-6-7-9-4-13v-21l3-16 4-10 6-8 7 1 7-8 10-9 6-4 4 1 4 2 1-3 10-7z" fill="#12045E"/>
<path transform="translate(700,949)" d="m0 0h149v1l-96 1-1 2 9 3 9 6 8 9 5 8 3 8v20l-4 11-7 11-8 8-10 7 178 1v1l-186 1h-224l1-10 1-1 212-1 12-5 9-8 4-7 4-11v-12l-3-10-6-9-7-6-10-5-4-1-212-1v-10z" fill="#527EE8"/>
<path transform="translate(532,960)" d="m0 0h206l10 4 9 6 7 8 4 9 1 5v12l-5 14-10 11-7 4-8 3h-14l-1-9-7-13-9-10-9-7-16-9-24-8-20-4-30-3h-61l-5-5-8-5-3-1z" fill="#B0CCFC"/>
<path transform="translate(364,764)" d="m0 0h3v142l1 50 9-14 11-15 7-10 5-4-2 5-9 12-11 16-8 11-2 3-1 111h38l1 1v24l-1 16-4 9-8 9-12 6-6 1h-22l-11-4-8-5-7-8-3-6-1-14v-28l1-1h40v-136l-1-31-7-14-9-20-5-12-5-10-8-17h3l10 22 8 16 13 28 2 1-1-3z" fill="#84ADF9"/>
<path transform="translate(726,848)" d="m0 0h12l-6 31-5 21-2 11 1 1v15l-1 9-1 1h-41l-10-6-8-9-6-11-2-7v-23l4-11 4-7h2l2-4 8-7 6-3z" fill="#B1CCFC"/>
<path transform="translate(954,356)" d="m0 0 6 1 14 10 5 6 1 2v11l-6 12-4 5-9 6h-13l-11-2h-7l-8 4-6 7-6 8-8 5-10 3h-15l-11-4-8-6-3-5v-11l11-22 5 1h13l8-5 6-12 3-9 12 3h20l9-2z" fill="#B0CBFC"/>
<path transform="translate(1614,272)" d="m0 0h25l14 4 11 6 10 8 9 10 8 14 5 15v24l-4 13-6 12-7 9-11 11-14 8-10 4-5 1-16 1-13-2-16-6-12-8-5-4-7-8-7-11-5-12-2-9v-19l3-14 8-16 9-11 9-8 14-8zm1 12-12 4-11 6-5 5-2 4-4 2-8 14-4 13v18l4 14h2l3 9 5 5 3 5 4 1 2 4 8 5 10 4 11 2h13l14-4 8-4v-2h3l1-2 5-3 7-7 5-7 3-7 2-7 1-8v-14l-2-12-4-10-1-2h-2l-2-5-6-7-5-4-16-8-8-2z" fill="#85ADF9"/>
<path transform="translate(776,268)" d="m0 0h18l10 4 6 4 11 10 10 5 10 1 9-2 21-6h9l1 1v5l-11 9-14 11-9 9-3 5-10-1h-19l-11 4-4 4h-5l-1-1-12-2-13-1-15-24-1-3v-13l4-8 9-7z" fill="#B0CBFC"/>
<path transform="translate(1050,719)" d="m0 0h1l1 15 3 9 13 42 12 38 13 41 3 10 2 2 3 15 3 28 5 29 3 17 8 38 11 45 5 18 5 17 38 1 1 4 1 10v9l-6 5h-2v2l-5 1v2l-17 8-11 3h-10l-8-4-1-2h3l2-4 10-7 11-10 1-3v-9l-12-2-2-5-5 2v-10l-6-24-4-15-3-9-5-22-5-20-1-9-2-7-3-20-4-20-2-18-4-20-6-22-2-9-6-21-8-21-7-27-3-9-2-2-4-14-5-13-3-14v-12l3-6z" fill="#D7E7FD"/>
<path transform="translate(726,912)" d="m0 0 37 1 8 8 2 1v2l4 2 11 11 3-24 34-1 3 1 14 14 8 7 2 2 30 1v11l-1 1h-157v-13z" fill="#12035D"/>
<path transform="translate(647,690)" d="m0 0 3 3 7 14 12 17 9 11 11 12 9 9 6 4 12 3 14 2 1 5-4 2v3l5 2 10 9 3 3-1 3-5-1h-1l-1 5-3 5-9-1 2 4-3 1-9-6-12-11-12-12-10-7-2-2-11-7-13-10-13-11-7-6-7-8-9-10-2-8 5-2v-2l9-4h2v-2l9-3v-2z" fill="#FEA28C"/>
<path transform="translate(934,302)" d="m0 0h23l11 4 5 4 2 4v9l-8 16-8 10-2 2-5-1-12-11-4-6v-4h-3l4 10 6 7 9 6-1 4-12 5-4 1h-22l-10-3-2-2v-39l6-7 10-5z" fill="#B0CBFC"/>
<path transform="translate(1443,1011)" d="m0 0h30l1 2 2 36 2 47v33l-4 6-4 3h-5l-5-5-3-16-3-21-2-17-3-19-3-24-3-21z" fill="#130561"/>
<path transform="translate(1560,1011)" d="m0 0h29l1 1 3 55 1 27v35l-4 6-4 3h-5l-5-5-3-16-3-22-6-45-4-28z" fill="#130561"/>
<path transform="translate(1337,327)" d="m0 0h15l12 3 16 7 16 5 15 3 16 6 11 8 7 8 7 12 3 16 2 9 6 8 10 14 3 12-2 12-5 9-6 9 1 8 2 7v7l-4 6-10 6-6 1h-10v-3l8-3 10-4 4-4-1-6-5-11 2-8 10-14 2-5v-14l-4-8-13-13-2-3-2-21-3-8-6-10-7-7-16-8-20-5-18-6-17-7-11-2h-11l-9 3-10 6-4 4-5 13-2 7-7 6-14 7h-2l-4 8v26l-3 6-7 9-3 4h-2l3-9 6-9 2-7-2-8v-10l1-2h2l2-6 5-7 17-9 9-21 5-7 10-6z" fill="#D6E6FC"/>
<path transform="translate(845,836)" d="m0 0h37v13l-11 3-7 8-7 10-3 9-1 6v17l4 13 7 11 10 9 7 1v1h-29l-8-8-16-14v-2l3-2 6-20 6-33z" fill="#B1CCFC"/>
<path transform="translate(748,682)" d="m0 0h6l13 38 11 24 3 6v2l5 2 20 10 3 4h-44l2-1-6-12-12-17-8-12-3-15-2-15v-7l5-4z" fill="#FFA38D"/>
<path transform="translate(526,1037)" d="m0 0h209l-1 5-8 2 18 1 5 1v1h-224z" fill="#3874DD"/>
<path transform="translate(1474,1011)" d="m0 0h83l2 1 3 16 5 37 4 30v8h-5l-3-4v-3l-2-1-3-19v-6h-2l-2-15-1-10h-2l-2-14v-9l3 3 2 10-3-15-12-2-8-1h-33l-11 1-3 3-1 7v11l-1 17v14l-1 8 2-1 1 19 2-1-1 3h-7l-1-2-3-70z" fill="#D4E5FD"/>
<path transform="translate(1242,1140)" d="m0 0h2v16l-1 10-8 5-21 6-18 4-22 3h-14l-7-3 1-4 10-9 20-13 7 4 9 1 13-3 15-7h2v-2l5-1v-2h3v-2z" fill="#12045E"/>
<path transform="translate(1179,1108)" d="m0 0h2v19l-2 7-3 3-15 5-27 6-20 3h-18l-5-2v-5l8-7 21-14 10 4h10l16-5 10-5h2v-2l5-1v-2z" fill="#05042B"/>
<path transform="translate(772,330)" d="m0 0 16 1 8 2-1 5-2 5v17l2 9v9l-3 7-6 5-6 2-13-1-8-4-5-7v-9l5-9 7-8 5-10z" fill="#AFCAFC"/>
<path transform="translate(1709,912)" d="m0 0h3l2 8-2 12v7l-6 16-5 10-10 12h-2v2h-2v2l-4 1-16 16-5 2-5 5-11 5-22 5-11 2-10 1-3 5-2 51-1 7 2 12h1v8l-1 1 3 3h-8l-1-11-3-68v-14l1-1 21-1 17-3 14-5 16-8 12-9 10-9 9-12 6-10 7-16 3-11z" fill="#D5E6FD"/>
<path transform="translate(944,298)" d="m0 0 16 1 10 4 5 4 3 5 1 7-4 12-7 12-6 8-2 1v2l13 8 7 6 4 7v10l-7 14-10 10-6 3h-15l-7-2h-9l-7 4-4 5-5 7-11 8-5 2-6 1h-18l-9-4-8-6-4-5-1-3v-13l8-14 2-5h3l-1 5-8 16v11l5 7 12 6 4 1h15l10-3 9-6 8-11 8-6 3-1 14 1 4 1h13l7-5h2l2-4 6-10 1-3v-11l-4-6-9-7-8-5-6 1-12 6-7 1h-20l-10-3-4-4-3-2 2-1v-38l7-8 12-6 8-3zm-10 4-17 4-10 5-6 7v39l2 2 10 3h22l14-5 3-2v-3l-6-4-7-6-5-9-1-4h3l1 5 4 6 7 7 5 4 5-1 7-8 8-14 2-5v-9l-4-6-10-5-4-1z" fill="#120C5A"/>
<path transform="translate(1213,1116)" d="m0 0h29l1 1v23l-3 3h-2v2h-3v2l-5 1v2l-17 8-13 3-9-1-5-3v-3l9-7 8-7 7-8z" fill="#FEA18B"/>
<path transform="translate(1149,1084)" d="m0 0h30l1 4 1 10v9l-6 5h-2v2l-5 1v2l-17 8-11 3h-10l-8-4-1-2h3l2-4 10-7 11-10 1-3z" fill="#FDA18C"/>
<path transform="translate(844,329)" d="m0 0 5 1 15 8 17 12 17 10-2 9-6 12-4 3-3 1h-11l-5-2-2-13-7-11-11-15-3-7z" fill="#AFCAFC"/>
<path transform="translate(775,265)" d="m0 0h22l12 6 12 11 8 5 3 1h13l17-5 7-2 4 1-2 2v1l-21 6-9 2-10-1-10-5-13-12-10-5-4-1h-18l-12 5-6 5-4 8v13l5 10 10 15v2h13l12 2 5 2-2 10-1 3v12l2 10v15l-6 8-3 3-9 3h-9l-9-3-6-4-4-5-1-2v-11l6-10 8-10 3-9v-10l-15 5-12 7-13 13h-2l1-4 12-12 15-9 8-3h4l-5-9-8-11-4-9v-11l5-10 7-7 10-5zm-3 65-1 14-5 10-9 11-3 6v9l5 7 8 4 13 1 9-4 5-6 1-4v-9l-2-9v-17l3-6v-4l-16-3z" fill="#150B68"/>
<path transform="translate(816,325)" d="m0 0h17l8 2 1 11 5 10 13 18 4 8v6l-4-1-9-7-15-14-11-10-13-9-10-6v-2l10-5z" fill="#ADC9FC"/>
<path transform="translate(1251,793)" d="m0 0h4l-1 3-25 7-24 8-17 8-14 9-10 8-7 7-8 12-2 7-1 19 2 24 4 32 8 47 13 65 7 29 1 7-5-2-1-8-8-37-9-45-5-27-5-31-4-32-1-14v-25l3-12 7-11 10-10 8-6h2v-2l19-11 17-7 18-6 18-5z" fill="#12035C"/>
<path transform="translate(1416,1012)" d="m0 0h27l3 17 3 20 3 26 2 9v13l-8-2v-15h-2l1 9-3-2-2-17-2-8-1-13-3-8-2-20-4-1-11-2 1-4z" fill="#D7E7FD"/>
<path transform="translate(364,764)" d="m0 0h3v142l1 50 9-14 11-15 7-10 5-4-2 5-9 12-11 16-8 11-2 3-1 108-3 2v-135l-1-31-7-14-9-20-5-12-5-10-8-17h3l10 22 8 16 13 28 2 1-1-3z" fill="#84ADF9"/>
<path transform="translate(1242,1140)" d="m0 0h2v16l-1 10-8 5-9 3h-9l4-2 9-2v-2h3l3-12-14 5-6 3-7 2-16 1h-14l-13 8-3 6 6 1v1h-13l-3-2 1-4 10-9 20-13 7 4 9 1 13-3 15-7h2v-2l5-1v-2h3v-2z" fill="#070630"/>
<path transform="translate(1750,673)" d="m0 0 3 1 1 2-1 14-2 9-2 11-1 5-1 15-4 25-2 16-4 19-3 13-3 8-2 16-3 5v8l-3 3-1-7 14-81z" fill="#D6E7FD"/>
<path transform="translate(1263,436)" d="m0 0 2 2 2 16 7 11 11 9 14 8 4 5 2 8 4 6 6 4 7 2h8l9-2 6-1 1 5-29 6-7 1v-6l-7-6-5-10-10-8-10-6-5-4-7-9-6-13-1-5h-2v-9l4-3z" fill="#D8E6FA"/>
<path transform="translate(1681,386)" d="m0 0v3l-1 8-4 7-5 4-8 6-6 3-5 3-13 2-13 1h-6l-6-3-10 1-1-3-3-1 1-4 3-1 7 3 4-2 25-2 18-8 11-7 8-8z" fill="#D8E9FD"/>
<path transform="translate(1114,1127)" d="m0 0 2 1v2h15l3 1v2l11 3 2 2-8 4v2l-6 2 11-1v1l-30 5h-18l-5-2v-5l8-7z" fill="#12045D"/>
<path transform="translate(789,872)" d="m0 0h1v40l2 1-3 25-7-6-7-7-2-1v-2l-4-2-7-7 2-1 5-1 8-13 9-20z" fill="#B0CBFC"/>
<path transform="translate(724,598)" d="m0 0 11 3 8 7 2 4 3 1 12 17 11 14 5 12 1 8-3 6-3 1-2 5-6 7h-2l-1 3-5 1-1-5-4-1 10-7 6-5 4-5-1-6-20-30-10-13-9-10-1-3-4-1z" fill="#D7E8FD"/>
<path transform="translate(494,837)" d="m0 0h3v2l-10 6-3 3h-2l-2 4-7 11-5 13-1 5v22l5 17 7 11 8 9 8 5 3 2-7-1-8-3-7-6-8-12-1-2 2 7h-2l-8-18-1-18 1-12 3-9 2-1 6-15 7-9 3-4h2l2-4 3-2h6z" fill="#D3E5FD"/>
<path transform="translate(586,463)" d="m0 0 2 4-6 9-3 8-3 16v21l4 13 7 9 8 5 9 4-2 4-8-2-9-4-8-7-6-12-1-4-1 5-2-3-1-10 1-10 3-26 5-13 5-3h2z" fill="#D8E7FC"/>
<path transform="translate(1086,396)" d="m0 0h135l1 5h-136z" fill="#6B90F5"/>
<path transform="translate(665,1040)" d="m0 0 10 2h9l12 2 48 1 5 1v1h-220v-1l53-1 4-2 5-1 34-1h38z" fill="#303AC2"/>
<path transform="translate(1242,1012)" d="m0 0h10l1 3-2 4 1 30 2 23h3v12h2v5l-3 2h-6l-2-2-6-58z" fill="#D5E6FD"/>
<path transform="translate(1711,557)" d="m0 0h8l15 5 9 6 2 4h2l7 10 5 11 3 16 1 6v9l-3 6-1 6h-1l-1-22-5-18-6-11-7-9-9-8-8-4-6-2-11-2 2-2z" fill="#D6E7FD"/>
<path transform="translate(772,327)" d="m0 0h10l12 2 5 2-2 10-1 3v12l2 10v15l-6 8-3 3-9 3h-9l-9-3-6-4-4-5-1-2v-11l6-10 8-10 3-9v-10h2zm0 3-1 14-5 10-9 11-3 6v9l5 7 8 4 13 1 9-4 5-6 1-4v-9l-2-9v-17l3-6v-4l-16-3z" fill="#161269"/>
<path transform="translate(646,428)" d="m0 0h8v2h2v4l1 2-13 1-12 6-5 4-1 2-8-2-9 7-12 11-2 3-4-1-4-2 1-4 6-2v-2l8-7 7-6h3l4-4 11-2v-2l5-3h2v2l5-2 1-3z" fill="#D4E5FC"/>
<path transform="translate(578,670)" d="m0 0h1l1 13 2 13 5 43v13l-2 1v-3h-2l-1 3-2-2-4-23-1-25-1-7v-10l1-9 1-2h2z" fill="#D7E8FD"/>
<path transform="translate(1101,415)" d="m0 0h104l1 5h-105z" fill="#7599F8"/>
<path transform="translate(1102,377)" d="m0 0h103l1 4-1 1h-103z" fill="#5B85ED"/>
<path transform="translate(845,836)" d="m0 0h37v13l-38 1z" fill="#3341C6"/>
<path transform="translate(655,1037)" d="m0 0h80l-1 5-10 3h-30l-11-2-17-1 1-3h-11z" fill="#366BD9"/>
<path transform="translate(1275,622)" d="m0 0h2l3 11 6 10-3 11-6 12-9 10-7 4h-12l2-4 16-8 4-4 5-10 3-9-4 2-2 9-2 2 1-11 2-7h1l1-9-4 1-3-3 1-4z" fill="#D8E8FD"/>
<path transform="translate(944,298)" d="m0 0 16 1 10 4 5 4 3 5 1 7-2 7-2-1-2 3 1-5v-9l-3-5-10-5-4-1h-23l-17 4-10 5-5 6v39l1 2-7-2 2-2v-38l7-8 12-6 8-3z" fill="#100E51"/>
<path transform="translate(741,726)" d="m0 0 4 4 12 18 9 14 1 5-1 2-3-1-15-1-1-1-6-38z" fill="#D5E2FC"/>
<path transform="translate(687,439)" d="m0 0 5 1 1 4 5 2 5 5 7 8 3 9v19l-2 6h-5v-21l-3-10-6-9-7-5-10-3-6-2 3-3h7l3 1z" fill="#D5E6FC"/>
<path transform="translate(873,850)" d="m0 0h11l-2 4-11 1-1 5 9-1-3 2-8 4-4 7 3 2v6l1 2v13h-2l-2-8-5 1-2 1-4-2v-8l4-11 8-10 6-7z" fill="#DAEAFD"/>
<path transform="translate(800,330)" d="m0 0h2l1 3 14 8 11 9 12 11 14 13 7 5 3 1-2-9-7-11-4-5v-2l4 1 8 11 3 5 2 15 3 1-7 1-1 2v-6l-6-2-11-9-5-4v-2l-4-2-12-12-15-11-9-5h-4l1-4z" fill="#110D56"/>
<path transform="translate(1614,272)" d="m0 0h25l14 4 11 6 10 8 9 10 8 14 1 6-2-1-3-5v-2h-2l-5-9-8-10-10-9-14-7-13-3h-16l-17 4-12 6-6 4-10 11-7 11-5 11-3 7h-1l1-9 8-16 9-11 9-8 14-8z" fill="#7698F9"/>
<path transform="translate(530,1024)" d="m0 0 7 1v1l-8 1-3 4 1 3 2-3 9-1 6-2v7h181v1l-200 1-1 4-5 4-1-1-4 1 4-8 4-6 5-5z" fill="#D9E7FD"/>
<path transform="translate(495,947)" d="m0 0h6l8 2 17 1v10h6l1 3-5 2h-4l-9-4-17-3-11-7-1-3 5 1 10 5 6 2h4l-12-4-1-3-3-1z" fill="#D7E8FD"/>
<path transform="translate(364,764)" d="m0 0h3v134l-2 4-2-4h2l-1-3z" fill="#82A9F9"/>
<path transform="translate(853,937)" d="m0 0h29v11l-1 1h-23l-5-10z" fill="#323FC5"/>
<path transform="translate(329,830)" d="m0 0 3 1 10 22 8 16 13 28 3 5 1 4v46l-2 1-2-49-7-14-9-20-5-12-5-10-8-17z" fill="#7CA1F9"/>
<path transform="translate(862,387)" d="m0 0h3l-1 5-8 16v11l5 7 12 6 4 1h15l10-3 5-2 1 3-10 5-6 1h-18l-9-4-8-6-4-5-1-3v-13l8-14z" fill="#161268"/>
<path transform="translate(750,289)" d="m0 0h1v9h2l6 12 10 15v2l7 1v1h-5l-1 3h-6l-13 5-11 7-12 12h-2l1-4 12-12 15-9 8-3h4l-5-9-8-11-3-8z" fill="#0E0A4C"/>
<path transform="translate(596,956)" d="m0 0h25l70 1 35 1v1h-142l-2-2z" fill="#3874DD"/>
<path transform="translate(933,329)" d="m0 0h3l3 7 7 8 7 6 4 2h-4v3l4 1-17 8-7 1h-20l-10-3-2-2 6-1 6 2h22l14-5 2-1 1-3-5-2-9-8-5-9z" fill="#141061"/>
<path transform="translate(631,654)" d="m0 0 3 1 14 27 3 5v2l-6 3h-3v2l-9 3v2l-8 4h-3v2l-14 7-5-1-11-18-2-5 3 1 11 18 1 3 8-4 23-13 9-5h3l-16-30z" fill="#1A107C"/>
<path transform="translate(1119,416)" d="m0 0h86v3h-81l-6-1z" fill="#517DE8"/>
<path transform="translate(1477,562)" d="m0 0 4 1v43l-4 12-5 12-4 14-4 5-2 2 1-7 8-20 6-18 1-7v-15l-2-20z" fill="#3443C7"/>
<path transform="translate(1387,500)" d="m0 0 46 1-1 2-11 2-3 1-18 1-2 2-9-1-2-5z" fill="#DAE9FD"/>
<path transform="translate(1626,296)" d="m0 0 3 1 1 4-1 1v35h3l1 4-2 4-7 1-3-3 1-7 2-1 1-30 2-5-5 1 1-3z" fill="#93B5F9"/>
<path transform="translate(1307,730)" d="m0 0 7 4 15 8 15 6 13 4 17 3 9 1h13l15-2 10-1-3 2-6 2-7 1h-31l-17-3-1-1-10-2-11-5-13-5-13-7-2-2z" fill="#120460"/>
<path transform="translate(1277,385)" d="m0 0h1l1 11v17l-3 6-7 9-3 4h-2l3-9 6-9 2-7-2-8v-10z" fill="#D8E7FB"/>
<path transform="translate(602,836)" d="m0 0h14l19 4 25 3 1 2-5 2-15-1-8-1-21-6-10-1z" fill="#1E168A"/>
<path transform="translate(930,406)" d="m0 0 14 1 4 1 13 1 2 2-2 1h-15l-7-2h-9l-7 4-4 5-5 7-5 4-3-1 7-8 7-9 7-5z" fill="#18146E"/>
<path transform="translate(1680,365)" d="m0 0 1 2-7 13-7 7h-2v2l-16 8-9 3-13 1 1-2 18-4 8-4h2v-2h3l1-3 5-3 8-9z" fill="#7799F9"/>
<path transform="translate(944,298)" d="m0 0 16 1 10 4 5 4 3 5 1 7-2 7-2-1-2 3 1-5v-9l-3-5-10-5-4-1-23-1-2-3z" fill="#1B137D"/>
<path transform="translate(1721,564)" d="m0 0 6 1 9 7 7 7 7 11 5 12v5l-2-3-10-18-11-12-10-8z" fill="#3871DC"/>
<path transform="translate(913,1074)" d="m0 0h85v5l-8 7h-2l2-5 2-4-29-1h-49l-23 1v-1z" fill="#D9E7FD"/>
<path transform="translate(792,483)" d="m0 0 7 6v-2h-2l1-3 4-1 1 1-1 9-2 7-4 2-3 4-3-3v-8l2-4h2z" fill="#DAE9FD"/>
<path transform="translate(869,281)" d="m0 0 4 1-2 2v1l-21 6-9 2-10-1-10-5-1-2 4-1 8 4h13l17-5z" fill="#1A1378"/>
<path transform="translate(770,341)" d="m0 0h1l-1 8-8 11-4 5-3 6v9l5 7v2l-4-1-4-5-1-2v-11l6-10 8-10 2-4 2-1z" fill="#110B59"/>
<path transform="translate(879,925)" d="m0 0 4 2 7 8 3 8 4 2v2l2 1-7 1h-9v-12l1 4 4 1-6-11-4-4z" fill="#DAEAFD"/>
<path transform="translate(1102,377)" d="m0 0h103v1l-57 1v1h-25l-1-1h-20z" fill="#7496FA"/>
<path transform="translate(851,353)" d="m0 0 4 1 8 11 3 5 2 15 3 1-7 1-1 2v-6l-5-2v-2l6 1-2-9-7-11-4-5z" fill="#120A5F"/>
<path transform="translate(578,670)" d="m0 0h1l1 13 1 3v16h-2v-4h-3l-1 2-1-4v-10l1-9 1-2h2z" fill="#D8E8FD"/>
<path transform="translate(1264,1012)" d="m0 0h29v3h-17l-14 3-1 2-4 2-1 3-4 1-1-5 1-3 9-3z" fill="#DBEBFE"/>
<path transform="translate(897,359)" d="m0 0h2l1 7-4 11-6 8-6 3h-13l-3-3 1-2 3 1h11l6-3 7-14z" fill="#160F6A"/>
<path transform="translate(762,328)" d="m0 0 2 1v3l-13 5-11 7-12 12h-2l1-4 12-12 15-9z" fill="#140F60"/>
<path transform="translate(636,734)" d="m0 0 4 2 11 10 13 10 14 10 3 1 2 5-8-1-2-7-4-1v-2l-5-2-9-6-4-3v-2h-2v-2l-4-2-5-5z" fill="#537FE9"/>
<path transform="translate(771,266)" d="m0 0 4 1-3 1 2 2-10 4-6 5-4 8-1 11-4 1v-11l5-10 7-7z" fill="#100954"/>
<path transform="translate(815,322)" d="m0 0h19l9 2v2l-6 1-4-1h-17l-11 4h-4l5-5z" fill="#151065"/>
<path transform="translate(873,281)" d="m0 0h8l5 4-2 6-13 11-4 3-4-2 9-7 7-6h2l-1-5-14-1v-1z" fill="#14105E"/>
<path transform="translate(734,767)" d="m0 0h29l8 4 10 4v2l2 1-7-1-14-5-25-3z" fill="#E44949"/>
<path transform="translate(898,317)" d="m0 0 3 1 1 18v21l1 2-7-2 2-2z" fill="#1A1277"/>
<path transform="translate(329,830)" d="m0 0 3 1 10 22 8 16 6 13-3 1-9-20-7-15-8-17z" fill="#789DF8"/>
<path transform="translate(975,324)" d="m0 0h1l-1 7-7 12-6 8-2 1v4l-7-1v-3h4l2-4 9-12 4-8h2z" fill="#0E094C"/>
<path transform="translate(1653,288)" d="m0 0 9 4 8 6 7 9 5 11v2h-2l-4-8v-2h-2l-6-8-5-5-8-5-2-1z" fill="#799CFA"/>
<path transform="translate(408,692)" d="m0 0h3v13l1 4-1 3h-2l-1 4-4-4v-2h2l-1-7v-9z" fill="#DBEBFE"/>
<path transform="translate(503,831)" d="m0 0h5l1 1 8 1 1 2-17 2-7 1-2 1-5-1-1-3 6-2 1 1 2-2v2z" fill="#D6E6FD"/>
<path transform="translate(1342,504)" d="m0 0 4 1v4l-21 4-4-1v-4l16-2z" fill="#ECF2FC"/>
<path transform="translate(1466,1114)" d="m0 0h3l3 5-1 10-5 2-2-4-1-8z" fill="#18097B"/>
<path transform="translate(399,913)" d="m0 0v3l-12 17-9 13-6 9h-2l1-4 9-13 8-11 7-10z" fill="#7A9EF9"/>
<path transform="translate(657,433)" d="m0 0 5 1 9 3 3 5 2 2-14 1v-6l-6-4z" fill="#CEE1FD"/>
<path transform="translate(862,304)" d="m0 0h3l-2 4-12 11-3 4h-2v3l2 1-1 1h-6v-2h2l2-5 7-8z" fill="#0E0A4E"/>
<path transform="translate(853,903)" d="m0 0 5 2 11 9-1 4-3-2-1 2-5-5-4-1-2-5z" fill="#DAEAFD"/>
<path transform="translate(590,688)" d="m0 0 3 1 11 18 1 3 8-4 6-2-1 3-10 5-5-1-11-18z" fill="#170B74"/>
<path transform="translate(803,833)" d="m0 0h2v6l-9 21h-2l-1 5-3 1 1-5 8-16z" fill="#D54044"/>
<path transform="translate(1416,753)" d="m0 0h5l-3 2-6 2-7 1h-31l-7-1-1-2 17 1h13l15-2z" fill="#12035D"/>
<path transform="translate(640,515)" d="m0 0 4 1 3 3-1 5-2 2-7-1-1-6z" fill="#080633"/>
<path transform="translate(1179,1088)" d="m0 0 3 3 5 20v5h-4l-1-1z" fill="#D5E3FD"/>
<path transform="translate(905,428)" d="m0 0 2 1 1 2-10 5-6 1h-18l-3-2h9v-1l17-2z" fill="#1D1784"/>
<path transform="translate(743,746)" d="m0 0 2 1 3 19 9 1v1h-12l-14-1v-1l10-1 2-1-1-17z" fill="#4D6DDD"/>
<path transform="translate(690,501)" d="m0 0 5 1 2 5-2 4-5 1-4-4 1-5z" fill="#05032A"/>
<path transform="translate(927,407)" d="m0 0 3 1v2l-7 4-4 5-5 7-5 4-3-1 7-8 7-9z" fill="#100953"/>
<path transform="translate(981,387)" d="m0 0 1 3-6 10-9 9-6 1v-2l7-5h2l2-4 7-11z" fill="#130C61"/>
<path transform="translate(877,345)" d="m0 0 5 2 14 8v2l5 1 2 2h-2v2h-2v-3l-6-1-15-9z" fill="#0E0A4B"/>
<path transform="translate(1609,284)" d="m0 0 4 1-16 7-5 3-5 5h-2l-1-4 4-4 10-4z" fill="#789AFA"/>
<path transform="translate(760,387)" d="m0 0 7 3 13 1 5-1 1 3-6 2h-9l-9-3-4-3h2z" fill="#170C71"/>
<path transform="translate(856,423)" d="m0 0 4 2 10 6 15 4v1h-10l-9-2-9-7z" fill="#170F6E"/>
<path transform="translate(822,284)" d="m0 0 10 4 13 1-4 4-10-1-10-5-1-2z" fill="#16136B"/>
<path transform="translate(766,1015)" d="m0 0 1 2-5 8-5 5-10 5h-2l-1 2-2-2 13-8z" fill="#3E76DF"/>
<path transform="translate(788,781)" d="m0 0 6 2 10 13 3 7 1 6v16l-2 4v-18l-3-12-7-10-6-4z" fill="#0C0344"/>
<path transform="translate(677,536)" d="m0 0 5 1 2 3-1 6-5 1-2-1-1-7z" fill="#F3F7FD"/>
<path transform="translate(645,688)" d="m0 0 2 1v2l-5 1v2l-9 3v2l-8 4h-3v2l-3 1-1-3 26-14z" fill="#1B127F"/>
<path transform="translate(1209,465)" d="m0 0h6l-2 4-2-1-5 5-6 5-2-7z" fill="#DAEAFD"/>
<path transform="translate(466,1055)" d="m0 0 2 3-10 9-4 5h-2l1-8 5-4 5-3h3z" fill="#DAE9FD"/>
<path transform="translate(791,865)" d="m0 0h1l-1 46h11v1h-12l-1-38-1-3z" fill="#F5A191"/>
<path transform="translate(1289,581)" d="m0 0 1 3-7 12-5 16h-2l1-8 3-9 6-10z" fill="#0B0536"/>
<path transform="translate(1345,461)" d="m0 0 5 1 1 1v7l-2 2-5-1-1-2v-6z" fill="#F6F9FD"/>
<path transform="translate(970,305)" d="m0 0 5 2 3 5 1 7-2 7-2-1-2 3 1-5v-9l-4-7z" fill="#160E6B"/>
<path transform="translate(1326,424)" d="m0 0 4 1 2 5-2 3h-6l-3-5v-2z" fill="#09073A"/>
<path transform="translate(914,304)" d="m0 0h5v2l-12 6-5 6h-2l-1 4v-6l6-7z" fill="#130B60"/>
<path transform="translate(796,368)" d="m0 0 2 4v9l-6 8-3 3h-5l5-5 4-5 1-4h2z" fill="#0F0850"/>
<path transform="translate(684,492)" d="m0 0h12l2 2v3l-4 1-2-1h-9v-4z" fill="#170F6A"/>
<path transform="translate(364,858)" d="m0 0h1l1 29h1v11l-2 4-2-4h2l-1-3z" fill="#85AEF9"/>
<path transform="translate(706,494)" d="m0 0h6l3 2v7l-1 2h-4l-4-9z" fill="#FE7A70"/>
<path transform="translate(1370,426)" d="m0 0 5 2v6l-3 2-4-1-2-5z" fill="#05032A"/>
<path transform="translate(1623,337)" d="m0 0 3 1-1 5 3-1 1-4 4 1-2 6-7 1-3-3v-5z" fill="#4D78E2"/>
<path transform="translate(1362,415)" d="m0 0h13l3 1-1 4-10-1h-6z" fill="#040327"/>
<path transform="translate(1102,1135)" d="m0 0 3 1-4 8-3 3h-6l2-4 5-6z" fill="#050429"/>
<path transform="translate(1626,296)" d="m0 0 3 1 1 4-2 3-1 31h-1v-33l1-2-5 1 1-3z" fill="#3F70DC"/>
<path transform="translate(638,506)" d="m0 0h6v2h-2v2l-7 2-4 3h-2l-1-4 6-4z" fill="#110C55"/>
<path transform="translate(1649,335)" d="m0 0 3 1 1 7-5 1-5-1-4-1-3-2 12-2z" fill="#8AA9F2"/>
<path transform="translate(868,383)" d="m0 0 4 1h11l5-1 2 2-6 3h-13l-3-3z" fill="#181173"/>
<path transform="translate(903,359)" d="m0 0 8 1 2 1 16 1v1l-9 1v1h-7l-10-3-2-2z" fill="#1D1882"/>
<path transform="translate(806,271)" d="m0 0 7 3 10 10-4 1-11-10-2-1z" fill="#0F0A4F"/>
<path transform="translate(741,726)" d="m0 0 4 4 3 5-1 7-3 1-2-8z" fill="#D2E3FD"/>
<path transform="translate(800,330)" d="m0 0h2l1 3 11 6-1 3-5-2-7-4h-4l1-4z" fill="#130D5E"/>
<path transform="translate(964,964)" d="m0 0 3 1 5 8v5h-3l-6-10z" fill="#D4E5FD"/>
<path transform="translate(1691,362)" d="m0 0 1 4-6 12-7 9-6 6-2-1 6-7h2l2-5 6-9z" fill="#779BF9"/>
<path transform="translate(964,342)" d="m0 0h2l-1 5-5 5v4l-7-1v-3h4l2-4z" fill="#0D0948"/>
<path transform="translate(1466,530)" d="m0 0 7 2 5 8 1 9-3-3-6-12z" fill="#DAEAFD"/>
<path transform="translate(862,387)" d="m0 0h3l-1 5-7 13h-2l-1 2v-5l6-10z" fill="#130E60"/>
<path transform="translate(1717,872)" d="m0 0 2 1v10l-2 4h-2l-1 5-1-4 3-14z" fill="#D2E4FD"/>
<path transform="translate(1725,566)" d="m0 0 5 1 10 9 8 10-1 4-6-9-3-3v-2l-3-1-5-5z" fill="#3345C7"/>
<path transform="translate(865,375)" d="m0 0h2l1 10 3 1-7 1-1 2v-6l-5-2v-2h3v2h4z" fill="#0C0845"/>
<path transform="translate(329,830)" d="m0 0 3 1 10 22v2h-2l-5-11-6-13z" fill="#6C94F3"/>
<path transform="translate(1720,852)" d="m0 0h2v13l-2 3-2-1v-8z" fill="#D4E6FD"/>
<path transform="translate(747,754)" d="m0 0 4 4 3 6v2h-7z" fill="#D9E9FD"/>
<path transform="translate(953,1039)" d="m0 0 3 6h-18l4-2 10-3z" fill="#D4E5FD"/>
<path transform="translate(829,322)" d="m0 0 10 1 4 1v2l-6 1-4-1-13-1v-1l9-1z" fill="#1B1A77"/>
<path transform="translate(771,266)" d="m0 0 4 1-3 1 2 2-10 4-4 2 1-5z" fill="#1D177F"/>
<path transform="translate(1323,411)" d="m0 0 1 2 9 1 1 5-10-2-1-1z" fill="#0B0541"/>
<path transform="translate(771,330)" d="m0 0h1v14l-4 2v-15z" fill="#1E1B81"/>
<path transform="translate(1309,727)" d="m0 0 5 5 17 9-4 1-15-8-3-3z" fill="#FB8777"/>
<path transform="translate(874,850)" d="m0 0h10l-2 4-10 1 1-4z" fill="#DBEBFE"/>
<path transform="translate(1748,588)" d="m0 0 3 4 4 10v5l-2-3-7-14h2z" fill="#3F75DF"/>
<path transform="translate(845,340)" d="m0 0 4 5 5 8-4 1-7-11 1-2z" fill="#120E5C"/>
<path transform="translate(1715,888)" d="m0 0 1 2v11l-3 3-1-1v-9z" fill="#D6E7FD"/>
<path transform="translate(1440,742)" d="m0 0 4 1-6 4-8 3h-6l2-2 13-5z" fill="#F88F80"/>
<path transform="translate(1688,373)" d="m0 0 1 3-2 6-1 2h-2v2l-6 2 6-9z" fill="#CCDFFD"/>
<path transform="translate(929,362)" d="m0 0h10l-6 3h-13l-6-1v-1z" fill="#0B0443"/>
<path transform="translate(1093,1148)" d="m0 0 21 1v2h-18z" fill="#0C0747"/>
<path transform="translate(1279,664)" d="m0 0 1 2-5 7-6 5-4-1 8-7 4-5z" fill="#487DE4"/>
<path transform="translate(1102,377)" d="m0 0h28l-1 3h-6l-1-1h-20z" fill="#7294F9"/>
<path transform="translate(1754,651)" d="m0 0h2v12l-1 3-3 1 1-11z" fill="#D1E3FD"/>
<path transform="translate(752,371)" d="m0 0h1v9h2l5 7v2l-4-1-4-5z" fill="#100B54"/>
<path transform="translate(1450,676)" d="m0 0h2l-2 6-4 10-4 5 1-6z" fill="#3A4FCE"/>
<path transform="translate(795,356)" d="m0 0h1l2 10v6h-1l-1 6h-1l-2-15h1z" fill="#232498"/>
<path transform="translate(753,284)" d="m0 0 1 3-1 11-4 1v-11l2-3 1 1z" fill="#221F90"/>
<path transform="translate(870,927)" d="m0 0 5 2 1 5-3 1-6-5v-2z" fill="#DAEAFD"/>
<path transform="translate(673,765)" d="m0 0 7 1 3 4v2l-8-1z" fill="#5983E9"/>
<path transform="translate(580,653)" d="m0 0 1 3h-2l1 9-2 2-2-1-1-6 3-5h2z" fill="#DBEBFE"/>
<path transform="translate(525,1037)" d="m0 0h1v9h-11l2-3h4v-2l3-1z" fill="#CEDEFD"/>
<path transform="translate(762,974)" d="m0 0 4 4 4 9v8l-2-3-3-10-3-5z" fill="#3E76DF"/>
<path transform="translate(754,364)" d="m0 0 1 2 2 1-2 4-1 9-3 1v-11z" fill="#1A1378"/>
<path transform="translate(1286,644)" d="m0 0 4 4v2h-3l-2 5h-2l1-7z" fill="#3B6AD9"/>
<path transform="translate(927,407)" d="m0 0 3 1v2l-7 4-6 3 2-4z" fill="#120E5B"/>
<path transform="translate(950,409)" d="m0 0h11l2 2-2 1h-15z" fill="#1A1277"/>
<path transform="translate(760,387)" d="m0 0 7 3 7 1v1h-5v2l-6-1-5-4h2z" fill="#1E1983"/>
<path transform="translate(1179,1088)" d="m0 0 3 3 3 14-4-3z" fill="#D2E0F9"/>
<path transform="translate(643,674)" d="m0 0 3 4 5 9v2l-5 1 1-4-5-10z" fill="#1A0E7E"/>
<path transform="translate(761,671)" d="m0 0 2 1-8 7-5 3-4-1 14-9z" fill="#5A85EC"/>
<path transform="translate(767,326)" d="m0 0 9 2v1h-5l-1 3-8-1 2-3h3z" fill="#0A043D"/>
<path transform="translate(1129,1071)" d="m0 0h2l3 8v3l-5 2z" fill="#DAEAFD"/>
<path transform="translate(546,971)" d="m0 0h2v3h2l-1 6-3 3-2-1 2-4z" fill="#DAEAFD"/>
<path transform="translate(364,764)" d="m0 0h3v15h-2z" fill="#779BF9"/>
<path transform="translate(711,590)" d="m0 0 6 1 4 4v2l-6-2-4-2z" fill="#D4E5FD"/>
<path transform="translate(998,427)" d="m0 0 3 1-6 8-6 5 1-4 5-6h2z" fill="#DBEBFE"/>
<path transform="translate(873,281)" d="m0 0h8l1 3h-16v-1z" fill="#0E064E"/>
<path transform="translate(981,387)" d="m0 0 1 3-5 8h-2l1-5 3-5z" fill="#0F0952"/>
<path transform="translate(851,353)" d="m0 0 4 1 3 4 1 6-5-5-3-4z" fill="#0E094D"/>
<path transform="translate(819,322)" d="m0 0h10l3 2-20 1 4-2z" fill="#080434"/>
<path transform="translate(841,289)" d="m0 0 4 1-4 3-10-1v-2z" fill="#160C6C"/>
<path transform="translate(399,913)" d="m0 0v3l-9 12-2-1 7-10z" fill="#759AF8"/>
<path transform="translate(1757,632)" d="m0 0 2 4v9l-2 1-2 3z" fill="#CBDFFD"/>
<path transform="translate(983,375)" d="m0 0h1v10l-2 3h-3l1-11h1l1 5z" fill="#212290"/>
<path transform="translate(1585,284)" d="m0 0v3l-7 7-5 3 2-4z" fill="#779BF9"/>
<path transform="translate(665,719)" d="m0 0 4 2 6 7 1 3-2 1-9-12z" fill="#5681EB"/>
<path transform="translate(590,688)" d="m0 0 3 1 6 11-2 2-7-12z" fill="#190E79"/>
<path transform="translate(581,696)" d="m0 0h1l1 16h-1l-2-8-3-1-1-5h3v4h2z" fill="#C6D9FD"/>
<path transform="translate(765,653)" d="m0 0h2l4 7v4h-3l-3-8z" fill="#5A86EC"/>
<path transform="translate(906,310)" d="m0 0 2 1-6 7h-2l-1 4v-6l4-5z" fill="#0D0649"/>
<path transform="translate(1144,1084)" d="m0 0h5l1 2-2 3-11-2v-1h7z" fill="#DAE3F9"/>
<path transform="translate(604,831)" d="m0 0 4 1 4 4h-7l-3-2z" fill="#D1E3FD"/>
<path transform="translate(1256,1041)" d="m0 0h1v14h-3v-10z" fill="#DBEBFE"/>
<path transform="translate(567,517)" d="m0 0 2 3 1 11-2 1-2-13z" fill="#DBEBFE"/>
<path transform="translate(796,368)" d="m0 0 2 4v9l-4 1v-4h2z" fill="#180D71"/>
<path transform="translate(1709,912)" d="m0 0 1 4-1 7v7h-3l2-15z" fill="#B5CDFC"/>
<path transform="translate(1086,397)" d="m0 0h9l4 2-13 1z" fill="#527FE9"/>
<path transform="translate(800,330)" d="m0 0h2l1 3 2 1v2h-8l1-4z" fill="#0A043D"/>
<path transform="translate(1583,1121)" d="m0 0h2l1 4-2 5h-3l1-7z" fill="#18097B"/>
<path transform="translate(539,977)" d="m0 0h2v6h-2l-1 3-2-3 1-4z" fill="#DBEBFE"/>
<path transform="translate(788,781)" d="m0 0 6 2 6 7-1 3-5-6-4-2z" fill="#441444"/>
<path transform="translate(794,347)" d="m0 0h1v17l-2-1-1-8h1z" fill="#170972"/>
<path transform="translate(1632,338)" d="m0 0 13 1v1l-6 1 1 2h-8z" fill="#C2D8FD"/>
<path transform="translate(969,334)" d="m0 0 3 3-5 7-2-4z" fill="#120C5C"/>
<path transform="translate(1609,284)" d="m0 0 4 1-15 6 2-4z" fill="#779BF9"/>
<path transform="translate(1636,268)" d="m0 0h6v4l-11-1 4-2z" fill="#DAEAFD"/>
<path transform="translate(725,903)" d="m0 0h1l1 7 11 1v1h-13l-1-3z" fill="#FFA38D"/>
<path transform="translate(803,833)" d="m0 0h2v6l-2 5h-2v-6z" fill="#AD344C"/>
<path transform="translate(1440,745)" d="m0 0h2v2l-6 3-8 1 4-3z" fill="#12035E"/>
<path transform="translate(870,340)" d="m0 0 5 2 3 3-1 2-5-2-2-2z" fill="#100C54"/>
<path transform="translate(763,317)" d="m0 0 4 5 2 5-3 1-4-7z" fill="#120C5E"/>
<path transform="translate(530,1024)" d="m0 0 7 1v1l-8 1-3 4h-2l1-4z" fill="#DBEBFE"/>
<path transform="translate(972,979)" d="m0 0 3 3 1 2v8l-3-4z" fill="#D7E7FD"/>
<path transform="translate(498,833)" d="m0 0m-4-1 1 2 3 1-9 2-2 1-1-3 6-2 1 1z" fill="#DBEBFE"/>
<path transform="translate(645,688)" d="m0 0 2 1v2l-5 1v2l-4 1-2-2z" fill="#1E1788"/>
<path transform="translate(670,518)" d="m0 0 6 1 2 3-1 5-2-1 1-4-5-2z" fill="#FE6C66"/>
<path transform="translate(583,466)" d="m0 0m-4 1 2 3-5 4h-2l2-5z" fill="#DAE9FD"/>
<path transform="translate(938,408)" d="m0 0 12 1 2 2h-10l-4-2z" fill="#0F0653"/>
<path transform="translate(794,343)" d="m0 0 1 4-1 10-2-2v-9z" fill="#12035F"/>
<path transform="translate(842,330)" d="m0 0h1v7h2v5l-3-1-1-9z" fill="#0C0645"/>
</svg>
