<?xml version="1.0" encoding="UTF-8"?>
<svg version="1.1" viewBox="0 0 1600 832" width="600" height="312" xmlns="http://www.w3.org/2000/svg">
<path transform="translate(0)" d="m0 0h1600v832h-1600z" fill="#FDF1E0"/>
<path transform="translate(0)" d="m0 0h1600v832h-1600zm865 90-69 5-36 4-30 5-23 6-13 5-10 5-14 10-11 11-6 12-4 20-4 22-3 9-6 8-8 5-15 5-10 2h-33l-34-5-36-7-118-27-49-9-34-5-19-2-19-1h-21l-24 2-24 5-19 7-16 10-15 15-7 10-8 16-6 21-3 21v29l3 32 5 26 8 29 8 24 5 12-6 1v2h-17l-26 3-4 2-3 8-2 20v19l2 33 5 43 7 41 5 22 6 20 6 9 9 4h4l-2 14-3 11-3 15-10 1 1 3 11 2 31 1 106 1 13 1h84l-4 21-2 16-1 18-10 1-1 4 7 1 1 1 18 2 50 2h130l130-2 56-3 26-2 8-2 1-2 34-2 24-2v-4h-6l1-7-5-5-10-5-10-4-7-6h-2l-1-3-6-5h-2v-2l-3-1-8 11-5 3h-8l-5-2-1-1h-8l-3 3-2 10-1 15-4 1-1-8v-18l5-3 7-3 14-8 8-5v-2l4-2 8-8-1-4-6-12-10-18-6-12-10-18-5-10-9-16-6-12-5-9 5-2 11-6 5-3 2-9 6-5 8-4 15-5 16 3h6l-5 10-8 4-9 3-7 3-2 3 1 6 4 12 9 16 8 11 8 7 10 4 9 2 4 1 18 3 20 1 14 1h20l6 1h15l-7 22-3 11-2 9h11l9-16 12-23 1-1h13l5 10 1 7-4 13-9 5-2 4v3h18l5 3h8l10-4v-2l-10-7-1-2h-2v-11l3-2 1 6 7 7 10 6 10 4 10 1 7-11 2-3 4-1 21-1 11-4 5-3 8-1-6-7-4-4-2-8 8 2 1-1h46l39-1 4-1-6 9-11 14-11 15-1 1h-68l-10 5-15 6-4 1h-20v-3h-19l-16 3-17 2v1l6 1h18l10-1 37 1 31-1 7-1v-4h53l-8 11-9 6-8 8-12 6-9 3-2 1 1 4 13 4h52l4 4h2l1 3h-42l-21-2-6-1h-11l1 4 17 2 27 2h13v4l16 2 35 2 62 1h133l37-1 7-1h24l25-1 34-3 4-3v-2l-45-1 17-9 12-9 10-11 8-13 5-14 3-14v-26l-4-24-8-37-6-20-7-17 1-5v-8l-6-8-4-3-2-11-4-8-3-7 4-4 8-35 3-19v-26l-2-9-7-13-20-26-5-10-3-11v-21l5-23 10-32 5-22v-23l-3-16-6-15-7-9-7-7-16-10-16-8-23-10-36-12-28-8-33-8-40-8-45-7-49-6-57-5-61-3-30-1z" fill="#FDFDFD"/>
<path transform="translate(1114,300)" d="m0 0h13l9 5 8 8 4 7 2 7 1 10 5 10 18 7 8 7 4 9v14l-4 2v-16l-5-10-8-5-10-4-1 1 12 6 6 5 3 6 1 4v12l-2 8h32l41 2 25 2 18 3 5 5 3 13 1 15v19l-3 44-6 48-5 25-1 2 9-6 9-4 11-8 11-12 6-10 6-5 2-1 2-7 4-2-2-10v-5h-13l-3-5-3-20-4-3v-7l2-5 6-1-1-6 3-1 1-6 12-13 10-5h13l8 4 1 11 4 7 3 2h6v-2l-4-1-5-5-2-3-1-7v-9l3-6 6-5 6-1 6 5 4 6 3 3-2 4 1 4 3 5v6l-5 5h-11l3 7v16l-4 6-3 3-3 7-6 5 1 4 6 4 4 9 9 12v2l3-2 8-16 9-10 12-6h13l10 5 7 9 3 9 1 7 7 6 3 5v8l-1 5 8 20 6 21 10 49 1 8v26l-4 18-5 12-8 12-11 12-15 10-12 6 45 1-1 3-3 2-34 3-25 1h-25l-6 1-37 1h-133l-62-1-35-2-16-2v-4h-13l-36-3-8-1-1-4h11l12 2 15 1h42l-1-3-4-2-2-2h-52l-13-4-1-4 6-3 9-3 8-4 10-10 8-5 7-10h-53v4l-7 1-34 1-34-1-10 1h-18l-6-1v-1l24-3 9-2h19v3h20l12-4 13-6 4-2h68l8-10 10-14 10-13 1-2-4 1-39 1h-46-4l-5-1 3 10 8 7 1 2-8 1-12 6-4 1-21 1-5 2-6 10-2 3-10-1-10-4-10-6-7-7-1-6-3 2v11h2l5 5 6 4-1 3-9 3h-8l-5-3h-18l1-4 1-3 9-5 4-13-2-9-4-8h-13l-8 14-8 16-6 10h-11l2-9 6-21 4-12h-15l-6-1h-20l-28-2h-7l-19-3-17-5-9-6-7-8-11-18-4-10-3-8 1-6 5-3 9-3 9-4 4-4 3-7-10-1-12-2-15 5-10 5-5 6-1 7-13 8-6 3h-2l10 18 6 12 8 14 7 14 9 16 6 12 9 16 3 6-1 4-9 9h-2v2l-25 15-7 3-2 1v18l1 8 4-1 2-22 3-5 1-1h8l2 2 4 1h8l6-4 7-10 3 1v2l4 2 5 4v2l4 2 9 6 15 6 5 4 1 6-1 3h6v4l-37 3-21 1-1 2-8 2-42 3-40 2-130 2h-130l-50-2-18-2-1-1-7-1 1-4 10-1 2-28 4-24 1-3h-84l-13-1-106-1-31-1-11-2-1-3 10-1 3-15 4-16 1-9-7-1-8-5-5-10-7-24-7-37-3-19-5-43-2-33v-19l2-20 3-8 4-2 26-3 38-2 51-1 7-9 12-9 21-10 12-7 7-5 3 1-8-15-2-8v-20l4-5 13-7 10-7 2-1h13l6 5v2l10-1 4 3 1 4v9l-3 9-6 10-2 18-4 13-5 5-4 1-3-1 2 3h8l9 6 8 8 4 11 11 42 6 9 1 3v11l-4 10-1 2 23 1-6-14-1-5 4-7h11l45 7 2-4 9-6 18-8 7-3 6-7 15 1 24 4 8 9 12 4 2 1 21-4h6l3 3 5-16 4-14 2-6 4 2 8 7 14 14 5 8v11l-3 15-1 6 7-6 4-1 9 2 7-1 1 2-7 8-3-1v-4l-8-1-8 7-11 11-7 8-2 3 8 26h2l4-4 9-11 3-4h2l2-5h2l1-4h2l1-4h10l6 4 5 8 2 5 2 10 2 1 2-4 3-1v-2l8-7 13-13 7-9 1-4-9-2-10-4-4-3-12-3-2-2v-3l2-1h6l29 9 13 6 13 5 13 6 16 7 12 6 11 5 6 2-1-2-1-9v-21l2-11 6-10 8-5 8-2h9l6 4h8l3-1 31 4 13 2h7l9-3 4-2 3 8 5-2 5-3 3-23 4-10 6-5 10-3 14 1 17 6 20 11 11 8 7 7 3 5-2-9-4-6-6-7 1-5v-10l-4-8v-21l-3-8-9-9-7-8-9-8 4-1 11 3 8 6 35-1 51-2h34l13-10 12-18 1-1 15-1 7-4h2l-2 4-8 6-5 2-1 7 1 25 1 2 8-11 7-8 11-8 7-4 1-2-5-2-6-7-3-7v-6l7-4 1-7-4-3-6 1-3-7-18-8-7-5-3 6-3-1v-9l4-5 10-6z" fill="#BEB47C"/>
<path transform="translate(565,443)" d="m0 0 4 2 8 7 14 14 5 8v11l-3 15-1 6 7-6 4-1 9 2 7-1 1 2-7 8-3-1v-4l-8-1-8 7-11 11-7 8-2 3 12 38 4 20v9l-3 17-6 20-2 7 7 1 10 7 9 11 5 4 5-1 1-3v-25l-3-11 1-4 25-5 32-9 13-5 10 1 11 6 6 8 5 11 5 18 3 18-9 4h-3l3 32 2 9 1 11v26l-2 2-25 2-26 1h-62l-33-1-16-1-2-2v-13l2-21 2-9v-3l-7 1-10 4-1 2h-7l2 28v12l-1 2-8 1-27 1h-86l-33-1-8-1-3-3v-11l3-23 3-12 27-1-27-3-3-3-5-1-1 5h-1v-10l3-9-9-2-11-1 2 7 1 3 5 2 3 3h-44l-1 6-8 1h-37l-1-1v-6h-57l5-12 10-21h-18l-1 7-6 23-1 3-61 1 1-5 11-26 3-6h38l1-7v-17l-4-31-5-25-6-20-5-12-6-8-9-6-13-5 3-3 31-3h17l10 4 12 11 4 6 5 13 1 5 1 59 2 11v-1l-1-76 7 2 4 6 5 20 6 36 3 24-7-1-8-3 14 5 2 4v16h13l-2-12 10-5 16-3 2 5 2 8 5-2 7-4h2v-9l-10-51-5-29v-4l19 2 20 4 9 4 5 5 4 8 3 17 2 18v35l-1 3 8-4 4-1 14-1 11-24 7-19v-11l-11-33-13-32-7-17-4-10-3-10 4-7h11l45 7 2-4 9-6 18-8 7-3 6-7 15 1 24 4 8 9 12 4 2 1 21-4h6l3 3 5-16 4-14z" fill="#F4B14E"/>
<path transform="translate(294,325)" d="m0 0h13l6 5v2l10-1 4 3 1 4v9l-3 9-6 10-2 18-4 13-5 5-4 1-3-1 2 3h8l9 6 8 8 4 11 11 42 6 9 1 3v11l-4 10-1 2 23 1 6 12 5 13 14 36 7 22v11l-7 19-11 24-1 1-14 1-12 4 1-8h-6v-1h6l-1-29-3-25-3-13-3-5v-2l-4-2-9-4-20-4-17-2-2-1 5 27 7 36 4 21v7l-4 4-9 5-3-1-3-12-16 3-8 4-1 1 1 11h-13l-1-16-1-3-14-5-3-3 18 6-2-10-6-39-4-19-3-12-4-6-6-2 1 16 1 60v3l-2-2-2-11-1-59-3-11-5-10-9-10-8-5-6-2h-17l-31 3-2 1 12 5 9 6 6 7 5 11 5 15 6 28 4 26 1 10v17l-2 7 2 1h-40l-15 36 15-1h46l2-10 4-16 2-7h18l-2 6-12 26 56 1 1 6h45l1-6 42-1-6-4-3-5v-5h11l9 3-2 9v7l3-3 6 3v2l15 1 18 2v1h-33l-4 26-1 9v11l2 2 8 1 33 1h86l35-1v-14l-1-15v-13h7l1-3 13-5 5 1-1 10-2 10-1 13v13l1 1 16 1 33 1h62l42-2 9-1 1-1v-26l-2-17-1-6-2-20v-9l12-4 4 30 2 23 1 7v18l1 8 4-1 2-22 3-5 1-1h8l2 2 4 1h8l6-4 7-10 3 1v2l4 2 5 4v2l4 2 9 6 15 6 5 4 1 6-1 3h6v4l-37 3-21 1-1 2-8 2-42 3-40 2-130 2h-130l-50-2-18-2-1-1-7-1 1-4 10-1 2-28 4-24 1-3h-84l-13-1-106-1-31-1-11-2-1-3 10-1 3-15 4-16 1-9-7-1-8-5-5-10-7-24-7-37-3-19-5-43-2-33v-19l2-20 3-8 4-2 26-3 38-2 51-1 7-9 12-9 21-10 12-7 7-5 3 1-8-15-2-8v-20l4-5 13-7 10-7z" fill="#A79F6F"/>
<path transform="translate(1432,493)" d="m0 0h13l10 5 7 9 3 9 1 7 7 6 3 5v8l-1 5 8 20 6 21 10 49 1 8v26l-4 18-5 12-8 12-11 12-15 10-12 6 45 1-1 3-3 2-34 3-25 1h-25l-6 1-37 1h-133l-62-1-35-2-16-2v-4h-13l-36-3-8-1-1-4h11l12 2 15 1h42l-1-3-4-2-2-2h-52l-13-4-1-4 6-3 9-3 8-4 10-10 8-5 7-10h-53v4l-7 1-34 1-34-1-10 1h-18l-6-1v-1l24-3 9-2h19v3h20l12-4 13-6 4-2h41l27 1-2 5 1 3 10 5 2-5 8-10 12-9 19-9 23-7 27-8 25-11 25-12 16-8 24-13 19-12 15-9 4-1v-2l9-5 5-2 1-3 2-1 2-7 6-5 2-3h2v-2l10-8 12-8 7-8 8-16 9-10z" fill="#F4B14E"/>
<path transform="translate(1178,393)" d="m0 0h32l41 2 25 2 18 3 5 5 3 13 1 15v19l-3 44-6 48-5 25-1 2 9-6 9-4 11-8 11-12 6-10 6-5 2-1 2-7 4-2-2-10v-5h-13l-3-5-3-20-4-3v-7l2-5 6-1-1-6 3-1 1-6 12-13 10-5h13l8 4 1 11 4 7 3 2h6v-2l-4-1-5-5-2-3-1-7v-9l3-6 6-5 6-1 6 5 4 6 3 3-2 4 1 4 3 5v6l-5 5h-11l3 7v16l-4 6-3 3-3 7-6 5 1 4 6 4 4 9 9 12 1 3-6 7-11 7-8 7h-2v2l-8 8h-2l-1 7-7 6-6 3-5 2v2l-11 6-19 12-16 9-18 10-16 8-29 14-19 8-27 8-23 7-19 9-9 7-5 4-7 10-1 2-4-1-6-4-2-5 8-10 13-18 10-13 1-2-4 1-39 1h-40v-1l38-1-1-3v-17l4-20 11-33 6-12 8-10 8-7 11-4 10-2 4-15 6-11 8-8 10-5 11-3 1-12-12-24-8-19-1-3v-38z" fill="#A79F6F"/>
<path transform="translate(1114,300)" d="m0 0h13l9 5 8 8 4 7 2 7 1 10 5 10 18 7 8 7 4 9v14l-4 2v-16l-5-10-8-5-10-4-1 1 12 6 6 5 3 6 1 4v12l-2 6v41l8 20 8 17 4 6 1 9-1 7-15 4-9 6-7 8-4 8-4 15-5 2-8 2-11 4-8 8-8 12-6 15-8 25-5 23 4 1h-4l1 13 1 4-45 1h-4l-6-2v-8l3-1 1-3-9-14-8-9-4-3h-3l-8 14-4-1 3-21 9-40 8-30 2-3h2l1 4 9-2 9-4 5-13 3-1v2l4 2 5 4 5-2 16-8 17-8-1-5-6-7-3-3 8-5 10-6 1-3-3-9-13-11-7-8-2-6v-14l-4-13-1-4h-3l3 10 3 11-2 4-16 9-21 13-15 7h-9l-25-6-25-8-5-3-1-8 6 1-1-13-2-5v-3l11 3 42 12 2-5 5-4 9-4 8-5 11-7 13-11 9-7 10-16 2-2 15-1 7-4h2l-2 4-8 6-5 2-1 7 1 25 1 2 8-11 7-8 11-8 7-4 1-2-5-2-6-7-3-7v-6l7-4 1-7-4-3-6 1-3-7-18-8-7-5-3 6-3-1v-9l4-5 10-6z" fill="#5B78B1"/>
<path transform="translate(932,387)" d="m0 0 9 1 7 3 7 5 35-1 51-2h30l3 2-14 11-11 6-14 8-3 5-7-1-42-12-4-2 3 8v13l-6-1 2 8 9 4 31 9 14 3h9l17-8 24-15 11-6 1-3-6-21 2-1 3 3 4 10 1 5v14l3 8 9 9 9 7 2 2 2 9-5 5-14 8 5 5 4 5 1 5-32 16-5 3-4-2-7-5v-2l-2 1-5 13-12 6h-7l-1-4-3 3-10 38-8 38-2 15 3 1 2-5 6-10 4 1 8 7 9 12 4 8h-2v2l-2 1-1 8 4 1h-3l3 10 8 7 1 2-8 1-12 6-4 1-21 1-5 2-6 10-2 3-10-1-10-4-10-6-7-7-1-7 2-2 9-2-2-9-1-4 9-3 6-1-2-8-4-9-13-29-9-25-12-36-2-5v-4l10 1h15l3-9 1-6v-21l1-2-4-11-4-5-4-4 1-5v-10l-4-8v-21l-3-8-9-9-7-8-9-8z" fill="#BDB37A"/>
<path transform="translate(1391,414)" d="m0 0 5 1 5 6 6 7-2 4 1 4 3 5v6l-5 5h-11l3 7v16l-4 6-3 3-3 7-6 5 1 4 6 4 4 9 9 12 1 3-6 7-11 7-8 7h-2v2l-8 8h-2l-1 7-7 6-6 3-5 2v2l-11 6-19 12-16 9-18 10-16 8-29 14-19 8-27 8-23 7-19 9-9 7-5 4-7 10-1 2-4-1-6-4-2-5 8-10 13-18 10-13 9-12 1-4-6-12-10-32-2-11 1-11 4-8 7-8 10-6 4-1h13l15 8 19 12 6 4v2l9-4 9-1 14 8 13 4h29l5-4 10-4 13-10 10-11 6-10 6-5 2-1 2-7 4-2-2-10v-5h-13l-3-5-3-20-4-3v-7l2-5 6-1-1-6 3-1 1-6 12-13 10-5h13l8 4 1 11 4 7 3 2h6v-2l-4-1-5-5-2-3-1-7v-9l3-6 6-5z" fill="#FB9385"/>
<path transform="translate(294,325)" d="m0 0h13l6 5v2l10-1 4 3 1 4v9l-3 9-6 10-2 18-4 13-5 5-4 1-3-1 2 3h8l9 6 8 8 4 11 11 42 6 9 1 3v11l-4 10-5 5h-12l-10-2-2-1h-27l-12 5-6 3-12 2-10-1-9-5-7-10-15-2h-6l-22 11-12 2-4 2 2-10 5-13 9-20 5-13 10-19 4-9h2l2-5 8-9 14-9 17-8 12-7 7-5 3 1-8-15-2-8v-20l4-5 13-7 10-7z" fill="#F04653"/>
<path transform="translate(636,497)" d="m0 0h6l29 9 13 6 13 5 13 6 16 7 12 6 11 5 4 1v2h2v2l-10 6-15 13-5 4-1 2 10 1 3 2-10 7-6 3h-2l10 18 6 12 8 14 7 14 9 16 6 12 9 16 3 6-1 4-9 9h-2v2l-25 15-7 3h-3l-2-18-5-42-5-25-5-15-6-11-9-6-8-3h-6l-16 6-33 9-21 4 2 9 1 5v25l-2 4-5 1-8-7-8-10-10-6-5-1 1-7 7-24 2-13v-9l-4-20-2-6v-5l5-5 9-11 3-4h2l2-5h2l1-4h2l1-4h10l6 4 5 8 2 5 2 10 2 1 2-4 3-1v-2l8-7 13-13 7-9 1-4-9-2-10-4-4-3-12-3-2-2v-3z" fill="#3D4043"/>
<path transform="translate(213,498)" d="m0 0 10 1 11 1 8 11 8 4 10 1 12-2 15-7 3-1h27l5 2 7 1h12l3-2 24 1 6 12 5 13 14 36 7 22v11l-7 19-11 24-1 1-14 1-12 4 1-8h-6v-1h6l-1-29-3-25-3-13-3-5v-2l-4-2-9-4-20-4-17-2-2-1 5 27 7 36 4 21v7l-4 4-9 5-3-1-3-12-16 3-8 4-1 1 1 11h-13l-1-16-1-3-14-5-3-3 18 6-2-10-6-39-4-19-3-12-4-6-7-3-6-13-3-5-7-7-6-4-10-2v-2h-19l-1-4 4-3 15-3 14-8z" fill="#5B78B1"/>
<path transform="translate(177,520)" d="m0 0h17l10 4 12 11 4 6 5 13 1 5 1 59 2 11v-1l-1-76 7 2 4 6 5 20 6 36 3 24-7-1-8-3 14 5 2 4v16h14l2 6-1 17-2 6 34-1 12-1-3-6-5-6-4-3-3-8v-4l55-1-1 4-2 5h-2l-1 4h14l8 2-1 5-22-2 2 7 1 3 5 2 3 3h-44l-1 6-8 1h-37l-1-1v-6h-57l5-12 10-21h-18l-1 7-6 23-1 3-61 1 1-5 11-26 3-6h38l1-7v-17l-4-31-5-25-6-20-5-12-6-8-9-6-13-5 3-3z" fill="#BDB37A"/>
<path transform="translate(1176,435)" d="m0 0h1l1 5v39l15 5 4 3 1 4-15 4-9 6-7 8-4 8-4 15-5 2-8 2-11 4-8 8-8 12-6 15-8 25-5 23 4 1h-4l1 13 1 4-45 1h-4l-6-2v-8l3-1 1-3-9-14-8-9-4-3h-3l-8 14-4-1 3-21 9-40 8-30 2-3h2l1 4 9-2 9-4 5-13 3-1v2l4 2 5 4 5-2 16-8 17-8 36-12 13-5 5-5 4-9z" fill="#3D4043"/>
<path transform="translate(903,449)" d="m0 0 14 1 17 6 20 11 11 8 7 7 2 3 1 5v18l-3 12-2 4h-15l-10-2 12 36 10 29 15 34 5 11v2l-29 1-12 2-5 3-7-15-10-21-1-5 3-22 2-18 1-43-3 13-7 35-5 17-3 5-1 4-4-1-10-9-18-11-10-5 1-8 9-42 2-17 1-16 3-18 5-8 6-4z" fill="#729BC7"/>
<path transform="translate(771,549)" d="m0 0 22 4-1 5-4 6-8 4-9 3-7 3-1 6 6 16 8 14 8 11 7 6 10 4 9 2 4 1 18 3 20 1 14 1h20l21 2-3 12-6 21-3 9h11l2-5 10-18 8-16 2-2h13l6 11 1 7-4 13-8 5h-2l-1 4-1 3h5l-2 2h-3v5h-6l-2-1-101-1-50-1-6-11-8-16-7-13-10-18-5-10-9-16-6-12-4-7v-2l16-9 4-2 2-9 7-6 8-4z" fill="#7B6A7B"/>
<path transform="translate(900,377)" d="m0 0 5 2 1 1v12l-2 16-7-4 7 6 4-28 3-1 15 6 9 2 13 13 7 8 4 5 2 6v21l4 8v10l-1 5 1 3 3 1 6 9 2 7-1 4-6-9-9-8-15-9-16-8-12-4-14-1-10 3-5 4-4 10-3 23-3 3-6 3-3-1-2-7-4 2-9 3-17-1-10-2-25-3-2 1h-8l-6-4-1-5 1-3h2l1-4 4-8v-16l-1-5 6 1 11 8 1 2 5 2 6 4 3 1-2-4-5-4 1-7 6-10 10-20 8-11 7-7 10-6 10-5 5 17 4 9 10-17 7-12z" fill="#FDFDFC"/>
<path transform="translate(697,672)" d="m0 0 4 1 9 18 6 14 2 17v26l-2 2-25 2-26 1h-62l-33-1-16-1-2-2v-13l2-21 2-2 12 3 3-10 8-21 3-6 1-1 31-2z" fill="#FDFDFD"/>
<path transform="translate(723,666)" d="m0 0h1l4 30 2 23 1 7v18l1 8 4-1 2-22 3-5 1-1h8l2 2 4 1h8l6-4 7-10 3 1v2l4 2 5 4v2l4 2 9 6 15 6 5 4 1 6-1 3h6v4l-37 3-21 1-1 2-8 2-42 3-40 2-130 2h-130l-50-2-18-2-1-1-7-1 1-4 10-1 2-28 4-24 2-11 2 2 3-3 6 3v2l15 1 18 2v1h-33l-4 26-1 9v11l2 2 8 1 33 1h86l35-1v-14l-1-15v-13h7l1-3 13-5 5 1-1 10-2 10-1 13v13l1 1 16 1 33 1h62l42-2 9-1 1-1v-26l-2-17-1-6-2-20v-9z" fill="#B7C2C8"/>
<path transform="translate(1163,537)" d="m0 0h13l15 8 19 12 6 4v2l-4-1-9-4 3 6 6 7-3 3h7l2 3-4 1-2 8h3l2-4 3-3 4 1-3 11h2l3-7 4 1 17 7 3 3 8 16 7 8 2 4-31 15-19 8-27 8-23 7-19 9-9 7-5 4-7 10-1 2-4-1-6-4-2-5 8-10 13-18 10-13 9-12 1-4-6-12-10-32-2-11 1-11 4-8 7-8 10-6z" fill="#684C4D"/>
<path transform="translate(945,522)" d="m0 0 19 2 22 6 16 6v-2l-9-3-1-2 42-1-1 7-10 40-6 31-1 9 3 1 2-5 6-10 4 1 8 7 9 12 4 8h-2v2l-2 1-1 8 4 1h-3l3 10 8 7 1 2-8 1-12 6-4 1-21 1-5 2-6 10-2 3-10-1-10-4-10-6-7-7-1-7 2-2 9-2-2-9-1-4 9-3 6-1-2-8-4-9-13-29-9-25-12-36-2-5z" fill="#BDB37A"/>
<path transform="translate(1178,393)" d="m0 0h32l41 2 25 2 14 2-6 9-4 11-5 52-4 13-4 5h-4v2l-12 2-21-1-22-2h-11l1-12-12-24-8-19-1-3v-38z" fill="#BDB37A"/>
<path transform="translate(411,702)" d="m0 0 26 1 70 4 22 1 2 4 2 26v12l-1 2-8 1-27 1h-86l-33-1-8-1-3-3v-11l3-23 3-12z" fill="#FDFDFC"/>
<path transform="translate(162,428)" d="m0 0h50v2h-2l-1 5-10 19-11 26-8 18-4 13-1 7-20 2h-21l-10-3-4-4-3-9-4-33-3-23-4-10-2-3v-3l20-2z" fill="#BEB37A"/>
<path transform="translate(684,604)" d="m0 0 10 1 11 6 6 8 5 11 5 18 3 18-9 4h-3l3 32-4-5-4-9-5-12-1-3-87 4-31 1 5-10 8-10 4 1 10 8 5-1 1-3v-25l-3-11 1-4 25-5 32-9z" fill="#DF9958"/>
<path transform="translate(777,483)" d="m0 0h9l6 4h8l3-1 31 4 13 2h7l9-3 4-2 3 8 5-2 6-2-1 16-3 16-3 6-2 7-10 4h-6l-1-2-7 1-2-7v-7l-21 6-12 5-15 9-6 5v3l-9-1-12-2-15 5-10 5-5 6-1 7-3 1-13-3 2-4 14-12 11-8 4-1v-2l-2-1h2l-1-2-1-9v-21l2-11 6-10 8-5z" fill="#BCB27A"/>
<path transform="translate(1186,493)" d="m0 0h36l31 3-1 2-16 4-11 6-6 7-7 16-5 16-1 6-5-1-21-12-4-2h-13l-8 3-9 7-5 7-3 10 1 13 7 24 4 12 6 12-1 4-7 9-6 2-39 1h-40v-1l38-1-1-3v-17l4-20 11-33 6-12 8-10 8-7 11-4 10-2 4-15 6-11 8-8z" fill="#BCB27A"/>
<path transform="translate(928,514)" d="m0 0 2 2-1 43-4 34-1 10 8 16 9 20 5-3 12-2h29v4l-14 4 2 6v7l-11 4-3 3v11h2l5 5 6 4-1 3-9 3h-8l-5-3h-18l1-4 1-3 9-5 4-13-2-9-4-8h-13l-8 14-8 16-6 10h-11l2-9 6-21 4-12h-15l-13-3-24-10-16-10-4-5v-3l10 2 9 4 23 12 12 5 9 5 4 1-1-9-8-3-17-4v-2l-6-1-17-9-9-7-6-1 3-4 20 2 12-6h2l3-9 1-5-10-8-2-3v-6l6 2 16 9 12 9 5 5 3 1 1-6 4-9 6-25z" fill="#674D4E"/>
<path transform="translate(771,549)" d="m0 0 22 4-1 5-4 6-8 4-9 3-7 3-1 6 6 16 8 14 8 11 7 6 10 4 9 2 1 5-3 8-10 35-21 2-6 1-6-10-6-12-7-13-10-18-5-10-9-16-6-12-4-7v-2l16-9 4-2 2-9 7-6 8-4z" fill="#FCF1E0"/>
<path transform="translate(307,405)" d="m0 0 6 1 8 6 7 7 4 11 11 42 6 9 1 3v11l-4 10-5 5h-12l-10-2-2-1-26-1 2-6v-11l-5 5-3 6-3-1-13-28 1-8 15-31 3-10-5-11-1-5 10 4 4 1 4-4z" fill="#EE966D"/>
<path transform="translate(294,555)" d="m0 0 19 2 20 4 9 4 5 5 4 8 3 17 2 18v35l-1-4-10 1-25 1-11 1v-8l-10-51-5-29z" fill="#BDB37A"/>
<path transform="translate(777,712)" d="m0 0 3 1v2l4 2 5 4v2l4 2 9 6 15 6 5 4 1 6-1 3h6v4l-37 3-21 1-1 2-8 2-42 3-40 2-130 2h-130l-50-2-8-1-1-3h14l29 1h71l50-1 14-1 3 2h100l7-1 51-1 24-2 7-1v-6l6-2 2-22 3-5 1-1h8l2 2 4 1h8l6-4z" fill="#674D4E"/>
<path transform="translate(610,527)" d="m0 0h10l6 4 5 8 2 5 2 10v3l-2 8-11 16-7 9-9 11-6 6 2 4 10 11 2 2 2 9 1 5v25l-2 4-5 1-8-7-8-10-10-6-5-1 1-7 7-24 2-13v-9l-4-20-2-6v-5l5-5 9-11 3-4h2l2-5h2l1-4h2z" fill="#674C4D"/>
<path transform="translate(1146,638)" d="m0 0 1 3-8 10-14 19-7 9-1 1h-68l-10 5-15 6-4 1h-13l-7-1v-3l-3-1h3l-1-3h3l2-4 6-10 5-2 21-1 11-4 5-3 7-1-9-8-2-5v-5h5 4 46l43-1z" fill="#FBF0E0"/>
<path transform="translate(485,369)" d="m0 0h8l6 4 1 4 9-2-1 5 6 1 5 6v7l-9 13-1 5 1 6-1 2-3-1-2-3h-3l-1 2-1 10-5 12-5 6-11 7-3 1h-9l-4-5-11-27-4-14v-11l3-5 5-4 5-1-2-4v-5h6l2 2 4-1 8-7z" fill="#733439"/>
<path transform="translate(857,307)" d="m0 0h14l10 6 5 10 2 9 4 4v7l-5 7v7l7 14 5 5-1 5-6 10-13 22-2 1-8-22-2-10h-12l-6-5-3-5-6-26-3-12v-12l4-7 9-6z" fill="#37292D"/>
<path transform="translate(294,325)" d="m0 0h13l6 5v2l10-1 4 3 1 4v9l-3 9-6 10-2 18-4 13-5 5-4 1-3-1 2 4-5 3-2 3-10-3-5-3-3-9-5-13-6-11-2-8v-20l4-5 13-7 10-7z" fill="#EC966D"/>
<path transform="translate(1027,601)" d="m0 0 4 1 8 7 9 12 4 8h-2v2l-2 1-1 8 4 1h-3l3 10 8 7 1 2-8 1-12 6-4 1-21 1-5 2-6 10-2 3-10-1-10-4-10-6-7-7-1-7 2-2 9-2-2-9-1-4 1-1h14l14 1 2-4 7-10 6-9z" fill="#F0886E"/>
<path transform="translate(224,660)" d="m0 0 44 1 2 6-1 17-2 6 34-1 12-1-3-6-5-6-4-3-3-8v-4l55-1-1 4-2 5h-2l-1 4h14l8 2-1 5-22-2 2 7 1 3 5 2 3 3h-44l-1 6-8 1h-37l-1-1v-6h-57l5-12z" fill="#FDF1E0"/>
<path transform="translate(1391,414)" d="m0 0 5 1 5 6 6 7-2 4 1 4 3 5v6l-5 5h-11l3 7v16l-4 6-3 3-3 7-8 6h-8l-5-3-6-10-4-8-1-8-2-2-5 1-2 3h-2l-1-7-4-6v-14l7-8 8-5 3-1h13l8 4 1 11 4 7 3 2h6v-2l-4-1-5-5-2-3-1-7v-9l3-6 6-5z" fill="#313438"/>
<path transform="translate(833,637)" d="m0 0 20 1 14 1h20l21 2-3 12-6 21-2 6h-85l2-6 12-25 6-11z" fill="#FDF1E0"/>
<path transform="translate(627,486)" d="m0 0h3l-1 12h5l2 4 12 3 6 4 17 6-1 5-9 11-17 17h-2v2l-5 5-3-1-3-12-5-10-6-4-10-1-1 4h-2l-1 4h-2l-2 5h-2l-2 4-10 12-5 5-2-2-8-27 8-8 7-8 12-12 4-1 7 2v4l3-1 3-4h2v-5l1-1 1-7z" fill="#EE986F"/>
<path transform="translate(367,694)" d="m0 0 6 3v2l15 1 18 2v1h-33l-4 26-1 9v11l2 2 8 1 33 1h86l35-1v-14l-1-15v-13l9-1-1 8-1 17-2 6-1 17-2 3h5v3l-14 1-50 1h-71l-29-1-14-1v2h-9l-1-1-7-1 1-4 10-1 2-28 4-24 2-11 2 2z" fill="#789EC5"/>
<path transform="translate(135,654)" d="m0 0 16 2-1 7-12 28-1 3 15-1h46l2-10 4-16 2-7h18l-2 6-12 26 56 1 1 6h45l1-6 42-1-6-4-3-5v-5h11l9 3-2 9-2 13h-85l-13-1-106-1-31-1-11-2-1-3 10-1 3-15 4-16z" fill="#7F6D7A"/>
<path transform="translate(643,561)" d="m0 0 17 1 16 3 13 7 10 7v3l8 2-2 4-11 8-10 5-7 1h-8l-12 5-7 1-11 5-5 1-10 3-8 3-1 2h5v1h-8l-3-4 9-15 15-26z" fill="#3D4043"/>
<path transform="translate(794,553)" d="m0 0 12 1h36l6 2 2 2-1 9-6 8-9 9-10 7-6 3h-3v2l-14 4h-3l-1 2-14-1-9-6-7-6-2-1-3-8 1-6 5-3 9-3 9-4 4-4z" fill="#17181C"/>
<path transform="translate(932,387)" d="m0 0 9 1 7 3 7 5 35-1 51-2h30l3 2-14 11-11 6-14 8-3 5-7-1-42-12-4-2 3 8v13l-9-2-12-5-4-11-9-9-7-8-9-8z" fill="#BDB37A"/>
<path transform="translate(1186,493)" d="m0 0h36l31 3-1 2-16 4-11 6-6 7-7 16-5 16-1 6-5-1-21-12-4-2h-13l-5 1 1-3 1-13 4-10 6-9 8-7z" fill="#BDB37A"/>
<path transform="translate(1114,300)" d="m0 0h13l9 5 8 8 4 7 2 7 1 10 5 10 18 7 8 7 4 9v14l-4 2v-16l-5-10-8-5-10-4-1 1 12 6 6 5 3 6 1 4v12l-2 6-1 2h-2l-6-8-14-8-14-6-7-8-3-7v-6l7-4 1-7-4-3-6 1-3-7-18-8-7-5-3 6-3-1v-9l4-5 10-6z" fill="#80262D"/>
<path transform="translate(290,641)" d="m0 0 2 1 3 12 5-2 11-6 9-1 35-1v7l2 1-2 5v5l9 3 9-1-3 9-1 2-22-2 1-4h2l1-5 1-3h-54l4 12 6 5 5 7v3l-12 2h-34l2-18-1-7-3-16 10-5z" fill="#BEB47C"/>
<path transform="translate(826,64)" d="m0 0h37l18 1 6 3-3 3-10 2-16 2h-59l-10 2-16 1-26 4-27 6-32 11-20 9-12 8-10 10-10 15-4-1-2-2 1-6 7-12 12-13 12-9 12-6 15-6 26-7 22-5 32-5 25-3 7-1h16z" fill="#FEF2E1"/>
<path transform="translate(1111,496)" d="m0 0h3v2l-16 7-17 10-6 7-13 22-12 20-17 29-3 7-4 4-7 12-4-1 3-21 9-40 8-30 2-3h2l1 4 9-2 9-4 5-13 3-1v2l4 2 5 4 5-2 16-8z" fill="#323338"/>
<path transform="translate(1101,316)" d="m0 0 11 7 14 6 3 4v4l6-2 5 4-1 7-6 4h-2l2 10 6 8 6 4-1 3-13 8-7 6-8 10-4 6-2 1-1-3-1-25 1-7 11-6 5-6-9 5h-14l-7-7-3-9 1-14 3-1-1-5z" fill="#E8926B"/>
<path transform="translate(684,604)" d="m0 0 10 1 11 6 6 8 5 11 5 18 3 18-12 5-4-1 1-1-1-10-4-19-5-13v-2l-4-1h-11l-18 4-25 8-18 7-5 3-5-19 1-4 25-5 32-9z" fill="#F4B14E"/>
<path transform="translate(1101,480)" d="m0 0 6 3 6 7 1 5-32 16-5 3-4-2-7-5v-2l-2 1-5 13-12 6h-7l-1-4h-2l-11-22v-5l2-3 18-6h9v2h4v-2l3-1 16-1h10z" fill="#F1886E"/>
<path transform="translate(750,385)" d="m0 0 4 1 5 17 3 5 5-1 4-5 7-1-1 9-2 8v7l8 11 9 8 2 4v16l-4 8-2 3-4-1-8-7-11-11-7-9-9-12-3-8-3-7-1-11 4-8 1-1 2-14z" fill="#A1512F"/>
<path transform="translate(565,443)" d="m0 0 4 2 8 7 14 14 5 8v11l-3 15-3 9-12 13-6 5-4-9-11-29-3-8 7-25z" fill="#303338"/>
<path transform="translate(152,657)" d="m0 0h11l44 2-3 12-5 19-1 3-61 1 1-5 11-26z" fill="#FDF1E0"/>
<path transform="translate(766,588)" d="m0 0 5 3 8 7 4 2 14 1 16 8 6 1v2h7l12 2 2 4 5 2 11 7 27 11v1l-6 1h-10l-28-2h-7l-19-3-17-5-9-6-7-8-11-18-3-6z" fill="#BCB179"/>
<path transform="translate(737,736)" d="m0 0h1v16h26l6 1h36l10-3h5l1-2v2h6v4l-37 3-21 1-1 2-8 2-42 3-40 2-130 2h-130l-50-2-8-1-1-3h14l29 1h71l50-1 14-1 3 2h100l7-1 51-1 24-2 7-1v-6l6-2z" fill="#7C6F83"/>
<path transform="translate(1122,544)" d="m0 0h3l-2 6-6 10 1 3-5 12-8 25-5 23 4 1h-4v11l-3 3-9 2-28-1 1-5 9-14 12-19 9-15 11-17 9-14 9-10z" fill="#684D4E"/>
<path transform="translate(1203,558)" d="m0 0 5 1 5 3h5l10-4h6l14 8 13 4 10 1-1 2-5 3-4 9-1 7v8l3 6 2 1h11l1-1-2-9 1-11 7-11 2 1-6 9-1 3v11l1 5 4 2 11 2-4 3-19 10-4 1-9-9-8-15-3-5-17-7-4-2-1 5-2 3-3-1 3-11-4 1-4 5h-3v-5l5-5-5-1-4-1 3-4-7-7z" fill="#EF976D"/>
<path transform="translate(294,325)" d="m0 0h13l6 5v2l10-1 4 3 1 4v9l-3 9-5 9h-3l1-13-10 4-20 1-4 8-3 1-3-2h-6l-1 1v7l4 7 1 1v5l-4-2-5-10-2-8v-20l4-5 13-7 10-7z" fill="#80262D"/>
<path transform="translate(463,461)" d="m0 0 15 1 24 4 8 9 10 3 1 3-19 4-38 6-10 1h-20l-12-2 1-5 9-6 18-8 7-3z" fill="#694E4D"/>
<path transform="translate(606,395)" d="m0 0h3l-1 7-10 14 5-3 9-10 5-2 1 5-4 14-4 9-10 8-6 4-3 9-2 11-3 1-15-15-6-4 6-22 9-20 4-2 1 2v13l6-3 10-11z" fill="#EE956D"/>
<path transform="translate(224,660)" d="m0 0 44 1 2 6-1 17-1 7-1 8h-1v-6h-57l5-12z" fill="#FDF1E0"/>
<path transform="translate(1337,444)" d="m0 0h1l1 13 4 6v7l6-5 4 1 2 2 1 8 9 17 5 3h9l1 5-5 1-10 6-11 4-2 2h-3l-3-8v-5h-13l-3-5-3-20-4-3v-7l2-5 6-1-1-6 3-1 1-6z" fill="#EE956D"/>
<path transform="translate(513,402)" d="m0 0 4 4 3 5v2l-2 1 1 9 2 5v22l-2 5-7 3-6 2-3 7-25-4-12-1-1-5 1-3 12-2 11-7 5-7 4-10 1-10 2-3 4 1 4 4-1-12z" fill="#ED956D"/>
<path transform="translate(1461,355)" d="m0 0h6l5 5 8 11 10 18 7 17 3 14v12l-4 22-8 26-4 8-2 2-7-1 1-8 7-22 5-21v-20l-4-13-6-14-8-14-10-17z" fill="#FEF2E1"/>
<path transform="translate(485,369)" d="m0 0h8l6 4 1 4 9-2-1 5 6 1 5 6v7l-9 13-1 5 1 6-1 2-3-1-2-5 3-8 4-14-2-2-14-2v-3l-1-3-5 1v3l3 3h-6l-2-1h-6l-6 4h-5-4l-6 1-2 4-2 3h-2l3 12v9l3 1 3 5v4h2l6 16v2h2v2l7-1 4-4h2v-2h3v-2h2v-2l5-5 1-2h2l-2 7-5 6-11 7-3 1h-9l-4-5-11-27-4-14v-11l3-5 5-4 5-1-2-4v-5h6l2 2 4-1 8-7z" fill="#7F292F"/>
<path transform="translate(958,634)" d="m0 0h29v4l-14 4 2 6v7l-11 4-3 3v11h2l5 5 6 4-1 3-9 3h-8l-5-3h-18l1-4 1-3 9-5 4-13-2-9-4-8-12-1v-1l11-1 5-4z" fill="#A05131"/>
<path transform="translate(794,553)" d="m0 0 12 1h36l5 1v1l-7 2-16 12-8 4-16 3-11 3-8 5-3 5-2 6-7-6-4-2-3-8 1-6 5-3 9-3 9-4 4-4z" fill="#674E4F"/>
<path transform="translate(857,315)" d="m0 0h14l1 5-2 4 1 8h2l1 4v14l-4 6-3 2-16 2h-6l-1 2-5-19-2-9v-12l2-3v3h9l8-5z" fill="#9E4F2E"/>
<path transform="translate(1155,629)" d="m0 0h2l7 16 7 13-1 2-16 7-12 7-8 7-7 10-1 2-4-1-6-4-2-5 8-10 13-18 10-13 9-12z" fill="#36292C"/>
<path transform="translate(602,503)" d="m0 0 8 1 1 5h3l-2 9-1 9-2 4h-2l-1 4h-2l-2 5h-2l-2 4-10 12-5 5-2-2-8-27 8-8 7-8 12-12z" fill="#FCFCFB"/>
<path transform="translate(1049,679)" d="m0 0h41l27 1-2 5-4 3-3 1h-51v4l-7 1-34 1-34-1-10 1h-18l-6-1v-1l24-3 9-2h19v3h20l12-4 13-6z" fill="#7B6A7B"/>
<path transform="translate(879,491)" d="m0 0h2l-1 16-3 16-3 6-2 7-10 4h-6l-1-2-7 1-2-7v-7l-21 6-6 1 2-2 15-5 10-1 3-10 4-7 16-10z" fill="#9D4E30"/>
<path transform="translate(1046,485)" d="m0 0h9v2l9-1v5l-7 1v8l8-4 3 1-3 8-5 12-4 4-9 4h-7l-1-4h-2l-11-22v-5l2-3z" fill="#F14854"/>
<path transform="translate(283,657)" d="m0 0h12l4 8 4 9 5 4 5 7v3l-12 2h-34l2-18 4-10 1-3z" fill="#A35430"/>
<path transform="translate(990,648)" d="m0 0h7v2l4 2 5 5 1 10 2 3-1 5-6 9-10-1-10-4-10-6-7-7-1-7 2-2 9-2 1-4 1 2 9-3z" fill="#F14855"/>
<path transform="translate(1149,615)" d="m0 0h2l5 11-1 4-7 9-6 2-39 1h-40v-1l38-1-1-3v-13l24-2 17-4z" fill="#BDB37B"/>
<path transform="translate(1100,701)" d="m0 0h2l3 7 5 6 7 1h3l4 11 2 4-5 2h-45l-13-4-1-4 6-3 9-3 8-4 10-10z" fill="#313337"/>
<path transform="translate(314,452)" d="m0 0h1l3 37 3 6 5 3h7l5-6 4-11v-6l4 1 4 8v11l-4 10-5 5h-12l-10-2-4-4-8-14-9-10 1-5h2l2-6 1-2h2l1-5 2-3h2l1-4z" fill="#EB4551"/>
<path transform="translate(844,429)" d="m0 0 6 1 8 13 6 15 4 21v9l-4 1-5 3-5 1-17-1-5-2 6-8 5-6 4-9 7-10v-8l-8-14-2-3z" fill="#FEF2E1"/>
<path transform="translate(929,642)" d="m0 0h13l6 11 1 7-4 13-10 6h-25l1-4 8-15 8-16z" fill="#FCF0DF"/>
<path transform="translate(717,586)" d="m0 0 4 1 5 10 10 18 5 10 10 18 3 6 10 19 9 17 4 7-1 4-9 9h-2v2l-25 15-7 3h-3l-1-6v-16l3 1v11l4 1 11-6 8-5h3v-2l9-7 2-4-1-5-6-10-2-5-3-3-10-20-8-15v-3h-2l-12-25-6-10-3-7z" fill="#35363A"/>
<path transform="translate(868,564)" d="m0 0 6 2 16 9 12 9 6 6-1 6-4 16-2 3h-6l-9-8-6-8-5-4 5-11v-3l-10-8-2-3z" fill="#A04F2E"/>
<path transform="translate(885,323)" d="m0 0h1l2 9 4 4v7l-5 7v7l7 14 5 5-1 5-6 10-13 22-2 1-8-22v-5l9-8 4-8v-19l-1-9v-10h2v-2h2z" fill="#A15030"/>
<path transform="translate(656,537)" d="m0 0 1 2-12 20h11l17 3 11 4 12 8 10 8-2 1-22-14-10-4-21-3-8-1-2 5-8 14-11 19-12 20h-2l-7-8-2-4 9-9 8-10 12-17 6-9 2-5z" fill="#16171B"/>
<path transform="translate(771,549)" d="m0 0 22 4-1 5-4 6-8 4-9 3-7 3-3 3h-8l-11-3-1-2v-8l7-6 8-4z" fill="#FCFCFB"/>
<path transform="translate(1391,414)" d="m0 0 5 1 5 6 6 7-2 4 1 4 3 5v6l-4 4h-17l-5-5-3-4-1-7v-9l3-6 6-5z" fill="#303236"/>
<path transform="translate(813,634)" d="m0 0 19 3-2 6-20 40-2 5h-11l2-12 3-9 7-23 3-9z" fill="#80262D"/>
<path transform="translate(1097,325)" d="m0 0 5 2 2 2 5 1v6l4 4v2l11-1 5-1 1 7-2 4-7 4-8 2-4 2v3l2 2h-9l-7-7-3-9 1-14 3-1-1-5z" fill="#ED856C"/>
<path transform="translate(932,387)" d="m0 0 9 1 7 3 11 8 18 10 4 5 1 4v13l-9-2-12-5-4-11-9-9-7-8-9-8z" fill="#F2896F"/>
<path transform="translate(537,762)" d="m0 0 4 2 15 1 45 1v1l-88 1h-126l-26-2-1-3h14l29 1h71l50-1z" fill="#664E53"/>
<path transform="translate(541,483)" d="m0 0h3l3 12 10 31 9 29 8 32 1 6v20l-2 2-1-22-6-26-9-31-14-44-1-6-35 8-29 5-21 2h-26l-29-3-19-3-16-3-1-2 11 1 30 4 17 2 24 1 29-2 45-8z" fill="#E09958"/>
<path transform="translate(346,678)" d="m0 0h11l9 3-2 9-2 13-59-1 2-2h7l1-7 42-1-6-4-3-5z" fill="#7D6C7B"/>
<path transform="translate(909,641)" d="m0 0h20l-2 5-15 29-5 8h-11l2-9 6-21 3-10z" fill="#33272B"/>
<path transform="translate(769,702)" d="m0 0 5 4 3 5-2 5-6 8-5 3h-8l-5-2-1-1h-8l-3 5-2 22-6 2-1-9v-18l6-4 7-3 14-8 6-4h2v-2z" fill="#F9EEDE"/>
<path transform="translate(964,654)" d="m0 0 3 1-1 3-5 4v11h2l5 5 6 4-1 3-9 3h-8l-5-3h-18l1-4 1-3 9-5 4-13 3-3z" fill="#695150"/>
<path transform="translate(340,563)" d="m0 0h24l-1 18-5 57-1 7-1-2h-6v-1h6l-1-29-3-25-3-13-3-5v-2l-4-2z" fill="#664D4F"/>
<path transform="translate(1271,571)" d="m0 0h11l3 2-8 13-1 11 2 10-2 1h-11l-5-5-1-3v-8l2-10 4-7z" fill="#FB9385"/>
<path transform="translate(135,654)" d="m0 0 16 2-1 7-12 28-3 6h-17l-2-2 9-1 3-15 4-16z" fill="#7C2930"/>
<path transform="translate(857,307)" d="m0 0h14l10 6 4 7v11l-8-2-1 16-2 2-1-15h-2l-2-4 1-6 1-7-9 1-5-1-1 3-8 5-9-1 1-5 5-5 7-4z" fill="#39272B"/>
<path transform="translate(928,514)" d="m0 0 2 2-1 43-4 34-2 8-3-4-5-13-2-1 3-11 6-27z" fill="#3D4043"/>
<path transform="translate(1055,736)" d="m0 0h11l12 2 15 1 45 1 9 6 19 3 17 2v1h-19l-35-2-16-2v-4h-13l-36-3-8-1z" fill="#7F7482"/>
<path transform="translate(1172,487)" d="m0 0 3 1 4 6-1 4-8 7-7 10-3 5-5-1-14 4-6 2-10 4-13 7-7 9-13 22-10 15-7 11-13 18-5 5 2-6 10-14 16-25 12-19 11-17 10-6 14-7 24-8 3-5 7-10 4-4h4z" fill="#313439"/>
<path transform="translate(206,660)" d="m0 0h18l-2 6-12 26-5 8h-9l4-17 4-16z" fill="#80282E"/>
<path transform="translate(1147,562)" d="m0 0 4 2 13 17 10 13 9 11 11 12 20 20 6 4 6-2 19-9 6-4-4-4 9 1 4-2 1-2 4 2v3l-29 14-19 8h-6l4-2-7-8-13-12-7-7-7-8-10-13-9-11-14-11-1-4 7 4-6-9z" fill="#2E262A"/>
<path transform="translate(707,585)" d="m0 0h2l-2 4-5 4-1 2 2 1-12 5-11 6-26 8-28 7h-11l1-3 8-3 10-3 9-3 11-4 5-1 10-4h10l9-3 12-7z" fill="#323539"/>
<path transform="translate(1178,435)" d="m0 0 2 3 9 21 7 13 3 6v6l-3 3-8-4-10-3-1-4v-40z" fill="#5C79B2"/>
<path transform="translate(673,532)" d="m0 0 10 3 24 10 19 7 7 2 8-4h2v-2l3-3-5-5-1-2 9 3 4 1v2h2v2l-10 6-15 13-5 4-1 2 10 1 3 2-10 7-10 5-5-1 1-4 7-8 1-3h2l-1-6 1-3 3-3h2v-3l-5-1-21-8-27-11z" fill="#33353A"/>
<path transform="translate(1127,367)" d="m0 0h5l3 1 3 5v5l-9 7-5 4-8 10-4 6-2 1-1-3v-19l5-5 6-8z" fill="#F0886E"/>
<path transform="translate(636,497)" d="m0 0h6l29 9 13 6 13 5 13 6 16 7 13 7-1 2-7-1-12-6-9-3v-2l-4-1-17-8-14-5-9-1h-2l-2 1-10-4-4-3-12-3-2-2v-3z" fill="#403B3D"/>
<path transform="translate(136,692)" d="m0 0 1 2 15-1h46l-1 8h-39l-31-1-11-2v-3l6 1 13 1z" fill="#7E7180"/>
<path transform="translate(836,610)" d="m0 0 10 2 9 4 23 12 12 5 9 5 1 2h-13l-17-6-15-7-12-7-7-7z" fill="#1C1C1F"/>
<path transform="translate(648,763)" d="m0 0h29v1l20 1v1l-18 1-130 2h-130v-1l94-1 43-1v-1l85-1z" fill="#8E8788"/>
<path transform="translate(644,512)" d="m0 0h7l15 4-1 4-9 10-14 14-7 6h-2v-6l9-14v-9l1-8z" fill="#FDFBF9"/>
<path transform="translate(984,621)" d="m0 0h31l-7 12-7 9h-14l-9-1 3-2 6-1-2-8-2-4z" fill="#BCB27A"/>
<path transform="translate(1283,575)" d="m0 0 2 1-6 9-1 3v11l1 5 4 2 11 2-4 3-19 10-4 1-9-9-8-15-1-5 10 1 2 9 4 4h11l1-1-2-9 1-11z" fill="#F1806B"/>
<path transform="translate(301,689)" d="m0 0h12v8l-1 2-8 1h-37v-9l1-1z" fill="#FEFCFB"/>
<path transform="translate(838,604)" d="m0 0h8l11 8 17 8 3 1v2l11 2 12 3 3 2v9l-5-1-17-8-32-16-13-4v-4z" fill="#F1F2F0"/>
<path transform="translate(295,416)" d="m0 0 1 4-3 15-5 16-10 13-7 8-2-1 1-8 15-31 3-10v-3z" fill="#FEFBF8"/>
<path transform="translate(1112,686)" d="m0 0h4v2l4 2 5 3-3 11-2 11-8 1-7-6-3-5v-5l8-11z" fill="#ED976D"/>
<path transform="translate(1048,652)" d="m0 0h5l7 7v1l-8 1-12 6-4 1-26 1 4-7 5-6 9 1h9l10-4z" fill="#E84751"/>
<path transform="translate(290,641)" d="m0 0 2 1 3 12 3 2-1 1-23 2-2 9-2 3-4-15-1-7 10-5z" fill="#EC986E"/>
<path transform="translate(1440,742)" d="m0 0h50l-1 3-3 2-34 3-25 1h-24v-1l30-5z" fill="#796D7E"/>
<path transform="translate(367,646)" d="m0 0h14l-3 10-4 10-1-2-9 2-7-3-3-3 1-6 3-5z" fill="#ED976D"/>
<path transform="translate(296,480)" d="m0 0 4 1 8 9 8 14 1 2h-26l2-6 1-16z" fill="#A99F6E"/>
<path transform="translate(756,545)" d="m0 0 8 1 6 2v2l-19 7-8 6-2 3-1 7-3 1-13-3 2-4 14-12 11-8z" fill="#EE966F"/>
<path transform="translate(637,503)" d="m0 0 8 1 6 3 9 4 11 4-1 5-9 11-17 17h-2v2l-5 5-3-1 1-5 16-15 11-11 4-7-7-1-8-2h-7l-2 1-4-9z" fill="#F14955"/>
<path transform="translate(194,520)" d="m0 0h8l6 3 10 9 3 3 5 11 2 5 1 17 1 60v3l-2-2-2-11-1-59-3-11-5-10-9-10-8-5-6-2z" fill="#A0966E"/>
<path transform="translate(1111,496)" d="m0 0h3v2l-16 7-17 10-6 7-13 22-12 20-17 29-5 5 2-6 10-17 15-26 8-13 7-12v-4l3-1-1-4-6-3-2-3 4-2 7 6 5-2 16-8z" fill="#1D1A1D"/>
<path transform="translate(788,681)" d="m0 0h10l-1 7h127l1 2h-101l-50-1-2-5 6-2z" fill="#96A8B7"/>
<path transform="translate(247,597)" d="m0 0 2 4 7 33 3 9 1 9 6-2 1 11h-13l-1-16-1-3-14-5-3-3 18 6-2-10-4-27z" fill="#664D50"/>
<path transform="translate(541,483)" d="m0 0h3l3 12 10 31 9 29 8 32 1 6v20l-2 2-1-22-6-26-9-31-14-44-1-6-12 3h-5l1-2z" fill="#DE9757"/>
<path transform="translate(877,329)" d="m0 0 5 1 1 3h-2l2 19v15l-2 2h-3l-1 2-1-12-4 1-2 4h-2l-1 2-2-8 5-3 5-10 1-14z" fill="#2F3338"/>
<path transform="translate(220,447)" d="m0 0h2l3 17 4 17 5 16v3h-11l-1-10-1-7-1-17z" fill="#7B282F"/>
<path transform="translate(981,688)" d="m0 0h19v3h20l6-1-1 2h31v1l-6 1-34 1-34-1-10 1h-18l-6-1v-1l24-3z" fill="#908E94"/>
<path transform="translate(1176,444)" d="m0 0h1v21l-4 5-1 2h-2l-1 9-8 3-19 5h-5v2l-20 6-2-1 1-2 36-12 10-4 5-5 4-9 3-17z" fill="#30353A"/>
<path transform="translate(565,443)" d="m0 0 4 2 8 7 14 14 5 8v11l-3 15-3 6-3-3 1-1 1-13 1-10-3-9-4-6-5-6-3-5-4-4-7 1z" fill="#352A2E"/>
<path transform="translate(747,717)" d="m0 0 3 1-1 4-7 2-3 5-2 22-6 2-1-9v-18l6-4 7-3z" fill="#FCFBF9"/>
<path transform="translate(601,499)" d="m0 0 11 2 7-1 1 2-7 8-3-1v-4l-8-1-8 7-11 11-7 8h-3l-1-3 13-13 7-8 7-6z" fill="#F25059"/>
<path transform="translate(1064,723)" d="m0 0 7 1-2 3 26 1h19l6-2 1-2h2l3 6-5 2h-45l-13-4-1-4z" fill="#372C30"/>
<path transform="translate(964,524)" d="m0 0h12l5 1h54l-1 3-5 1-36 1 9 4v2l-6-1-16-6-16-4z" fill="#A59C6E"/>
<path transform="translate(1123,359)" d="m0 0h2l-2 4-8 6-6 3-8 5-10 6-2-1 10-16 2-2 15-1z" fill="#822E30"/>
<path transform="translate(1158,523)" d="m0 0 1 3-1 7-12 3-11 4-5 5h-2l1-3-7 1-1-3 7-4 2-2 10-4 10-1 5-5z" fill="#33353A"/>
<path transform="translate(123,398)" d="m0 0 4 2 7 19-1 4h-8l-3-6-3-13v-5z" fill="#FEF2E1"/>
<path transform="translate(1106,538)" d="m0 0h2l-1 4-17 28-10 15-7 11-13 18-3 2 2-6 10-14 16-25 12-19z" fill="#302D32"/>
<path transform="translate(346,678)" d="m0 0h11l9 3-2 9-1 4-6-1-8-5-3-5z" fill="#222024"/>
<path transform="translate(932,476)" d="m0 0 2 1-1 4h2l-1 19 5 6 6 12-1 3-4-5-3-6v-3l-3-1v-2h-5l-1-1-1-13-1-10 4 1z" fill="#5A76AE"/>
<path transform="translate(538,709)" d="m0 0h2l-1 8-1 17-2 6-2 10h-1l-2-27v-13z" fill="#7BA0C8"/>
<path transform="translate(973,641)" d="m0 0h14l13 1-2 4-12 5-9 3-4-8-1-4z" fill="#FEF2E3"/>
<path transform="translate(354,660)" d="m0 0 1 2 9 3 9-1-3 9-1 2-22-2 1-4h2l1-5z" fill="#9E5434"/>
<path transform="translate(885,323)" d="m0 0h1l2 9 4 4v7l-5 7-3 16h-1l-2-23v-10h2v-2h2z" fill="#984A30"/>
<path transform="translate(921,642)" d="m0 0h7l-2 6-14 27-5 7h-9l1-7 2-1v6l5-2 7-15 7-14z" fill="#1C1B1F"/>
<path transform="translate(1261,619)" d="m0 0 4 2v3l-29 14-19 8h-6l4-2-3-5 4 2 2-1 4 1 19-9 10-6-4-4 9 1 4-2z" fill="#463838"/>
<path transform="translate(1055,736)" d="m0 0h11l12 2 23 2 4 2h10v2h-15l-36-3-8-1z" fill="#7A86A3"/>
<path transform="translate(1392,457)" d="m0 0 4 2v16l-4 6-3 3-3 7-5 4-3-1 2-4h2l3-9 5-7 1-9v-7z" fill="#32292E"/>
<path transform="translate(692,517)" d="m0 0 10 2 8 4 16 7 13 7-1 2-7-1-12-6-9-3v-2l-4-1-14-7z" fill="#3A393C"/>
<path transform="translate(703,672)" d="m0 0h9l3 30-4-5-4-9-5-12z" fill="#3B393C"/>
<path transform="translate(721,572)" d="m0 0h13l3 2-10 7-10 5-5-1 1-4z" fill="#1B1A1D"/>
<path transform="translate(1311,558)" d="m0 0 2 1-4 4-3 13-3 1-2 4v-3l-1-4-10-1 1-4 6-4 9-4z" fill="#F2816C"/>
<path transform="translate(292,641)" d="m0 0h9l9 2-1 5-12 7-3-1-2-8z" fill="#201E21"/>
<path transform="translate(857,307)" d="m0 0h14l10 6 4 7v10h-1l-2-9-5-6-6-4v-2l-13 1-12 6-5 5-2 1 1-5 5-5 7-4z" fill="#1F1E22"/>
<path transform="translate(304,699)" d="m0 0h8v1l-7 1 52 1v1h-80l-13-1 4-2z" fill="#8AA8C4"/>
<path transform="translate(278,392)" d="m0 0 4 2v2l4 2 16 6v3l-4 2-2 3-5-2-9-8-4-8z" fill="#332022"/>
<path transform="translate(707,585)" d="m0 0h2l-2 4-5 4-1 2 2 1-12 5-11 6-12 4h-5l3-3 24-11 14-9z" fill="#1B1A1E"/>
<path transform="translate(748,549)" d="m0 0h3l-1 4h-2v2h-2l-2 4-8 7-3 6-9-1 2-4 14-12z" fill="#DF995B"/>
<path transform="translate(671,572)" d="m0 0h8l-4 5-20 7-9 4-18 4h-2l2-4v2l42-15z" fill="#2F3338"/>
<path transform="translate(723,760)" d="m0 0h5l3 4-12 1h-55v-1l50-3z" fill="#736270"/>
<path transform="translate(719,688)" d="m0 0 4 1 3 20v12l-4-1-3-17z" fill="#FEFCF9"/>
<path transform="translate(909,641)" d="m0 0 6 1-5 7-4 15-1 1-1 7-4 3-2 7h9v1h-11l2-9 6-21 3-10z" fill="#2D2929"/>
<path transform="translate(691,603)" d="m0 0h8l6 2v2l4 2 4 5 3 8 3 13-3-2-5-12-6-9-14-8z" fill="#36373B"/>
<path transform="translate(671,515)" d="m0 0h2l-1 5-3 9-1 2-5 3-8 10v-3-2l-19 19-2 4v-5l6-7h2v-2l8-7 13-13 7-9z" fill="#383237"/>
<path transform="translate(360,763)" d="m0 0h14l29 1v1l-6 1 20 1v1h-30l-26-2z" fill="#746A6F"/>
<path transform="translate(194,520)" d="m0 0h8l6 3 10 9 3 3 5 11v7l-3-3-6-12-9-10-8-5-6-2z" fill="#E3A356"/>
<path transform="translate(648,763)" d="m0 0h29v1l20 1v1l-18 1h-38l1-3z" fill="#838798"/>
<path transform="translate(336,641)" d="m0 0h20v7l-1-4-10 1-25 1-11 1 1-3 2-1z" fill="#A69E6F"/>
<path transform="translate(1452,323)" d="m0 0 5 1 3 10v7l-4 1-4-2-2-9v-6z" fill="#FEF2E1"/>
<path transform="translate(1162,478)" d="m0 0h2l-1 3-9 5-12 3h-5v2l-20 6-2-1 1-2 36-12z" fill="#212226"/>
<path transform="translate(868,564)" d="m0 0 6 2 9 5-1 9-2 1-10-8-2-3z" fill="#1A1A1E"/>
<path transform="translate(1062,540)" d="m0 0 1 2-13 22-17 29-5 5 2-6 10-17 15-26z" fill="#15171B"/>
<path transform="translate(1154,348)" d="m0 0 7 1 13 5 8 7 4 9v14l-4 2v-16l-5-10-8-5-10-4-5-1z" fill="#8B3934"/>
<path transform="translate(1147,562)" d="m0 0 4 2 13 17 5 7h-2l-1 2-5-6-13-10-1-4 7 4-6-9z" fill="#342A2E"/>
<path transform="translate(568,448)" d="m0 0 3 1-4 4-1 7-3 9-3 8h-2v2h-2l1-8 4-15 2-7z" fill="#372D30"/>
<path transform="translate(689,583)" d="m0 0h11l3 3 3 1-6 5-2-1-4 1-4-2-8-1 2-4z" fill="#2F3338"/>
<path transform="translate(564,552)" d="m0 0 2 3 8 32 1 6v20l-2 2-1-22-6-26-3-11z" fill="#D58C50"/>
<path transform="translate(1019,651)" d="m0 0 5 1-2 4-3 1-8 11-1 3-3-2v-8l5-6z" fill="#F09470"/>
<path transform="translate(1139,744)" d="m0 0 20 4 24 3v1h-19l-35-2v-1l14-1z" fill="#818CA1"/>
<path transform="translate(282,406)" d="m0 0 10 4 4 1 3-1 2 4-2 3-6 1-5 1-1 2-5-13z" fill="#EF926D"/>
<path transform="translate(1440,742)" d="m0 0h2v2l2 1-9 4-8 2h-24v-1l30-5z" fill="#6478A6"/>
<path transform="translate(1033,603)" d="m0 0 7 1 9 9 3 6v5l-4-1-7-10-8-9z" fill="#33363A"/>
<path transform="translate(1369,498)" d="m0 0h10l1 3-5 1-10 6-11 4-2 2h-3l-1-6 4 2 6-3 10-7z" fill="#F2886F"/>
<path transform="translate(464,469)" d="m0 0 30 2h12l2 2v3l-7-1-28-2-9-2z" fill="#352A2E"/>
<path transform="translate(1144,615)" d="m0 0 3 1-9 4-14 3-9 1h-11l-4-1 1-3v2l29-4z" fill="#9F9670"/>
<path transform="translate(969,414)" d="m0 0 5 3v4l-1 2 2 2 4-1 2 1-1-11 2 4v13l-9-2-11-4v-1h7l1-4z" fill="#EB996C"/>
<path transform="translate(627,486)" d="m0 0h3l-1 9-2 5-3 3-4-1v-4l1-7z" fill="#5E7CB3"/>
<path transform="translate(838,319)" d="m0 0 1 3 7 1-3 2-4-1 2 12 2 1 1 8 1 5v8h-2l-4-15-2-9v-12z" fill="#802C2F"/>
<path transform="translate(1387,510)" d="m0 0h2l6 8 4 5v2l-5-2-2-5-3-4h-9l-10 2h-7v2l-7 1 4-3 5-1v-2l7-2z" fill="#F27F6C"/>
<path transform="translate(247,597)" d="m0 0 2 4 7 33v6l-2 1-2-3-5-35z" fill="#543C3A"/>
<path transform="translate(291,672)" d="m0 0h10l7 6 3 4-1 3-6-7-7-2-14 2h-6l3-3z" fill="#72363B"/>
<path transform="translate(350,673)" d="m0 0h11l8 2-1 5-11-1-7-1-1-4z" fill="#FEFBF8"/>
<path transform="translate(565,443)" d="m0 0 4 2 8 7 14 14 5 8v3l-3-1-2-3v-4h-2l-6-8-12-12-7 1z" fill="#232024"/>
<path transform="translate(969,634)" d="m0 0h18v4l-9 3h-6l-3-5z" fill="#1C1C20"/>
<path transform="translate(1378,428)" d="m0 0h1l2 14 3 4v2l4 2 3 1v2l-6 1-5-4-3-6v-11z" fill="#EF886B"/>
<path transform="translate(1050,629)" d="m0 0h3l4 8 1 4-4 2-7-3v-8l3-1z" fill="#221E20"/>
<path transform="translate(984,621)" d="m0 0h31l-4 4-28-1z" fill="#A0966B"/>
<path transform="translate(1337,444)" d="m0 0h1l1 13 1 4-2 1-8-4 1-5h2l1-6z" fill="#C2804C"/>
<path transform="translate(1024,690)" d="m0 0 2 1-1 1h31v1l-6 1-34 1-24-1v-1l28-2z" fill="#A1A492"/>
<path transform="translate(274,455)" d="m0 0 4 2 2 5-9 10-2-1 1-8z" fill="#FEF2E1"/>
<path transform="translate(225,470)" d="m0 0 2 3 2 15 1 8-4-1-3-8-1-14 2 3 1 3z" fill="#743338"/>
<path transform="translate(972,690)" d="m0 0 2 1-1 1h16v1l-17 2h-18l-6-1v-1z" fill="#A9AD99"/>
<path transform="translate(724,668)" d="m0 0 3 1 1 18h2v16l-2 4-4-34z" fill="#3F3E45"/>
<path transform="translate(789,682)" d="m0 0h9l-1 6h-15l1-2-4-3z" fill="#776479"/>
<path transform="translate(296,423)" d="m0 0h1v16l-6 9h-2l1-6 5-17z" fill="#E44C52"/>
<path transform="translate(1089,400)" d="m0 0 3 1 5 12 1 5v9h-1v-7h-2l-1 2-6-21z" fill="#A79F6F"/>
<path transform="translate(821,748)" d="m0 0 1 2h6v4l-11 1h-11l2-3 8-2h5z" fill="#767087"/>
<path transform="translate(1261,619)" d="m0 0 4 2v3l-14 7-4-1 5-2-5-6 9 1 4-2z" fill="#50312F"/>
<path transform="translate(1113,495)" d="m0 0 3 1v3l-5 3-15 7-7 3-3-1 14-8 12-5h2z" fill="#2F3338"/>
<path transform="translate(494,433)" d="m0 0h2l-2 7-5 6-9 6-2-1 2-4 3-1v-2h3v-2h2v-2l5-5z" fill="#83282C"/>
<path transform="translate(1201,489)" d="m0 0 16 1-1 3h-27l4-2z" fill="#A1976C"/>
<path transform="translate(1356,429)" d="m0 0h13l-4 4-7 1-5 3h-5l-1-2 4-4z" fill="#3B3336"/>
<path transform="translate(543,718)" d="m0 0 3 1-1 18-4 1v-14z" fill="#FEFBF8"/>
<path transform="translate(1074,588)" d="m0 0h3l-2 5-13 18-5 5 2-6 10-14z" fill="#2F3338"/>
<path transform="translate(1099,635)" d="m0 0 2 2 1 4h-33v-2h19l11-2z" fill="#34292D"/>
<path transform="translate(1182,482)" d="m0 0 9 1 6 4 1 4h-11l1-6-6-2z" fill="#33363A"/>
<path transform="translate(1111,496)" d="m0 0h3v2l-16 7-12 7-2-1 4-4z" fill="#302122"/>
<path transform="translate(1057,491)" d="m0 0h10l-2 6-5 3h-3l-1-8z" fill="#DBA36A"/>
<path transform="translate(1167,588)" d="m0 0 4 2 11 14 3 4-4 1-10-13-4-5z" fill="#30272B"/>
<path transform="translate(194,520)" d="m0 0h8l6 3 10 9 3 4-5-2-6-6-5-2-8-4z" fill="#C78956"/>
<path transform="translate(115,382)" d="m0 0h5l2 2 1 6-3 3-4-1-2-5z" fill="#FEF2E1"/>
<path transform="translate(1404,436)" d="m0 0 4 2 1 9-4 4h-14v-1l9-2 4-2 1-5z" fill="#1E1C20"/>
<path transform="translate(850,606)" d="m0 0 6 2 15 9 9 4-3 1-12-5-11-6-4-3z" fill="#4F403D"/>
<path transform="translate(750,385)" d="m0 0 4 1 2 6v5l-2-1-5 2v-12z" fill="#8A3231"/>
<path transform="translate(802,486)" d="m0 0 2 2-6 7-7 14-1 12h-2v-9l3-10 9-15z" fill="#A79F6F"/>
<path transform="translate(1203,558)" d="m0 0 5 1 6 4-2 6-4-2-5-6z" fill="#E3995B"/>
<path transform="translate(1113,492)" d="m0 0 1 3-16 8-13 7-3-1 12-7 11-6 2-2h6z" fill="#F29674"/>
<path transform="translate(880,372)" d="m0 0 1 3-4 6-7 6h-2v-5l9-7z" fill="#18181C"/>
<path transform="translate(1083,739)" d="m0 0h10l12 2v1h10v2h-15l-10-1-2-2-5-1z" fill="#8CA9C5"/>
<path transform="translate(175,517)" d="m0 0 20 1v2l-22 1-8-1 1-2z" fill="#9A8C6A"/>
<path transform="translate(1123,359)" d="m0 0h2l-2 4-8 6h-5l-2-4 8-2z" fill="#3D2727"/>
<path transform="translate(1019,604)" d="m0 0h5l-1 5-4 7-4-1 1-6z" fill="#262123"/>
<path transform="translate(1030,495)" d="m0 0 4 2 6 13v3l-3-1-5-9-2-3z" fill="#FCF8F2"/>
<path transform="translate(658,533)" d="m0 0 2 1-24 24-2 4v-5l6-7h2v-2l8-7z" fill="#3E1F24"/>
<path transform="translate(1156,350)" d="m0 0 6 1 14 7 1 2h-2l-1 2-9-6-8-4z" fill="#F8D7C2"/>
<path transform="translate(1311,558)" d="m0 0 2 1-8 7-9 4-2 2-3-1 4-5 10-4z" fill="#F3535B"/>
<path transform="translate(1126,541)" d="m0 0 4 1-2 5-7 10-3 4-2-1 7-11 2-5-2-1z" fill="#433F42"/>
<path transform="translate(928,509)" d="m0 0h2v7l-2 3-6 31h-1l1-11 5-28z" fill="#5B78B2"/>
<path transform="translate(855,363)" d="m0 0h7l1 1v6l-5 1-4-4z" fill="#EAE1CE"/>
<path transform="translate(819,612)" d="m0 0h7l12 2 2 3h-2l-1 2-15-4v-2z" fill="#9B8F69"/>
<path transform="translate(737,423)" d="m0 0h2l2 5 2 8 3 4v2l-4-1-4-8-1-3z" fill="#677791"/>
<path transform="translate(564,552)" d="m0 0 2 3 5 19v5h-2l-6-23z" fill="#D1884E"/>
<path transform="translate(1331,459)" d="m0 0 5 1 2 1v2l4 1v2l-6-1h-6v-2l-5 1v-3l6-1z" fill="#F16660"/>
<path transform="translate(1357,430)" d="m0 0h15l5 3v5l-2 1-1-3-7-2v-3h-10z" fill="#2E2528"/>
<path transform="translate(1324,462)" d="m0 0 6 1-1 9-6 1v-7z" fill="#FABAA8"/>
<path transform="translate(1064,723)" d="m0 0 7 1-2 3 7 2 4 2h-8l-10-4v-3z" fill="#212125"/>
<path transform="translate(1041,646)" d="m0 0 5 3v5l-2 1-7-2v-3h2z" fill="#EF966E"/>
<path transform="translate(834,554)" d="m0 0h8l5 1v1l-7 2-11 8-2-1 3-1 2-4 4-4z" fill="#695054"/>
<path transform="translate(1329,539)" d="m0 0 2 1-6 8-10 11-3-1 5-5 11-12z" fill="#F48A74"/>
<path transform="translate(754,439)" d="m0 0 4 4 5 6v2h2l8 10 4 4-1 2-11-11-7-9-4-5z" fill="#89332F"/>
<path transform="translate(1346,434)" d="m0 0 2 1-1 4-6 7h-1l-1 7h-1v-10l7-8z" fill="#33252A"/>
<path transform="translate(1348,531)" d="m0 0 4 2 7 8 5 14-1 3-5-12-5-9z" fill="#F2886F"/>
<path transform="translate(1144,615)" d="m0 0 3 1-9 4-11 2v-3z" fill="#94876B"/>
<path transform="translate(597,609)" d="m0 0 1 2h-2l-2 4-7 9-2 2 1-9z" fill="#2C2326"/>
<path transform="translate(982,689)" d="m0 0 11 1 1 2-22 1 3-3z" fill="#705B66"/>
<path transform="translate(266,464)" d="m0 0h3v8l-7 4-3 3-1 5-4-2 5-7 7-5z" fill="#82252C"/>
<path transform="translate(1212,639)" d="m0 0 4 2 2-1 4 1 6-2 1 2-12 5h-6l4-2z" fill="#433233"/>
<path transform="translate(1203,627)" d="m0 0 14 12-1 3-8-6-5-4z" fill="#2A2327"/>
<path transform="translate(758,546)" d="m0 0 9 1 3 1v2l-9 3-3-1 2-2z" fill="#EE8B6C"/>
<path transform="translate(1175,360)" d="m0 0h3l4 7v8h-2l-4-10z" fill="#FCF9F4"/>
<path transform="translate(1378,428)" d="m0 0h1l2 14 1 3-3 3-2-4v-11z" fill="#C88859"/>
<path transform="translate(777,712)" d="m0 0 3 1v2l4 2 5 4v2l4 2 2 3-5-2-9-9h-6z" fill="#4E3C3B"/>
<path transform="translate(115,695)" d="m0 0 17 3 14 1v1h-19l-11-2z" fill="#869DB5"/>
<path transform="translate(222,459)" d="m0 0h1v5h2l1 16-2-1-2-6z" fill="#3D272B"/>
<path transform="translate(1109,393)" d="m0 0 2 3 4 1 1 2-4 6-2 1-1-3z" fill="#E2986E"/>
<path transform="translate(343,760)" d="m0 0h12l2 4-14-1z" fill="#564B4F"/>
<path transform="translate(1063,497)" d="m0 0 2 2-3 7h-4l-1-6z" fill="#4B2A2C"/>
<path transform="translate(439,476)" d="m0 0 3 1-13 7-6 5-1-3 8-6z" fill="#473638"/>
<path transform="translate(1185,370)" d="m0 0h1v14l-4 2 1-15z" fill="#A75B3E"/>
<path transform="translate(838,319)" d="m0 0 1 3 7 1-3 2-4-1 1 12h-2l-1-2v-12z" fill="#7E3534"/>
<path transform="translate(374,699)" d="m0 0 26 2v1h-26z" fill="#4F474B"/>
<path transform="translate(264,650)" d="m0 0h2l1 10h-6v-7z" fill="#312426"/>
<path transform="translate(854,602)" d="m0 0h10v3l5 2-1 3-14-7z" fill="#342B2E"/>
<path transform="translate(1027,601)" d="m0 0 4 1 3 3-6 1-4 4-1 3h-2v2l-2-1z" fill="#EA966D"/>
<path transform="translate(304,699)" d="m0 0h8v1l-9 2-16 1v-3z" fill="#97968E"/>
<path transform="translate(953,692)" d="m0 0h11v1l8 1v1h-18l-6-1v-1z" fill="#BBC5C9"/>
<path transform="translate(252,626)" d="m0 0h2l2 8v6l-2 1-2-3z" fill="#3A2B2F"/>
<path transform="translate(1216,577)" d="m0 0 4 1-2 4-3 4h-3v-5z" fill="#E59E56"/>
<path transform="translate(1364,559)" d="m0 0 2 1-1 4 7-4 4 1-15 8-2-1 3-2z" fill="#DD9357"/>
<path transform="translate(1202,554)" d="m0 0 5 1 9 6v2l-4-1-9-4z" fill="#4D393A"/>
<path transform="translate(1338,527)" d="m0 0h5v3l-6 2-5 6-1-2 4-6z" fill="#F38972"/>
<path transform="translate(936,505)" d="m0 0 3 1 6 12-1 3-4-5-4-9z" fill="#566E9F"/>
<path transform="translate(299,361)" d="m0 0 4 1-3 3-3 2 2 4-5 1v-6z" fill="#6B3430"/>
<path transform="translate(1154,348)" d="m0 0 7 1 13 5v2l-5-1-10-4-5-1z" fill="#923C31"/>
<path transform="translate(842,599)" d="m0 0 10 1 1 2-4 1h-10z" fill="#392C31"/>
<path transform="translate(1069,513)" d="m0 0 5 3-1 4-2 1-1 2h-3l-1-4 3-2z" fill="#33272B"/>
<path transform="translate(1176,435)" d="m0 0h1l1 5v25h-1l-1-20h-1z" fill="#3B3F42"/>
<path transform="translate(577,451)" d="m0 0 6 4 5 2 1 4-3 1-9-9z" fill="#E19859"/>
<path transform="translate(976,430)" d="m0 0 5 1 1 3-1 5-4-1z" fill="#292528"/>
<path transform="translate(1391,414)" d="m0 0 5 1 5 6v2l-4-2-4-3-4-2z" fill="#1F1E21"/>
<path transform="translate(513,402)" d="m0 0 2 1-2 6 2 3-1 2-3-1-2-3 1-4z" fill="#E1985A"/>
<path transform="translate(1167,475)" d="m0 0 2 4-1 3-10 2 3-3 2-1v-3z" fill="#303136"/>
<path transform="translate(269,374)" d="m0 0 5 3 2 3v5l-4-2-3-6z" fill="#582F2F"/>
<path transform="translate(1055,736)" d="m0 0h11v2h-3v2h-7z" fill="#6E7C95"/>
<path transform="translate(777,467)" d="m0 0 9 3h4l-2 5-4-1-7-6z" fill="#872D2E"/>
<path transform="translate(506,409)" d="m0 0 3 3 1 6-1 2-3-1-2-5z" fill="#812C2E"/>
<path transform="translate(834,555)" d="m0 0 4 1-11 8-3-2 5-4 1-2z" fill="#362E31"/>
<path transform="translate(862,312)" d="m0 0h6l4 2-1 3v-2l-9 1-4-2z" fill="#7E232C"/>
<path transform="translate(1261,619)" d="m0 0h2v4l-11 4-5-5 9 1 4-2z" fill="#3E4144"/>
<path transform="translate(1167,588)" d="m0 0 4 2 5 6-1 3-6-5-2-3z" fill="#31262A"/>
<path transform="translate(964,524)" d="m0 0h12l5 1v2h-9l-8-2z" fill="#94876C"/>
<path transform="translate(1331,494)" d="m0 0 6 4h5l1 3h-10l-2-2z" fill="#E27E63"/>
<path transform="translate(559,492)" d="m0 0h2l6 14-1 3-3-5-4-10z" fill="#402E2F"/>
<path transform="translate(1222,583)" d="m0 0 4 1-1 5-2 3-3-1z" fill="#E1985A"/>
<path transform="translate(373,534)" d="m0 0h2l-1 6-3 6h-2l1-6z" fill="#6E94C3"/>
<path transform="translate(220,447)" d="m0 0h2l1 9-1 1-1 9h-1z" fill="#8E372C"/>
<path transform="translate(766,588)" d="m0 0 5 3 1 6-3 1-3-6z" fill="#E3B059"/>
<path transform="translate(1152,542)" d="m0 0 3 1-6 4-7 10-1-3 6-8z" fill="#443639"/>
<path transform="translate(234,530)" d="m0 0h1l2 20-2-1-2-6z" fill="#3E4144"/>
<path transform="translate(882,346)" d="m0 0 3 4 1 7-2 9h-1z" fill="#7D252D"/>
<path transform="translate(1099,635)" d="m0 0 2 2 1 4-14-1v-1l11-2z" fill="#3D383B"/>
<path transform="translate(1162,478)" d="m0 0h2l-1 3-5 3-7 1 1-3z" fill="#1E1F23"/>
<path transform="translate(543,718)" d="m0 0 3 1-2 8h-2l-1 3 1-11z" fill="#FEF6EB"/>
<path transform="translate(363,690)" d="m0 0 1 3 7 1 4 4-2 1-3-3-5-1-1 5h-1z" fill="#B8B394"/>
<path transform="translate(1149,483)" d="m0 0 7 1-2 2-10 2-1-3z" fill="#28282C"/>
<path transform="translate(747,717)" d="m0 0 3 1-1 4-8 2 2-5z" fill="#F7F7F6"/>
<path transform="translate(703,591)" d="m0 0 2 1 1 2-2 3-7 3-4-1 8-4z" fill="#302E33"/>
<path transform="translate(1124,491)" d="m0 0h4v2l-11 4-2-1 1-2z" fill="#1A1C20"/>
<path transform="translate(745,403)" d="m0 0h2l-2 6v12l-2-1-1-11z" fill="#923A31"/>
<path transform="translate(1349,465)" d="m0 0 4 1 1 7-2-2-1-3-2 2h-3l1-4z" fill="#E19859"/>
<path transform="translate(815,738)" d="m0 0 5 1 3 4v4l-3-1v-4l-4-2z" fill="#372A2F"/>
<path transform="translate(1122,726)" d="m0 0 3 1 1 3-1 1h-10l2-2 4-1z" fill="#231F22"/>
<path transform="translate(712,688)" d="m0 0 2 2 1 12-4-5-1-4h1z" fill="#454043"/>
<path transform="translate(378,534)" d="m0 0v3l-7 12-1-3 5-9z" fill="#373A3E"/>
<path transform="translate(1113,492)" d="m0 0 1 3-8 4h-2l2-4 1-1h6z" fill="#EE9771"/>
<path transform="translate(707,683)" d="m0 0 5 4v7l-3-3z" fill="#2B2428"/>
<path transform="translate(724,668)" d="m0 0 3 1v11h-2z" fill="#423F46"/>
<path transform="translate(1182,660)" d="m0 0 2 1-13 10-2-1 11-9z" fill="#D68E51"/>
<path transform="translate(1066,394)" d="m0 0h8l-4 4-5-1z" fill="#E2B05A"/>
<path transform="translate(301,674)" d="m0 0 5 2 5 6-1 3-6-7-3-2z" fill="#863836"/>
<path transform="translate(1123,549)" d="m0 0 1 3-6 9-2-1z" fill="#464345"/>
<path transform="translate(1172,487)" d="m0 0 3 1 4 6v3l-3-1-4-7z" fill="#16171B"/>
</svg>
