<?xml version="1.0" encoding="UTF-8"?>
<svg version="1.1" viewBox="0 0 1600 1144" width="800" height="572" xmlns="http://www.w3.org/2000/svg">
<path transform="translate(0)" d="m0 0h1600v1144h-1600z" fill="#F1EDEA"/>
<path transform="translate(406,408)" d="m0 0h9l1 1 1 13 5 1 11-7 7-3h9l12 4 10 9 4 7v10l-4 8-7 5-11 3-5 8-3 6-4 1-7-8-4-1-4 1-3 12 1 8 5 15 1 5v7l-3 6-3 3-2-1 3-4v-13l-3-6v-2l-5 4-5 2h-4v2l5 2 7 6-2 9-3 5-8 7-9 14-6 15-4 17-2 17v32l1 21-2 1-19-3-16-4-9-3 7 95 1 22 42-4 3-1v2h2l-2-7-1-14 6-2 18-4 16-7 14-8 11-8 19-10 42-1 11-1-2-11v-13h-7l-1-2 14-5-1-5-1-2-17-3v-7l3-11 1-1 12-1 6-8 2-9v-8l-20-12-4-3v-2l5 1 11 7 9 5 6 3 5 2v2l8 1 8 4 6 8 6 4 1 2-5-1-3-2-4 1-2 5-5 4-4 5-14 10-5 2 1 5 3 7 20-15 7-1-1 6-4 6 14-6 13-8 10-4 27-13 1-3-5-2v-2l5-1 6 6v3l-16 8-24 13-4 6-1 3 4 2 5 5-2 4-6 4 2 2-1 5 13-3 5 8 16 37v2l8-1 22-1h19l-2-11v-10l4-3h60l2-14 7-35h8v-3h-21l-6-2-2-4 5-4 10 2 11 4-9-13-10-8-5 1-17 9h-6l1-4 7-7 6-2 13-1-3-1-2-5v-12l2-3h6l1 3v11l-1 9 9 7v-6l6-7 4-1-2 11-3 7 1 4 7 11 1 3 8 1-3-8v-8l1-1h5l3 6 5-11-1-9-1-5v-8l2-7 4-2 3 8 4-9 4-5 6-4h3l-1 9-5 9-10 13-3 3-3 9 3-1h10l5 4-2 4-6 2h-10l-4-1-3 11 5 2 5 24 9 45 113 1 59 2 27 1 4-11 9-10 2-1 3-21 5-17 7-12 8-7 8-3h10l9 3 12 5 10 6 14 10v1l-13 1-12 5-7 6-1 2 14-2-1 2-7 3-1 3h2v2h-2v2l4 2 5 2 20 1 12 4h14l8-4 10 1 17-4 44-1 6-2v-13l14-8 7-6 1-2v-14l-3-25-5-25-4-17-4-14-4-13-6-9-6-4-4 2-23 11-14 5-15 3h-11l-8-4-4-5-3-6v-2h3l3 5 4 2 7-3 6-7 2-4v-10l-3-9-3-3-4 10-5 8-11 4-4 3-4-1-7-8v-4h2l3-9 6-13 7-19 2-7h8v13l-3 18-2 5 5-3 3-6 1-3-2-24-1-2-6-2 4-16 5-10-4-2-7-7-4-8v-8l7-6 9-1 3 1 2-4 5-4 3-1h11l2 5 5-3h6l5 4-1 8 6-3h6l5 5 1 2v16h6l5 3 3 4v5l-6 5 3 6v8l-5 5-10 1-2 9-4 5-6 1 1-4-3 5-3 7v11l2 12 14 7 8-16 8-13 8-10 9-8 10-5 22-4h29l24 4 21 7 17 9 12 11 7 11 3 11v27l-4 20-7 21-10 27-6 21-2 12v34l1 9v15l-3 24-6 21-4 9 13-1 124 1 1 1v24l10 1h33l11-2 1-24h89v373h-1600v-373l96-1 1-323h7l2 1 1 216v74h80v-10l1-7 5-1 21-1v-16l-6-8-5-4-8-3 5 11v3l-4-1-4-5-2-2 1 2v8l-3 6-3 2-2-3-4 6-3-1-5-14-3 9-4 4-3-1v-7l1-4-7 1-3-3v-5l5-4 4-1-1-5 4-4h3v-4l6-1 6 2 1-3 3-1h7l4 3 2 9 8 3 9 8 1 2-1-17-4-21v-3l-6-2-5-3v7l-2 4-4-2-2-9-6 8-4 3-3-1-1-5 4-12h-2l-2 4-7 7-6 1 1-8 5-6v-2l-10-5-3-2v-4l7-1 7 3-4-5v-2h5l9 7v2h2l-1-8 4 1 8 10 3 6v4l9 6v-7l-6-15-1-2-22-10-7-6 4-2-7-8 1-5-7-6-1-6 9 1-8-12-1-6 2-2 6 1 6 7v-8l5 1 4 7 1 4 4-9 4 1 2 9 1 12 5-8 2-2h3l1 2v8l-3 14 4-7 5 1 1 7-4 12-5 10 1 6 5 11h6l-4-7 1-4 7-1 2 1-7-13v-5l1-1h6l4 2-1-2 1-9 3-5h2l3 4 3-8 4-3 4 2 1 15 8-6 4-2h10l1 2-6 7-10 7 16-1 4 2-1 5-4 3-7 2 6 4-5 6-15 6 8 3 3 2-1 3-3 2h10l1 5-7 8 1 8-5 5 5 3-2 4-8 4h-3v2l8-1v3l-8 3-6 1h-10l-5 10-3 8h19l5 2v16h48v-24l1-8v-28l-4-22-9-27-8-21-5-15-3-15-1-8v-16l2-14 5-10 9-10 8-7 15-8 18-6 20-4 7-1h30l19 3-8-7-5-9-2-5v-13l5-9 4-4v-2l-10-8-3-4v-7l4-2 1-7 5-5h5l3 4 1 3 1-8 4-4z" fill="#938F8B"/>
<path transform="translate(965,121)" d="m0 0h132l-1 2-131 1-47 1 2 1 34 1 143 1v1h-5v400h2l4 7 4 4 4-1 5-3 10-4 6-12 2-5 4 4 3 9v10l-6 9h-2l-2 4-7 2-6-5v-3h-3l6 11 6 4 3 1h11l15-3 18-7 19-9 4-2 8 6 5 8 4 13 4 14 6 26 5 30 1 11v14l-6 7-14 8-2 1v13l-7 3-44 1-17 4h-5l-5-1-8 4h-14l-12-4-20-1-6-3-3-2v-2h2v-2h-2l1-4 7-3-13 1 2-4 8-6 10-4h15l15 6-1-30-7-8-5-5-10 3-13 4h-6l-15-8 1-3-6-4-1-7v-12l5-7 4-10 5-10h2v-2l-15 1-7 2-4 5-4 6-1-2 5-8 2-2-7-1-166-1-2-1-2 2h-325l-24-1v-445l5-1 33-1 188-2-30-2v-1h51l21 2 68 1v-2l-33 1h-30v-1l9-1h56l1 1h3 6l2-1 62-1z" fill="#F1EDEA"/>
<path transform="translate(1035,643)" d="m0 0h10l9 3 12 5 10 6 14 10v1l-13 1-12 5-7 6-1 2 14-2-1 2-7 3-1 3h2v2h-2v2l4 2 5 2 20 1 12 4h14l8-4 10 1 17-4 50-1 7 15 4 17v20l-3 10-6 8-4 5-9 6-16 6-16 3h-23l-28-3-36-6 6 42 7 46v8l-15 7-10 3v7l-4 1-9 14-10 2 4 5-11 12-10 10-8 6-1 7 3 5 7 3 10-1 11-7 11-9 14-12 20-18 2-3 1-14 36-15 11-6 2-2-1-5-5-8-7-7v-1l18 1 19 2h27l25-3 19-4 5-2 3 1-10 11-5 8-2 9 3 6 8 5 2 1 40 4 22 3 25 5 18 6 16 9 10 9 6 8 4 10 1 9-5 4-13 5-22 5-23 4-19 3-37 4-46 4-76 4-60 2h-86l-39-2-101-8-45-3-25-1h-61l-36 2h-51l-42-4-49-7-38-5-27-2h-79l-48 3-40 3h-53l-14-2-15-6-14-10-4-6-2-13 3-9 6-8 7-5 14-4 26-4 34-3 68-1 30-1-2-8-4-6-9-10v-3l26 6 25 3h25l34-3 27-5 37-10 9-3h3l3 13 3 15 4 15 3 7 5 1v19l-4 5-4 10 2 5 25 10 17 6 19 4h24l7-3 1-4-8-5-19-8-17-10h-4v-2l-4-2-5-4-3-5-1-4v-14l-2-1 6-2 2-10 1-45 2-43 3 2 2 6v18l2 7h15l36-4 15-4 15-6 11-6 6-7h1v6l-8 7-14 7-18 6-8 2-1 24v28l56 1 29 1 159 3-2-61-3-69h-24l-41 1h-93l-70-2-7-1-1 26-1 17-14 1-6-1-1-19v-25l-25-2-4-9v-2h31l57 2h190l68-3h12l1-13 5-10 7-7 2-1 3-21 5-17 7-12 8-7z" fill="#817D7A"/>
<path transform="translate(406,408)" d="m0 0h9l1 1 1 13 5 1 11-7 7-3h9l12 4 10 9 4 7v10l-4 8-7 5-11 3-5 8-3 6-4 1-7-8-4-1-4 1-3 12 1 8 5 15 1 5v7l-3 6-3 3-2-1 3-4v-13l-3-6v-2l-5 4-5 2h-4v2l5 2 7 6-2 9-3 5-8 7-9 14-6 15-4 17-2 17v32l1 21-2 1-19-3-16-4-9-3 7 95 1 22 42-4 3-1v2h2l-2-7-1-14 6-2 18-4 16-7 14-8 11-8 19-10 42-1 11-1-2-11v-13h-7l-1-2 14-5-1-5-1-2-17-3v-7l3-11 1-1 12-1 6-8 2-9v-8l-20-12-4-3v-2l5 1 11 7 9 5 6 3 5 2v2l8 1 8 4 6 8 6 4 1 2-5-1-3-2-4 1-2 5-5 4-4 5-14 10-5 2 1 5 3 7 20-15 7-1-1 6-4 6 14-6 13-8 10-4 27-13 1-3-5-2v-2l5-1 6 6v3l-16 8-24 13-4 6-1 3 4 2 5 5-2 4-6 4 2 2-1 5 13-3 5 8 16 37v2l8-1 22-1h19l-2-11v-10l4-3h60l2-14 7-35h8v-3h-21l-6-2-2-4 5-4 10 2 11 4-9-13-10-8-5 1-17 9h-6l1-4 7-7 6-2 13-1-3-1-2-5v-12l2-3h6l1 3v11l-1 9 9 7v-6l6-7 4-1-2 11-3 7 1 4 7 11 1 3 8 1-3-8v-8l1-1h5l3 6 5-11-1-9-1-5v-8l2-7 4-2 3 8 4-9 4-5 6-4h3l-1 9-5 9-10 13-3 3-3 9 3-1h10l5 4-2 4-6 2h-10l-4-1-3 11 5 2 5 24 9 45 113 1 59 2 28 1-1 9-30 2-50 2h-190l-88-3 4 9v2h12l13 2 1 25v19h20v-17l1-19 1-7 77 2h93l41-1h24l1 1 4 95v35h-49l-110-2-29-1-56-1-1-1v-28l1-24 27-9 14-7 7-6v-5l-7 8-19 9-16 5-22 3-19 2h-15l-3-8v-18l-3-7-2 42-1 45-2 10-5 3 1 14 3 7 5 5 5 4 5 1 15 9 14 6 12 6 2 2-1 4-4 3-4 1h-24l-19-4-25-9-17-7-3-4 3-10 4-6 1-1 1-19h-5l-4-8-5-18-4-25-19 6-30 8-27 5-34 3h-25l-25-3-26-6-21-9-16-10-9-7-12-12-10-13-8-14-10-26-4-21v-29l1-8v-28l-4-22-9-27-8-21-5-15-3-15-1-8v-16l2-14 5-10 9-10 8-7 15-8 18-6 20-4 7-1h30l19 3-8-7-5-9-2-5v-13l5-9 4-4v-2l-10-8-3-4v-7l4-2 1-7 5-5h5l3 4 1 3 1-8 4-4z" fill="#7384CC"/>
<path transform="translate(0)" d="m0 0h1600v42h-203l-394 1h-956l-9-1-5 1-29-1-4-1z" fill="#EBDBD8"/>
<path transform="translate(1140,410)" d="m0 0h11l2 5 5-3h6l5 4-1 8 6-3h6l5 5 1 2v16h6l5 3 3 4v5l-6 5 3 6v8l-5 5-10 1-2 9-4 5-6 1 1-4-3 5-3 7v11l2 12 14 7 8-16 8-13 8-10 9-8 10-5 22-4h29l24 4 21 7 17 9 12 11 7 11 3 11v27l-4 20-7 21-10 27-6 21-2 12v34l1 9v15l-3 24-6 21-8 17-9 13-11 13-10 10-15 11-16 8-9 4-23 6-21 3-10 1h-27l-30-3h-6l9 9 4 7-1 5-9 6-18 8-20 8h-2v14l-8 9-8 7-11 10-11 9-16 12-5 3-10 1-8-4-3-5 1-7 13-11 13-13 3-5-3-2v-2l4-2h6l2-5 7-10 3-1v-7l16-5 8-4h2l-7-49-6-38v-9l12 1 32 5 20 2h23l16-3 12-4 10-6 5-5 6-7 3-7 1-5v-20l-5-20-5-10v-2l-2-1 2-1v-13l14-8 7-6 1-2v-14l-3-25-5-25-4-17-4-14-4-13-6-9-6-4-4 2-23 11-14 5-15 3h-11l-8-4-4-5-3-6v-2h3l3 5 4 2 7-3 6-7 2-4v-10l-3-9-3-3-4 10-5 8-11 4-4 3-4-1-7-8v-4h2l3-9 6-13 7-19 2-7h8v13l-3 18-2 5 5-3 3-6 1-3-2-24-1-2-6-2 4-16 5-10-4-2-7-7-4-8v-8l7-6 9-1 3 1 2-4 5-4z" fill="#7384CC"/>
<path transform="translate(861,571)" d="m0 0 2 3 166 1 8 1-6 9v1l6-8 3-2 5-1h15v2h-2l-1 4-3 6-5 11-4 6v12l1 7 6 4v3l13 7 9-1 13-4 7-2 12 12 1 2v30l-11-3-9-5-14-10-11-6-12-5-5-1h-10l-8 3-7 6-5 8-6 16-3 16-1 10-9 8-5 10-2 5-50-2-36-1-113-1-2-6-12-61v-3l-6-1 4-12h14l7-3-2-4-2-1h-13l2-9 9-10 7-11 3-7 1-6-6 3-5 4-4 8-2 5h-1l-2-10-4 4-1 5v8l2 8v6l-5 12-2-1-2-5h-5v8l2 8h-8l-7-12-3-4 1-5 3-8 2-8-6 4-3 4-1 6-4-2-6-5 1-9v-14l-6 1-1 2v12l1 5 4 1v1l-14 1-7 3-6 6-1 3 7-2 18-9 4 1 11 9 7 10v2l-5-1-13-4-5 1-2 4 2 2 5 1 21 1v3h-8l-1 9-7 37-1 3-60 1-3 2v10l1 11-41 2h-8l-15-34-6-12-13 2v-5l-2-2 8-6-2-4-6-5 1-4 3-5 17-10 12-6 9-5h3l-3-5-3-3h-5v2l5 2-1 4-33 16-7 3-12 7-11 5-2-1 5-9 1-3-7 2-20 15-5-10 1-4 10-5 11-9 5-6h2l1-5 2-2 5 1 5 2-9-7-4-6-10-4-5-1v-2l-4-1h3v-30l1-1h308z" fill="#F1EDEA"/>
<path transform="translate(1456,845)" d="m0 0h9l10 2 10 5 11 10 6 8 7 14 2 6 2-11 7-16 7-11 7-6h12l10 4 8 7 6 12 4 13 1 25 8 14 1 1-7-24-1-5v-13l4-8 9-8 8-4h3v284h-212l1-7 6-8 7-6 12-6 1-2-6-1-21-9-12-7-11-10-9-14-5-15-3-21v-19l2-8 7-4 6-2h6l6 2h5l-3-6-6-7-2-5v-9l2-8 6-5 9-4h8l8 4 5 6 5 13v5l2-1v-7l-4-7v-7l4-6 6-3 4-1h11l17 1-18-18-9-16-3-12v-18l2-13 6-15 6-9 7-7 10-6z" fill="#4E834F"/>
<path transform="translate(55,845)" d="m0 0 9 1 8 5 9 14 6 18 1 10h2l1-10 6-12 9-11 7-7 8-5 12-3 11 1 12 6 9 9 6 10 5 12 2 13v16l-2 10-8 17-11 13-8 7-1 2 17-2h11l8 4 6 6-1 8-3 6-1 8h2l3-12 3-7 5-5 5-4 2-1h7l12 5 6 7 2 8-1 8-8 11-5 9 13-5 9 1 8 4 3 9v25l-2 16-4 12-8 13-9 10-13 9-19 8-12 3 3 3 9 4 8 6 5 6 3 7v3h-212v-284l7 2 9 7 6 7 2 3v13l-5 23-5 11 1-1 7-14 4-5v-15l2-18 4-10 7-9 8-6z" fill="#4E834F"/>
<path transform="translate(580,181)" d="m0 0h7l11 4 5 5 4 6 6 18 3 16 1 21-1 3 4-4 8-11 13-13 10-7 11-4h11l8 4 7 8 6 16 2 12v28l-3 17-6 16-9 17v2l8-5 17-6 6-1v229h-176v-335l6-12 9-10 10-7 12-5z" fill="#84B385"/>
<path transform="translate(797,588)" d="m0 0h3l-1 9-5 9-10 13-3 3-3 9 3-1h10l5 4-2 4-6 2h-10l-4-1-3 11 5 2 5 24 9 45 113 1 59 2 28 1-1 9-30 2-50 2h-190l-88-3 4 9v2h12l13 2 1 25v19h20v-17l1-19 1-7 77 2h93l41-1h24l1 1 4 95v35h-49l-110-2-29-1-56-1-1-1v-28l1-24 27-9 14-7 7-6v-5l-7 8-19 9-16 5-22 3-19 2h-15l-3-8v-18l-3-7-1 17-18-18-7-8-11-12-4-6-11-12-15-24-11-21-1-5h-47l-4 3 1-5h-7l-2 2h-3v-2l-6 3-10 9-10 7-6 3h-2l-1 4h-3l-2 4-1-4-17 6-4 1-2 2-4-1-12 2h-8v-4l23-5 16-7 14-8 11-8 19-10 42-1 11-1-2-11v-13h-7l-1-2 14-5-1-5-1-2-17-3v-7l3-11 1-1 12-1 6-8 2-9v-8l-20-12-4-3v-2l5 1 11 7 9 5 6 3 5 2v2l8 1 8 4 6 8 6 4 1 2-5-1-3-2-4 1-2 5-5 4-4 5-14 10-5 2 1 5 3 7 20-15 7-1-1 6-4 6 14-6 13-8 10-4 27-13 1-3-5-2v-2l5-1 6 6v3l-16 8-24 13-4 6-1 3 4 2 5 5-2 4-6 4 2 2-1 5 13-3 5 8 16 37v2l8-1 22-1h19l-2-11v-10l4-3h60l2-14 7-35h8v-3h-21l-6-2-2-4 5-4 10 2 11 4-9-13-10-8-5 1-17 9h-6l1-4 7-7 6-2 13-1-3-1-2-5v-12l2-3h6l1 3v11l-1 9 9 7v-6l6-7 4-1-2 11-3 7 1 4 7 11 1 3 8 1-3-8v-8l1-1h5l3 6 5-11-1-9-1-5v-8l2-7 4-2 3 8 4-9 4-5z" fill="#938F8B"/>
<path transform="translate(1030,151)" d="m0 0h8l13 3 11 7 7 10v381h-108l-1-1v-309l5-2h18l5 2-7-12-1-3v-21l4-13 8-16 7-9 4-5 11-8 9-3z" fill="#85B386"/>
<path transform="translate(548,128)" d="m0 0h109v1l-82 1h-49l1 77 1 1v18h-6v-19h2v-77h-7v438l34-1 311 1h203l2-6 7-11 10-15v-406h-95l-43-1v-1h151v1h-5v400h2l4 7 4 4 4-1 5-3 10-4 6-12 2-5 4 4 3 9v10l-6 9h-2l-2 4-7 2-6-5v-3h-3l6 11 6 4 3 1h11l15-3 18-7 19-9 4-2 8 6 5 8 4 13 4 14 6 26 5 30 1 11v14l-6 7-14 8-2 1v13l-7 3-44 1-17 4h-5l-5-1-8 4h-14l-12-4-20-1-6-3-3-2v-2h2v-2h-2l1-4 7-3-13 1 2-4 8-6 10-4h15l15 6-1-30-7-8-5-5-10 3-13 4h-6l-15-8 1-3-6-4-1-7v-12l5-7 4-10 5-10h2v-2l-15 1-7 2-4 5-4 6-1-2 5-8 2-2-7-1-166-1-2-1-2 2h-325l-24-1v-445l5-1z" fill="#FED688"/>
<path transform="translate(881,351)" d="m0 0h15l14 3 13 5h11l10-2 1 194-1 1h-218l-1-1v-126l2 3 3 14 1 8v13h2l3-12 8-17 6-8 7-6 6-1 7 3 5 5 3 6 1 4v11l-5 21-1 9 5 2 12-1 11-4 9-6 8-9 5-12 7-21 9-17 8-9 4-2v-18l2-9 5-9 8-7 10-4z" fill="#67A269"/>
<path transform="translate(1499,905)" d="m0 0h2l4 16 12 59 6 28v2l5 2 4 4 2 5 1 6v11l-2 14 4 24 11 53 7 11 1 4h-168l1-7 6-8 7-6 12-6 1-2-6-1-21-9-12-7-11-10-9-14-5-15-3-21v-19l2-8 7-4 6-2h6l6 2h5l-3-6-6-7-2-5v-9l2-8 6-5 9-4h8l8 4 5 6 5 13v5l2-1v-7l-4-7v-7l4-6 6-3 4-1h29l15 6 6 5 3 7 1 8v27l-2 30 19-19 13-9 9-4h3l-4-16-13-62-5-22z" fill="#67A269"/>
<path transform="translate(100,904)" d="m0 0 2 1-1 8-7 34-12 56v6l14 8 13 10 8 7 7 9-2-27v-31l3-14 6-5 15-6 19-1h11l8 4 6 6-1 8-3 6-1 8h2l3-12 3-7 5-5 5-4 2-1h7l12 5 6 7 2 8-1 8-8 11-5 9 13-5 9 1 8 4 3 9v25l-2 16-4 12-8 13-9 10-13 9-19 8-12 3 3 3 9 4 8 6 5 6 3 7v3h-169l6-11 4-9 6-29 8-40v-8l-2-6v-18l4-9 8-5 12-57 8-39z" fill="#67A269"/>
<path transform="translate(1035,643)" d="m0 0h10l9 3 12 5 10 6 14 10v1l-13 1-12 5-7 6-1 2 14-2-1 2-7 3-1 3h2v2h-2v2l4 2 5 2 20 1 12 4h14l8-4 10 1 17-4 50-1 7 15 4 17v20l-3 10-6 8-4 5-9 6-16 6-16 3h-23l-28-3-36-6 6 42 7 46v8l-15 7-4 1h-15l-3-2v-6l6-14h5l6-9-1-5-4-10-4-5-3-8-1-10-10 5h-12l-4-2 1 9v9l-2-3-14-30-15-37-6-17-1-5v-11l2-9 6-9 7-6 3-21 5-17 7-12 8-7z" fill="#2C122F"/>
<path transform="translate(797,588)" d="m0 0h3l-1 9-5 9-10 13-3 3-3 9 3-1h10l5 4-2 4-6 2h-10l-4-1-3 11 5 2 5 24 9 45 113 1 59 2 28 1-1 9-30 2-50 2h-190l-88-3 14 29 1 9-2 3h-2v2h-3v2l-14 6h-4l1 2v20l-18-18-7-8-11-12-4-6-11-12-15-24-11-21-1-5h-47l-4 3 1-5h-7l-2 2h-3v-2l-6 3-10 9-10 7-6 3h-2l-1 4h-3l-2 4-1-4-17 6-4 1-2 2-4-1-12 2h-8v-4l23-5 16-7 14-8 11-8 19-10 42-1 11-1-2-11v-13h-7l-1-2 14-5-1-5-1-2-17-3v-7l3-11 1-1 12-1 6-8 2-9v-8l-20-12-4-3v-2l5 1 11 7 9 5 6 3 5 2v2l8 1 8 4 6 8 6 4 1 2-5-1-3-2-4 1-2 5-5 4-4 5-14 10-5 2 1 5 3 7 20-15 7-1-1 6-4 6 14-6 13-8 10-4 27-13 1-3-5-2v-2l5-1 6 6v3l-16 8-24 13-4 6-1 3 4 2 5 5-2 4-6 4 2 2-1 5 13-3 5 8 16 37v2l8-1 22-1h19l-2-11v-10l4-3h60l2-14 7-35h8v-3h-21l-6-2-2-4 5-4 10 2 11 4-9-13-10-8-5 1-17 9h-6l1-4 7-7 6-2 13-1-3-1-2-5v-12l2-3h6l1 3v11l-1 9 9 7v-6l6-7 4-1-2 11-3 7 1 4 7 11 1 3 8 1-3-8v-8l1-1h5l3 6 5-11-1-9-1-5v-8l2-7 4-2 3 8 4-9 4-5z" fill="#4CAFA2"/>
<path transform="translate(105,450)" d="m0 0h1l1 214v74h80v-10l1-7 5-1 21-1v-16l-6-8-5-4-8-3 5 11v3l-4-1-4-5-2-2 1 2v8l-3 6-3 2-2-3-4 6-3-1-5-14-3 9-4 4-3-1v-7l1-4-7 1-3-3v-5l5-4 4-1-1-5 4-4h3v-4l6-1 6 2 1-3 3-1h7l4 3 2 9 8 3 9 8 1 2-1-17-4-21v-3l-6-2-5-3v7l-2 4-4-2-2-9-6 8-4 3-3-1-1-5 4-12h-2l-2 4-7 7-6 1 1-8 5-6v-2l-10-5-3-2v-4l7-1 7 3-4-5v-2h5l9 7v2h2l-1-8 4 1 8 10 3 6v4l9 6v-7l-6-15-1-2-22-10-7-6 4-2-7-8 1-5-7-6-1-6 9 1-8-12-1-6 2-2 6 1 6 7v-8l5 1 4 7 1 4 4-9 4 1 2 9 1 12 5-8 2-2h3l1 2v8l-3 14 4-7 5 1 1 7-4 12-5 10 1 6 5 11h6l-4-7 1-4 7-1 2 1-7-13v-5l1-1h6l4 2-1-2 1-9 3-5h2l3 4 3-8 4-3 4 2 1 15 8-6 4-2h10l1 2-6 7-10 7 16-1 4 2-1 5-4 3-7 2 6 4-5 6-15 6 8 3 3 2-1 3-3 2h10l1 5-7 8 1 8-5 5 5 3-2 4-8 4h-3v2l8-1v3l-8 3-6 1h-10l-5 10-3 8h19l5 2v16h48l5 26 2 7h-56v24l-3 2-9 1h-32l-11-2-1-4v-21h-81v8h44l13 8 2 4-18 1h-54l-33-3-16-2-1-2 10-5 8-1h41v-41l1-30z" fill="#FCC67E"/>
<path transform="translate(487,699)" d="m0 0 7 1v4l3-3h28l19 1 10 21 13 21 7 10 11 12 4 6 15 16 7 8 7 7 3 4v26l-1 45-2 10-5 3 1 14 3 7 5 5 5 4 5 1 15 9 14 6 12 6 2 2-1 4-4 3-4 1h-24l-19-4-25-9-17-7-3-4 3-10 4-6 1-1 1-19h-5l-4-8-5-18-4-23-3-32v-60l-9 4-16 8-17 7-19 5-24 4h-16l-34-4-15-5-11-6-7-7-4-11-1-14 1 3 23-3h2l9-3 13-5h3 3l1-3 11-6 20-16h3v2z" fill="#4CAFA1"/>
<path transform="translate(1470,565)" d="m0 0h2l4 12 2 11v13l11-6 8-4h3l-3 15-5 18 9-3 1-15 3-10 5-6 8-4 18-5 4-1v9l-4 16-4 9h11l-4 7-11 14-11 12-15 10-4 8v3h2l2-4 12-12 14-9 12-5 4-1h12l-1 10-4 10-9 10-10 6-9 3-6 1h-22l-4 15v4l18-10 13-4h14l5 2-1 5-6 8-8 6-9 3h-13l-11-3h-4l-3 17h19l6 2-1 3-3 1-25 1-22-1-5-1v-3l5-2h10l-6-31-10 2-11 13-10 10-21 13-4 2h-4l4-18 4-10 6-8 2-3-9-2-15-7 3-3 12-6-23-5-8-3 2-5 7-9 8-6 8-4 10-2h14l-4-8h21l-1-2-18-4-17-8-12-11-6-9-4-11-2-15 14 1 17 1 8 3 9 9 7 14 4 14 4 16 1 3 10 3v-7l-6-9-4-9-1-5v-16l4-10 9-8z" fill="#68A169"/>
<path transform="translate(219,286)" d="m0 0h135v116h-135z" fill="#DAE8ED"/>
<path transform="translate(1226,554)" d="m0 0h13l15 5 21 10 8 5 4 36 1 18v18l-3 27-6 24-7 20-10 19-10 13-16 16-14 9-5 3h-2v2l-7 4-16 5-8 3-21 4-11 1h-34l-26-2-18-3-2-8v-9l12 1 32 5 20 2h23l16-3 12-4 10-6 5-5 6-7 3-7 1-5v-20l-5-20-5-10v-2l-2-1 2-1v-13l14-8 7-6 1-2v-14l-3-25-5-25-4-17-4-14-1-8 4 1 11-5z" fill="#5F75B8"/>
<path transform="translate(983,745)" d="m0 0h8l5 12 10 25 10 24 10 21v-15l4 1h12l8-4h2l3 12 3 7 4 6-1 4-11 25-13 26-10 16-7 7-8 2-7-3-4-6v-11l3-10v-3l-3 1h-64v-37l3-77 1-2 1-18z" fill="#938F8B"/>
<path transform="translate(1460,140)" d="m0 0h8l6 4 4 8v10l-5 18-1 3 8 4 8-1 3-5 7-4h6l2 2v5l-3 4 9 1 10-5 7 1 3 3 1 2v6l-5 2-9-1 3 2 8 2 8 7 1 7-5 1-5-3 2 6 10 6 3 4v6l-6 1-7-3 1 5 11 4 1 1v7l-6 1-6-4 6 7 2 4v8l-5-2-5-8v-2h-2l-1 7-4 5-4-1v-7l4-12 5-8 1-6-7 6h-4l-1-7 10-13v-6h-3l-2 5-2 2-4-1-1-1v-6l-5-2-1-2-1-14-12-4 3 5 4 9-1 5-5 1-5-8-3-11h-5l6 13v18l-1 5h4l1 5-1 1-17 1 8 4 4 5v6h-6l-6-3v5l7 1 3 3 1 6-2 2-5-1-2-1 3 5 2 4v5l-2 2h-4l-3-5v-11l-4 6-3 2-4-1-1-5 3-5 8-7v-4l-2 4h-5v-8l4-8 1-1-27-1 2 7h8l5 5v7l-1 1-7-1-5-4 1 2 1 9 6 4 4 7v11h-3l-7-13-2-1-2 6-7 6-5-1-2-3 1-6 7-6 6-2v-5l-7 5-4-1-1-1v-7l4-5 7-5-1-9h-2l-2 5-2 2-5-1-1-1v-5h-171l-1-1v-6h41l-4-16-10-15-2-5 16 8 17 1v-5h12v32h12v-31h34v4l2-1 12-1h11v-2l-4-2-4-4 1-2 10 2 7 6 3 3 12 3 3 2 1 3h7l3 1v-15l-5 4-9 1-2-2 1-7 8-6 9-1 2-10-10 4h-5l-2-3v-5l5-3 7-3h6 2l4-10-7 2-6-1-2-2v-5l4-3h8l5 3 3 2 2-4z" fill="#538554"/>
<path transform="translate(1454,722)" d="m0 0 1 3 27 1 25-1 3-1 2-2v16h88v33h-89v24l-4 2-8 1h-33l-10-2-1-24-124-1h-13l3-9 6-21 1-6 1 3 125-1z" fill="#FCC67E"/>
<path transform="translate(559,293)" d="m0 0h9l15 3 8 5 5 8-1 9-9 21-1 4 19-11 10-4h7l7 6 2 5v29l-5 22-7 16-10 13-8 7-8 4-3 1-47 3h-8l-1-1v-121l1-5 8-6 7-5z" fill="#67A269"/>
<path transform="translate(1328,692)" d="m0 0 2 1 1 9v15l-3 24-6 21-8 17-9 13-11 13-10 10-15 11-16 8-9 4-23 6-21 3-10 1h-27l-30-3h-6l9 9 4 7-1 5-9 6-18 8-20 8h-2v14l-8 9-8 7-11 10-11 9-16 12-5 3-10 1-8-4-3-5 1-7 13-11 13-13 3-5-3-2v-2l4-2h6l2-5 7-10 3-1v-7l16-5 8-4h2l-7-49v-3l17 4 10 3 9 2 24 4h46l24-2 18-4 13-4 12-6h2v-2l10-6 4-4h2l1-3 7-6 9-11 8-11 12-20 12-23 8-24z" fill="#5F75B8"/>
<path transform="translate(1140,410)" d="m0 0h11l2 5 5-3h6l5 4-1 8 6-3h6l5 5 1 2v16h6l5 3 3 4v5l-6 5 3 6v8l-5 5-10 1-2 9-4 5-6 1 1-4-3 5-3 7v11l2 12 22 11v4l-15 8-15 6-8 3-15 3h-11l-8-4-4-5-3-6v-2h3l3 5 4 2 7-3 6-7 2-4v-10l-3-9-3-3-4 10-5 8-11 4-4 3-4-1-7-8v-4h2l3-9 6-13 7-19 2-7h8v13l-3 18-2 5 5-3 3-6 1-3-2-24-1-2-6-2 4-16 5-10-4-2-7-7-4-8v-8l7-6 9-1 3 1 2-4 5-4z" fill="#FD9D90"/>
<path transform="translate(161,567)" d="m0 0 6 1 6 7v-8l5 1 4 7 1 4 4-9 4 1 2 9 1 12 5-8 2-2h3l1 2v8l-3 14 4-7 5 1 1 7-4 12-5 10 1 6 5 11h6l-4-7 1-4 7-1 2 1-7-13v-5l1-1h6l4 2-1-2 1-9 3-5h2l3 4 3-8 4-3 4 2 1 15 8-6 4-2h10l1 2-6 7-10 7 16-1 4 2-1 5-4 3-7 2 6 4-5 6-15 6 8 3 3 2-1 3-3 2h10l1 5-7 8 1 8-5 5 5 3-2 4-8 4h-3v2l8-1v3l-8 3-6 1h-10l-5 10-3 8h19l4 2-1 3-5 1h-46l-4-2v-3l5-1 21-1v-16l-6-8-5-4-8-3 5 11v3l-4-1-4-5-2-2 1 2v8l-3 6-3 2-2-3-4 6-3-1-5-14-3 9-4 4-3-1v-7l1-4-7 1-3-3v-5l5-4 4-1-1-5 4-4h3v-4l6-1 6 2 1-3 3-1h7l4 3 2 9 8 3 9 8 1 2-1-17-4-21v-3l-6-2-5-3v7l-2 4-4-2-2-9-6 8-4 3-3-1-1-5 4-12h-2l-2 4-7 7-6 1 1-8 5-6v-2l-10-5-3-2v-4l7-1 7 3-4-5v-2h5l9 7v2h2l-1-8 4 1 8 10 3 6v4l9 6v-7l-6-15-1-2-22-10-7-6 4-2-7-8 1-5-7-6-1-6 9 1-8-12-1-6z" fill="#456D5E"/>
<path transform="translate(881,351)" d="m0 0h15l14 3 13 5h11l10-2v109l-10 25-7 13-7 9-3 2h-3l1-12 4-16 7-23 10-25 4-11 1-12-1-3-12 3-23 12-10 8-10 11-10 15-11 18-9 16-5 9h-1v-15l3-44 3-26v-13l-3-8-1-6v-12l2-9 5-9 8-7 10-4z" fill="#85B386"/>
<path transform="translate(1034,185)" d="m0 0h8l9 6 7 7 9 12v2h2v98l-12 13-10 9-16 8h-17l-12-6-8-9-5-9v-15l5-7 10-6 9-3-8-4-6-5v-2h-2l-5-9v-9l6-5 9-2h24l-8-20-1-5v-17l5-13 6-8z" fill="#67A269"/>
<path transform="translate(977,734)" d="m0 0h12l2 11-35 3h-14v18l-1 2-5 129-1 15h-10l-2-40-5-121h-24l-41 1h-93l-70-2-7-1-1 26-1 17-14 1-6-1-1-19v-25l-25-2-4-9v-2h31l57 2h190z" fill="#92776D"/>
<path transform="translate(1227,285)" d="m0 0 3 1-6 12-5 6-2 5 9 1v4l-9 1h-2l-3 7 4 1 7 37-1 6h99v-68h59v68h93v7h-289v-7h6l1-10 6-31 1-3h4v-2h-11l-5-2v-3l6-1 8 3-6-8-4-3-5 1-8 4h-3l1-4 5-3 10-1 7 5v-5l4-3 1 2-3 9 5 8v3h5l-2-5v-5h4l2 2 2-6v-16l3-1v3l4-4z" fill="#9B8076"/>
<path transform="translate(548,128)" d="m0 0h109v1l-82 1h-49l1 77 1 1v18h-6v-19h2v-77h-7v438l34-1 311 1h202l-4 7-15 1-7 2-4 5-4 6-1-2 5-8 2-2-7-1-166-1-2-1-2 2h-325l-24-1v-445l5-1z" fill="#CBBEBB"/>
<path transform="translate(946,128)" d="m0 0h151v1h-5v400h2l4 7 4 4 4-1 5-3 10-4 6-12 2-5 4 4 3 9v10l-6 9h-2l-2 4-7 2-6-5v-3l-4 1-4 15-3 11-9 29-5 11-3 5-2 13 4 1v2l-16 5h-6l-15-8 1-3-6-4-1-7v-12l5-7 4-10 5-10h2l1-5 6-10 7-11 10-15v-406h-95l-43-1z" fill="#FED687"/>
<path transform="translate(382,854)" d="m0 0 27 6 25 3h25l38-3-6 7-7 10 1 4 5 5 29 12 17 8 7 6 4 9-2 7-2 2-6 1-16-3-15-5-16-8-16-9-15-10-10-5h-11l-10 5-15 12-19 12-20 8-9 2h-13l-7-4-3-6 2-7 9-6 34-13 8-5 3-5-1-9-5-8-9-10z" fill="#835953"/>
<path transform="translate(365,554)" d="m0 0h16l12 1-1 7-4 17-2 17v32l1 21-2 1-19-3-16-4-9-3 6 83v14h-1v-5l-4-2-4-8-9-26-5-28v-35l3-29 4-21 7-14 8-7 10-5z" fill="#5F75B9"/>
<path transform="translate(1239,838)" d="m0 0 3 1-10 11-5 8-2 9 3 6 8 5 15 6 18 6 11 6 1 7-3 6-6 5h-11l-16-4-13-5-15-8-14-11-13-9-4-2h-11l-16 8-15 10-18 10-20 8-11 3h-3l-2-26 36-15 11-6 2-2-1-5-5-8-7-7v-1l18 1 19 2h27l25-3 19-4z" fill="#825953"/>
<path transform="translate(961,458)" d="m0 0 12 6 5 6 2 8v7l-12 23-1 9v2h21l6-3h2l1-4v-9l-3-8-1-12 2-10 6-7 13-6 3-1h10l6 3 3 5v15l-3 19v11l5 5 18 6 11 3 1 1v24h-107z" fill="#66A168"/>
<path transform="translate(227,293)" d="m0 0h119l-1 4-5 3-17 14-14 11-15 14-11 9-15 13-16 15-14 11-8 7h-3z" fill="#F1EDEB"/>
<path transform="translate(706,398)" d="m0 0h3v154h-23l-21-32-12-20-8-14-8-17-1-3v-19l4-10 8-7h9l9 6 6 10 5 16 6 14 8 8 6 3 9 1-1-17-3-18-5-20-1-11h-2v-2l-9-3-17-5-8-1v-1l22-4 20-6z" fill="#67A269"/>
<path transform="translate(406,408)" d="m0 0h9l1 1 1 13 5 1 11-7 7-3h9l12 4 10 9 4 7v10l-4 8-7 5-11 3-5 8-3 6-4 1-7-8-4-1-4 1-3 12 1 8 5 15 1 5v7l-3 6-3 3-2-1 3-4v-13l-3-6v-2l-5 4-9 3-6-2-10-8-7-9-3-8v-13l5-9 4-4v-2l-10-8-3-4v-7l4-2 1-7 5-5h5l3 4 1 3 1-8 4-4z" fill="#835A53"/>
<path transform="translate(797,588)" d="m0 0h3l-1 9-5 9-10 13-3 3-3 9 3-1h10l5 4-2 4-6 2h-10l-4-1-3 11 5 2 5 24 8 40v9l-6 5h-87l-15-1-5-1 1-2 5 1-3-13 1-5 6 1 10 4 15 4 18 2 10 1 2-12v-5l-4-2 1-11 8-40h8v-3h-21l-6-2-2-4 5-4 10 2 11 4-9-13-10-8-5 1-17 9h-6l1-4 7-7 6-2 13-1-3-1-2-5v-12l2-3h6l1 3v11l-1 9 9 7v-6l6-7 4-1-2 11-3 7 1 4 7 11 1 3 8 1-3-8v-8l1-1h5l3 6 5-11-1-9-1-5v-8l2-7 4-2 3 8 4-9 4-5z" fill="#5F75B8"/>
<path transform="translate(294,713)" d="m0 0 2 3 6 17 10 23 8 16 9 16 9 11 12 13 7 8 15 11 19 9 12 3 31 4 16 1h22l20-2 25-5 30-8 21-7 1 16-19 6-30 8-27 5-34 3h-25l-25-3-26-6-21-9-16-10-9-7-12-12-10-13-8-14-10-26-4-21v-29z" fill="#5F75B9"/>
<path transform="translate(677,700)" d="m0 0h60v2l5 2-1 10-2 7h-10l-18-2-16-4-12-5h-3l1 10 2 8-6-1-1 1 20 1h87l5-4 2-4 113 1 59 2 28 1-1 9-30 2-50 2h-190l-88-3-4-8v-1l7-1 22-1h19l-2-11v-10z" fill="#BDA597"/>
<path transform="translate(393,752)" d="m0 0 1 2h3l4 6 7 6 13 6 10 3 34 4h16l24-4 19-5 26 2 7 7 3 4v15l-2 4-7 4-8 2h-46l-45-5-6-2-12-2-7-2-17-6-12-6-8-3-13-10-13-11-3-4 8-2 22-2z" fill="#5F75B8"/>
<path transform="translate(1386,570)" d="m0 0 14 1 17 1 8 3 9 9 7 14 4 14 4 16 1 3 9 3 1 1v22l-4-1-2-5-4 4-12 6-4 3h25l3 11v3l-15 1-16 5-9 6-8-1-16-7-2-2 12-7 3-1-23-5-8-3 2-5 7-9 8-6 8-4 10-2h14l-4-8h21l-1-2-18-4-17-8-12-11-6-9-4-11z" fill="#68A26A"/>
<path transform="translate(1081,834)" d="m0 0 23 5 22 4 7 8 4 5 3 5-1 5-9 6-18 8-20 8h-2v14l-8 9-8 7-11 10-11 9-16 12-5 3-10 1-8-4-3-5 1-7 13-11 13-13 3-5-3-2v-2l4-2h6l2-5 7-10 3-1v-7l16-5 8-4h2l-4-28z" fill="#938F8B"/>
<path transform="translate(1391,186)" d="m0 0 9 1 6 4 4 5 14 4 3 2 1 4-6 3-1 7 3 2h6l7-5h2l1 6-7 7-3 6h-171l-1-1v-6h41l-4-16-10-15-2-5 16 8 17 1v-5h12v32h12v-31h34v4l2-1 12-1h11v-2l-4-2-4-4z" fill="#977B71"/>
<path transform="translate(683,749)" d="m0 0 77 2h93l41-1h24v21h-235z" fill="#CABDBA"/>
<path transform="translate(341,640)" d="m0 0 36 8 6 1 4 49 2 30v4h2l3 14 2 4v4l-3-1-10 2-23 2h-11l-1-5-7-101z" fill="#F0ECE9"/>
<path transform="translate(105,450)" d="m0 0h1l1 214v74h80v33h-80v8h44l13 8 2 4-18 1h-54l-33-3-16-2-1-2 10-5 8-1h41v-41l1-30z" fill="#CBBEBB"/>
<path transform="translate(1328,735)" d="m0 0 1 3 126-1v34h-137l3-9 6-21z" fill="#CBBEBB"/>
<path transform="translate(472,448)" d="m0 0 2 1 4 24v32l-4 11-3 5-6 3-12 1v20l5 14v2l-6-1-8-7-7-7-7-8-9-9-5-4 3-13-9-7-2-1v-2l10-4 4-2 4 8v13l-2 4 3-3 2-5v-7l-4-15-3-9 1-9 3-7 6-2 7 6 2 3 4-1 6-12 4-2 11-4 5-4z" fill="#FD9D91"/>
<path transform="translate(120,157)" d="m0 0h37l20 1 99-1h102v15h-285v-14z" fill="#DBEAF0"/>
<path transform="translate(515,589)" d="m0 0 5 1 11 7 9 5 6 3 5 2v2l8 1 8 4 6 8 6 4 1 2-5-1-3-2-4 1-2 5-5 4-4 5-14 10-5 2 1 5 3 7 20-15 7-1-1 6-4 6 14-6 13-8 10-4 27-13 1-3-5-2v-2l5-1 6 6v3l-16 8-24 13-4 6-3 7-10 14-9 8-9 4-6 1h-13l-11 1-2-11v-13h-7l-1-2 14-5-1-5-1-2-17-3v-7l3-11 1-1 12-1 6-8 2-9v-8l-20-12-4-3z" fill="#F99D91"/>
<path transform="translate(86,307)" d="m0 0 2 2-13 102-4 35h-26l2-23 8-68 4-31 2-16z" fill="#D5CDCC"/>
<path transform="translate(636,746)" d="m0 0h11l13 2 1 25v19h43l18-1 4 1 1 5-7 8-19 9-16 5-22 3-19 2h-15l-3-8v-18l-3-7-2-5 13-5 5-1v-2h3v-2h2l1-9-9-19z" fill="#FB9D91"/>
<path transform="translate(242,646)" d="m0 0 4 1 8 3 3 2-1 3-3 2h10l1 5-7 8 1 8-5 5 5 3-2 4-8 4h-3v2l8-1v3l-8 3-6 1h-10l-5 10-3 8h19l4 2-1 3-5 1h-46l-4-2v-3l5-1 21-1v-16l-6-8-5-4-8-3 5 11v3l-4-1-4-5-2-2 1 2v8l-3 6-3 2-2-3-4 6-3-1-5-14-3 9-4 4-3-1v-7l1-4-7 1-3-3v-5l5-4 4-1-1-5 4-4h3v-4l6-1 6 2 1-3 3-1h7l4 3 2 9 8 3 9 8 1 2 1-3v-16l-3-16 1-3 9 8 2 1-2-6v-5l3-1 8 7 2 3 5 1v4l1-4v-21z" fill="#82B183"/>
<path transform="translate(107,771)" d="m0 0h81l1 25 11 1h32l9-1 2-1 1-23 2 1v17l7 2 9 4v2l-13 5-13 2h-39l-16-1-8-1-27 2h-68l-22-2-20-3-3-3 3-3h10l4-1-1-3-2-2h14l33 3h72l-5-5-10-6-44-1z" fill="#827E7A"/>
<path transform="translate(219,286)" d="m0 0h135v116h-135zm7 7v103h120v-103z" fill="#9A7F74"/>
<path transform="translate(0,738)" d="m0 0h97v32l-1 1h-96z" fill="#CBBEBB"/>
<path transform="translate(1140,410)" d="m0 0h11l2 5 5-3h6l5 4-1 8 6-3h6l5 5 1 2v16h6l5 3 3 4v5l-6 5 3 6v8l-5 5h-11l-3-5h-7l-2-16-4-4-3-1v-2l-6-1-8-5v-2l-8-1-12 6h-5l-8-8-4-8v-8l7-6 9-1 3 1 2-4 5-4z" fill="#2F1431"/>
<path transform="translate(1498,177)" d="m0 0h6l2 2v5l-3 4 9 1 10-5 7 1 3 3 1 2v6l-5 2-9-1 3 2 8 2 8 7 1 7-5 1-5-3 2 6 10 6 3 4v6l-6 1-7-3 1 5 11 4 1 1v7l-6 1-6-4 6 7 2 4v8l-5-2-5-8v-2h-2l-1 7-4 5-4-1v-7l4-12 5-8 1-6-7 6h-4l-1-7 10-13v-6h-3l-2 5-2 2-4-1-1-1v-6l-5-2-1-2-1-14-12-4 3 5 4 9-1 5-5 1-5-8-3-11h-5l6 13v18l-3 7h-13l-4-1 2-6 4 2 3 2h4l-1-5-4-5-9-2-4-9 1-2 10 2-2-8-3-1h-11l-3 6v8l2 3 3 1v-8h3l3 8-1 5-5 7-1 3h-10l-2-8-7-7-2-8 5 1 6 2v-9l-5-5 1-4 4-4-2-3 7-4h5l3 2 7 1 9 5 8-1 3-5z" fill="#528554"/>
<path transform="translate(1544,637)" d="m0 0h12l-1 10-4 10-9 10-10 6-9 3-6 1h-22l-4 15v4l18-10 13-4h14l5 2-1 5-6 8-8 6-9 3h-13l-11-3h-4l-3 17h19l6 2-1 3-3 1-25 1-22-1-5-1v-3l5-2h10l-5-26v-10l-3-14-1-6 10 3 6 5 1 10-10 5 5 31v2h9v-10l2-1 5-26 7-23 4-2-2 10h2l2-4 12-12 14-9 12-5z" fill="#456E5C"/>
<path transform="translate(946,128)" d="m0 0h151v1h-5v401l-7 4-1-404h-95l-43-1z" fill="#CBBFBC"/>
<path transform="translate(1512,738)" d="m0 0h88v33h-89v-23z" fill="#CBBEBB"/>
<path transform="translate(1597,860)" d="m0 0h3v102l-1 6-10-1h-9l-13 3-5 1 2-11 7-35 2-18 3 1 9 17-7-23-2-9v-13l4-8 9-8z" fill="#416B5C"/>
<path transform="translate(607,891)" d="m0 0h6l1 14 3 7 5 5 5 4 5 1 15 9 14 6 12 6 2 2-1 4-4 3-4 1h-24l-19-4-25-9-17-7-3-4 3-10 4-6 1-1 1-19z" fill="#EFEAE7"/>
<path transform="translate(0,860)" d="m0 0 7 2 9 7 6 7 2 3v13l-5 23-5 11 1-1 7-14 3-4h2l3 26 5 25 4 14-1 4-6-7-4-1h-27l-1-6z" fill="#416B5C"/>
<path transform="translate(1056,827)" d="m0 0 5 5 1 5-4 8-9 20-12 24-10 16-7 7-8 2-7-3-4-6v-11l10-30 2-4h-2l2-5 3-4 8-19 9 2 8 6v3l12-12z" fill="#F1ECE9"/>
<path transform="translate(933,748)" d="m0 0h8v20l-5 129-1 15h-10l-2-40-4-99v-24z" fill="#825953"/>
<path transform="translate(1538,580)" d="m0 0h2v9l-4 16-4 9h11l-4 7-11 14-11 12-15 10-5 2-15-1-4-2-2-5 5-5 6-8 4-9 1-5 9-3 1-15 3-10 5-6 8-4 18-5z" fill="#84B385"/>
<path transform="translate(1328,306)" d="m0 0h46v54h-46l-1-1v-21z" fill="#F1EDEA"/>
<path transform="translate(420,874)" d="m0 0 12 1 16 6 19 10 25 12 17 9 11 5 17 8 6 3v2l-6 1-16-3-15-5-16-8-16-9-15-10-10-5h-11l-10 5-15 12-19 12-20 8-9 2h-13l-1-2 20-9 11-6 10-8 8-9 9-11 9-9h2z" fill="#453F47"/>
<path transform="translate(1087,886)" d="m0 0 2 1 1 3v12l-8 9-8 7-11 10-11 9-16 12-5 3-10 1-8-4-3-5 1-7 13-11 13-13 3-5-3-2v-2l4-2h6l2-5 7-10 6 1 7 8 2 3 10-8z" fill="#F0ECE9"/>
<path transform="translate(622,790)" d="m0 0 3 2 2 6v18l3 11h14l10-1h9l1 9v41h-44v-43z" fill="#938F8B"/>
<path transform="translate(366,647)" d="m0 0h7l10 2 4 49 2 30v4h2l3 14 2 4v4l-3-1-10 2-23 1 2-12 4-26 1-16v-22l-1-17z" fill="#F0ECE9"/>
<path transform="translate(1195,858)" d="m0 0h8l10 9 9 11v2h2l7 8 9 8 13 8 16 7 4 2-1 1h-11l-16-4-13-5-15-8-14-11-13-9-4-2h-11l-16 8-15 10-18 10-20 8-11 3h-3v-8l16-8 9-3v-3l8-1 17-8 19-10 5-2 14-8z" fill="#453E47"/>
<path transform="translate(541,690)" d="m0 0h17l-8 6 1 6 8 16 7 13 10 14 10 13 8 10v2h2l7 8 10 8 9 2v20l-18-18-7-8-11-12-4-6-11-12-15-24-11-21-1-5h-47l-4 3 1-5h-7l-2 2h-3v-2l-6 3-10 9-10 7-6 3h-2l-1 4h-3l-2 4-1-4-17 6-4 1-2 2-4-1-12 2h-8v-4l23-5 16-7 14-8 11-8 19-10 54-1v-2z" fill="#4F8451"/>
<path transform="translate(1386,570)" d="m0 0 14 1 17 1 8 3 9 9 7 14 4 14 3 16-2 2-1-2-18-4-17-8-12-11-6-9-4-11z" fill="#84B385"/>
<path transform="translate(1258,312)" d="m0 0h42v48l-1 1h-40l-1-1z" fill="#F1ECE9"/>
<path transform="translate(566,842)" d="m0 0h3l3 13 3 15 1 6-75 2h-17l1-4 8-10 5-5 22-4 37-10z" fill="#938F8B"/>
<path transform="translate(161,567)" d="m0 0 6 1 6 7v-8l5 1 4 7 1 4 4-9 4 1 2 9 1 12 5-8 2-2h3l1 2v8l-3 14 4-7 5 1 1 7-4 12-5 10 1 6 3 9-2 2-6-15-1-2-22-10-7-6 4-2-7-8 1-5-7-6-1-6 9 1-8-12-1-6z" fill="#466D5E"/>
<path transform="translate(105,450)" d="m0 0h1l1 214v115h44l13 8 2 4-18 1h-54l-33-3-16-2-1-2 10-5 8-1h41v-41l1-30z" fill="#D4CCCB"/>
<path transform="translate(515,589)" d="m0 0 5 1 11 7 9 5 6 3 5 2v2l8 1 8 4 6 8 6 4 1 2-5-1-3-2-4 1-2 5-5 4-4 5-14 10-5 2 1 5 3 7-1 5-5 2h-7l-1-2-7-1-1-2 14-5-1-5-1-2-17-3v-7l3-11 1-1 12-1 6-8 2-9v-8l-20-12-4-3z" fill="#FD9E90"/>
<path transform="translate(183,673)" d="m0 0h7l4 3 2 9 8 3 9 8 3 5v3h2v-5h1l1 13 1 1 7-17 7-16 3-4-1 5-7 16-9 23h19l4 2-1 3-5 1h-46l-4-2v-3l5-1 21-1v-16l-6-8-5-4-8-3 5 11v3l-4-1-4-5-2-2 1 2v8l-3 6-3 2-2-3-4 6-3-1-5-14-3 9-4 4-3-1v-7l1-4-7 1-3-3v-5l5-4 4-1-1-5 4-4h3v-4l6-1 6 2 1-3z" fill="#456B5D"/>
<path transform="translate(425,873)" d="m0 0h9l5 1 43 2 4 6 4 4 29 12 17 8 7 6 4 9-2 7-2 1-19-9-32-16-31-15-15-8-14-5-7-1z" fill="#835953"/>
<path transform="translate(1077,668)" d="m0 0h15l10 4 11 4 9 2 5 10 1 9-11 5h-14l-12-4-20-1-6-3-3-2v-2h2v-2h-2l1-4 7-3-13 1 2-4 8-6z" fill="#FB9C8F"/>
<path transform="translate(716,791)" d="m0 0 10 1 1 5-7 8-19 9-16 5-22 3-19 2h-15l-3-8v-8l6 1 10 3h22l7-4v-5h-2l-2-6 3-5h34z" fill="#F0ECE9"/>
<path transform="translate(245,738)" d="m0 0h48l5 26 2 7h-56v-13z" fill="#CBBEBB"/>
<path transform="translate(97,448)" d="m0 0h5v24l1 38v62l-1 125-1 81-4-1z" fill="#82817C"/>
<path transform="translate(727,796)" d="m0 0h1v6l-8 7-14 7-18 6-8 2-3 72-1 15-1 1h-8l-1-1-2-44-1-41-19 2h-14l-2-5h16l36-4 15-4 15-6 11-6z" fill="#835953"/>
<path transform="translate(1227,285)" d="m0 0 3 1-6 12-5 6-2 5 9 1v4l-9 1h-2l-3 7 4 1 7 37-1 5-8 1h-21l-3-2 2-13 5-26 1-3h4v-2h-11l-5-2v-3l6-1 8 3-6-8-4-3-5 1-8 4h-3l1-4 5-3 10-1 7 5v-5l4-3 1 2-3 9 5 8v3h5l-2-5v-5h4l2 2 2-6v-16l3-1v3l4-4z" fill="#6075B8"/>
<path transform="translate(943,248)" d="m0 0h1v92l-6-4-8-9-6-12-3-12v-20l4-13 6-11 9-9z" fill="#84B385"/>
<path transform="translate(1190,857)" d="m0 0h5v2l-17 6-10 6-7 3-15 8-24 11-5-1v3l-24 11-2-2-1-16 36-15 11-6 2-2-1-7 8 1 35-1z" fill="#825953"/>
<path transform="translate(860,568)" d="m0 0h204l-4 7-15 1-7 2-4 5-4 6-1-2 5-8 2-2-7-1-166-1-3-1z" fill="#CCC0BD"/>
<path transform="translate(1544,637)" d="m0 0h12l-1 10-4 10-9 10-10 6-9 3-6 1h-23l-1-8 4-10 3-1-2 10h2l2-4 12-12 14-9 12-5z" fill="#518452"/>
<path transform="translate(1456,179)" d="m0 0h5l3 2 7 1 9 5 7 9 3 7v18l-3 7h-13l-4-1 2-6 4 2 3 2h4l-1-5-4-5-9-2-4-9 1-2 10 2-2-8-3-1h-11l-3 6v8l2 3 3 1v-8h3l3 8-1 5-5 7-1 3h-10l-2-8-7-7-2-8 5 1 6 2v-9l-5-5 1-4 4-4-2-3z" fill="#473E47"/>
<path transform="translate(983,745)" d="m0 0h8l5 12 2 6v8h-57l1-23z" fill="#CABCB9"/>
<path transform="translate(1447,678)" d="m0 0h14v4l-5 8-5 5-12 13-9 8-20 12-6 1 4-18 4-10 6-8 5-5 10-6z" fill="#84B385"/>
<path transform="translate(920,518)" d="m0 0h10l10 4 4 4 1 25-1 1h-40l-3-2v-14l5-9 8-7z" fill="#85B486"/>
<path transform="translate(856,416)" d="m0 0h2l8 16 10 13 5 6-2 5-11 17-12 21-6 11h-1v-15l3-44 3-26z" fill="#EFEBE8"/>
<path transform="translate(965,121)" d="m0 0h132l-1 2-131 1-47 1 2 1 34 1v1l-10 1h-25l-50-1-5-1h-15l-34 1-116 1h-41l-22-1v-1l100-1-30-2v-1h51l21 2 68 1v-2l-33 1h-30v-1l9-1h56l1 1h3 6l2-1 62-1z" fill="#D7DBDE"/>
<path transform="translate(677,700)" d="m0 0h60v2l5 2-1 10-2 7h-10l-18-2-16-4-12-5h-3l1 10 2 8-8-2-2-13v-10z" fill="#FD9D90"/>
<path transform="translate(382,854)" d="m0 0 27 6 25 3h25l38-3-6 7-7 10-45-2-5-1-14-1-27-5-11-12z" fill="#454048"/>
<path transform="translate(1470,565)" d="m0 0h2l4 12 2 11v13h-2l-2 5-6 7-5 10-1 3-4-1-8-16-1-5v-16l4-10 9-8z" fill="#508451"/>
<path transform="translate(1239,838)" d="m0 0 3 1-10 11-3 3-48 6-40 1-4-2-4-6-7-7v-1l18 1 19 2h27l25-3 19-4z" fill="#463F47"/>
<path transform="translate(607,891)" d="m0 0h6l1 14 3 7 5 5 4 3v3l-3 3v10l-10-1-15-7-8-7-4-7 1-21z" fill="#FB9D91"/>
<path transform="translate(1253,306)" d="m0 0h52v60h-52l-1-6v-52zm5 6v48l1 1h40l1-1v-48z" fill="#FDC87F"/>
<path transform="translate(1337,324)" d="m0 0 7 2 7 7 7 8 11 12 3 5 1-34h1v36h-46l-1-1v-21l2 2 4-9z" fill="#DBE8ED"/>
<path transform="translate(1538,580)" d="m0 0h2v9l-4 16-5 10-11 3-17 2v-19l4-8 8-6 21-6z" fill="#4F8350"/>
<path transform="translate(107,771)" d="m0 0h81v18h-2l-1 3h-37v-1h18l-5-5-10-6-44-1z" fill="#948F8B"/>
<path transform="translate(1434,664)" d="m0 0h25l3 11v3l-15 1-16 5-9 6-8-1-16-7-2-2 12-7 20-7z" fill="#436C5D"/>
<path transform="translate(660,748)" d="m0 0h22v27l-1 17-14 1-6-1-1-19z" fill="#825953"/>
<path transform="translate(97,447)" d="m0 0h7l2 1-1 263-2 68-4-1h2v-81l1-125v-65l-1-35v-22l1-2h-5z" fill="#94908C"/>
<path transform="translate(1190,364)" d="m0 0 3 1h29l98 1 1 5-1 1h-136v-6h6z" fill="#92776D"/>
<path transform="translate(166,625)" d="m0 0h5l9 7v2h2l-1-8 4 1 8 10 3 6-1 4-19-9-4-1 21 10 4 3 1 9-2 4-4-2-2-9-6 8-4 3-3-1-1-5 4-12h-2l-2 4-7 7-6 1 1-8 5-6v-2l-10-5-3-2v-4l7-1 7 3-4-5z" fill="#83B284"/>
<path transform="translate(107,168)" d="m0 0h265l2 2-1 1h-276v-2z" fill="#7181BE"/>
<path transform="translate(1522,682)" d="m0 0h14l5 2-1 5-6 8-8 6-9 3h-13l-11-3-3-2 1-5 18-10z" fill="#456C5E"/>
<path transform="translate(680,709)" d="m0 0 6 1 10 4 15 4 18 2 10 1 1-2v9l43 1v1h-87l-15-1-5-1 1-2 5 1-3-13z" fill="#92786E"/>
<path transform="translate(223,657)" d="m0 0 5 2 7 8 5 1-1 6-9 19-5 13-4 10-2-4-1-8h-2l-1-9v-16l-3-16 1-3 9 8 2 1-2-6v-5z" fill="#84B386"/>
<path transform="translate(1462,143)" d="m0 0h7l5 5 2 4v9l-6 21h-6l-3-2-8 1-3 2-7-4 1-9 5-15 3-1 4 11 2 2h5l2-5-4-8-5-5 2-4z" fill="#EFEBE8"/>
<path transform="translate(797,588)" d="m0 0h3l-1 9-5 9-10 13-3 3-3 9 3-1h10l5 4-2 4-6 2h-10l-4-1-3 11-1 1h-5l-3-8v-8l1-1h5l3 6 5-11-1-9-1-5v-8l2-7 4-2 3 8 4-9 4-5z" fill="#558055"/>
<path transform="translate(1455,786)" d="m0 0h1v10l10 1h33l11-2 1-5 16 2 3 4 3 1v2l-12 4-18 2h-32l-23-2-8-4v-6l15-1z" fill="#817D7A"/>
<path transform="translate(1528,214)" d="m0 0 2 2 1 3 10 6 3 4v6l-6 1-7-3 1 5 11 4 1 1v7l-6 1-6-4 6 7 2 4v8l-5-2-5-8v-2h-2l-1 7-4 5-4-1v-7l4-12 5-8 1-6-7 6h-4l-1-7 10-13z" fill="#538255"/>
<path transform="translate(1460,140)" d="m0 0h8l6 4 4 8v10l-5 18-1 2h-2l2-9 3-12v-9l-4-7-2-1h-7l-5 3 2 4 5 6 2 7-3 4h-5l-4-5-2-9-2 1-6 17-1-3-11 5h-5l-2-3v-5l5-3 7-3h6 2l4-10-7 2-6-1-2-2v-5l4-3h8l5 3 3 2 2-4z" fill="#528554"/>
<path transform="translate(366,647)" d="m0 0h5l1 2 2 29v32l-2 20-4 24 1 2h-9l2-12 4-26 1-16v-22l-1-17z" fill="#FCA090"/>
<path transform="translate(728,598)" d="m0 0h6l1 3v11l-1 9 9 7v-6l6-7 4-1-2 11-3 7 1 4 7 11-1 4-1-2-21-1-6-2-2-4 5-4 10 2 11 4-9-13-10-8-5 1-17 9h-6l1-4 7-7 6-2 13-1-3-1-2-5v-12z" fill="#547D55"/>
<path transform="translate(488,608)" d="m0 0 2 1 2 6 3 1v4l3 1-4 2v5l3-1 5-10 8 6 8 4h16l-3 5-12 1-3 11-1 7h-14l-6-15v-2h-2l-1-13-4-10z" fill="#D5CDCC"/>
<path transform="translate(1444,236)" d="m0 0 2 1v2h8l5 5v7l-1 1-7-1-5-4 1 2 1 9 6 4 4 7v11h-3l-7-13-2-1-2 6-7 6-5-1-2-3 1-6 7-6 6-2v-5l-7 5-4-1-1-1v-7l4-5 7-5z" fill="#548655"/>
<path transform="translate(1050,809)" d="m0 0h2l3 12 1 7-9 10-4 5h-2l-3-5-8-4-3-1v-11l-1-1v-9l4 1h12z" fill="#FB9D90"/>
<path transform="translate(1165,603)" d="m0 0 2 1 3 10 7 19 3 6-1 4-14 8-20 13-15 10-3 3-2 6-3-3v-2l-4-1 12-6 11-8 11-7 9-7 1-4-2-3-11-3-5-3 1-2 16-2 5-1z" fill="#FDC77E"/>
<path transform="translate(1109,545)" d="m0 0 3 4 1 4-4 15-2 11-8 26v6h-2v6h-2l-1 11-4 1-3 3-4-2-1-3 2-10 3-5 5-11 6-19 5-16 4-17z" fill="#FDC77E"/>
<path transform="translate(377,649)" d="m0 0h6l4 49 2 30v4h2l3 14 2 4v4l-3-1-4 1-4-17-5-37-2-23z" fill="#FB9F90"/>
<path transform="translate(201,111)" d="m0 0h68l1 8-5 1h-63l-1-1z" fill="#DCEBF1"/>
<path transform="translate(1472,232)" d="m0 0 9 3 6 5 1 2v6h-6l-6-3v5l7 1 3 3 1 6-2 2-5-1-2-1 3 5 2 4v5l-2 2h-4l-3-5v-11l-4 6-3 2-4-1-1-5 3-5 8-7v-4l-2 4h-5v-8l4-8z" fill="#558756"/>
<path transform="translate(1408,207)" d="m0 0h15l-2 4v5l3 2h6l7-5h2l1 6-6 6h-41v-7l3-10z" fill="#EFEAE7"/>
<path transform="translate(725,322)" d="m0 0 6 1 6 7 1 5v10l-3 23-4 10-5 5-1-11z" fill="#85B386"/>
<path transform="translate(1129,515)" d="m0 0 4 4 3 9v10l-6 9h-2l-2 4-7 2-6-5v-3h-8l-1-4 7-5 10-4 6-12z" fill="#F1EBE8"/>
<path transform="translate(1317,180)" d="m0 0h22 2 21v2h2v-2h8l2 1v8l-1 1h-56z" fill="#8D7B70"/>
<path transform="translate(706,123)" d="m0 0h51l21 2 68 1v-2l-33 1h-30v-1l9-1h56l-1 3 2 1-34 1-116 1h-41l-22-1v-1l100-1-30-2z" fill="#DAE1E5"/>
<path transform="translate(1377,367)" d="m0 0h96l-1 5h-120l1-2 20-2z" fill="#855C56"/>
<path transform="translate(1451,187)" d="m0 0 3 1v2l4 2 2 3-3 6v8l2 3 3 1v-8h3l3 8-1 5-5 7-1 3h-10l-2-8-7-7-2-8 5 1 6 2v-9l-5-5 1-4z" fill="#463E47"/>
<path transform="translate(394,101)" d="m0 0 6 1 1 3 1 32v12l-1 23-2 5-5 1z" fill="#DCEBF1"/>
<path transform="translate(1083,870)" d="m0 0h2l3 16-10 9-8 5-5-8-5-4-1-4v-5l16-5z" fill="#FB9C90"/>
<path transform="translate(487,699)" d="m0 0 7 1v4l3-3h7l-1 5-11 21-4 4v-4l1-2h-2l-2 3h-4l-5 7-2-1 6-8 1-5 4-9 4-6-6 7-3 5-3 1 2-6 6-8-1 1-8 10-1 2-3-1 10-14z" fill="#DDE2E5"/>
<path transform="translate(1269,328)" d="m0 0 4 2 1 3 4 2 8 10 11 14v1h-35l4-4h8l-1-1h-6l2-11 2-5h2l-3-8z" fill="#DCEBF1"/>
<path transform="translate(237,676)" d="m0 0 1 3-7 15-6 16-4 10h19l4 2-1 3-5 1h-46l-4-2v-3l5-1 21-1v-17l2-1v3h2v-5h1l1 13 1 1 7-17 7-16z" fill="#55815A"/>
<path transform="translate(636,746)" d="m0 0h11l13 2v23h-13l-11-23z" fill="#CABCB8"/>
<path transform="translate(1478,656)" d="m0 0 4 1 15 1-3 11-6 23-3 14-2-2-2-16v-8h2l-3-6-2-12z" fill="#EEE9E7"/>
<path transform="translate(1460,194)" d="m0 0h11l5 5v5h-7-3l2 3 1 5 9 2 6 8-1 4-6-1-5-4-2 6-1 1h-8l1-5 5-7-2-10-2-1-1 8-4-1-2-3v-8l3-6z" fill="#4B7D52"/>
<path transform="translate(1330,192)" d="m0 0 43 1v1h-33l1 32h-14l1-32z" fill="#FBC77E"/>
<path transform="translate(1534,1082)" d="m0 0 2 4 7 37v5l-21 1 10-30z" fill="#4E834F"/>
<path transform="translate(64,1087)" d="m0 0 2 2 5 21 6 15 1 4-21-1 1-12 5-26z" fill="#4E834F"/>
<path transform="translate(727,796)" d="m0 0h1v6l-8 7-14 7-18 6-15 3-29 3h-14l-2-5h16l36-4 15-4 15-6 11-6z" fill="#3C263B"/>
<path transform="translate(919,524)" d="m0 0h12l8 4 4 5 1 3 1 15h-4l-2-11-4-6-3-2h-9l-5 2-3 5-1 11 2 1h-8l-1-4v-10l5-8 5-4z" fill="#67A169"/>
<path transform="translate(307,286)" d="m0 0h46v22h-1l-1-17-1-2h-21l-18 1h-89l-2 1v-4z" fill="#845C55"/>
<path transform="translate(1494,672)" d="m0 0 1 2-4 18v10l-2 1-3 17h19l6 2-1 3-3 1-25 1h-8l-1-1v-6h9v-10l2-1 5-26 3-10z" fill="#5D8962"/>
<path transform="translate(706,398)" d="m0 0h3v8l-9 4-4 6-1 5-13-5-14-4-8-1v-1l22-4 20-6z" fill="#4E834F"/>
<path transform="translate(1424,959)" d="m0 0h11l11 1-1 2-12 5-8 6-9 12-4-5-2-4v-7l4-6 6-3z" fill="#4D824F"/>
<path transform="translate(920,518)" d="m0 0h10l10 4 4 4v10l-2-3-5-5-6-3h-12l-6 4-5 8v14h7v1h-11l-3-2v-14l5-9 8-7z" fill="#85B486"/>
<path transform="translate(249,396)" d="m0 0h31l66 1v3h-116v-3z" fill="#835953"/>
<path transform="translate(165,959)" d="m0 0h11l8 4 6 6-1 8-4 8-4-4-7-8-7-6-9-4-5-2v-1z" fill="#4C8050"/>
<path transform="translate(1198,679)" d="m0 0h4l1 4v8l-7 3h-41v-1l7-2z" fill="#FCC67E"/>
<path transform="translate(1230,367)" d="m0 0h91v4h-92z" fill="#835953"/>
<path transform="translate(578,930)" d="m0 0 12 6 27 10 15 4 10 2h24l7-3 3-2-1 4-5 4-3 1h-26l-16-3-29-9-14-6-4-4z" fill="#352037"/>
<path transform="translate(1475,683)" d="m0 0h3l3 22 1 15h-9l-2-9-4-24z" fill="#EEE9E6"/>
<path transform="translate(1498,177)" d="m0 0h6l2 2v5l-3 4 6 1-3 2-10-2 3 5 4 9-1 5-5 1-5-8-3-11h-5l-1 2-2-4 7-2 3-5z" fill="#548456"/>
<path transform="translate(1441,169)" d="m0 0h2l1 6-1 4 5 2 2 2 2 4-3 3h-2l-1 3h-5l-3-2-5 4-9 1-2-2 1-7 8-6 9-1z" fill="#548755"/>
<path transform="translate(1317,194)" d="m0 0h11v31h-10l-1-1z" fill="#493E47"/>
<path transform="translate(1528,214)" d="m0 0 2 2 1 3 10 6 3 4v6l-6 1-8-4v5h-1v-5l-7 6h-4l-1-7 10-13z" fill="#518352"/>
<path transform="translate(1427,332)" d="m0 0h10l6 4 3 4v6h-25l-2-5 1-5 4-3z" fill="#FDC97F"/>
<path transform="translate(1499,905)" d="m0 0h2l4 16 12 59 4 19v8l-3-4-9-42-10-47-1-8z" fill="#73A974"/>
<path transform="translate(1444,236)" d="m0 0 2 1v2h8l5 5v7l-1 1-7-1-5-4-1 5-5 6-3 2-4-1-1-1v-7l4-5 7-5z" fill="#528553"/>
<path transform="translate(1340,194)" d="m0 0h10v31h-10z" fill="#4A3F47"/>
<path transform="translate(1518,199)" d="m0 0 4 1h6l6 4 5 6v5l-5 1-5-2h-2v-2h-3l-2 5-2 2-4-1-1-1v-6l-3-2h4z" fill="#5E8C5E"/>
<path transform="translate(166,625)" d="m0 0h5l9 7v2h2l-1-8 4 1 8 10 3 6-1 4-19-9-8-4v-3l2 1-4-5z" fill="#83B284"/>
<path transform="translate(1425,630)" d="m0 0h10l13 2 5 12 1 5-12-5-11-4-6-9z" fill="#466E5D"/>
<path transform="translate(100,904)" d="m0 0 2 1-1 8-7 34-11 51-2 1v-8l15-74 3-12z" fill="#70A772"/>
<path transform="translate(524,130)" d="m0 0h2l1 77 1 1v18h-6v-19h2z" fill="#645E60"/>
<path transform="translate(1472,232)" d="m0 0 9 3 6 5 1 2v6h-6l-7-4-1 4-1-2-2 4h-5v-8l4-8z" fill="#518454"/>
<path transform="translate(1355,194)" d="m0 0h9v32l-9-1 1-12z" fill="#938F8B"/>
<path transform="translate(1417,356)" d="m0 0 21 4 17 2-2 4h-40l-5-1 1-3h9l3-1v-3l-4-1z" fill="#DAE2E6"/>
<path transform="translate(73,104)" d="m0 0h2v73h-2l-2-25v-36l1-11z" fill="#DCEBF1"/>
<path transform="translate(646,769)" d="m0 0 1 2h13l1 2v18l-5-1-7-6-5-10z" fill="#948F8A"/>
<path transform="translate(1369,194)" d="m0 0h5v30l-5 1-3-1v-29z" fill="#5F75B6"/>
<path transform="translate(1227,285)" d="m0 0 3 1-6 12-5 6-2 5 9 1v4l-9 1h-2l-3 5h-4l-1-8h4l2 2 2-6v-16l3-1v3l4-4z" fill="#558258"/>
<path transform="translate(946,128)" d="m0 0h151v1h-5l-1 2h-3l-2 2-2-3h-95l-43-1z" fill="#D5CDCC"/>
<path transform="translate(1450,151)" d="m0 0 1 2-7 19-1-3-11 5h-5l-2-3v-5l5-3 7-3h6 2l4-8z" fill="#518154"/>
<path transform="translate(797,588)" d="m0 0h3l-1 9-5 9-10 13-2-1 3-9-1-6 4-8z" fill="#548455"/>
<path transform="translate(1317,180)" d="m0 0h22l1 2v7l-1 1h-22z" fill="#FDCC81"/>
<path transform="translate(744,632)" d="m0 0 3 1 9 14-1 4-1-2-21-1-6-2-2-4 5-4 10 2 11 4-7-10z" fill="#568656"/>
<path transform="translate(1129,515)" d="m0 0 4 4 3 9v10l-6 9h-2l-2-17v-8z" fill="#F1ECE9"/>
<path transform="translate(924,535)" d="m0 0 6 1 6 7v8h-7v-6l-2 2-2 4h-4l-4-6 1-5 4-4z" fill="#67A269"/>
<path transform="translate(548,128)" d="m0 0h109v1l-82 1h-58v8l-2 2-3-3v-6l-2-1 5-1z" fill="#D5CDCC"/>
<path transform="translate(498,702)" d="m0 0h1l-1 7-2 1-7 15h-2l-2 3h-4l-5 7-2-1 6-8 1-5 4-9 6-8 1 3z" fill="#EDECEB"/>
<path transform="translate(1488,223)" d="m0 0 1 3h4l1 5-1 1-19 1-30-1 3-4 27-1h13z" fill="#8C6961"/>
<path transform="translate(626,621)" d="m0 0 4 1 5 5v3l-16 8-24 13h-2v-5l35-17 1-3-5-2v-2z" fill="#40283D"/>
<path transform="translate(1253,306)" d="m0 0h52v59h-1v-58h-50v45l1 10 2 3h-4l-1-5v-52z" fill="#FFD788"/>
<path transform="translate(1467,688)" d="m0 0h1l5 30v8h-13l-5-1v-3l5-2h10l-5-26 1-3z" fill="#5C915D"/>
<path transform="translate(1476,658)" d="m0 0 1 4h2l2 12 2 3v3h-2l3 24 1 5-3 1v5h-1l-3-27v-5l-2-1h2l-2-10-1-2z" fill="#649A68"/>
<path transform="translate(1200,300)" d="m0 0 2 2-3 9 4 6v3h-12l-5-2v-3l6-1 8 3-6-8-4-3-5 1-8 4h-3l1-4 5-3 10-1 7 5v-5z" fill="#5E9774"/>
<path transform="translate(533,652)" d="m0 0 4 1 5 11-1 5-5 2h-7l-1-2-7-1-1-2 14-5z" fill="#4FACA3"/>
<path transform="translate(515,589)" d="m0 0 5 1 11 7 9 5 6 3 5 2v2l5 2 5 4 3 1-1 3-5-2-16-9-16-10-10-6z" fill="#5B444D"/>
<path transform="translate(1014,854)" d="m0 0 6 1 2-1 21 3-1 5h-14-4l-10-2h-3l2-5z" fill="#DCEAEF"/>
<path transform="translate(1440,190)" d="m0 0 1 3 7 1 4 5v7l-1 2-6-1-5-2-1 2v-15z" fill="#4E8251"/>
<path transform="translate(718,620)" d="m0 0h14v2l-21 10-1 1h-6l1-4 7-7z" fill="#548855"/>
<path transform="translate(1122,480)" d="m0 0 1 2h2l2 24-3 5-4 5h-3l1-5 3-18z" fill="#EDE7E4"/>
<path transform="translate(1062,836)" d="m0 0 2 3 2 4-1 5-6 9-5-1-1 5-3 7-3 1 2-6 9-20 3-6z" fill="#817E7A"/>
<path transform="translate(563,752)" d="m0 0h3l1 8-21 5-12 4-4-1 20-9 10-6z" fill="#5F75B9"/>
<path transform="translate(1509,955)" d="m0 0 3 1 9 43v8l-3-4-9-42z" fill="#73A975"/>
<path transform="translate(193,720)" d="m0 0h22l-1 6h-22l-4-2v-3z" fill="#4A3D47"/>
<path transform="translate(1485,720)" d="m0 0h20l6 2-1 3-3 1-19 1-3-1z" fill="#50454B"/>
<path transform="translate(1528,1058)" d="m0 0h2l2 9v7l-12 2-8 4v-2l5-2 2-4z" fill="#4D814F"/>
<path transform="translate(70,1058)" d="m0 0 5 5 7 10 5 6-5-2-2-2h-13l2-13z" fill="#4D814F"/>
<path transform="translate(1575,879)" d="m0 0h1l1 14 6 23 3 10-3-3-8-15-1-1v-26z" fill="#99928C"/>
<path transform="translate(763,634)" d="m0 0h5l5 10-3 7h-5l-3-8v-8z" fill="#558756"/>
<path transform="translate(1102,878)" d="m0 0h8l2 2-20 8h-2l-1 2-2-5 1-5z" fill="#817E7B"/>
<path transform="translate(220,720)" d="m0 0h20l4 2-1 3-5 1h-18z" fill="#493C47"/>
<path transform="translate(1456,179)" d="m0 0h5l3 2 6 1-4 2-1 4-8 1 3 3-1 2-5-4-5-7z" fill="#577F55"/>
<path transform="translate(1447,655)" d="m0 0 7 1 4 5v2l-18 1-8 1 3-3z" fill="#EDE9E6"/>
<path transform="translate(1450,632)" d="m0 0h5l5 3v22l-2-1-8-22z" fill="#467359"/>
<path transform="translate(551,575)" d="m0 0h64v1l-6 2-6 8-2 2 1-5 5-7-15 1-2 1v-2l-20 1-2 1v-2l-16 1-1 30-4-1h3v-30z" fill="#E9DAD7"/>
<path transform="translate(778,598)" d="m0 0h2l3 10-2 9-2-3-2 9-2-3-1-5v-8l2-7z" fill="#5F875D"/>
<path transform="translate(585,650)" d="m0 0 2 1-8 8h-2v2l-12 6h-4l1-5 19-10z" fill="#43273C"/>
<path transform="translate(1201,683)" d="m0 0h2v8l-7 3h-21l4-2 19-6 3-1z" fill="#F7D089"/>
<path transform="translate(1374,213)" d="m0 0h6l5 4v8h-12z" fill="#EFEAE6"/>
<path transform="translate(25,883)" d="m0 0h1l1 23-6 8-6 13-2-1 5-11 5-23 1-1z" fill="#9E968F"/>
<path transform="translate(1331,193)" d="m0 0h42v1h-33v31l-3-1v-21l-1-9h-5z" fill="#EECA91"/>
<path transform="translate(1460,140)" d="m0 0h8l6 4 4 8v10l-5 18-1 2h-2l2-9 3-12v-9l-4-7-10-2z" fill="#515F56"/>
<path transform="translate(998,765)" d="m0 0 2 3 8 19 4 10-1 2-6-8-6-12-1-4z" fill="#6D7FC3"/>
<path transform="translate(797,588)" d="m0 0h3l-1 9-5 9-3 1-1-14z" fill="#558557"/>
<path transform="translate(1310,214)" d="m0 0h7v11h-11l1-9z" fill="#EEE9E6"/>
<path transform="translate(751,614)" d="m0 0h2l-2 11-4 8-3-1-2-4 2-8z" fill="#588B59"/>
<path transform="translate(1317,180)" d="m0 0h11v10h-11z" fill="#51454C"/>
<path transform="translate(639,121)" d="m0 0h26l38 2v1h-53v-1l-11-1z" fill="#DDEBF0"/>
<path transform="translate(158,629)" d="m0 0 8 1 4 5 4 4-1 1h-7l-10-6v-4z" fill="#6CA46E"/>
<path transform="translate(1422,575)" d="m0 0 4 1 8 8 6 12v4l-3-1-5-9-7-9-3-5z" fill="#6CA46D"/>
<path transform="translate(1215,308)" d="m0 0 2 1 9 1v4l-9 1h-2l-3 5h-4l-1-8h4l2 2z" fill="#6D9D6D"/>
<path transform="translate(1467,659)" d="m0 0h8l1 2v9l-15-6v-3z" fill="#ECE7E5"/>
<path transform="translate(1476,259)" d="m0 0 4 5 3 5v5l-2 2h-4l-3-5v-10z" fill="#4F7C56"/>
<path transform="translate(63,1076)" d="m0 0h2l-1 9-2 16-2 10-3 4v-9z" fill="#78AC79"/>
<path transform="translate(1427,332)" d="m0 0h10l2 2-5 5-2 5-1-2-4-2-5-6z" fill="#FFD788"/>
<path transform="translate(1447,228)" d="m0 0h16l10 2v2h-29z" fill="#87625B"/>
<path transform="translate(212,660)" d="m0 0 8 6 1 1v6l-3 3-2-1 2 5v5l-2-1-4-21z" fill="#EBE6E3"/>
<path transform="translate(1388,205)" d="m0 0 6 1v2h2l-2 10-1 7h-1l-2-9h-2l-1-10z" fill="#BEA799"/>
<path transform="translate(488,711)" d="m0 0 2 1-4 16-4-1-6 8-2-1 6-8 1-5 2-6h3z" fill="#E0E5E7"/>
<path transform="translate(860,568)" d="m0 0h14v6l-2 1h-9l-3-1z" fill="#CEC3C1"/>
<path transform="translate(1391,186)" d="m0 0 9 1 6 4 4 5-3 1-9-3-7-6z" fill="#BAA294"/>
<path transform="translate(245,648)" d="m0 0 7 1 5 3-1 3-3 2 2 1-1 4-3 2-1-1-2-9z" fill="#517A5F"/>
<path transform="translate(1197,310)" d="m0 0 5 5 1 5h-12l-5-2v-3l6-1 8 3-3-5z" fill="#587163"/>
<path transform="translate(178,643)" d="m0 0 1 2-7 8-5 4h-4l1-8 2-1 1 2 6-4z" fill="#69A36B"/>
<path transform="translate(609,607)" d="m0 0 7 1-1 4h5l6 6v2l-5 1-9-9-2-1v-2l-2-1z" fill="#5B5157"/>
<path transform="translate(1443,180)" d="m0 0 7 4 2 3-3 3h-2l-1 3h-4v-12z" fill="#EBE5E1"/>
<path transform="translate(1341,180)" d="m0 0h9v9h-9z" fill="#473E47"/>
<path transform="translate(785,604)" d="m0 0h1l-1 7-2 7-2 4-4 9-1-2 3-22h1l1 8 2-9z" fill="#446358"/>
<path transform="translate(1364,194)" d="m0 0h5l-3 1v29l4 1v1h-5l-2-4z" fill="#435B53"/>
<path transform="translate(1460,720)" d="m0 0h10l1 5-1 1h-10l-5-1v-3z" fill="#52464C"/>
<path transform="translate(1118,633)" d="m0 0 4 1-11 8h-6l-1-1v-5z" fill="#FDC77E"/>
<path transform="translate(533,652)" d="m0 0 4 1 5 11-1 5-3 1-5-14z" fill="#3C263B"/>
<path transform="translate(1050,588)" d="m0 0h2l-2 9-5 7-2 4v-13l3-4h2v-2z" fill="#E9DAD7"/>
<path transform="translate(1366,180)" d="m0 0h6l2 1v8l-1 1h-8z" fill="#6276B3"/>
<path transform="translate(515,589)" d="m0 0 5 1 11 7 7 4v2l-5-1-17-10z" fill="#422C3F"/>
<path transform="translate(1412,198)" d="m0 0 8 1 7 3 1 4-5 2-2-2v-1l-7-2z" fill="#BCA89A"/>
<path transform="translate(210,661)" d="m0 0h2l3 11 1 7v16h-1l-5-30z" fill="#5B8265"/>
<path transform="translate(601,671)" d="m0 0 3 4v5l-12 2 2-6z" fill="#B8CFCB"/>
<path transform="translate(412,501)" d="m0 0h5l4 4v6h-3l-8-6-2-1v-2z" fill="#ECE6E2"/>
<path transform="translate(1049,910)" d="m0 0 8 1 9 4-1 4-3 1-8-5-1-2-4-2z" fill="#DCEBF1"/>
<path transform="translate(168,635)" d="m0 0 6 1 16 8 11 6 4 4-2 1-14-9-21-10z" fill="#487954"/>
<path transform="translate(1494,672)" d="m0 0 1 2-5 21-2 2v-9l4-15z" fill="#51745E"/>
<path transform="translate(220,698)" d="m0 0 5 1 1 4-5 13h-1z" fill="#EDE9E6"/>
<path transform="translate(640,575)" d="m0 0h39v1l-9 1-5 4-4 5-1-3 5-6-25-1z" fill="#EBDBD8"/>
<path transform="translate(1537,1087)" d="m0 0 1 4h2l3 15v6h-2v-5h-2l-2-10z" fill="#76AB78"/>
<path transform="translate(457,616)" d="m0 0 2 3 6 19 3 14 3 3h-5l-6-25-3-10z" fill="#D5CDCC"/>
<path transform="translate(251,695)" d="m0 0 3 1-3 3-12 3h-8l-1-2 10-2 4-1z" fill="#6DA56F"/>
<path transform="translate(1473,720)" d="m0 0h9v7h-8l-1-1z" fill="#4D4149"/>
<path transform="translate(1125,525)" d="m0 0h1l2 15v9l-2-3-1-14-2 5-3-3z" fill="#E5D7D4"/>
<path transform="translate(255,672)" d="m0 0 3 1v5l-4 4-5 1-1-5 5-3z" fill="#68A26A"/>
<path transform="translate(1331,496)" d="m0 0 4 1 9 7 8 9 3 5-1 3-6-9-11-11-6-4z" fill="#687AB8"/>
<path transform="translate(1472,221)" d="m0 0 4 2 3 2h7l2-1-1 4h-13l-4-1z" fill="#403441"/>
<path transform="translate(1448,691)" d="m0 0h4l-2 5-8 9h-2l2-6 2-4h2v-2h2z" fill="#6AA36C"/>
<path transform="translate(84,976)" d="m0 0h2v9l-3 13-2 1v-8z" fill="#76AB78"/>
<path transform="translate(84,447)" d="m0 0h3v18h-3z" fill="#666463"/>
<path transform="translate(1188,290)" d="m0 0 3 1 1 7-2 4-4-2v-7z" fill="#669A68"/>
<path transform="translate(1469,227)" d="m0 0 12 1-4 2 16 1v1l-19 1-1-3h-7l-3-2z" fill="#92756B"/>
<path transform="translate(1507,936)" d="m0 0h1l3 15v4h-3l-3-13v-5z" fill="#71A872"/>
<path transform="translate(182,684)" d="m0 0h10v2l-16 2-8 4h-3l4-4z" fill="#4E834F"/>
<path transform="translate(497,712)" d="m0 0 1 4-6 11-4 4v-4l8-14z" fill="#E5E7E7"/>
<path transform="translate(1481,696)" d="m0 0h2l2 13-3 1v5h-1l-1-18z" fill="#73A673"/>
<path transform="translate(244,685)" d="m0 0 4 1 2 7-7 2-1-6z" fill="#68A26A"/>
<path transform="translate(191,974)" d="m0 0 1 2-5 15h-2v-8l5-8z" fill="#8E8B87"/>
<path transform="translate(499,706)" d="m0 0h2l-1 6-2 2h-2l-6 12-1-3 7-14h2z" fill="#D2D4DC"/>
<path transform="translate(156,630)" d="m0 0 8 2v3h2l1 3-3 1-8-5z" fill="#51AD9D"/>
<path transform="translate(1484,709)" d="m0 0h1v8l1 3-1 6h-3v-16z" fill="#629A63"/>
<path transform="translate(553,609)" d="m0 0 6 1 8 4 2 2-1 3-2-2-6-2-7-5z" fill="#DFA99E"/>
<path transform="translate(793,591)" d="m0 0h1l1 14-4 2-1-14z" fill="#71A673"/>
<path transform="translate(1208,311)" d="m0 0 4 2v2h2l-1 4-4 2-2-4v-5z" fill="#526C62"/>
<path transform="translate(93,937)" d="m0 0h1v10l-2 9-2 1v-11z" fill="#76AB77"/>
<path transform="translate(483,702)" d="m0 0h4v2h-3l-2 4-7 10-3-1 10-14z" fill="#DCDDDE"/>
<path transform="translate(1462,680)" d="m0 0 2 3v5l-5 2h-3l2-6z" fill="#4A6E5A"/>
<path transform="translate(1461,669)" d="m0 0 2 1 3 14v5h-2l-2-9-1-5z" fill="#69A97B"/>
<path transform="translate(491,704)" d="m0 0 2 4-3 7-2-1v-1l-2 3h-2l1-4z" fill="#E0EAED"/>
<path transform="translate(1048,868)" d="m0 0 1 2v6l9 3-4 1-10-1 2-10z" fill="#8F8B87"/>
<path transform="translate(599,667)" d="m0 0 2 2-1 4-6 4-4-2 8-6z" fill="#DAE1E3"/>
<path transform="translate(100,904)" d="m0 0 2 1-1 8-3 8h-1v-8z" fill="#76AB77"/>
<path transform="translate(555,621)" d="m0 0 5 1-4 7h-4l1-6z" fill="#EDE3E0"/>
<path transform="translate(1069,585)" d="m0 0 1 2-6 9-7 7-2-1 8-9z" fill="#FDC77E"/>
<path transform="translate(721,599)" d="m0 0 2 1v16l-2 2-1-13z" fill="#EBDBD8"/>
<path transform="translate(1467,688)" d="m0 0h1l2 14h-2l-1 2-2-13z" fill="#5E986B"/>
<path transform="translate(744,632)" d="m0 0 3 1 9 14-1 4-7-12-4-5z" fill="#4A3645"/>
<path transform="translate(626,621)" d="m0 0 4 1 4 5-5 2v-3l-5-2v-2z" fill="#473544"/>
<path transform="translate(633,585)" d="m0 0 1 2-4 6-7 10-1-3 6-9z" fill="#EADAD7"/>
<path transform="translate(1216,291)" d="m0 0h2v3l2 1-4 9h-1v-12z" fill="#6CA36D"/>
<path transform="translate(1460,140)" d="m0 0h8l6 4-2 2-3-2-8-1z" fill="#4E6353"/>
<path transform="translate(202,689)" d="m0 0 5 1 8 9-1 3-9-10z" fill="#4B6856"/>
<path transform="translate(1450,268)" d="m0 0 7 7 1-2v7h-3l-5-9z" fill="#4B655B"/>
<path transform="translate(1290,199)" d="m0 0 5 4 3 7 1 8-2-3-3-8-4-6z" fill="#855E57"/>
<path transform="translate(1474,165)" d="m0 0 2 3-3 12-1 2h-2l2-9z" fill="#5F6E62"/>
<path transform="translate(1476,658)" d="m0 0 1 4h2v7l-1 5-3-4z" fill="#5C9262"/>
<path transform="translate(568,620)" d="m0 0 4 1 8 6-3 1-9-5z" fill="#4D3D48"/>
<path transform="translate(718,620)" d="m0 0h14v2l-8 3-1-4h-5z" fill="#78A477"/>
<path transform="translate(488,711)" d="m0 0 2 1-3 12h-1v-5l-4 1 1-5h3z" fill="#D7D7D9"/>
<path transform="translate(223,657)" d="m0 0 5 2-1 4h-2l-1 4-2-4v-5z" fill="#7AAB7B"/>
<path transform="translate(1473,653)" d="m0 0h2v6l-7 1v-3z" fill="#53775B"/>
<path transform="translate(1447,628)" d="m0 0h2l4 11-1 4-4-8v-3h-6v-1h5z" fill="#6C9D70"/>
<path transform="translate(616,614)" d="m0 0 9 3 1 3-5 1-5-5z" fill="#3D273D"/>
<path transform="translate(1441,169)" d="m0 0h2l1 6-1 4 5 2 2 2h-3l-6-3z" fill="#5C8661"/>
<path transform="translate(1178,305)" d="m0 0 5 1v2l-6 3h-3l1-4z" fill="#5D925E"/>
<path transform="translate(1513,974)" d="m0 0 3 1 1 9-3 1z" fill="#75AA76"/>
<path transform="translate(538,616)" d="m0 0 1 4-2 3v-2l-7 3h-10v-1l12-2 5-3z" fill="#D5CAC8"/>
<path transform="translate(574,578)" d="m0 0 2 1-8 10-1 5h-1v-8h2l2-4z" fill="#EBDBD8"/>
<path transform="translate(1188,314)" d="m0 0h4v2l2 1v2h-7l-1-4z" fill="#505C59"/>
<path transform="translate(96,917)" d="m0 0 3 1-1 8-1 6h-1l-1-10z" fill="#6EA670"/>
<path transform="translate(1471,711)" d="m0 0h1l1 7v8l-3-1v-8z" fill="#769E72"/>
<path transform="translate(1489,683)" d="m0 0 1 3h2l-2 9-2 2v-9z" fill="#517F61"/>
<path transform="translate(193,646)" d="m0 0 8 4 4 4-2 1-10-7z" fill="#5C9362"/>
<path transform="translate(588,625)" d="m0 0h2l6 8 3 5-4-2-7-9z" fill="#4D4550"/>
<path transform="translate(595,620)" d="m0 0h2l7 9 2 5-5-5-6-7z" fill="#4D414E"/>
<path transform="translate(603,617)" d="m0 0 7 6 5 7-4-1-8-10z" fill="#504953"/>
<path transform="translate(427,503)" d="m0 0 3 3v7l-3 3z" fill="#4F3C47"/>
<path transform="translate(538,602)" d="m0 0 7 2 1 4-5-1-5-4z" fill="#4F3947"/>
<path transform="translate(1084,128)" d="m0 0h13v1h-5l-1 2h-3l-2 2z" fill="#D3CBCA"/>
<path transform="translate(250,656)" d="m0 0 5 2-1 4-3 2-1-1z" fill="#457357"/>
<path transform="translate(674,578)" d="m0 0v3h-2l-2 4-5 5 1-4 6-7z" fill="#EBDBD8"/>
<path transform="translate(63,1076)" d="m0 0h2l-1 9-2 4-1-4z" fill="#79AD7A"/>
<path transform="translate(86,967)" d="m0 0h2v9l-2 4-1-8z" fill="#72A874"/>
<path transform="translate(1052,857)" d="m0 0h2l-3 9-3 3-1-2z" fill="#777170"/>
<path transform="translate(1454,650)" d="m0 0 2 3v4l-6-2 1-3z" fill="#4C745A"/>
</svg>
