<?xml version="1.0" encoding="UTF-8"?>
<svg version="1.1" viewBox="0 0 2048 1409" width="600" height="413" xmlns="http://www.w3.org/2000/svg">
<path transform="translate(0)" d="m0 0h2048v1409h-2048z" fill="#FCFCFC"/>
<path transform="translate(736,224)" d="m0 0h37l23 3 23 5 21 7 18 8 17 9 12 8 11 8 21 18 7 8 10 11 11 16 10 17 9 20 6 19 3 10h80l38 1 29 3 10 2 18 2 13 3 9 1 1 1 13 2 15 4 7 2 24 7 35 12 16 6 11 5 28 13 14 8 12 6 21 13 21 14 15 11 17 13 15 13 4 3h3l9-14 13-17 11-13 7-8 9-10 18-18 8-7 14-12 18-14 18-13 18-11 15-9 21-11 9-4 4-1v54l-2 29-4 36-6 35-6 26-7 25-3 10 29-11 24-7 27-6 27-4 11-1h51l-1 9-8 29-8 20-9 19-10 17-12 17-11 14-11 12-17 17-11 9-13 10-18 12-19 11-16 8-4 1 14 31 9 22 4 12 5 12 7 20 12 38 5 20 5 18 5 23 4 21v4l-2 1h-376l-2-5-2-8-9-29-10-25-12-25-10-18-11-16-9-12-9-11-9-10-14-14-9-7v-2l-5-2-3-2v-2l-5-2-5-3v-2l-4-1-7-5-3-1v-2l-3 1 3 10 12 57 7 31 6 22 8 16 11 15 8 10 9 10 7 8 5 6 5 4 5 6 2 1v2l4 2 8 8 11 9 7 8 1 3 6 2 15 1v-2l6-2h8v-2l13-1 6 10 3 7v10l-3 6-3 3-1 3 25-2h8l5 3-1 6h-2l1 5 1 4-8 6-5 1h-7v5l-8 4h-19l-5 12-9 11-12 10-16 9-25 10-17 6h-2l-1 10-5 8-7 6-10 5-17 5-10 4-17 5-23 5h-9v4l-16 2-51 2h-54l-49-2-35-3-33-4-36-6-27-6-20-6-24-10-14-8-13-10-8-9-8-14-4-12-1-7v-9l2-9h-22l-5-2-2-6-14-3-4-2v-10l-2-2 1-5 4-3h32l-5-9v-15l2-2 2-5 5-6 14 1 7 2v2l10 2h15v-2l3-1 2-6 7-7 8-7 17-16 17-17 9-11 10-12 13-19 5-11 7-24 2-9v-5l-8-8-8-7-12-11-8-7-3-2v-2l-3 1-18 22-9 13-13 21-10 19-11 25-7 20-9 29-2 5-1 1h-376l-1-3 1-10-30-5-23-5-36-12-23-10-23-13-18-11-17-13-14-12-21-21-11-14-12-16-14-24-9-20-6-16-1-6 13-3 26-3h52l29 3 36 7h3l-9-16-12-22-13-28-13-33-12-35-8-29-6-25-2-11 12 2 25 6 37 12 28 12 25 12 20 11 16 10 16 11 19 14 14 12 10 9 8 7 9 9 7 8 7 7 7 9 3-4 14-25 13-21 11-17 13-19 12-16 10-13 11-13 9-11 15-16 33-33 8-7 10-9 10-8 9-6 26-1 2-21 36-22 22-12 26-13 29-12 36-13 27-8 9-1-4-7-12-14-13-11-14-9-16-8-11-4-13-3-23-2-18 1-22 4-19 7-9 5-12 8-10 8-12 12-10 13-3 6h-3v2h5l6 4v2l4 2 10 11 8 15 3 15-1 6h-1l-5-19-7-14-4-5v-2l-4-2-5-5-11-7-13-5-17-2-15 2-4 1-3-9-6-17-9-16-9-10-8-8-10-7-10-6-14-5-15-3h-32l-17 3-15 4-14 7-11 8-8 7-10 13-9 17-6 20-1 8-15-3-14 1-11 4-12 7-6 5-9 12-5 12-2 9v27l2 14 332 1 8 1v1h-342l-2-4-2-15v-25l3-12 8-16 9-10 14-9 12-5 4-1h15l11 3 1-10 5-15 8-16 8-11 10-11 16-11 15-7 15-4 24-3h11l20 2 17 5 14 7 5 2 3-3 13-22 14-18 12-13 11-11 14-11 18-12 22-12 19-8 24-7 21-4z" fill="#C092AB"/>
<path transform="translate(587,570)" d="m0 0v3l-2 3 6 7 8 7 50 50 7 6 6 7 7 6 8 3 83 18 12 3-2 4-12 14-11 13-1 3 4 2 15 14 8 7 13 12 12 11 8 7 14 13 8 7 12 11 8 7 14 12 16 15 8 7v7l-2 11-1 1-1 7-7-6-12-11-8-7-11-10-2-1v-2l-3 1-18 22-9 13-13 21-10 19-11 25-7 20-9 29-2 5-1 1h-376l-1-3 1-10-30-5-23-5-36-12-23-10-23-13-18-11-17-13-14-12-21-21-11-14-12-16-14-24-9-20-6-16-1-6 13-3 26-3h52l29 3 36 7h3l-9-16-12-22-13-28-13-33-12-35-8-29-6-25-2-11 12 2 25 6 37 12 28 12 25 12 20 11 16 10 16 11 19 14 14 12 10 9 8 7 9 9 7 8 7 7 7 9 3-4 14-25 13-21 11-17 13-19 12-16 10-13 11-13 9-11 15-16z" fill="#AB8097"/>
<path transform="translate(977,710)" d="m0 0 5 1 11 7 13 6 13 4h23l17-5 16-8 5-4 8 1 12 4 12 5 15 8 10 8 9 13 8 18 5 13 2 2v4l4 16 10 48 7 31 6 22 8 16 11 15 8 10 9 10 7 8 5 6 5 4 5 6 2 1v2l4 2 8 8 11 9 7 8 1 3 6 2 15 1v-2l6-2h8v-2l13-1 6 10 3 7v10l-3 6-3 3-1 3 25-2h8l5 3-1 6h-2l1 5 1 4-8 6-5 1h-7v5l-8 4h-19l-5 12-9 11-12 10-16 9-25 10-17 6h-2l-1 10-5 8-7 6-10 5-17 5-10 4-17 5-23 5h-9v4l-16 2-51 2h-54l-49-2-35-3-33-4-36-6-27-6-20-6-24-10-14-8-13-10-8-9-8-14-4-12-1-7v-9l2-9h-22l-5-2-2-6-14-3-4-2v-10l-2-2 1-5 4-3h32l-5-9v-15l2-2 2-5 5-6 14 1 7 2v2l10 2h15v-2l3-1 2-6 7-7 8-7 17-16 17-17 9-11 10-12 13-19 5-11 7-24 2-9 1-12 2-7 1-5v-7l-16-15-8-7-5-4v-3l14-10 12-9 15-10 12-30 6-11 9-10 14-9 20-8z" fill="#F9DCCB"/>
<path transform="translate(1634,374)" d="m0 0h2v54l-2 29-4 36-6 35-6 26-7 25-3 10 29-11 24-7 27-6 27-4 11-1h51l-1 9-8 29-8 20-9 19-10 17-12 17-11 14-11 12-17 17-11 9-13 10-18 12-19 11-16 8-4 1 14 31 9 22 4 12 5 12 7 20 12 38 5 20 5 18 5 23 4 21v4l-2 1h-376l-2-5-2-8-9-29-10-25-12-25-10-18-11-16-9-12-9-11-6-7v-2l8-7 59-59 6-5 17-17 7-8 26-26h2v-2l6-5 5-5 6-7 8-7 6-7 6-5 1-2h2l2-4 11-10 5-6 5-4 5-6 6-5 7-8 8-8 8-7 10-11h2v-2l14-14 10-8-7-7-6-7-8-7-13-12-3-4 4-4 7-11 13-17 11-13 7-8 9-10 18-18 8-7 14-12 18-14 18-13 18-11 15-9 21-11 9-4z" fill="#D56A6A"/>
<path transform="translate(1028,391)" d="m0 0h27l38 1 29 3 10 2 18 2 13 3 9 1 1 1 13 2 15 4 7 2 24 7 35 12 16 6 11 5 28 13 14 8 12 6 21 13 21 14 15 11 17 13 15 13 12 11 15 14 8 7 7 8 1 2-5 3-15 14-3 4h-2v2l-5 4-7 8-3 1-2 4-10 9-12 13h-2l-1 3-4 4h-2l-1 3h-2l-2 4h-2l-2 4-11 10-1 2h-2l-2 4h-2l-1 3h-2l-2 4h-2l-2 4-6 6h-2l-2 4-6 6h-2l-2 4h-2l-1 3h-2v2l-8 7-22 22-2 3h-2l-2 4-13 13h-2l-2 4h-2l-1 3-8 7-59 59-3 1-16-16-9-7v-2l-5-2-3-2v-2l-5-2-5-3v-2l-4-1-7-5-3-1v-2l-5-2-10-25-6-11-8-10-14-9-14-7-13-4-8-3h-5l-9 6-12 6-17 5h-23l-18-6-15-8-5-5 9-4 8-2 1-12 2-13 8 6 16 8 11 2 9-2 11-7 6-6h2l1 12h35l9-3 4-5 2-7-1-14-1-7v-11l3-9 1-13-4-13-6-15-1-10 2-8v-12l-3-12-6-12-7-9-11-12-14-9-16-7-17-4-7-1v-59z" fill="#FAB785"/>
<path transform="translate(922,1012)" d="m0 0 9 6 8 5 15 5 7 2 18 5 8 3 22 6 21 3h19l23-3 6-2 14-3 6-3 10-3 11-6 10-6 11-6h2l3 13v3l16-4 26-4h7l5 2v2h3v2l5 2 27 15 12 6h5l5-4 5 2 6 4 14 10 15 7 17 5 6 1-3 10-6 9-8 9-11 8-14 8-25 10-17 6h-2l-1 10-5 8-7 6-10 5-17 5-10 4-17 5-23 5h-9v4l-16 2-51 2h-54l-49-2-35-3-33-4-36-6-27-6-20-6-24-10-14-8-13-10-8-9-8-14-4-12-1-7v-9l2-10 21-6 16-7 13-9 9-7 5 1 3 3 9-2 15-8 8-4 56-1 20-1 1-12 2-11z" fill="#715052"/>
<path transform="translate(209,581)" d="m0 0 12 2 25 6 37 12 28 12 25 12 20 11 16 10 16 11 19 14 14 12 10 9 8 7 9 9 7 8 7 7 7 9-1 5-18 33-4 8-2 7-5 11-6 16-4 11-2 1-103 4-2-1 3 5 18 18 11 9 17 13 15 10 11 7 7 4-4 13-4 16-10 45-2 6-14-1-32-6-24-7-20-7-23-10-23-13-18-11-17-13-14-12-21-21-11-14-12-16-14-24-9-20-6-16-1-6 13-3 26-3h52l29 3 36 7h3l-9-16-12-22-13-28-13-33-12-35-8-29-6-25z" fill="#7FA68D"/>
<path transform="translate(472,334)" d="m0 0h32l15 3 16 6 11 7 10 8 13 13 10 17 6 16 3 11 9-2 12-1 15 2 13 5 14 9 4 5 3 3 7 10 6 15 2 8 1-3-4-15-7-13-11-12-2-1v-2l-5-2-6-2v-2h3l1-4 8-11 11-12 8-8 16-11 10-6 15-6 16-4 12-2 18-1 23 2 19 5 10 4 18 10 13 10 12 11 11 14v3l-23 6-36 12-28 11-24 11-26 13-19 11-21 13-7 4-2 18-1 3-2 1-26 1-339-1v-1l326-1-326-1-1-1-2-14v-27l3-12 6-12 11-13 13-8 10-4 10-2h7l15 4-1-3 5-19 5-12 6-11 8-10 8-9 14-10 10-5 11-4 17-4z" fill="#FDF5EF"/>
<path transform="translate(1634,374)" d="m0 0h2v54l-2 29-4 36-6 35-6 26-7 25-3 10 29-11 24-7 27-6 27-4 11-1h51l-1 9-8 29-8 20-9 19-10 17-12 17-11 14-11 12-17 17-11 9-13 10-18 12-19 11-16 8-5 1-2-7h-2l-5-12v-2h-2l-7-14-2-5-6-12-1-3-3-1-3-9-3-1-7-14-4-4-9-14-2-5-5-5-4-6-2-5-13-18-5-4-8-10-13-15-2-5-4-2-3-3-3-6-16-16-6-7-8-7-13-12-3-4 4-4 7-11 13-17 11-13 7-8 9-10 18-18 8-7 14-12 18-14 18-13 18-11 15-9 21-11 9-4z" fill="#7FA68E"/>
<path transform="translate(1380,169)" d="m0 0 13 1 15 2 12 3v16l6 1 16 10v2l4 1 1 2 6 1v-2l7-3 4 1 6 7 2 5h2l1 3 2 1v3h2l4 7 1 5-8 7v10l4 10 1 18h8l7 2v9l-5 25h-2v5h-16l-2 8-9 14-2 1-3 5h-2l-1 4 3 1 4 7-1 5-15 11-12 8-4-1-5-5-2-3h-5l-7 2h-3v2l-2 1-17 1-3 1-2 13-22-2-17-4-1-1v-13l-16-9-3-3-3-1-5-5-4-1-5 4-7 2-12-16-5-7-3-5-2-5 10-7-1-9-3-7-1-9-1-1-1-10-1-1-10-1-2-2v-10l5-28 2-1 14 1 1-5 5-9h2l2-5 3-5 3-3 1-6-5-8 2-4 19-14h2v-2h3v-2l5-3h3l3 5 4 5 5-1 9-2 6-2 16-2 1-12z" fill="#FAB785"/>
<path transform="translate(164,770)" d="m0 0h52l29 3 36 7v2l5 1 7 10-1 2-15-4-7-2-41-5-31-2h-16l-14 1-1 2 49 1 36 4 24 5 21 6 5 5 9 10 5 6h46l59-3h8l1 2-3 3-103 4-2-1 3 5 18 18 11 9 17 13 15 10 11 7 7 4-4 13-4 16-10 45-2 6-14-1-32-6-24-7-20-7-23-10-23-13-18-11-17-13-14-12-21-21-11-14-12-16-14-24-9-20-6-16-1-6 13-3z" fill="#6C8C76"/>
<path transform="translate(736,247)" d="m0 0h32l26 3 23 5 20 7 21 10 19 12 14 11 14 13 7 8 11 14 12 20 9 21 5 17 1 6-7 2-41 7h-5l-9-14-9-12-11-12-12-11-15-11-18-10-21-8-25-6-7-1h-29l-19 3-15 4-21 8-17 10-12 9-12 11-9 9-10 13-9 15-4 8 8 1 13 4 8 3-3 1v2h5l6 4v2l4 2 10 11 8 15 3 15-1 6h-1l-5-19-7-14-4-5v-2l-4-2-5-5-11-7-13-5-17-2-15 2-4 1-3-9-6-17-9-16-9-10-8-8-10-7-10-6-14-5-15-3h-32l-17 3-15 4-14 7-11 8-8 7-10 13-9 17-6 20-1 8-15-3-14 1-11 4-12 7-6 5-9 12-5 12-2 9v27l2 14 332 1 8 1v1h-342l-2-4-2-15v-25l3-12 8-16 9-10 14-9 12-5 4-1h15l11 3 1-10 5-15 8-16 8-11 10-11 16-11 15-7 15-4 24-3h11l20 2 17 5 14 7 5 2h2l5 5v2l4 2 7 6v2h2l2-5 10-19 8-12 11-13 9-10 7-7 8-7 8-6 15-10 23-12 19-7 19-5 17-3z" fill="#FDD2B6"/>
<path transform="translate(1018,499)" d="m0 0h16l17 4 16 7 11 7 10 9 10 12 6 10 4 11 1 6v12l-2 8 1 10 9 23 1 10-2 11-2 6v11l2 14v7l-3 9-5 5-8 2h-35l-1-1v-12l-11 9-11 6-9 1-13-4-14-8-4-4-2 12-24-1-12-2-7-3-6-5-1-2v-32l-3-15v-13l4-23 3-16 4-10v-10l-1-3v-15l4-10 11-13 7-6 4-1 2 3 4-2 5-5 12-6z" fill="#D6766C"/>
<path transform="translate(1726,560)" d="m0 0h51l-1 9-8 29-8 20-9 19-10 17-12 17-11 14-11 12-17 17-11 9-13 10-18 12-19 11-16 8-5 1-2-7h-2l-5-12v-2h-2l-7-14-2-5-6-12-1-3-3-1-3-9-3-1-7-14-4-4-9-14-2-5-5-5-4-6-2-5-1-2 37-7 13-3 11-23 16-8 25-10 30-8 26-5 36-6h4v-3l-23 3-21 3-25 5-23 6-17 6-15 6-6 3h-3l2-9 1-2h2v-2h2v-2l30-11 25-7 29-6 21-3z" fill="#6C8B76"/>
<path transform="translate(824,511)" d="m0 0h23l16 3 13 5 12 7 10 8 9 9 8 13 7 16 2 9 1 15-2 17-6 18-8 14-8 10-8 8-14 9-11 5-16 4h-21l-21-5-18-8-11-8-9-8-9-13-6-13-4-15v-20l3-15 6-18 8-14 8-10 8-8 11-7 12-5z" fill="#C193AC"/>
<path transform="translate(1437,756)" d="m0 0h24l9 1 19 7 11 6 10 8 4 4v2l4 2 6 8 9 17 3 10 1 10v15l-4 20-9 19-8 11-12 12-12 8-5 3-13 4-14 2h-14l-15-2-16-6-12-6-8-6-5-5-5-4-10-15-5-12-4-13v-23l5-21 5-12 9-15h2l2-5 5-5 10-8 14-7 9-3z" fill="#D66B6B"/>
<path transform="translate(1211,511)" d="m0 0h16l14 2 8 3 12 5 13 7v2l5 2 13 13 5 7 2 5 3 5v5h2l4 14v25l-4 16h-2l-1 5-8 16-4 6h-2l-2 5-6 7-5 2-1 3-8 4h-2l-1 3-7 3h-6v2l-12 3h-24l-18-5-3-1v-2l-7-1v-2l-6-2-10-5-1-3-5-2-5-5-7-8-5-9-2-6h-2l-4-13v-34l3-12h2v-6l1-2h2l2-7 9-15 11-12 9-7 12-6 14-4z" fill="#FBB886"/>
<path transform="translate(1838,714)" d="m0 0 19 3 10 2v11l16 9 6 4 4-2 5-2 8 10 8 12-2 4-5 2 6 28 9 2-1 14-3 14-3 2-8-1-7 13-6 8 1 4 2 4-1 4-12 9-8 5-4-2-3-3v-2l-15 4-12 2-2 5-1 5-25-4-3-2v-9l-15-9-5-5h-5l-5 4-4-2-13-19-1-3 7-5-1-7-3-13-1-7-9-2-1-4 4-24 1-1h11l8-15 4-5v-5l-3-4 1-4 17-12 3-2h4l4 6 8-1 19-4 1-9z" fill="#C092AB"/>
<path transform="translate(591,763)" d="m0 0h18l16 3 15 6 12 8 10 9 7 10 8 16 3 12v22l-4 16-6 14-7 10-9 10-11 8-14 7-12 3-14 1-19-3-12-4-14-7-9-7-5-5-8-9-7-14-4-14v-21l4-18 5-13 7-11 8-10 9-8 14-7 11-3z" fill="#AB8097"/>
<path transform="translate(211,588)" d="m0 0h3v2l4 2 53 53 6 5v2l3 1 5 5 5 6v2h-37v3l33 1 12 1 64 64 4 6-2 1-34 2-26 1h-16v3l51-1 31-1 5 3 19 19 7 8 11 11 7 8 14 14-2 9-2 2-32 1-35 2h-46l-10-11-7-9-15-5-26-6-22-3-20-2-47-1-2-1 1-3 14-1h20l27 2 41 5 15 4 7 2-4-7-4-4-3-2 3-1-9-16-12-22-13-28-13-33-12-35-8-29-6-25z" fill="#7FA68E"/>
<path transform="translate(751,352)" d="m0 0 19 1 15 2 17 5 16 8 13 8 10 8 10 9 10 12 2 3v3l-23 6-36 12-28 11-24 11-26 13-19 11-21 13-4 3h-4l-2-25h-2l-4-15-7-13-11-12-2-1v-2l-5-2-6-2v-2h3l1-4 8-11 11-12 8-8 16-11 10-6 15-6 16-4 12-2z" fill="#FCFCFB"/>
<path transform="translate(732,278)" d="m0 0h40l18 3 25 7 21 9 13 7 19 13 7 5v2l4 2 12 11 9 10 12 18 12 23 2 10-6 2-18 3h-5l-9-14-9-12-11-12-12-11-15-11-18-10-21-8-25-6-7-1h-29l-19 3-15 4-21 8-17 10-12 9-12 11-9 9-10 13-9 15-4 8 8 1 13 4 8 3-3 1v2h5l6 4v2l4 2 10 11 8 15 3 15-1 6h-1l-5-19-7-14-4-5v-2l-4-2-5-5-11-7-13-5-17-2-15 2-4 1-6-18 4-12 5-13 10-17 9-12 11-12 1-2h2v-2l10-8 14-11 20-12 19-8 23-7z" fill="#FAB785"/>
<path transform="translate(164,770)" d="m0 0h52l29 3 36 7v2l5 1 7 10-1 2-15-4-7-2-41-5-31-2h-16l-14 1-1 2 49 1 36 4 24 5 21 6 5 5 9 10 5 6h46l59-3h8l1 2-3 3-103 4-2-1 3 5 18 18 11 9 17 13 15 10 11 7 7 4-4 13-2 10-4 3-11 3-26 9-36 12-14 4h-9l1-2 20-6 48-16 19-7 6-1v-2l-6-2-18-10-16-8-25-13-10-6-9-4-10 1-28 7-30 7-27 5h-8v-2l26-6 24-5 37-9 7-2-9-5-16-8-15-8-16-8-17-8h-7l-23 4-31 4h-8l-1-3 55-8h4l-2-3-17-8-16-8-31-15-14-7-3-2-3 1-3-2-1-6 13-3z" fill="#6C8C76"/>
<path transform="translate(1634,374)" d="m0 0h2v54l-2 29-1 8-6 2-9 1v-11l1-23-2-1v10l-2 24-3 4-26 6-16 6-7 12-12 19-24 40-7 11-2 3 30-7 38-8 10-2h2l-2 5-36 7-28 6-16 4-8 13-5 11h-3l-2-5h2l2-4 7-12 1-5-2-17-11-77-2-5 16-16 8-7 14-12 18-14 18-13 18-11 15-9 21-11 9-4z" fill="#7FA68E"/>
<path transform="translate(741,317)" d="m0 0h29l25 5 21 7 16 8 12 7 14 11 12 11 7 7 10 13 10 16-3 2-25 5-7-1-8-10-10-11-17-13-20-11-14-5-13-3-23-2-18 1-22 4-19 7-9 5-12 8-10 8-12 12-10 13-3 5-5-1-10-3-6-2-8-2 2-6 8-14 9-12 11-12 10-10 13-10 15-9 12-6 20-7 20-4z" fill="#D66A6A"/>
<path transform="translate(1012,541)" d="m0 0h7l10 5 11 9 22 13 7 8 1 3-13-1-12 3-5 3-1 2 15-5h7l8 5 3 4 4 10 4 13v12l-4 15-6 14-9 12-7 6-14 7-4 1h-9l-10-4-11-6-7-7-7-10-8-16-1-5-8-2-6-8-3-10v-9l3-7 2-2 5 1 4 4 1 3 2 1 2-10 2-6 7-4 3-1h13l9 2-10-5h-13l-9 3 2-4 8-9 4-11 5-12z" fill="#F7A590"/>
<path transform="translate(670,661)" d="m0 0 12 2 87 19 3 1-2 4-12 14-11 13-1 3 4 2 15 14 8 7 13 12 12 11 8 7 14 13 8 7 12 11 8 7 14 12 16 15 8 7v7l-2 11-1 1-1 7-7-6-12-11-8-7-11-10-5-4-6-7-11-9-7-7-8-7-13-12-11-9-10-10-8-7-13-12-8-7-10-9-4-2-8 8-7 8-12 13-2-1-12-38-18-56z" fill="#715052"/>
<path transform="translate(1375,230)" d="m0 0h14l13 4 8 4 9 7 8 11 5 11 2 7v18l-6 15-7 10-5 5-7 6h-2v2l-16 5h-16l-15-4-10-6-8-7-7-11-5-13-1-6v-12l3-11 7-14 9-10h2v-2l10-5 9-3z" fill="#FCFCFC"/>
<path transform="translate(1831,751)" d="m0 0h17l11 4 11 7 8 9 7 14 1 6v16l-5 14-7 9-7 7-14 7-9 2h-10l-13-3-9-5-10-9-6-10-4-11-1-5v-11l4-14 7-11 9-8 12-6z" fill="#FCFCFB"/>
<path transform="translate(1617,433)" d="m0 0 3 1-1 23-1 11 15-3-2 20-5 32-6 30-15 3-3 4-15 45-10 24h-4l4-10 11-28 9-29 1-5-12 3-56 12-12 2 2-4 6-10 17-28 8-14 14-22 5-8 16-6 26-6 2-3z" fill="#7FA68E"/>
<path transform="translate(164,770)" d="m0 0h52l29 3 36 7v2l5 1 7 10-1 2-15-4-7-2-41-5-31-2h-16l-14 1-1 2 49 1 36 4 24 5 1 2h-2l7 16 9 20 12 26-1 4-19-9-54-27-6-5-9-12-10-14-6-8-3-1 6 9 12 17 4 6-2 1-13-6-20-9-16-8-22-10-13-7-4-4v-1l26-4z" fill="#6C8C76"/>
<path transform="translate(1565,413)" d="m0 0h1l1 45v16l-1 10-12 20-13 21-24 40-3 1-4-21-10-68v-8l3-5 8-8 8-7 14-12 18-14z" fill="#7FA68D"/>
<path transform="translate(287,603)" d="m0 0 24 10 25 12 20 11 5 5 3 4 2 9 3 45 2 26v13l-4-2-3-2v-2l-4-2-5-5-1-3-4-2-13-13v-2l-4-2v-2l-3-1-7-8-13-13v-2l-4-2-5-6-6-23-6-29z" fill="#7EA68D"/>
<path transform="translate(240,635)" d="m0 0 4 4 9 29 2 1 31 1 12 1 64 64 4 6-2 1-34 2-26 1h-16l8 16 15 23 11 16 6 8-1 3-5-4-11-15-10-15-8-13-11-19-9-17-14-31-11-30-8-26z" fill="#7FA68E"/>
<path transform="translate(824,511)" d="m0 0h23l16 3 13 5 12 7 10 8 9 9 8 13 7 16 2 9 1 15-2 17-6 18-8 14-8 10-8 8-14 9-11 5-16 4h-21l-21-5-18-8-11-8-9-8-9-13-6-13-4-15v-20l3-15 6-18 8-14 8-10 8-8 11-7 12-5zm5 10-16 3-11 4-11 7-7 7-10 15-7 17-3 12-1 7v15l2 10 5 13 7 10 8 9 8 6 15 8 11 4 19 3 17-1 13-4 12-6 9-7 9-10 9-16 5-14 2-9v-21l-4-14-8-15-9-11-13-10-17-8-14-3-10-1z" fill="#FCF9F7"/>
<path transform="translate(1437,756)" d="m0 0h24l9 1 19 7 11 6 10 8 4 4v2l4 2 6 8 9 17 3 10 1 10v15l-4 20-9 19-8 11-12 12-12 8-5 3-13 4-14 2h-14l-15-2-16-6-12-6-8-6-5-5-5-4-10-15-5-12-4-13v-23l5-21 5-12 9-15h2l2-5 5-5 10-8 14-7 9-3zm1 9-14 3-16 8-8 7-8 9-7 12-7 19-2 10v24l3 11 9 16 10 11 10 7 8 4h2v2l17 5 13 2h16l16-4 8-3v-2l5-2 9-6 6-7v-2h2l4-6 8-15 3-9 3-14v-11l-2-12-3-7-3-9-7-11-4-5-5-4-4-4-11-7-12-6-12-3-7-1z" fill="#FCF6F3"/>
<path transform="translate(1211,511)" d="m0 0h16l14 2 8 3 12 5 13 7v2l5 2 13 13 5 7 2 5 3 5v5h2l4 14v25l-4 16h-2l-1 5-8 16-4 6h-2l-2 5-6 7-5 2-1 3-8 4h-2l-1 3-7 3h-6v2l-12 3h-24l-18-5-3-1v-2l-7-1v-2l-6-2-10-5-1-3-5-2-5-5-7-8-5-9-2-6h-2l-4-13v-34l3-12h2v-6l1-2h2l2-7 9-15 11-12 9-7 12-6 14-4zm0 10-18 3-14 7-8 7-6 7-10 16-5 14-3 19v12l2 14 3 8 4 8 6 7 5 5 6 5 1 2h3v2l15 8 7 2h4v2l13 2h19l9-1 9-3 9-5 8-5 7-6 2-4 3-3 6-9 8-21v-3h2l1-5v-25l-4-12h-2l-2-7-1-3h-2l-2-5-1-3h-2l-2-5-11-9-1-2-9-5-10-4-17-4-9-1z" fill="#FCF8F6"/>
<path transform="translate(1322,1008)" d="m0 0h5l6 10 3 7v10l-3 6-3 3-1 3 25-2h8l5 3-1 6h-2l1 5 1 4-8 6-5 1h-7v5l-8 4h-9l-16-2-19-6-16-8-12-9-9-6 6-7 8-13 5-13h24v-2l6-2h8v-2z" fill="#F6A490"/>
<path transform="translate(735,1008)" d="m0 0 14 1 7 2v2l10 2h10l8-1 5 10 3 7 6 9 5 6 2 2-7 4-13 10-16 8-18 6-8 2h-22l-5-2-2-6-14-3-4-2v-10l-2-2 1-5 4-3h32l-5-9v-15l2-2 2-5z" fill="#F6A490"/>
<path transform="translate(209,581)" d="m0 0 12 2 25 6 37 12 4 2 2 7 6 31 6 25 4 7 5 4 7 8 10 10v2l3 1 5 6 17 17 6 5 4 5 9 7-4-50-2-34-3-11-4-4 5 1 6 4 1 27 6 69 2 7 3 3v2l4 2 12 13 30 30 7 9v3l-4-2-9-9v-2l-4-2-15-16-8-8-7-8-14-14-7-1-27 1h-51v-3l64-3 12-1v-2l-11-12-55-55-12-1-31-1-2-1v-3h37l-4-6-6-5-7-8-8-7-23-23v-2l-4-2-22-22-2-1v-2l-4-1z" fill="#6A8A74"/>
<path transform="translate(591,763)" d="m0 0h18l16 3 15 6 12 8 10 9 7 10 8 16 3 12v22l-4 16-6 14-7 10-9 10-11 8-14 7-12 3-14 1-19-3-12-4-14-7-9-7-5-5-8-9-7-14-4-14v-21l4-18 5-13 7-11 8-10 9-8 14-7 11-3zm-2 9-13 3-13 7-10 9-9 13-7 17-3 12v22l4 13 7 12 13 13 14 8 13 5 10 2h21l12-3 13-7 9-7 10-13 7-14 4-14 1-7v-8l-3-15-5-12-7-10-13-13-15-8-14-4-7-1z" fill="#FCF9F7"/>
<path transform="translate(427,823)" d="m0 0 1 2-10 25-6 18-8 25-12-6-15-10-14-10-14-11-15-14-12-12v-3z" fill="#7FA68E"/>
<path transform="translate(1627,598)" d="m0 0 2 1-3 7-11 36-3 9-7 19-8 8-6 5-9 5-11 6-4-5-2-4-4-4-9-14-2-5-5-5-4-6-2-5-1-2 37-7 13-3 11-23 16-8z" fill="#6B8B75"/>
<path transform="translate(1e3 679)" d="m0 0 8 6 16 8 11 2 9-2 11-7 6-6h2l1 12 2 1 1 9 4 4 7 3 5 1-4 2-9 6-12 6-17 5h-23l-18-6-15-8-5-5 9-4 8-2 1-12z" fill="#F8A690"/>
<path transform="translate(545,205)" d="m0 0h2l2 7 6 18 9 12 9 8 9 4 2 1v2l-13 7-8 7-7 9-2 6h-2l-1 8-4 13h-2l-3-13-5-11-3-5v-2h-2l-3-4v-2l-4-2-10-8-3-1v-2h-3v-2l8-4 10-8 2-3h2l2-4 8-17 3-8z" fill="#FAB887"/>
<path transform="translate(125,776)" d="m0 0 4 1 5 4 21 10 22 10 16 8 14 6 8 4v-2l-8-11-10-14-2-5 4 1 12 16 10 14 4 5 10 6 48 24 17 8 2 1-1-5-14-31-7-15-5-11v-3l4 2 13 29 14 30 5 9 22 12 16 8 35 18 8 3-4-15-5-9-1-3 4 1 11 7 7 4-4 13-2 10-4 3-11 3-26 9-36 12-14 4h-9l1-2 20-6 48-16 19-7 6-1v-2l-6-2-18-10-16-8-25-13-10-6-9-4-10 1-28 7-30 7-27 5h-8v-2l26-6 24-5 37-9 7-2-9-5-16-8-15-8-16-8-17-8h-7l-23 4-31 4h-8l-1-3 55-8h4l-2-3-17-8-16-8-31-15-14-7-3-2-3 1-3-2z" fill="#627F6C"/>
<path transform="translate(977,710)" d="m0 0 5 1 11 7 13 6 13 4h23l17-5 16-8 5-4 8 1 12 4 1 4-14 11-7 5-7 3-10 4-15 4-6 1h-21l-16-4-12-5-13-9-10-9-3-3v-3l-3-1z" fill="#F8D8C7"/>
<path transform="translate(131,782)" d="m0 0 30 15 28 13 15 8 10 5 1 3-23 4-28 4h-8l1 4 8 11 5 7 3 6 8 9 7 8 7 7 8 7 10 9 6 4 11 8 17 11 7 3 3 3 6 2 14 7v2l5 2-4 1-16-8-18-10-15-10-16-12-14-12-21-21-11-14-12-16-14-24-9-20-5-13v-2l4 1z" fill="#6C8B76"/>
<path transform="translate(1628,377)" d="m0 0 3 1-2 5-9 15-12 19-15 24-13 20-7 11-3 3-1-3v-62l18-11 15-9 21-11z" fill="#7FA68E"/>
<path transform="translate(214,582)" d="m0 0 12 2 23 6 34 11 3 12 8 40v6l-2 1-2-1v-2h-2l-5-5-8-7v-2l-3-1-4-5-3-2v-2l-4-2-28-28-8-7-8-8-1-3-2-1z" fill="#7FA68D"/>
<path transform="translate(929,969)" d="m0 0 1 2-7 31-5 34-5 1-15 1h-42l-12-1 3-3 17-10 21-14 13-10 11-10 8-7 10-11z" fill="#FCFBFB"/>
<path transform="translate(929,1041)" d="m0 0 10 2 28 10 21 10 11 7 16 12 12 11h11v-45l3 1-2 43 47-10 43-12 30-7 39-7 14-4h6l-1 2-14 3-1 2-16 2-28 5-44 11-29 8-31 7-53 10-21 3-1 1 37 10 42 9 75 15 2 7v7l20-2 31-5h12v1h-6v3l-5 2-1 3-10 2-15 5-5 1-9 1-1-2-4-1-2 5-6 5-2-30-13-2-37-7-53-11-36-9-36-12-28-11-28-12-19-5-10-3-1-2 9 1 15 5 1-1-14-7-21-6v-1h8l15 5 12 6 7 6 33 14 29 11 7 2 11-1 40-7h2l-5-5-14-12-18-12-23-11-36-13z" fill="#502429"/>
<path transform="translate(1617,433)" d="m0 0 3 1-1 23-1 11 15-3-2 20-5 32-6 30-15 3-3 4-15 45-10 24h-4l4-10 11-28 11-35 8-35 4-24 3-24z" fill="#80A68E"/>
<path transform="translate(1759,572)" d="m0 0 2 1-4 2v2l-25 16-29 19-9 6 2 2 52 1h9v4l-10 1-43-1h-15l-7 1-19 12-15 10-17 11-13 8h-2v4l2 1 53 5 28 3 19 1 2-1-1 4-5 5-1-3-34-3-65-7h-10l-4 2v2l-6 4-5 2-4 4-9 6h-5v-3l11-6 9-5 8-7 5-5 7-19 3-9 9-29 4-13 2-2 3 1-15 46-7 22 12-7 19-12 36-24 5-4 9-14 9-17h2l3-9 3-1-2 6-3 6h-2l-1 7-6 10-2 6 15-9 22-14 14-9 3-2h3v-2h3v-2z" fill="#627E6C"/>
<path transform="translate(1634,374)" d="m0 0h2v6l-4 4-10 16-14 22-6 10-24 38-4 6-3 2 18-6 19-5h5l-1 4-26 6-16 6-7 12-12 19-24 40-7 11-2 3 30-7 38-8 10-2h2l-2 5-36 7-28 6-16 4-8 13-5 11h-3l-2-5h2l2-4 7-12 1-5-2-17-11-77-2-5 6-5v10l11 75 2 14 4-4 14-24 8-13 14-23 11-18 1-10v-62l4-1v61h2l7-11 11-17 12-19 13-21 9-14 6-10 1-4z" fill="#65846F"/>
<path transform="translate(1018,499)" d="m0 0h16l17 4 16 7 11 7 10 9 10 12 6 10 4 11 1 6v12l-2 8v13l-2-2-4-16v-3l-3-1-1-5 1-5-2-10-7-14-5-5-4-7v-4l-5-4-8-6-4-2-5-2v-3l-4-2-8 1 4 4 4 1v2l4 2 6 4-1 3 6 2 12 11 5 6 2 4-1 3-9-10v-2l-4-2-8-7-5-4-4-4-10-6-4-1-9-5-3-1v-2h-6l-1 3v-2l-7 1v-2l-8 3-5 1-3 1v2l-2 1-2 4-5 1-4 4h-6-2l-11 8h-4l2-6 5-6 7-6 4-1 2 3 4-2 5-5 12-6z" fill="#D66A6A"/>
<path transform="translate(481,331)" d="m0 0h11l20 2 17 5 14 7 14 12 6 5v2l4 2 9 13 6 13-1 3-8-16-7-10-13-13-10-7-10-6-14-5-15-3h-32l-17 3-15 4-14 7-11 8-8 7-10 13-9 17-6 20-1 8-15-3-14 1-11 4-12 7-6 5-9 12-5 12-2 9v27l2 14 332 1 8 1v1h-342l-2-4-2-15v-25l3-12 8-16 9-10 14-9 12-5 4-1h15l11 3 1-10 5-15 8-16 8-11 10-11 16-11 15-7 15-4z" fill="#AF839A"/>
<path transform="translate(1132,971)" d="m0 0 5 4 5 5 6 7 8 7 16 13 20 14v2l-36 6-11 2-6-28-4-18z" fill="#FCFBFA"/>
<path transform="translate(842,1268)" d="m0 0h14l11 2 7 5 2 5v10l-5 6-5 3h-2l9 14 6 10v2l-7-1-2-5h-2l-6-11-3-4v-3l-11-1v24h-6l-1-18v-37z" fill="#7D595F"/>
<path transform="translate(914,1268)" d="m0 0h7l3 4 10 34 1 2 5-17 7-22 1-1h7l2 7 2 31 2 18-1 1h-5l-1-1-1-18-2-21-1-9-6 21-4 13-2 7-6 1-4-10-7-25-2-8-2 22-1 21-1 6h-6l3-45 1-10z" fill="#5E343A"/>
<path transform="translate(1217,1268)" d="m0 0h7l3 5 3 11 3 8 4 15 1 1 2-5 4-16 3-10 3-8 1-1h7l1 1 3 32 1 23h-6l-4-48-7 25-6 17-5-1-4-10-7-24-2-6-3 32-1 15-6 1v-11l3-39z" fill="#633A40"/>
<path transform="translate(570,860)" d="m0 0 63 1-1 5-7 10-9 6-6 2h-15l-11-4-8-7-6-10z" fill="#FCFAF9"/>
<path transform="translate(894,786)" d="m0 0h4l-2 11-6 29-2 19-5-5-13-12-10-9-4-3v-3l14-10 12-9z" fill="#FCFBFB"/>
<path transform="translate(209,581)" d="m0 0 5 1v2l3 1 3 5 5 5 17 16 21 21 8 7 5 6 11 9 1 3h2v2h3l-1-10-5-28-4-17-2-2 6 1 2 7 6 31 6 25 4 7 5 4 7 8 10 10v2l3 1 5 6 10 10v3l-4-2-43-43-12-1-31-1-2-1v-3h37l-4-6-6-5-7-8-8-7-23-23v-2l-4-2-22-22-2-1v-2l-4-1z" fill="#6A8A74"/>
<path transform="translate(1088,1268)" d="m0 0h7l3 5 12 37 4 12v3l-7-1-4-13h-23l-3 12-1 1h-6l2-9 8-25 4-10 3-11z" fill="#5D3339"/>
<path transform="translate(987,1268)" d="m0 0h7l4 9 6 18 6 21 2 5v3h-6l-3-8-2-6-22 1-5 14h-5l1-7 16-49z" fill="#60363C"/>
<path transform="translate(658,1268)" d="m0 0h6l3 5 4 13 3 8 7 22 1 9-5-1-3-7-2-6-1-1h-21l-5 14h-5v-5l15-45z" fill="#5C3339"/>
<path transform="translate(669,458)" d="m0 0 2 3 2 8 3-3 3 25-2 19-1 3-2 1-26 1-339-1v-1l326-1-303-1v-1l340-1v-28l-3-19z" fill="#F9DCCB"/>
<path transform="translate(1022,1268)" d="m0 0h8l3 5 12 23 6 13 2 7h2l-1-4v-44h6v56l-1 1h-6l-3-2-13-28-4-8-4-9-1 47h-5l-1-1z" fill="#673D45"/>
<path transform="translate(694,1268)" d="m0 0h7l5 8 11 23 7 16 2 5-1-11v-41h5l1 1v55h-9l-8-16-8-15-5-12v-3h-2v46l-5 1-1-1v-55z" fill="#684046"/>
<path transform="translate(1090,584)" d="m0 0h4l4 10 9 14v2l2-2v-5h2l6 15 1 10-2 11-2 6v11l2 14v7l-3 9-5 5h-6l3-2-2-3h-3l1-5 2-5v-11l-1-7v-11l4-16 1-10-2-8-4-7-8-12z" fill="#D66B6A"/>
<path transform="translate(1322,1268)" d="m0 0 9 1 14 28 8 17 1-46h5l1 26v29l-1 1h-8l-8-16-8-15-7-14v45h-6z" fill="#6B4249"/>
<path transform="translate(445,706)" d="m0 0 17 17 7 9-1 5-18 33-3 6h-1l-1-10-1-32v-27z" fill="#7FA68E"/>
<path transform="translate(802,608)" d="m0 0 4 2 9 8 10 4 5 1h16l9-2 10-6 5-5h5l2 2-1 7-7 7-11 6-7 2-8 1h-9l-15-3-12-6-7-7-2-7z" fill="#FCF8F6"/>
<path transform="translate(1634,374)" d="m0 0h2v6l-4 4-10 16-14 22-6 10-24 38-4 6-3 2 18-6 19-5h5l-1 4-26 6-16 6-7 12-12 19-9 15h-3l2-6 15-24 9-15 1-10v-62l4-1v61h2l7-11 11-17 12-19 13-21 9-14 6-10 1-4z" fill="#678571"/>
<path transform="translate(761,1268)" d="m0 0h13l8 4 2 2v3l-6-1-6-2h-7l-6 3-5 6-2 8v12l4 11 5 4h13l3-2 1-13-1-3-9-1-1-5 1-1h16l1 1v24l-5 5-11 2h-8l-8-4-4-4-4-8-1-5v-13l3-10 6-8z" fill="#7B555A"/>
<path transform="translate(1448,853)" d="m0 0h14l13 5 8 5 5 4 2 7-4 4-4-1-8-8-7-3-9-2h-15l-9 3-12 6-4 6-5-1-1-1v-7l6-7 10-6 11-3z" fill="#FCF5F1"/>
<path transform="translate(1135,1268)" d="m0 0h12l10 5v4l-6-1-4-2h-11l-7 6-3 5-1 8v9l3 10 5 6h14l4-4v-14l-10-1-1-5h18v25l-3 3-8 3h-13l-8-4-7-10-1-3v-21l3-8 6-7z" fill="#63393F"/>
<path transform="translate(449,251)" d="m0 0 2 2 5 14 5 6 10 6v2l-3 2h-3v2l-6 5-5 7-2 5-2 7h-1l-3-12-3-3-6-8-4-3-4-2 5-5 8-7 6-11z" fill="#F9B787"/>
<path transform="translate(1578,641)" d="m0 0h6l-1 4-12 19-9 12 2 8-3-3-9-14-2-5-5-5-4-6v-3l20-4z" fill="#82A48F"/>
<path transform="translate(1213,612)" d="m0 0h19l1 1 7 1 15 8 4 5v2h2v6h-6l-7-5-1-2-7-2v-2l-6-1h-24l-12 5-8 7-1 1h-5l-2-5 1-2h2l2-4 3-3h2v-2h3l1-3 11-4z" fill="#FCF9F6"/>
<path transform="translate(240,635)" d="m0 0 4 4 9 29 8 21 14 32 13 26 13 22 10 15 11 16 6 8-1 3-5-4-11-15-10-15-8-13-11-19-9-17-14-31-11-30-8-26z" fill="#FADDCC"/>
<path transform="translate(1173,1268)" d="m0 0h28v5l-1 1h-22l1 18 19 1v5h-20l1 20 23 1v5h-30v-55z" fill="#755458"/>
<path transform="translate(800,1268)" d="m0 0h28v5l-1 1h-22v19h20v5l-19 1v19l23 1v5h-30v-55z" fill="#745356"/>
<path transform="translate(1280,1268)" d="m0 0h28v6h-23v19h20v5h-19l-1 21h24v5h-30v-55z" fill="#795559"/>
<path transform="translate(352,419)" d="m0 0h6l-2 6-4 3h-2l1 4-15 8-10 9-5 4-5 9-2 5-3 3-1 9-3 2v-18l5-13 7-10 7-8 13-8 10-4z" fill="#FCFAF9"/>
<path transform="translate(481,331)" d="m0 0h11l20 2 17 5 14 7 14 12 6 5v2l4 2 9 13 6 13-1 3-8-16-7-10-13-13-10-7-10-6-14-5-15-3h-32l-17 3-15 4-14 7-11 8-8 7-10 13-9 17-6 20-1 8-15-3-14-1 1-2h15l11 3 1-10 5-15 8-16 8-11 10-11 16-11 15-7 15-4z" fill="#8B646F"/>
<path transform="translate(460,622)" d="m0 0 3 1 1 3v12l14 1 2 6-2 3h-14v15h-7l-1-3v-12h-8l-8-2-1-4 3-3h14v-15z" fill="#F8AB96"/>
<path transform="translate(1617,433)" d="m0 0 3 1-1 23-4 35-5 29-7 29-14 43-11 28-2 3-3-1 4-10 11-28 11-35 8-35 4-24 3-24z" fill="#FBE7DB"/>
<path transform="translate(1369,1269)" d="m0 0h40v4l-2 1-14 1-1 50h-6l-1-6v-44l-16-1z" fill="#785459"/>
<path transform="translate(1137,223)" d="m0 0h7l6 4 4 7v5l-6 8-4 2h-8l-6-4-3-4v-10l6-7z" fill="#F5A38F"/>
<path transform="translate(1135,818)" d="m0 0h2l-1 21-1 3 4-4 6-12 1 3-6 12-5 5-8 19-5 16-1 8v33l4 21 6 22 9 11 7 6 7 8 14 12 15 11 5 5-4-2-13-9-16-13-12-11-10-10 5 19 3 16v6l-2-1-4-20-8-32-6-22-3-18v-28l2-16 5-14 7-17 2-15z" fill="#BA8596"/>
<path transform="translate(1020,530)" d="m0 0 7 3 7 4v2l4 2 14 10 18 10 7 7 4 8 1 11 2 5 5 9 7 7v2h-5l-5-5-6-9-4-10-5-7-3-3-7-8-21-12-14-11-3-3h3l9 6 11 8 11 6 10 8 7 8 4 5-2-9-4-6-7-6-20-11-15-12-12-7z" fill="#D66A6A"/>
<path transform="translate(1719,474)" d="m0 0 5 1 1 14 14 1 2 2-1 5-15 1-1 16-7-1-1-15-14-1-2-2 1-4 3-1 11-1 1-1 1-13z" fill="#FBBB8B"/>
<path transform="translate(913,801)" d="m0 0h2v22l2 11 4 9 6 9 3 3-4-16-1-5v-17l2 1 1 16 4 17 9 23 2 11v40l-4 20-7 24-7 32-2 11-2 1 2-16 6-27-7 8-9 10-4 2 6-8 8-8 1-2h2l2-4h2l2-7 6-24 3-24v-16l-2-19-4-13-4-7-8-7-6-9-3-10-2-18v-12z" fill="#C08C9B"/>
<path transform="translate(1579,289)" d="m0 0 4 1 1 14 14 1 2 1v5l-1 1-15 1v15l-1 1h-5l-1-1v-15l-15-1-2-1 1-5 2-1h14v-14z" fill="#F5A38F"/>
<path transform="translate(976,233)" d="m0 0h5l1 1v15h16l1 5-2 2h-14v17h-6l-1-1-1-15-16-1-1-4 2-2 15-2z" fill="#FBBA8A"/>
<path transform="translate(863,569)" d="m0 0 8 1 6 5 1 2v8l-6 7-7 1-7-3-3-5v-8l6-7z" fill="#FCF9F7"/>
<path transform="translate(808,569)" d="m0 0 7 1 5 3 3 7-1 5-4 6-4 2-8-1-5-3-2-4v-7l4-6z" fill="#FCF9F7"/>
<path transform="translate(1020,522)" d="m0 0h7l9 3 1 4-14-3-6 2-9 6-9 10-4 10-3 9-3 4h-2l-2 4-6 8h-2l-1 3-4 1v2h-2v-2l-4-1v-8l4-9 5-4-1 4-4 9-1 7 6-5 2-4h2l2-4 6-7 3-6 1-5 4-8 8-9h2v-2l11-8z" fill="#D66A6A"/>
<path transform="translate(1474,814)" d="m0 0h10l3 2v2h2l1 2v10l-4 5-5 2-8-1-5-5-1-7 3-7z" fill="#FCF6F3"/>
<path transform="translate(848,1274)" d="m0 0h16l5 4 1 2v9l-6 5-3 1h-13z" fill="#FBF8F7"/>
<path transform="translate(1419,814)" d="m0 0h8l6 4 2 4v8l-8 7h-8v-2l-4-1-3-5v-7l2-4z" fill="#FCF6F3"/>
<path transform="translate(502,153)" d="m0 0 2 1 2 8 5 5 6 5-1 3-10 8-3 9-2-1-2-7-6-8-4-2 1-4 6-4 4-5 1-7z" fill="#F9B789"/>
<path transform="translate(1191,570)" d="m0 0h8l5 4v2h2v9l-3 5-3 2h-11l-4-5v-2h-2v-7l2-4z" fill="#FCF9F7"/>
<path transform="translate(1246,570)" d="m0 0h9v2l5 2 2 3v7l-2 4-6 4h-10l-2-5-3-1v-9h2v-4z" fill="#FCF9F7"/>
<path transform="translate(1135,1268)" d="m0 0h12l10 5v4l-6-1-4-2h-11l-7 6-3 5-1 8v18l-2 2-1 2-4-7v-21l3-8 6-7z" fill="#5E343A"/>
<path transform="translate(1172,317)" d="m0 0h5v16h16l1 5-1 1h-16l1 17h-5l-2-2v-14l-7-1h-8l-1-5 6-1h10z" fill="#C091AA"/>
<path transform="translate(1411,790)" d="m0 0h7l23 12 6 4 1 5h-2v2l-4 1-5-3-10-4-18-9v-6z" fill="#FCF4F0"/>
<path transform="translate(1487,790)" d="m0 0h7l1 1v5l-5 4-14 7-11 5h-7l-2-1v-5h2v-2l17-8z" fill="#FCF5F1"/>
<path transform="translate(626,816)" d="m0 0 6 1 5 4 1 2v8l-6 6h-8l-5-3-2-4v-6l3-5z" fill="#FCFAF8"/>
<path transform="translate(575,816)" d="m0 0 6 1 5 3 1 2v9l-4 5-2 1h-8l-5-4-1-2v-8l4-5z" fill="#FCFAF8"/>
<path transform="translate(1493,128)" d="m0 0h2l1 17h15l2 1v4l-2 1h-16l1 2v15h-4v-17h-16l-2-1 1-4 5-1 11-1 1-15z" fill="#B87079"/>
<path transform="translate(660,1273)" d="m0 0h2l7 25 1 7h-19l3-10z" fill="#F8F3F3"/>
<path transform="translate(952,1269)" d="m0 0h4l2 18 1 19 2 18-1 1h-5l-1-1-1-18-2-21-1-13h2z" fill="#64383F"/>
<path transform="translate(697,1056)" d="m0 0 6 2 41 1 3 1-1 4-12 2h-23l-9-1-6-5z" fill="#F8A88F"/>
<path transform="translate(166,854)" d="m0 0 5 5 9 11 9 10 17 16 9 7 13 10 16 10 6 4 4 1 3 3 6 2 14 7v2l5 2-4 1-16-8-18-10-15-10-16-12-14-12-21-21-11-14z" fill="#7A5F62"/>
<path transform="translate(990,1274)" d="m0 0 2 1 7 23v6l-18 1 1-7 5-15z" fill="#F8F3F3"/>
<path transform="translate(358,639)" d="m0 0 5 1 6 4 1 27 4 47v21l-2-2-1-10-1-2-3-37-2-34-3-11z" fill="#668470"/>
<path transform="translate(1091,1274)" d="m0 0 3 3 5 17 2 10h-19l5-18z" fill="#F9F5F4"/>
<path transform="translate(1322,1268)" d="m0 0h5l-4 1 2 6 2-2 1 4v47h-6z" fill="#7A595D"/>
<path transform="translate(374,746)" d="m0 0 5 2 2 4 4 2 12 13 30 30 7 9v3l-4-2-9-9v-2l-4-2-15-16-8-8-7-8-13-13z" fill="#668470"/>
<path transform="translate(1216,1269)" d="m0 0h3l1 3v24l-2 28-6 1v-11l3-39z" fill="#5F353C"/>
<path transform="translate(761,1268)" d="m0 0h13l8 4 2 2v3l-6-1-7-3h-11l-6 5h-2l-1 12-2-1-1 2v9h2v10 1l-1 4-4-6-1-5v-13l3-10 6-8z" fill="#61373D"/>
<path transform="translate(1111,621)" d="m0 0 2 1 2 10-4 13v16l2 6v10l-3 9-2 2-3-1 1-2 1-10v-9l-2-7v-9l3-12z" fill="#D7776D"/>
<path transform="translate(481,331)" d="m0 0h11l20 2 17 5 14 7 14 12 6 5v2l4 2 9 13 6 13-1 3-8-16-7-10-13-13-10-7-10-6-14-5-15-3h-37l-5-1v-1z" fill="#AD8399"/>
<path transform="translate(1255,1269)" d="m0 0h4l3 32 1 23h-6l-2-22z" fill="#5E343A"/>
<path transform="translate(913,1269)" d="m0 0h4v28l-1 21-1 6h-6l3-45z" fill="#5C3339"/>
<path transform="translate(436,698)" d="m0 0 4 2 5 5v29l1 44-2 7-2 1-1-57-1-18-4-11z" fill="#627F6C"/>
<path transform="translate(476,352)" d="m0 0h30l12 3 12 5 9 6 3 1 5 5 9 10 8 12 6 14 1 6-3-1-6-16-7-11-8-10-11-9-10-6-11-4-10-2h-28l-12 1 1-2z" fill="#C57783"/>
<path transform="translate(735,1008)" d="m0 0h4l-1 4-4 1-5 9-1 11 4 8 8 7v2h-31l-12-1-1 4-1-5 4-3h32l-5-9v-15l2-2 2-5z" fill="#DD8478"/>
<path transform="translate(955,615)" d="m0 0h2l-1 7-1 9 3 15v22l1 10h-5l-2-8-1-6 2-5v-12l-2-9v-14l3-8z" fill="#D66A6A"/>
<path transform="translate(1092,635)" d="m0 0h1v14l4 15 1 2v10l-6 12-2 3-6 1-7-1 3-14 1-4 3 1 1 5-2 5v6h4l2-6 4-10v-8l-4-20v-7l1-3z" fill="#D66A6A"/>
<path transform="translate(1023,1269)" d="m0 0h3l1 2 1 10v44h-5z" fill="#572D32"/>
<path transform="translate(283,945)" d="m0 0 16 4 8 3 5 2v2h7l8 3 10 3 11 2 27 6v1h-12l-33-7-36-12-10-5z" fill="#6A8372"/>
<path transform="translate(857,1270)" d="m0 0h10l7 5 2 5v10l-5 6-4 2h-5v3l-13-2 1-3h11v-2l6-3 2-2v-9l-5-5-13-2v-1h6z" fill="#582E33"/>
<path transform="translate(739,1019)" d="m0 0 5 1 10 5 7 2-4 7-5 5-7-1-5-5-1-3z" fill="#FCF5F0"/>
<path transform="translate(1322,1019)" d="m0 0h1v12l-5 6-2 1h-8l-3-4v-2l-3-1 1-4 8-4z" fill="#FCF5F1"/>
<path transform="translate(603,411)" d="m0 0h11l14 3 11 4 6 2 5 3v2l4 2 10 11 8 15 3 15-1 6h-1l-5-19-7-14-4-5v-2l-4-2-5-5-11-7-13-5-17-2h-9v-1z" fill="#EDA89B"/>
<path transform="translate(1023,643)" d="m0 0h19l7 2-2 4-11 4-1 1h-9l-11-8v-2z" fill="#D66C6A"/>
<path transform="translate(699,406)" d="m0 0h7l5 4 1 3v7l-6 4h-6l-5-4v-10z" fill="#FBBB8B"/>
<path transform="translate(1430,464)" d="m0 0h7l5 4 1 8-5 5h-8l-4-3-1-3v-7h2v-2z" fill="#F3A18E"/>
<path transform="translate(1195,1022)" d="m0 0 6 1 14 7 9 6 12 6 9 6 3 5-5-2-16-8-20-11-5-3v-2h-3v-2l-5-1z" fill="#EEC0AF"/>
<path transform="translate(693,158)" d="m0 0h8l4 4 1 8-5 5h-7l-5-4-1-6 3-5z" fill="#F3A08C"/>
<path transform="translate(1126,956)" d="m0 0h2l4 11 13 14 5 5 13 12 13 10 11 8 1 2-4-2-13-9-16-13-12-11-10-10 5 19 3 16v6l-2-1-4-20-8-32z" fill="#AA7E93"/>
<path transform="translate(430,547)" d="m0 0h10l3 4 1 6-2 5-3 2h-7l-5-4v-10z" fill="#FBB987"/>
<path transform="translate(887,191)" d="m0 0h7l5 4v8l-4 4h-9l-4-4v-8z" fill="#F8A790"/>
<path transform="translate(604,428)" d="m0 0h14l11 4 5 3 5 6 5 8 6 16 2 9v13h-2l-3-21-5-13-7-12-9-7-11-3h-11l-14 3 1-3z" fill="#E5A49F"/>
<path transform="translate(1280,1276)" d="m0 0h1l1 8v21l1 6h1v8h25v5h-29z" fill="#715052"/>
<path transform="translate(1173,1270)" d="m0 0h1l1 33 2-3 1 19h24v5h-29z" fill="#542A2E"/>
<path transform="translate(1607,750)" d="m0 0 14 1 4 1v6l-14 7-4-1-1-6h-2l-2-6z" fill="#708B78"/>
<path transform="translate(1104,1294)" d="m0 0 2 4 8 24v3l-7-1-4-13-22-1v-1l17-1 2-1-1-1-17-1v-1l18-1 1-3 2-2z" fill="#865E69"/>
<path transform="translate(352,836)" d="m0 0 5 1 15 15 11 9 13 9 5 3-1 4-7-4-14-10-13-11-7-7-2-1v-2l-3-1z" fill="#FADDCC"/>
<path transform="translate(1046,105)" d="m0 0 5 1 4 3 1 4-2 6-5 3-7-2-3-4v-6l4-4z" fill="#C08DA2"/>
<path transform="translate(1747,341)" d="m0 0 6 1 3 3v8l-3 4h-9l-4-4v-7l4-4z" fill="#BD90A8"/>
<path transform="translate(190,484)" d="m0 0h6l4 4 1 3-2 7-2 2h-8l-4-4-1-6 3-5z" fill="#BC8EA7"/>
<path transform="translate(349,417)" d="m0 0 10 1v1l-14 3-13 7-9 7-9 12-5 12-3 8h-1v-8l5-12 7-11 10-9 14-8z" fill="#CD757B"/>
<path transform="translate(1217,1268)" d="m0 0h7l3 5 3 11 3 8 1 7-1 5-3-1-8-26-1 11h-1l-1-19z" fill="#663D44"/>
<path transform="translate(1617,433)" d="m0 0 3 1-1 23-4 35-1 7-3 4v-12l3-24z" fill="#FBE5D8"/>
<path transform="translate(760,1272)" d="m0 0h11v1l-9 2-7 6-3 10v12l4 11 5 5h-3l-1 2-5-1-3-3v-5-3-7l-2-2v-9l3-3 2-10z" fill="#7D585E"/>
<path transform="translate(421,819)" d="m0 0h8v3l-3 1-83 3h-16l-2-2 40-1 49-3z" fill="#627F6C"/>
<path transform="translate(302,673)" d="m0 0 5 2 20 20v2l3 1 5 6 10 10v3l-4-2-39-39z" fill="#678671"/>
<path transform="translate(1093,1024)" d="m0 0h2v2l-16 4-19 4-12 1h-20l-24-3-10-2v-2l10 1 11 2 26 1 19-1 21-4z" fill="#D1979F"/>
<path transform="translate(1634,374)" d="m0 0h2v6l-4 4-10 16-14 22-5 9h-3l1-4 12-20 10-15 7-12 1-4z" fill="#6A6960"/>
<path transform="translate(1088,1268)" d="m0 0h7l3 5 6 18v9l-4 1-7-24h-3l-1-7-2 3z" fill="#633B40"/>
<path transform="translate(914,1268)" d="m0 0h7l3 4 7 24-1 5h-4l-5-18-2-8-1 13h-1v-19z" fill="#673F45"/>
<path transform="translate(281,602)" d="m0 0 6 1 2 7 6 31 3 14v7l-2-1-1-8h-2l-5-25-4-21-1-3z" fill="#668570"/>
<path transform="translate(696,1275)" d="m0 0 2 3 1 46-5 1v-44h2z" fill="#53272C"/>
<path transform="translate(1354,1268)" d="m0 0h5v33l-1 14-1 5-2-4z" fill="#552A2F"/>
<path transform="translate(1174,1287)" d="m0 0 2 1 1 5h21v5h-20l1 20 18 1v1h-19l-1-1-1-16-2 2z" fill="#735154"/>
<path transform="translate(1081,1303)" d="m0 0 1 2h17l2 3-3 1-17 1-3 9-2 5h-6l2-9 2-6 6-1z" fill="#633A3F"/>
<path transform="translate(696,1060)" d="m0 0 6 4 9 1h23l18-3v2l-10 4-9 1h-26l-11-4z" fill="#D7786E"/>
<path transform="translate(1015,534)" d="m0 0h3v2l-4 4h-2l-1 3-5 5-4 10-4 11-6 7-5 2 2-4 6-8 6-17 6-8z" fill="#D66C6A"/>
<path transform="translate(1364,1060)" d="m0 0h2l-1 4-4 3-14 2h-16l-12-2-10-3-1-2 9 1 26 3h6l14-4z" fill="#D7776D"/>
<path transform="translate(697,1054)" d="m0 0 17 1 32 1 1 2-3 1h-41l-5-2z" fill="#D6756C"/>
<path transform="translate(1126,1040)" d="m0 0 2 1-8 5-16 8-20 11-16 11-4 3-3-1 15-11 18-11 27-14z" fill="#502429"/>
<path transform="translate(934,955)" d="m0 0 1 4-4 15-6 27-2 11-2 1 2-16 6-27-7 8-9 10-4 2 6-8 8-8 1-2h2l2-4h2l2-7z" fill="#B78599"/>
<path transform="translate(389,885)" d="m0 0 4 2 11 6-4 13-1 6h-1l-4-13-3-7-1-5z" fill="#6C8C76"/>
<path transform="translate(353,432)" d="m0 0h12l14 5v2l-9-2-3-1h-15l-11 4-11 8h-2l2-4 9-7 9-4z" fill="#D68386"/>
<path transform="translate(1359,1055)" d="m0 0h3l-1 4-22 1-17-1-6-2v-1z" fill="#D7776D"/>
<path transform="translate(1421,804)" d="m0 0 6 2 14 6 2 4-5-2-3 1v2l-3 1-5-3-5-1v-2h-2v-2h2v-3h-2z" fill="#D77970"/>
<path transform="translate(481,331)" d="m0 0h11l20 2 14 4 1 2-8-1-15-3h-37l-5-1v-1z" fill="#B2859B"/>
<path transform="translate(1600,745)" d="m0 0 13 2 19 3 3 1v2l-8 4-3-1 1-4-18-1-5 1-2-4z" fill="#63806D"/>
<path transform="translate(1565,487)" d="m0 0h2l-2 5-9 14-11 18-4 5h-2l2-6 15-24 6-10z" fill="#65836F"/>
<path transform="translate(369,692)" d="m0 0h2l2 15 1 11v21l-2-2-1-10-1-2-1-14z" fill="#678671"/>
<path transform="translate(1490,144)" d="m0 0 2 1 1 4v18h2v-14h1v15h-4v-17h-16l-2-1 1-4 5-1z" fill="#B88799"/>
<path transform="translate(1303,1086)" d="m0 0h3l-2 5-4 5-8 7-11 7-13 5-2-1 14-8 11-7 5-5z" fill="#502429"/>
<path transform="translate(1326,1009)" d="m0 0h2l5 9 3 7v10l-3 6-7 8-4-1 8-9 2-8-2-11-3-7-2-1z" fill="#DD8276"/>
<path transform="translate(726,1269)" d="m0 0h4v37h-1v-9h-2v9h-1z" fill="#502429"/>
<path transform="translate(352,435)" d="m0 0h12v2l-11 4-1 1-9 1-5 4-4-1 5-6 9-4z" fill="#FCFAF9"/>
<path transform="translate(1200,1166)" d="m0 0h4v2l-11 3-10 4-17 5-13 1 4-2 10-3 4-2 5-1 6-1v-2l15-3z" fill="#603B40"/>
<path transform="translate(444,734)" d="m0 0h1l1 44-2 7-2 1v-40h1z" fill="#688872"/>
<path transform="translate(611,408)" d="m0 0 10 1 13 4 8 3-3 2-11-3-14-3h-21l3-2z" fill="#FBCEB6"/>
<path transform="translate(777,1318)" d="m0 0 3 3v2l-11 2h-8l-6-3v-2l3-1z" fill="#673C42"/>
<path transform="translate(1588,585)" d="m0 0h3l-3 11-11 27h-4l4-10z" fill="#FAE0D0"/>
<path transform="translate(1390,1294)" d="m0 0h1v30h-5v-17l1-12h1l1 6z" fill="#51252A"/>
<path transform="translate(1560,640)" d="m0 0h12l-1 2-10 1v2l-16 3-5-1-2-3z" fill="#65836F"/>
<path transform="translate(996,578)" d="m0 0h13l10 5 1 2-7-1-3-1h-13l-11 2 1-2h2v-2z" fill="#D66E6B"/>
<path transform="translate(457,334)" d="m0 0h10l-3 2-24 6-14 7-7 4v-3l14-8 12-5z" fill="#936670"/>
<path transform="translate(863,1307)" d="m0 0 4 2 3-1 9 15v2l-7-1-2-5h-2l-5-10z" fill="#62383F"/>
<path transform="translate(1017,647)" d="m0 0 30 1-3 2-8 3-1 1h-9l-9-6z" fill="#D7776D"/>
<path transform="translate(374,746)" d="m0 0 5 2 2 4 4 2 12 13 5 5h-3v-2l-4 1-9-10-12-12z" fill="#688672"/>
<path transform="translate(1280,1276)" d="m0 0h1l1 8v21l1 6h1l1 8 3 3-4 2h-4z" fill="#502429"/>
<path transform="translate(636,441)" d="m0 0 5 3 6 12 4 13 1 5v13h-2l-3-21-5-13-6-10z" fill="#C594AA"/>
<path transform="translate(1599,430)" d="m0 0 3 2-12 19-7 11-5 2 2-4 15-24z" fill="#65836F"/>
<path transform="translate(974,601)" d="m0 0 4 4 3 11-1 6-5-3-2-4-1-13z" fill="#D7776D"/>
<path transform="translate(1601,548)" d="m0 0h1l-1 9-9 27-3 2 1-7 9-29z" fill="#FCEADF"/>
<path transform="translate(800,1313)" d="m0 0 1 2h2l1-2v7h3l1 1v-1l20-1v4h-28z" fill="#502429"/>
<path transform="translate(1362,1056)" d="m0 0 3 4-4 4h-21v-3l7-1 1-1 13-1z" fill="#F9AC8E"/>
<path transform="translate(1023,541)" d="m0 0 5 2 18 13 11 6 5 4-1 2-21-12-14-11-3-3z" fill="#D66C6A"/>
<path transform="translate(545,374)" d="m0 0 5 1 8 10 6 9 6 14 1 6-3-1-6-16-7-11-8-10z" fill="#B0839A"/>
<path transform="translate(1327,1268)" d="m0 0 4 1 4 8-1 7-4-1-3-8-2 3-2-4v-5z" fill="#60363C"/>
<path transform="translate(1326,1284)" d="m0 0h1v40h-4v-37h1l1 24z" fill="#502429"/>
<path transform="translate(1097,548)" d="m0 0h3l1 4 4 10 2 8v15l-1-3h-2l-2-11-2-14z" fill="#D7776D"/>
<path transform="translate(1372,229)" d="m0 0h19v1l-16 1-12 3-9 4-4 1v2l-7 6-5 7-3 5-1-2 5-9 5-6 10-7 14-5z" fill="#D97A71"/>
<path transform="translate(251,928)" d="m0 0h3l3 3 6 2 14 7v2l5 2-4 1-16-8-13-7z" fill="#766463"/>
<path transform="translate(209,581)" d="m0 0 5 1v2l3 1 3 5 11 11-1 2-6-4-8-8-2-1v-2l-4-1z" fill="#688772"/>
<path transform="translate(1132,971)" d="m0 0 5 4 5 5 5 7-9-1v6l-2-3-4-16z" fill="#FCEFE6"/>
<path transform="translate(747,1286)" d="m0 0 2 3-1 2v9h2v10 1l-1 4-4-6-1-5v-13h2z" fill="#643940"/>
<path transform="translate(1104,1308)" d="m0 0h3l1 2h2l4 12v3l-7-1-3-11z" fill="#5E333B"/>
<path transform="translate(917,1047)" d="m0 0h9l16 4 21 9 3 3-10-3-20-8-19-4z" fill="#502429"/>
<path transform="translate(1143,980)" d="m0 0 4 2 7 8 14 12 15 11 5 5-4-2-13-9-16-13-12-11z" fill="#B78195"/>
<path transform="translate(283,945)" d="m0 0 16 4 8 3 5 2v2h2v2l-9-2-20-8z" fill="#687D6D"/>
<path transform="translate(887,191)" d="m0 0h7l5 4v8l-4 4h-9l-2-3 11 1-1-11-7 1-2-1v-2z" fill="#DB7C71"/>
<path transform="translate(1511,573)" d="m0 0h3l-1 5-6 10-4 9h-3l-2-5h2l2-4z" fill="#65836F"/>
<path transform="translate(1057,577)" d="m0 0 8 1 3 3-14 1-13 4h-2l2-4 11-4z" fill="#D66D6A"/>
<path transform="translate(349,417)" d="m0 0 10 1v1l-14 3-13 7-7 5-2-1 4-5 14-8z" fill="#D1767A"/>
<path transform="translate(1496,145)" d="m0 0h15l2 1v4l-2 1h-11l-4-2z" fill="#BF91AA"/>
<path transform="translate(171,859)" d="m0 0 4 2v2h2l7 8 5 5 9 10-1 2-8-7-8-8-7-9-3-3z" fill="#668470"/>
<path transform="translate(843,1300)" d="m0 0 2 4 2-4v24h-5z" fill="#502429"/>
<path transform="translate(1022,586)" d="m0 0 4 2 4 5 2 4v8l-5 12-4 6-2 4-1-4 7-12 2-8v-6l-5-8z" fill="#D6746C"/>
<path transform="translate(421,819)" d="m0 0h8v3l-3 1h-30l2-2z" fill="#63806D"/>
<path transform="translate(1020,530)" d="m0 0 7 3 7 4v2l4 2 5 4 1 3-4-1-13-10-9-5z" fill="#D06868"/>
<path transform="translate(1354,1045)" d="m0 0h8l5 3v3l-5-1-1-1h-25l1-3z" fill="#DF8477"/>
<path transform="translate(967,715)" d="m0 0 7 6 11 10 18 10-4 1-14-8-13-11-5-5z" fill="#CA8E98"/>
<path transform="translate(151,832)" d="m0 0 4 2 5 9 8 10 2 5-5-2-13-19z" fill="#697A6B"/>
<path transform="translate(1539,563)" d="m0 0 4 1-2 3-18 4h-8l2-2 9-3z" fill="#65836F"/>
<path transform="translate(1321,212)" d="m0 0 2 1-10 11-10 16-6 17h-1l1-8 5-13 10-14z" fill="#D6766C"/>
<path transform="translate(1125,1307)" d="m0 0 2 3 5 8-1 2h2v2l-4 1-5-4-2-7z" fill="#7A5257"/>
<path transform="translate(358,639)" d="m0 0 5 1 6 4v18h-1l-1 5h-1l-2-18-3-7z" fill="#6A8573"/>
<path transform="translate(380,409)" d="m0 0 2 2-1 11-15-3-14-1 1-2h15l11 3z" fill="#9A656C"/>
<path transform="translate(941,913)" d="m0 0h1l1 12-4 20-3 11-2-1 2-10 3-14z" fill="#BD8C9E"/>
<path transform="translate(1049,846)" d="m0 0 4 1-7 2-17 2h-14l-6-1v-2h27z" fill="#B789A0"/>
<path transform="translate(862,1298)" d="m0 0 4 1h-2l5 7-1 5-5-3-4-4v-3l-11-1v-1h10l4 2z" fill="#79555B"/>
<path transform="translate(704,1060)" d="m0 0h10l4 1 2 4h-18v-3z" fill="#FAB586"/>
<path transform="translate(444,360)" d="m0 0h2l-1 3-11 6-11 9-8 9v-3l7-8 9-8h2v-2z" fill="#9C6971"/>
<path transform="translate(1157,333)" d="m0 0 12 1 2 4-7 1h-8l-1-5z" fill="#B1859D"/>
<path transform="translate(929,969)" d="m0 0 1 2-4 17-7-7 7-8z" fill="#FCEEE5"/>
<path transform="translate(1613,407)" d="m0 0 2 4-8 13-4 7h-3l1-4z" fill="#687567"/>
<path transform="translate(786,1024)" d="m0 0h2l-1 4-8 7-5 4-4 5-4 2 2-4 7-8z" fill="#D6766C"/>
<path transform="translate(1273,1024)" d="m0 0 4 2 12 11 7 8v2l-4-2-14-15-5-3z" fill="#D7776D"/>
<path transform="translate(1591,682)" d="m0 0 2 1-8 7-9 6h-5v-3l11-6z" fill="#657566"/>
<path transform="translate(417,352)" d="m0 0h2v2l-10 8-10 12-3 3v-3l6-8 9-10z" fill="#8E656E"/>
<path transform="translate(166,854)" d="m0 0 5 5 9 11 9 10 6 6-1 2-16-16-11-14z" fill="#756765"/>
<path transform="translate(1084,1305)" d="m0 0h15l2 3-3 1h-17z" fill="#51262B"/>
<path transform="translate(1508,543)" d="m0 0h2l2 9 1 11-1 6h-1l-1-9-2-6z" fill="#668470"/>
<path transform="translate(1287,1294)" d="m0 0h17v4h-16z" fill="#552B2F"/>
<path transform="translate(1225,1153)" d="m0 0v3l-5 5-8 4h-5l3-5 11-4z" fill="#592E35"/>
<path transform="translate(1211,520)" d="m0 0h16l12 1 5 1 9 3v2l-10-2-19-3-13-1z" fill="#FCE2D1"/>
<path transform="translate(810,1294)" d="m0 0h14v4h-16l-1-3z" fill="#53282D"/>
<path transform="translate(982,512)" d="m0 0 4 4-3 1-9 5-5 2v2l-2-1 5-6 7-6z" fill="#D6756C"/>
<path transform="translate(913,801)" d="m0 0h2v22l2 11 2 6-2 2-3-10-2-18v-12z" fill="#C38F9E"/>
<path transform="translate(760,1272)" d="m0 0h11v1l-9 2-7 6-3 10h-1v-10l1-3z" fill="#805B61"/>
<path transform="translate(1773,561)" d="m0 0h4l-1 5h-2l-1 3-6 1-2 2-4-1 3-1v-2l7-5h2z" fill="#657B6A"/>
<path transform="translate(1043,502)" d="m0 0 8 1 8 3-1 2-7-1-2 1-5-1-2 1-3-2h2l-1-3z" fill="#D6706B"/>
<path transform="translate(1335,1279)" d="m0 0 3 4 5 10-1 5-3-4-5-8h-2v-2h2z" fill="#745156"/>
<path transform="translate(761,1109)" d="m0 0h2l6 11 8 8 9 5-3 1-11-7-7-8-4-9z" fill="#502429"/>
<path transform="translate(702,1050)" d="m0 0 22 1v2l-13 2-8-1-2-3z" fill="#FED3B7"/>
<path transform="translate(1068,594)" d="m0 0 1 3-9 7-8 1-6-3 4-1 6 1 8-5z" fill="#5D363A"/>
<path transform="translate(1510,560)" d="m0 0h1l1 4 2-1v3l3-1 3 4-3 1 2 2-5 2-3-1-1 2z" fill="#6B8B75"/>
<path transform="translate(1500,467)" d="m0 0 1 2v8l1 9h-2l-1 4-2-13-2-5z" fill="#688772"/>
<path transform="translate(878,912)" d="m0 0 11 1 10 3 6 3 8 6-2 1-11-7-9-3-13-3z" fill="#C490A0"/>
<path transform="translate(918,840)" d="m0 0 4 5 7 9 5 3 6 15h-2l-7-14-8-7-5-8z" fill="#AF8197"/>
<path transform="translate(963,665)" d="m0 0 2 1 2 15 1 8h-3l-2-8-1-14z" fill="#D66A6A"/>
<path transform="translate(992,594)" d="m0 0 5 3 6 4h9l4-1-4 4-8 1-7-4-5-5z" fill="#5B3337"/>
<path transform="translate(1579,289)" d="m0 0 4 1v4h-2l1 9-4 2v-15z" fill="#D7766D"/>
<path transform="translate(262,932)" d="m0 0 5 1 16 7 8 4-1 2-15-6-13-7z" fill="#7FA78E"/>
<path transform="translate(1759,572)" d="m0 0 2 1-4 2v2l-17 11-3-1 6-5 3-2h3v-2h3v-2z" fill="#666F63"/>
<path transform="translate(527,338)" d="m0 0 9 3 10 6 2 3h-3l-12-7-8-3z" fill="#D599A1"/>
<path transform="translate(1137,223)" d="m0 0h7l6 4 2 3-1 4-3-5-2-1v-2h-10l-4 4h-3l2-4 2-2z" fill="#D97E75"/>
<path transform="translate(1140,1294)" d="m0 0h12v6l-11-1z" fill="#7B5257"/>
<path transform="translate(1114,745)" d="m0 0 1 3-7 7-11 8-9 4 1-3 11-6 11-9z" fill="#CA7F88"/>
<path transform="translate(604,428)" d="m0 0h14l1 2-21 2-8 2 1-3z" fill="#C08FA3"/>
<path transform="translate(548,347)" d="m0 0h2l5 5v2l4 2 7 6v2h2l1 3-4-2-8-7-10-9z" fill="#FBE6D9"/>
<path transform="translate(1172,339)" d="m0 0h2v7l3 4 1 6h-5l-2-2v-12z" fill="#AF839B"/>
<path transform="translate(457,334)" d="m0 0h10l-3 2-20 5h-2v-3z" fill="#976C78"/>
<path transform="translate(697,1272)" d="m0 0 2 1 1 5-1 44h-1z" fill="#B88E9F"/>
<path transform="translate(699,1048)" d="m0 0 7 1v2h-4l3 2 6 1v1h-15l-2-2 1-4 1 3 1-3z" fill="#F9B092"/>
<path transform="translate(266,744)" d="m0 0h13l2 2v3h-7l-5-1v2h-2z" fill="#63816E"/>
<path transform="translate(476,352)" d="m0 0h23v1l-29 3h-5l1-2z" fill="#916A78"/>
<path transform="translate(304,463)" d="m0 0 3 2-1 30h-1l-1-16 1-4h-2z" fill="#C291A7"/>
<path transform="translate(353,432)" d="m0 0h12l14 5v2l-9-2-3-1-11-1z" fill="#C67F87"/>
<path transform="translate(1183,1294)" d="m0 0 1 2h2v-2h11v4h-14l-2-3z" fill="#53282D"/>
<path transform="translate(1364,1060)" d="m0 0h2l-1 4-4 3-14 2v-2l9-3 7-2z" fill="#D9766E"/>
<path transform="translate(1130,1029)" d="m0 0h4v2l-16 6-6 3-3-1 8-5z" fill="#502429"/>
<path transform="translate(1614,482)" d="m0 0h1v10l-1 7-3 4v-12l1-7z" fill="#FCEBE0"/>
<path transform="translate(371,716)" d="m0 0h2l1 2v21l-2-2-1-10z" fill="#64816E"/>
<path transform="translate(623,410)" d="m0 0 4 1 15 5-3 2-11-3-8-2 3-1z" fill="#FBD9C8"/>
<path transform="translate(1172,1173)" d="m0 0 5 1v2l-11 4-13 1 4-2 10-3 4-2z" fill="#593236"/>
<path transform="translate(1405,792)" d="m0 0h4v6h2l-1 3-2-1v2l-5-2-1-2z" fill="#D97A6F"/>
<path transform="translate(233,665)" d="m0 0h13v4h-13z" fill="#678671"/>
<path transform="translate(1615,547)" d="m0 0h4l-1 5h-8l-5 1v-4z" fill="#688873"/>
<path transform="translate(619,496)" d="m0 0h22v2l-7 1h-15z" fill="#BF91AA"/>
<path transform="translate(437,366)" d="m0 0 4 1-5 5-3 1v2h-3v2l-5 1 5-7z" fill="#FBF7F6"/>
<path transform="translate(499,352)" d="m0 0 13 1 6 2v2l-13-2-17-1v-1z" fill="#B07D8E"/>
<path transform="translate(1007,514)" d="m0 0h4l-1 4-4 3h-3l-1 2-3-1 2-4z" fill="#D66A6A"/>
<path transform="translate(749,1288)" d="m0 0 2 2v16l-3-4-1-2v-9z" fill="#6F4E50"/>
<path transform="translate(436,698)" d="m0 0 4 2 2 3h-2l2 4v22h-1l-1-18-4-11z" fill="#718B78"/>
<path transform="translate(735,1008)" d="m0 0h4l-1 4-4 1-5 9h-2l-1 3 1-5 3-6z" fill="#DF887C"/>
<path transform="translate(1634,374)" d="m0 0h2v6l-7 7-1-4 2-5z" fill="#678270"/>
<path transform="translate(1333,1040)" d="m0 0h1v5h20v1l-25 1 1-4z" fill="#FDE4D5"/>
<path transform="translate(1099,718)" d="m0 0h2l-2 4-15 11-4 3-4-1 11-7 9-7z" fill="#D78789"/>
<path transform="translate(1594,566)" d="m0 0 2 3-2 9-3 7-2 1 1-7z" fill="#FBE5D8"/>
<path transform="translate(1629,462)" d="m0 0h4l-1 4-10 2-4-1 3-3z" fill="#668470"/>
<path transform="translate(1212,518)" d="m0 0h14l1 2h-16v2h-8l3-3z" fill="#FDF0E7"/>
<path transform="translate(697,1056)" d="m0 0 6 2 11 1v1l-9 1-3 1v2l-4-2-2-3z" fill="#F8A691"/>
<path transform="translate(724,1051)" d="m0 0h7l1 2-1 2h-19v-1l12-1z" fill="#FBB885"/>
<path transform="translate(755,1025)" d="m0 0 8 1 1 2-6 9-4 2 1-4 5-7-5-2z" fill="#D8776E"/>
<path transform="translate(265,935)" d="m0 0 4 1 8 4v2l5 2-4 1-8-4z" fill="#6F6F66"/>
<path transform="translate(195,887)" d="m0 0 4 2 8 8 6 5-1 2-13-11-4-4z" fill="#73625F"/>
<path transform="translate(288,745)" d="m0 0h8v1l22 1v1h-30z" fill="#6A8A74"/>
<path transform="translate(547,350)" d="m0 0 4 2 8 7 4 3v2l4 2 1 2-4-1-11-11-6-4z" fill="#B589A1"/>
<path transform="translate(1578,313)" d="m0 0h1l1 8h3v8h-5z" fill="#DC7F73"/>
<path transform="translate(174,858)" d="m0 0 7 6 7 9h-3l-8-8v-2h-2l-2-4z" fill="#7FA78E"/>
<path transform="translate(751,1278)" d="m0 0 1 3-1 9-1-2-3-1-2 4 1-8z" fill="#5E343A"/>
<path transform="translate(1143,980)" d="m0 0 4 2 7 8 6 5v2l-4-2-13-12z" fill="#B78599"/>
<path transform="translate(309,450)" d="m0 0 2 1-2 9-3 8h-1v-8z" fill="#C97D86"/>
<path transform="translate(1605,534)" d="m0 0h1l-1 9-2 7-3-1 1-8 2-4 1 1z" fill="#FBE4D7"/>
<path transform="translate(349,417)" d="m0 0 10 1v1l-14 3-5 2 1-4z" fill="#C1747A"/>
<path transform="translate(1136,993)" d="m0 0 2 1 3 14v6l-2-1-3-16z" fill="#AF839B"/>
<path transform="translate(374,746)" d="m0 0 5 2 2 4h2v5l-7-6-2-2z" fill="#678571"/>
<path transform="translate(281,602)" d="m0 0 6 1 1 2v10l-3-2-2-9z" fill="#65836F"/>
<path transform="translate(348,433)" d="m0 0h15v1l-15 3h-5v-2z" fill="#D07378"/>
<path transform="translate(470,332)" d="m0 0h14l-1 2-16 1-5-1v-1z" fill="#AC7889"/>
<path transform="translate(600,314)" d="m0 0v3l-6 9h-2v2l-4 2 2-4 8-10z" fill="#FADBC8"/>
<path transform="translate(440,703)" d="m0 0 4 1 1 3-1 12h-2l-1-12z" fill="#678571"/>
<path transform="translate(1052,114)" d="m0 0 1 2h2l-2 4-5 2-6-2-2-2 1-3 3 3 8 1z" fill="#AE8198"/>
<path transform="translate(380,409)" d="m0 0 2 2-1 11-10-2 3-2 5 1z" fill="#B2767F"/>
<path transform="translate(1131,1273)" d="m0 0 4 2-6 5-3 3-1-3 3-5z" fill="#7D565B"/>
<path transform="translate(923,974)" d="m0 0v3l-11 12h-3l12-13z" fill="#B17D8E"/>
<path transform="translate(1524,554)" d="m0 0 1 3-6 9-2 1 1-5 4-7z" fill="#65836F"/>
<path transform="translate(151,832)" d="m0 0 4 2 4 7-1 3-5-5-2-4z" fill="#688270"/>
<path transform="translate(1553,656)" d="m0 0h3l-1 6-3 3-3-4v-2z" fill="#FBE7DB"/>
<path transform="translate(1503,509)" d="m0 0h2l1 2v12l-2-1-1-3z" fill="#64826E"/>
<path transform="translate(1307,1319)" d="m0 0 1 4h-14l2-3z" fill="#502429"/>
<path transform="translate(1133,1181)" d="m0 0 10 2v2h-9v4l-4-1 2-1z" fill="#623E43"/>
<path transform="translate(1337,1046)" d="m0 0h15l-1 2-15 1z" fill="#E1897D"/>
<path transform="translate(967,715)" d="m0 0 7 6 5 6-4-1-7-6z" fill="#E79F97"/>
<path transform="translate(1619,398)" d="m0 0h3l-2 5-4 6h-2l1-5z" fill="#696F64"/>
<path transform="translate(283,945)" d="m0 0 10 3 5 3-4 1-10-5z" fill="#74605F"/>
<path transform="translate(1160,908)" d="m0 0h6l-3 2-14 5-2-1 6-4z" fill="#B5889E"/>
<path transform="translate(973,595)" d="m0 0 5 1 2 3v4l-4-1-3-5z" fill="#F9B08A"/>
<path transform="translate(1707,579)" d="m0 0 1 2-5 10h-2l-2 4v-5l3-1 3-9z" fill="#686B60"/>
<path transform="translate(1631,580)" d="m0 0h6l1 2-2 4-4 1z" fill="#65806E"/>
<path transform="translate(1508,531)" d="m0 0h1l1 12h-2l-1 4-1-14z" fill="#688672"/>
<path transform="translate(1617,433)" d="m0 0 3 1-2 21h-1z" fill="#FDF1E9"/>
<path transform="translate(1172,317)" d="m0 0h3l-1 17h-2z" fill="#A1778B"/>
<path transform="translate(1231,1289)" d="m0 0 2 3 1 7-1 5-2-3-1-8z" fill="#7B585E"/>
<path transform="translate(1349,1061)" d="m0 0h11l2 2-1 1h-12z" fill="#FDCFB2"/>
<path transform="translate(238,920)" d="m0 0 11 6 2 3-5-1-8-5z" fill="#755D5E"/>
<path transform="translate(1546,518)" d="m0 0 1 2-5 9h-3l2-6z" fill="#64826E"/>
<path transform="translate(384,396)" d="m0 0h2l-1 7-3 8h-1l1-9z" fill="#936A77"/>
<path transform="translate(389,391)" d="m0 0 2 2-1 6-3 3h-2l3-10z" fill="#FCF9F6"/>
<path transform="translate(545,374)" d="m0 0 5 1 6 7-1 3-5-5z" fill="#B4869D"/>
<path transform="translate(1338,1287)" d="m0 0h2l3 6-1 5-3-4-2-5z" fill="#704A50"/>
<path transform="translate(1046,601)" d="m0 0 10 1 4-1-1 3-7 1-6-3z" fill="#572E32"/>
<path transform="translate(1755,350)" d="m0 0 1 3-3 4h-9v-3l6 1 2 1v-2h2z" fill="#AD8199"/>
<path transform="translate(512,334)" d="m0 0 8 1 7 3-4 1-10-3z" fill="#C08291"/>
<path transform="translate(188,874)" d="m0 0 7 6 6 7-4-1-9-10z" fill="#7FA78E"/>
<path transform="translate(209,581)" d="m0 0 5 1v2h2l-1 4-5-2z" fill="#698271"/>
<path transform="translate(1610,498)" d="m0 0 3 2-1 11-3-1z" fill="#FBE3D5"/>
<path transform="translate(1585,473)" d="m0 0 4 1-3 3-8 1 4-4z" fill="#65836F"/>
<path transform="translate(1342,244)" d="m0 0 2 2-6 8-3 5-1-2 5-9z" fill="#DE8275"/>
<path transform="translate(277,941)" d="m0 0 6 1 7 3v2l-6-1-2 1-2-2z" fill="#6B8473"/>
<path transform="translate(941,913)" d="m0 0h1l1 12-1 6-2-3z" fill="#D0959B"/>
<path transform="translate(944,741)" d="m0 0 9 3 5 3-3 1-11-5z" fill="#C591A0"/>
<path transform="translate(369,692)" d="m0 0h2l1 4v8h-2l-1-4z" fill="#64826E"/>
<path transform="translate(1604,422)" d="m0 0 3 2-4 7h-3l1-4z" fill="#677C6B"/>
<path transform="translate(555,384)" d="m0 0 3 1 5 8v3h-2l-6-10z" fill="#AF798A"/>
<path transform="translate(425,373)" d="m0 0 2 1-7 7-5 6v-3l7-8z" fill="#80585D"/>
<path transform="translate(427,345)" d="m0 0 3 1-5 4-6 3v-3z" fill="#966D79"/>
<path transform="translate(279,745)" d="m0 0 2 1v3h-7l-5-1v2h-2l1-3h11z" fill="#6E8B77"/>
<path transform="translate(294,650)" d="m0 0 3 1 1 4v7l-2-1z" fill="#64826E"/>
<path transform="translate(537,366)" d="m0 0 5 1 5 5 1 2-5-1-6-5z" fill="#D07F84"/>
<path transform="translate(545,205)" d="m0 0h2l1 9h-2l-3 3z" fill="#D7918C"/>
<path transform="translate(1340,1061)" d="m0 0h9v3h-9z" fill="#FBB885"/>
<path transform="translate(749,1010)" d="m0 0 7 1v2l3 1-2 1-8-2z" fill="#FBC094"/>
<path transform="translate(1132,969)" d="m0 0 4 2 7 8-1 2-5-4-5-7z" fill="#AF7B8D"/>
<path transform="translate(1510,556)" d="m0 0 3 1v10l-2 2z" fill="#63816D"/>
<path transform="translate(325,430)" d="m0 0m-2 1 2 1-4 7h-3v-3z" fill="#C77F8A"/>
<path transform="translate(642,431)" d="m0 0 5 2 3 5-4-1-4-4z" fill="#FDFDFD"/>
<path transform="translate(619,429)" d="m0 0 6 1 4 3-3 1-11-3z" fill="#F1A394"/>
<path transform="translate(1497,145)" d="m0 0h14l1 2h-2l-1 2-6-2-6-1z" fill="#B27F94"/>
</svg>
