<?xml version="1.0" encoding="UTF-8"?>
<svg version="1.1" viewBox="0 0 2048 2048" width="612" height="612" xmlns="http://www.w3.org/2000/svg">
<path transform="translate(0)" d="m0 0h2048v2048h-2048z" fill="#FCFCFC"/>
<path transform="translate(541,368)" d="m0 0h528l19 3 16 6 11 6 13 10 10 10 10 15 7 15 4 14 1 6 1 16 1 326 1 18 5-3 10-9 14-11 19-14 17-12 27-16 20-11 24-11 19-7 22-6 26-4h31l18 2 32 7 25 7 19 7 21 9 22 11 24 15 16 12 10 8 10 9 14 14 9 11 10 13 11 17 12 22 8 17 7 19 6 22 5 25 4 33 1 13v62l-1 13 5 5 8 9 4 4 6 14 3 17 1 1 2 22v11l-2 30-1 1-6 43-1 5 4-2 17-1h23l16 4 8 7 4 10v9l-4 26-10 57-16 82-16 76-6 25v6l4 4v70l-16 1 2 29 19 247 5 67-1 1h-17l-2-7-6-49-12-101-14-115-8-70v-2l-83 1 7 88 19 247v7l-1 1h-15l-3-2-17-141-12-101-10-83-2-16-1-1h-74l-8 64-9 76-7 59-2 20-3 2-1-3-1-20-9-1-29-1-6-2-3-19-10-74-11-83-2-18h-10l-7 31-5 20-12 101-21 174-3 18h-17l-1-1 2-43-19 9-28 11-36 12-32 8-33 6-30 3h-72l-29-3-32-6-29-9-28-12-17-9-18-11-14-10-13-10-10-8-15-13-11-9-14-11-15-11-20-12-23-12-18-8-36-2-168-1-19-3-15-5-17-9-16-13-9-11-9-15-7-19-2-11-1-548v-35l-10-25-10-24-9-24-7-23-5-23-2-16v-28l2-13 2-9 5-12 9-14 9-10 7-6 10-7-1-143v-238l1-65 3-17 6-16 9-14 11-13 12-10 15-9 16-6z" fill="#FBE0D1"/>
<path transform="translate(551,400)" d="m0 0h198l18 1 9 6 7 10 6 9 7 6 8 4 9 2h10l13-4 8-6 6-7 9-14 9-6 10-1h159l43 1 15 4 12 6 13 10 8 9 8 14 4 10 2 9 1 15v1219l-2 17-6 17-7 11-9 10-11 9-15 7-12 3-7 1h-538l-17-4-16-8-11-9-10-12-8-16-4-15-1-35v-421l1-54 1-16 4 4 11 23 17 32 13 24 9 19 1 22 2 10 7 14 11 12 4 4-1 11-20 88-16 69v13l1 3 5 2h8l6-5 5-18 19-84 15-65 4-1 16 4 22 4 34 3h55l3 5 5 38 14 112 8 63 3 13 3 3 9 1 6-4 2-3v-11l-26-205v-15l4-1 14-2 3 6 3 26 1 5 5 2 4 1 7-2 4-5v-40l5-1 1 15 2 50 3 36v26l-1-4h-2l-2 4-2 5v14l5 15v8l4 5 3 21 5 8 7 6 10 5 16 4h10l8-3 2-3-2-9-13-22-2-1-8-19-6-20-2-15 2-30 5-42 6-43 5-29 3-24 7-45 3-5 4 4 6 12 13 18 9 13 2 3-1 1 4 10 8 17 19 45 15 35 2 4-1 15 5 10 7 11 3 9 1 9 10-1-3-9v-14l5-1 16 6 23 12 3 1h17l15-5 10-6-1-5-9-7-19-8h-5l-1-3-5-2-8-6-8-8-10-15-9-16-10-25-9-24-22-62-42-126-8-19-5-9v-3l-6-1-2-1v-2l-27-3h-28l-23 1-31 3h-5v2l-19 1-5-24-8-24v-9l1-5v-12h2l9 27 4 9v2h2l3 12 5 13 3 2h9l8-3 9-10 8-14 5-10 4-7 11-29 9-26 4-6 19-8 11-7 10-10 1-3h-3l-2 4-5 1 3-6 3-5v-3l-3 1-3 4h-2l1-6 3-1 1-4 2-4-5 3-5 6h-2l-1 4-3-1 2-4h2l2-6 1-4-5 4-3 5-8 4h-6l2-5 4-9-9 4-7 8-5 6h-2l-2 4-5 8-3 5h-1l-1-8-1-27-3-29-4-16-6-10-8-8-16-10-20-8-28-7-31-5 6-9 6-12 7-22 5-10 6-19v-11l-7-21-8-16-8-10-8-6-12-5-10-2h-26l-12 3-14 7-14 11-7 7-7 10-8 16-3 11v10l3 7 4 3-1 6-1 4v8l3 9 9 11 9 7 7 10v2l-3 1-29 3-28 5-27 7-26 9-4 1-1-2-1-46v-293l1-88 3-13 8-16 7-9 9-9 10-7 14-6 12-3z" fill="#FCFCFC"/>
<path transform="translate(541,368)" d="m0 0h528l19 3 16 6 11 6 13 10 10 10 10 15 7 15 4 14 1 6 1 16v1242l-2 15-5 17-7 14-8 11-9 10-13 10-14 8-14 5-14 3-15 1-298 1h-48l-168-1-19-3-15-5-17-9-16-13-9-11-9-15-7-19-2-11-1-548v-35l-10-25-10-24-9-24-7-23-5-23-2-16v-28l2-13 2-9 5-12 9-14 9-10 7-6 10-7-1-143v-238l1-65 3-17 6-16 9-14 11-13 12-10 15-9 16-6zm10 32-18 1-15 4-14 7-10 8-9 9-8 13-5 12-2 10-1 88v293l1 46 1 2 9-3 28-9 30-7 26-4 21-2 3-1-2-5-6-8-11-9-7-10-2-7v-8l2-6-1-5-5-5-1-4v-10l4-13 8-16 9-11 11-10 14-9 13-5 6-1h26l13 3 12 6 8 7 9 14 8 20 3 10v11l-8 24-3 5-9 27-7 12-3 4 36 6 26 7 19 8 11 7 10 9 6 9 4 13 3 22 1 12 1 27 1 8 3-3 5-9 3-3v-2h2l7-8 5-6 9-4-4 9-2 5 9-1 6-4 4-6 3-2-1 4-2 6-3 1-1 3 3 1 1-4 4-2 4-5 4-2-3 5v3l-3 1-1 6 4-2 1-2 3-1-1 5-5 8 3 1 4-3v-2h3l-3 5-8 8-13 8-17 7-5 8-10 30-10 26-5 7-8 16-8 11-6 5-6 2h-9l-3-2-7-19-1-6h-2l-3-9-6-17-4-12h-2v14l-1 3v9l9 28 4 20 19-1v-2l26-2 10-1 23-1h28l27 3v2l4 2h4l1 5 8 16 9 24 18 55 12 36 16 47 13 36 10 27 10 24 8 14 8 12 9 10 7 6 5 3h2l1 3 7 1 17 7 9 7 1 5-10 6-15 5h-17l-16-8-17-8-9-3-5 1v14l3 9-10 1-2-12-4-10-9-14-1-9 1-9-9-20-19-45-13-30-6-12-1-4v-3l-9-12-11-16-8-13-3-6h-3l-2 4-7 45-4 29-7 44-7 56-3 34 1 14 4 17 7 19 4 9 3 3 12 20 2 9-4 4-6 2h-10l-16-4-10-5-9-8-3-6-3-21-4-5v-8l-5-15v-14l3-6 1-3h2l1 4v-26l-3-36-2-50-1-15-5 1v40l-5 6-8 1-5-3h-2l-3-21-1-10-3-6-17 2-1 1v15l23 182 3 23v11l-4 5-4 2-9-1-4-5-4-26-20-160-5-38-3-5h-55l-34-3-27-5-13-3-2 1-19 82-11 49-7 30-3 7-5 4h-8l-5-2-1-3v-13l13-56 22-96 2-10v-6l-12-12-8-13-3-8-1-7-1-22-11-23-15-28-17-32-8-16-3-3-1 16-1 70v405l1 35 4 15 8 16 11 13 10 8 16 8 17 4h538l16-3 16-7 11-8 9-9 9-14 6-17 2-17v-1219l-1-15-4-15-8-15-9-11-11-9-10-6-15-5-5-1-43-1h-159l-10 1-6 4-5 5-10 15-9 8-10 4-5 1h-10l-12-3-10-7-7-9-7-11-5-4-5-3-18-1z" fill="#95D3BF"/>
<path transform="translate(1500,856)" d="m0 0h23l16 4 19 9 14 10 8 7 7 10 6 12 6 31 3 16 5 13 7 11 5 13 4 11 9 12 8 16 4 17v16l6 1 18 7 8 4 9 6 8 9 4 4 6 14 3 17 1 1 2 22v11l-2 30-1 1-6 43-1 5 4-2 17-1h23l16 4 8 7 4 10v9l-4 26-10 57-16 82-16 76-6 25v6l4 4v70l-16 1 2 29 19 247 5 67-1 1h-17l-2-7-6-49-12-101-14-115-8-70v-2l-83 1 7 88 19 247v7l-1 1h-15l-3-2-17-141-12-101-10-83-2-16-1-1h-74l-8 64-9 76-7 59-2 20-3 2-1-3-1-20-9-1-29-1-6-2-3-19-10-74-11-83-2-18h-10l-7 31-5 20-12 101-21 174-3 18h-17l-1-1 1-19 11-144 2-23v-10l-4 8-11 26-2 4-7-1-34-16-1-4 6-19 6-29 8-54 13-102 7-47 8-41 9-41 5-17 5-13 8-15 9-10 13-8 13-5 18-4 7-1h41l33 4 11 3 32 13 17 5 8 1h21l49-7 50-4 1-5-6-21-1-5 11-3 7-8 8-19 4-9-4-2-42-10-86-5-10-1-5-5-10-13-9-12-14-14-14-27-6-12v-2h-28l8-44 4-37 4-44 3-6 9-4 10-3h5l2 3 2 8 8 7 9 4 13 2h12l10-1 2-11 6-45 3-35v-13l-19-5-32-14-12-3-36-5-8-3h-3l-3 9-1 1 1 7 5 9v9h-4l-8-9-8-13-8-15-4-17v-20l3-8 6-5 3-2 4-13 7-11 9-10 13-9 10-5 12-4z" fill="#333189"/>
<path transform="translate(541,368)" d="m0 0h528l19 3 16 6 11 6 13 10 10 10 10 15 7 15 4 14 1 6 1 16v1242l-2 15-5 17-7 14-8 11-9 10-13 10-14 8-14 5-14 3-15 1-298 1h-48l-168-1-19-3-15-5-17-9-16-13-9-11-9-15-7-19-2-11-1-548 1-32 3 2 7 17 8 17v498l1 35 4 15 8 16 11 13 12 9 16 7 14 3h538l16-3 16-7 11-8 8-8 9-14 6-17 2-17v-1219l-1-15-4-15-8-15-9-11-10-8-10-6-15-5-5-1-43-1h-159l-10 1-6 4-5 5-9 14-7 7-10 5-8 2h-10l-12-3-10-7-7-8-8-13-9-6-18-1h-198l-18 1-15 4-14 7-10 8-8 8-8 13-5 12-2 10-1 88v342l-7 4-8 4h-3l-1-143v-238l1-65 3-17 6-16 9-14 11-13 12-10 15-9 16-6z" fill="#292578"/>
<path transform="translate(1771,1258)" d="m0 0 10 2 20 8 20 9 16 9 13 9 14 11 12 11 16 16 9 11 12 17 12 20 11 22 10 26 7 25 5 28 1 10v37l-4 26-6 24-8 21-12 23-9 13-11 14-11 12-12 12-14 11-17 12-20 11-21 10-23 9-27 8-24 6-14 3-8 1-2 2-8-105-2-29 1-1h16l-1-70-4-4 1-10 8-35 16-77 13-67 13-74z" fill="#FBE0D2"/>
<path transform="translate(1500,856)" d="m0 0h23l16 4 19 9 14 10 8 7 7 10 6 12 6 31 3 16 5 13 7 11 5 13 4 11 9 12 8 16 4 17v16l6 1 18 7 8 4 9 6 8 9 4 4 6 14 3 17 1 1 2 22v11l-2 30-1 1-7 51-8 41-6 26-3 6-6-1-42-10-86-5-10-1-5-5-10-13-9-12-14-14-14-27-6-12v-2h-28l8-44 4-37 4-44 3-6 9-4 10-3h5l2 3 2 8 8 7 9 4 13 2h12l10-1 2-11 6-45 3-35v-13l-19-5-32-14-12-3-36-5-8-3h-3l-3 9-1 1 1 7 5 9v9h-4l-8-9-8-13-8-15-4-17v-20l3-8 6-5 3-2 4-13 7-11 9-10 13-9 10-5 12-4z" fill="#EE4C25"/>
<path transform="translate(306,513)" d="m0 0h7l14 5 16 9 11 10 8 13 3 9v8l-2 10-6 16-9 16-8 16-2 8v8l5 5 8 3 3-10 13-38 6-11 9-8 3-1h12l12 6 12 10 9 12 4 9v14l-7 14-9 12-13 16-4 8 1 7 5 5 6 2 7-10 12-22 8-16 6-9 5-3 1 4v119l1 144-11 7-10 9-8 10-8 14-4 11-1 6-2-3-11-2-12-5-12-8-14-14-8-13-4-10-2-10v-17l4-16 14-29 2-6v-6l-5-7-4-2h-5l-7 8-6 9-9 10-11 7-11 3-15-1-16-5-8-6-8-9-6-10-6-16-1-4v-19l6-12 8-9 25-15h2l-3-9-6-5-8 1-15 8-16 9-8 3h-14l-10-5-9-9-8-14-4-10-1-5v-10l3-6 7-6 13-4 22-4 11-3 1-1v-8l-11-3-31-5-11-4-7-6-2-6v-17l4-6 7-3 10 2 20 9h5l3-4v-15l-4-9-6-3-22-5-10-6-7-7-4-8-1-4v-19l4-11 6-9 9-7 6-2h15l15 5 8 6 7 8 4 11 5 21 6 11 5 4h8l5-5 5-16 6-32 4-8 7-7z" fill="#D1CFE6"/>
<path transform="translate(1720,1236)" d="m0 0h23l16 4 8 7 4 10v9l-4 26-10 57-16 82-16 76-6 25v6l4 4v70l-16 1 2 29 19 247 5 67-1 1h-17l-2-7-6-49-12-101-14-115-8-70v-2l-83 1 7 88 19 247v7l-1 1h-15l-3-2-17-141-12-101-10-83-2-16-1-1h-74l-8 64-9 76-7 59-2 20-2 1-1-4-1-22 2-32 1-39 4-68 3-43v-32l-3-42-4-36-1-3v-7l7 6 12 8 16 7 15 4 23 3h39l22-2 17-4 12-5 10-7 8-8 8-13 7-16 3-9 3-18 1-14v-18l-1-30 2-4-1-8-5-17-1-5 11-3 7-8 8-19 4-9 4-7 7-30 7-37 1-3 4-2z" fill="#078868"/>
<path transform="translate(607,1106)" d="m0 0 27 9 44 12 29 6h7l13-7 7-2h12v-2l17-2 19-2 23-1h28l24 3 3 1v2l8 2 10 21 9 24 18 55 12 36 16 47 13 36 10 27 10 24 8 14 8 12 9 10 9 7 4 2 2 2 6 1 17 7 9 7 2 3-1 4-10 6-15 5h-17l-16-8-17-8-9-3h-4v14l2 9-10 1-4-16-7-12-5-8-1-9 1-9-9-20-19-45-13-30-6-12-1-5v-2l-9-12-11-16-8-13-3-6-3 4-7 45-4 29-7 44-7 56-3 34 1 14 4 17 7 19 3 6v3l3 1 10 17 4 8 1 6-5 5-6 2h-10l-16-4-10-5-10-9-3-6-3-21-4-5v-8l-5-15v-14l3-6 2-3 2-1v-21l-3-36-2-50-1-17 2-94 3-30 1-9-6 1-10 4-11 6h-2v2l-16 6-10 4h-3v2l-25 8-20 4-22 2h-13l-13-2-17-5-9-5-5-4-5-5-5-8-4-16-2-12-1-13v-18l1-14 3-1 26-2 5-1-22-5-9-2 2-5 12-27z" fill="#F7A483"/>
<path transform="translate(600,896)" d="m0 0h2l5 6 11 6 10 4 15 3 17-1 10-4 4-6 1-8 16 1 22 5 11 4 9 7 6 8 6 15 6 22 7 34 6 36-1 6-7 11-10 15-9 16-5 13h-2l-7-17-6-18v-3h-2l1 14-1 3v9l9 28 4 21-8 5-6 3-13-1-30-7-30-8-19-6-14-5-4 10-11 25-3 5 14 2 17 4 1 2-16 2-23 1-1-1-1-9-12-6-7-6-8-14-11-29-7-24-5-24-6-44-2-23v-19l3-14 5-12 10-13 13-8 25-10z" fill="#393A97"/>
<path transform="translate(1452,963)" d="m0 0 4 1 13 3 36 5 16 6 17 8 16 5 9 3v13l-4 43-6 45-2 4-10 1h-12l-16-3-10-6-6-7-2-8-9 1-12 4-4 4-2 12-5 55-4 29-6 31h24l3 1 18 36 5 8 8 7 9 10 8 11 8 10v2l47 3 40 2 16 2 31 8 8 2 3 2-4 9-8 19-8 9-10 3 5 19 2 6-1 5-1 1-50 4-49 7h-21l-16-3-22-8-21-9-1-1v-7l4-20 2-23 1-6v-10l-2-16-13-1-7-3-13-24-11-20-13 13-7 4-10-2-8-5-7-11-3-13v-13l4-18 9-31 19-58 11-31 2-9-1-25-1-8v-10l3-12 7-11 7-6 2-2h2v-9l-6-11v-5l3-6z" fill="#F7A483"/>
<path transform="translate(760,89)" d="m0 0 11 1 4 2 1 2 1 14 6-1 9-7 7-6h5l3 4 1 4v7l-4 9-7 6-13 7-1 4v2l14 1 1 3v14l-4 10-6 11-9 9-5 3-5-1-9-5h-8l-6 4-2 4v6l10 11 1 3-13 13-5 6-8 5h-7l-5-3-9-9-9-6-5 1-2 4 1 6 9 9 8 7v11l-4 10-6 8-6 5-12 4h-24l-9-4-8-7-7-10-10-17-5 5-6 7-11 15-13 20-10 18-13 26-13 29-2 4 46-1 7-14 10-14 9-10 8-6 11-6 18-5h8l6 3 3 4-1 9-5 12-8 17-5 11h25l2-29 1-13 4-8 8-8 17-6 9-2h6l2 5v13l-9 27v15l1 6 19-1v-18l-3-9v-13l6-9 10-6 6-2h18l10 4 5 4 4 7-1 7-14 25-2 11h10l1-11 4-10 9-10 5-4 11-5 3-1h13l8 3v9l-7 16-6 13 18-1 4-8 8-7 4-2h8l9 5 7 8 1 5 2 1h-353l6-17 17-35 10-17 12-19 13-19 13-18 7-9-1-7-13-27-7-18-1-12 2-8 6-9 9-8 13-8 5-1 5 5 8 20 5 4 5-3 2-2v-7l-6-21v-5l16-8 15-3h7l3 5 7 17 2 2h5l3-5 2-5 1-20 1-8 6-5 2-1h6l6 7 6 12v2l9-1 1-3 1-19 1-3z" fill="#D1CFE6"/>
<path transform="translate(1500,856)" d="m0 0h23l16 4 19 9 14 10 8 7 7 10 6 12 6 31 3 16 5 13 7 11 5 13 4 11 9 12 8 16 4 17v21l-5 21-11 28-12 27-4 8-5-1-3-2-2 10-1 14-4 1-14-9-11-10-7-10-8-16-4-17-1-7v-11l7-53 3-35v-13l-19-5-32-14-12-3-36-5-8-3h-3l-3 9-1 1 1 7 5 9v9h-4l-8-9-8-13-8-15-4-17v-20l3-8 6-5 3-2 4-13 7-11 9-10 13-9 10-5 12-4z" fill="#1D105C"/>
<path transform="translate(720,598)" d="m0 0h363l6 4 7 8 2 5v42l-5 10-6 5-7 3-21 1 4 16 4 8v2l-6-1-14-8-14-11-9-6-302-1-10-5-6-7-2-6v-42l4-8 9-8z" fill="#11B187"/>
<path transform="translate(607,1106)" d="m0 0 27 9 44 12 29 6h7l13-7 7-2h12v-2l17-2 19-2 23-1h28l24 3 3 1v2l6 2v4l-9 7-5 5-5 6-10 15-5 9-4 7-12 2-12 6-9 10-5 10-3 10-18 10-11 6h-2v2l-16 6-10 4h-3v2l-25 8-20 4-22 2h-13l-13-2-17-5-9-5-5-4-5-5-5-8-4-16-2-12-1-13v-18l1-14 3-1 26-2 5-1-22-5-9-2 2-5 12-27z" fill="#EE4D26"/>
<path transform="translate(796,731)" d="m0 0h286l8 5 6 7 2 4v45l-5 9-7 6-11 2-217 1-8 3-20 15-14 8-4-1 7-21v-3l-4-1-20-2-8-6-5-8-2-7v-34l2-8 6-9z" fill="#95D3BF"/>
<path transform="translate(451,1189)" d="m0 0h1l1 530 3 14 6 16 9 15 7 9v1h-13l-18-10-13-8-12-9-13-11-10-11-11-16-10-18-6-15-4-14-4-22-1-9v-40l3-27 5-23 6-20 12-29 12-23 10-15 11-13 7-8 8-8 10-8 2-1 1-8z" fill="#FAE0D2"/>
<path transform="translate(1370,1612)" d="m0 0 10 1 2 9 6 48 6 44 12 89 1 4 5 1 29 1 9 1 1 1 1 28 2 12 5 5 4 6 2 7v13l-6 17-2 15-2 4h-2l-3 22-2 11-1 2h-2l-2 4-9 8-3 3-6 2-3 3-9 3-14 1v2h-17l-9-4-3-5 1-9 7-12 2-1 4-10 5-9 6-8 8-29 1-5 2-25-9 5-11 7-29 15-16 8-9 4h-2l-1 4 1-16 15-124 10-83 3-23 8-32 3-14z" fill="#FAE0D2"/>
<path transform="translate(619,792)" d="m0 0 4 2 12 5 6 1h14l14-4 7-1 11 5 1 3v26l-8 23-7 12-3 3 10 2 20 3 28 7 20 8 13 8 10 9 6 8 4 10 3 17 2 22 1 27 1 7 6-11 4-5h2l2-4 12-12 7-2-1 5-5 9 9-2 5-3 4-6 4-3 1 4-4 7-3 3 2 2 1-4 5-4 5-5h2l-2 5-1 3-2 1-2 6 5-5 4-1-1 6-5 8 5-2 1-2h3l-1 4-10 10-13 8-17 7-5 10-9 27-10 26-5 7-8 16-8 11-7 6-6 2h-9l-4-3-7-19v-9l5-11 9-17 11-16 6-10-2-17-6-33-6-28-6-21-6-14-7-8-8-5-17-5-14-3-16-2v8l-4 6-7 4-15 2-13-1-16-5-10-5-7-6 1-4 6-8 2-6 1-10v-13l-2-13-2-6-9-4-5-4-2-4 1-5 1-3 2-1 11-1 6-3 3-13 1-8z" fill="#96D3BF"/>
<path transform="translate(1481,1612)" d="m0 0h74l2 2 11 91 8 67v6l-2-1-10 4-21 10-13 5-16 8-35 18-16 9-6 2-3 9h-2l-1-3v-8l2 2 2-7 3-31 13-110 8-66z" fill="#FAE0D2"/>
<path transform="translate(380,122)" d="m0 0h11l5 4 2 8v14l-2 14-7 12-7 9-7 6v28l4 26 6 25 5 16 1 1 6-10 5-4 4-4 2-1 1-27 4-16 4-8 6-5h10l6 3 4 4 1 3v9l-5 13-9 17-4 4-12 3-8 5-8 9-5 8 1 23v32l-2 2 4 3v2l4 2 18 18 6 7v2h2l7 8 14 18 9 13 2 5v4l-4-2-2-3-8 1-17 3h-26l-19-7-16-7-13-4-9-2-15-1-7 9-9 7-10 6-14 5-8 2h-15l-6-3-3-3-1-3v-8l4-8 8-7 13-6 13-3h16l10 3 8 5 18 2 13 3 2 1-5-9-7-16-4-6-2-1-12-1-15-6-14-10-7-7-4-8v-9l5-6 5-2h13l10 4 8 6 8 10 7 14 1 13 8 16 7 16 4 4 26 11 13 3h11l19-2 10-2h4l-13-17-13-16-9-11-7-7-7-8-27-27-10-8-10-9-16-12-13-10-45-30-11-7-2-1h-24l-10 3-10 6-3 4-3 6-13 13-10 5-4 1h-10l-10-6-3-4v-10l7-8 10-5 4-1h17l10 3 5-1 12-7 6-2 26-2-10-3-4-3 8 1-12-15-12-19-10-15-5-10-2-10 1-13 5-6 4-2h6l6 4 4 8 3 10v15l-3 6-6 9 2 6 8 12 10 13 8 8 7 8 17 12 29 19 19 13 16 12 16 13 13 11 8 7v-24l-2-24-6-22-3-6-15-9-15-10-16-9-11-8-10-9-7-7-4-9v-8l3-8 5-5 3-1h7l10 4 8 8 4 8 4 15 2 9 1 17 5 2 27 18-5-22-3-18-1-47-2-10v-15l2-19 4-8z" fill="#D1CFE6"/>
<path transform="translate(1590,1613)" d="m0 0h83l1 2 9 77 6 51v6h-12l-36 7-36 9-3 1-1 2-9-117-3-37z" fill="#FAE0D2"/>
<path transform="translate(620,724)" d="m0 0h26l13 3 12 6 9 8 9 14 8 20 3 10v11l-8 24-3 5-2-1v-24l-9-3-7-1-11 4-5 1h-14l-9-2-10-5-3-1-3 19-4 4-4 2-13 1-1 8 4 6 8 4 5 3 2 9 1 9v13l-2 2-12 1-10-5-7-10-5-6-9-7-8-11-2-7v-8l2-6v-4l-5-4-2-6v-10l4-13 8-16 9-11 7-7 15-11 14-6z" fill="#1D115C"/>
<path transform="translate(1406,1808)" d="m0 0 35 1 9 1 1 1 1 28 2 12 5 5 4 6 2 7v13l-6 17-2 15-2 4h-2l-3 22-2 11-1 2h-2l-2 4-9 8-3 3-6 2-3 3-9 3-14 1v2h-17l-9-4-3-5 1-9 7-12 2-1 4-10 5-9 6-8 8-29 3-18z" fill="#F7A483"/>
<path transform="translate(1484,1298)" d="m0 0 7 6 8 8 11 7 24 13 16 6 24 7 20 4 38 4 19 1 3 14 4 13-1 5-1 1-50 4-49 7h-21l-16-3-22-8-21-9-1-1v-7l4-20 2-23 2-12-1-16z" fill="#EE4C25"/>
<path transform="translate(1472,1257)" d="m0 0h9l12 2 11 4v-5l7 6 9 10 8 11 8 10v2l47 3 40 2 16 2 31 8 8 2 3 2-4 9-8 19-8 9-10 2-31-2-31-4-22-5-23-7-12-5-26-14-10-8-11-11-1 1 1 15-2-4-2-18-13-5-3-3 1-2 22 3-16-4-7-2-1-4 5-1 23 5 3 1v-2l-11-3-21-6v-4l4-1 13 2 12 4 4 2v-2l-5-1-7-3-13-5-1-4z" fill="#F7A483"/>
<path transform="translate(1690,1612)" d="m0 0h13l2 1 2 4 13 169 13 167-1 4h-17l-2-7-6-49-12-101-14-115-7-60v-12z" fill="#027156"/>
<path transform="translate(1578,1612)" d="m0 0 10 1v2h2l7 87 19 247v7l-1 1h-15l-3-2-17-141-12-101-10-83-1-6v-11h14z" fill="#027156"/>
<path transform="translate(1260,1781)" d="m0 0 6 2 31 14 1 2-7 20v7l1 4v19l-5 10-5 6-5 5-5 9-6 21-9-2-2-1 1-7 3-12v-8l-1-3-8 1-25 7-21 9-11 4-11-2-11-4-11-7-12-9-7-7 1-4 18-6h3v-2l18-4 12-2 15-6 12-7 12-11 11-11 8-10 6-10z" fill="#F7A483"/>
<path transform="translate(619,792)" d="m0 0 4 2 12 5 6 1h14l14-4 7-1 11 5 1 3v26l-8 23-7 12-3 3-3 8v10l4 9 4 3v7l-4 6-7 4-15 2-13-1-16-5-10-5-7-6 1-4 6-8 2-6 1-10v-13l-2-13-2-6-9-4-5-4-2-4 1-5 1-3 2-1 11-1 6-3 3-13 1-8z" fill="#F7A483"/>
<path transform="translate(1394,1371)" d="m0 0h41l19 2 2 2 12 3v2l-9 1h-11l-11-1-15 1-21 3-14 3-7 3-4 3-7 3-2 3h-3l-2 4-6 7h-2l-1 3-11 9-2 6-3 3-4 13-2 9-3 15-4 13-2 7-2 11-1 7-2 5-1 8-1 3-3 16-4 24-2 17-7 46-4 30-2 11-1 14-3 11-2 16-2 11-4 26-3 16-5 18-3 3h-6v-2l-2-1-1-7 5-18 5-24 8-54 13-102 7-47 8-41 9-41 5-17 5-13 8-15 9-10 13-8 13-5 18-4z" fill="#393A97"/>
<path transform="translate(1391,1435)" d="m0 0h19l7 1 2 4-3 1-27 3-3 8-2 7v39l1 6 2 27 1 6 1 13 1 5v16l2 4 2 17 2 4 2 12 1 18 3 13 1 14 2 12 2 23 3 16 3 14 2 13v9l2 16 3 17-1 4 1 15 3 9 2 5 3 1 22 1 2 2 1 24-2-3-1-20-9-1-29-1-6-2-3-19-10-74-11-83-2-16-1-22 1-5-2-14-2-7v-7l-4-12-2-11-2-19-3-24-1-13v-22l1-8 3-4h2l2-4 5-5 4-2z" fill="#393A97"/>
<path transform="translate(819,961)" d="m0 0h2l-1 5-5 9 9-2 5-3 4-6 4-3 1 4-4 7-3 3 2 2 1-4 5-4 5-5h2l-2 5-1 3-2 1-2 6 5-5 4-1-1 6-5 8 5-2 1-2h3l-1 4-10 10-13 8-17 7-5 10-9 27-10 26-5 7-8 16-8 11-7 6-6 2h-9l-4-3-7-19v-9l5-11 9-17 11-16 7-11 6-8 7-11 9-14 8-14 4-5h2l2-4 12-12z" fill="#F7A483"/>
<path transform="translate(607,1106)" d="m0 0 27 9 44 12 29 6h18l13-2h19l10 4 7 6-1 9-5 4-4 5-14 1-6 2-4 1h-23l-9-1-53-3-32-4-10-3-21-4-2-1 2-5 12-27z" fill="#F7A483"/>
<path transform="translate(1355,1670)" d="m0 0 2 1-3 27-11 92-19 157-2 10h-17l-1-1 1-19 11-144 3-35 6-16 15-32 9-25 4-12z" fill="#027156"/>
<path transform="translate(721,1367)" d="m0 0h8l24 189 4 31v11l-5 6-4 2-9-1-5-6-4-26-20-160-5-38v-6z" fill="#078969"/>
<path transform="translate(1703,1237)" d="m0 0h17l-4 2-3 3-5 2-5 5-2 5-3 12-7 52-10 67-8 45-10 46-4 20-4 25-1 11-1 2h-15l-37-1-21 2-13 1v2l-12 1-3-2-7-1v-1l42-4 17-4 12-5 10-7 8-8 8-13 7-16 3-9 3-18 1-14v-18l-1-30 2-4-1-8-5-17-1-5 11-3 7-8 8-19 4-9 4-7 7-30 7-37 1-3z" fill="#11AE87"/>
<path transform="translate(1457,1535)" d="m0 0 2 1h8l3-1 8 3 2-1 2 4 9 2 5-1 5 2h2v2h2l1 3-5 3-4-2-6 2-1-4h-3l-1 7-4 3-1 4h9l2 2v7h5l3-1 3 2 3-1v3h10v2h2l1 2 5 1-4 2-5 1-2 5-1 3h-2v-2l-9-2-2-2-4 2-3 3-4 2-4 10v2l9 2 1 1v5h-13l-8 66-9 76-7 59-2 20-2 1-1-4-1-22 2-32 1-39 4-68 3-43v-32l-3-42-1-7z" fill="#078768"/>
<path transform="translate(1562,1542)" d="m0 0 8 2 2 6-1 17-4 7-5 2-1 2h-2l-1 6 2 1 1 7 4 2-4 13h-6l-1 2h-2v2l5 1-1 2-1-1-74-1v-1h13l-1-5-9-3-1-3h2l1-5 2-5 6-2 1-3 5-2 1 3h6l3 2v2h2v-6h2l1-3 5-1-2-4h-2v-2l-5 1-5-1-1-2-3 1v-2h-4l-2 2v-2h-4l-1-7-2-1-8-1v-5l4-2 1-7 4-1 1 5 7-3 4 2 4-2 3 1 4-2 2-2 3 4 4 2h5v-2l-1-2 2-1h6l-1 6 1 3 7-2-3-7 14-2 6-1h4z" fill="#10B086"/>
<path transform="translate(550,1348)" d="m0 0 6 1 12 6 5 2-2 12-17 73-11 49-7 30-3 7-6 5h-8l-5-3-2-3v-13l13-56 22-96z" fill="#078A69"/>
<path transform="translate(1288,1827)" d="m0 0 2 2 1 6v12l-4 10-11 14-4 8-6 21-9-2-2-1 1-7 3-12v-8l-1-3-8 1-25 7-21 9-11 4-11-2-11-4-11-7-12-9-7-7 1-4 21-7 15-3h5l1 7 5 2 16 4h10l17-3 17-5 15-6 14-8z" fill="#ED4B25"/>
<path transform="translate(879,1314)" d="m0 0 4 2 12 18 13 21 10 18 7 16 4 13 2 9 1 11 3 5v2l5 2 14 8 21 10 12 4h16l5-5-2-6 6 1 17 7 9 7 2 3-1 4-10 6-15 5h-17l-16-8-17-8-9-3h-4v14l2 9-10 1-4-16-7-12-5-8-1-9 1-9-9-20-19-45-13-30-6-12z" fill="#393A97"/>
<path transform="translate(1454,1212)" d="m0 0h23l3 1 18 36 6 9v5l-6-1-9-3-8-1h-11l1 3 13 5 7 3 5 2v2l-9-3-10-3-12-1-2 1v2l24 7 8 3v2l-11-2-15-3h-4v3l24 6-1 2-22-3 4 4 11 4 1 2-8 1-12-3-6-10-15-28-11-20-5-11v-8l4-1z" fill="#393A97"/>
<path transform="translate(1456,1857)" d="m0 0 4 2 3 7 1 5v8l-3 15-3 10-2 13-3 1-3 22-2 11-1 2h-2l-2 4-9 8-3 3-6 2-3 3-9 3-14 1v2h-17l-9-4-3-5 1-9 7-12 2-1 4-10 5-9 5-2 2 13 2 3 3 1h11l10-5 3-1v-2l6-5 6-8 11-19 6-14 2-9v-16l-1-7z" fill="#EE502A"/>
<path transform="translate(158,116)" d="m0 0h7l7 4 6 9 3 9 1 13-1 13-4 15v6l8 15 6 14 3 4v3l-12 2-20 2-4 1-5 10-9 11-8 6-12 6-6 2h-7l-5-3-3-4-1-3v-8l4-6 9-6 21-6 24-3 31-3-9-16-8-16-7-12-12-17-6-12-2-7v-10l3-8 5-4z" fill="#D1CFE6"/>
<path transform="translate(398,426)" d="m0 0 3 1-10 6-11 6-4 4-2 16-5 13-7 13-12 16-4 3h-14l-6-3-5-5-1-5v-7l5-15 6-11 7-8 12-7 12-4 15-2z" fill="#D1CFE6"/>
<path transform="translate(1463,1612)" d="m0 0 16 1v14l-14 117-8 68-2 20-2 1-1-4-1-22 2-32 1-39 4-68 3-43 1-12z" fill="#027257"/>
<path transform="translate(93,162)" d="m0 0h15l12 3 11 6 10 8 9 11 7 10v4l-11 3h-27l-14-3-11-6-9-9-3-7v-12l5-6z" fill="#D1CFE6"/>
<path transform="translate(1159,554)" d="m0 0h1l1 1157h-1l-1-19-2-93 1-771z" fill="#363690"/>
<path transform="translate(783,1479)" d="m0 0h2v19l4 16 8 15 11 12 10 6 9 1 6-3v-9l3 3 12 20 2 9-5 5-6 2h-10l-16-4-10-5-10-9-3-6-3-21-4-5v-8l-5-15v-14l3-6z" fill="#393A97"/>
<path transform="translate(715,1051)" d="m0 0h2l9 27 4 9v2h2l3 12 5 13 3 2h9l8-3 9-10 8-14 5-10 4-4v43l-14 2-26 2v2l-19 1-5-24-8-24v-9l1-5z" fill="#99D3C1"/>
<path transform="translate(847,1264)" d="m0 0 4 4 6 12 13 18 5 8v3l-6 4-11 9-19 12-4 2 1-16 7-44 2-9z" fill="#9AD3C2"/>
<path transform="translate(1453,1505)" d="m0 0 7 6 12 8 16 7 15 4 23 3v2h16v1l-14 1-5 4-9 1-12-2h-2v2l7 1 2 1-1 2h-5v-2l-3 1-3-2h-3l-2-1-1 2-9-2-3-3-2 1-1-2-7-2-3 1h-8l-2-6-2-16-1-3z" fill="#10AF85"/>
<path transform="translate(879,1314)" d="m0 0 4 2 12 18 13 21 10 18 7 16 4 13 2 9v15l-3 1-7-14-17-40-11-26-9-20-4-8z" fill="#0B856E"/>
<path transform="translate(771,1358)" d="m0 0h3l2 20v19l-6 7-8 1-7-4-2-5-3-26v-7l11-3z" fill="#088B6B"/>
<path transform="translate(1454,1212)" d="m0 0h23l3 1 18 36 6 9v5l-6-1-9-3-8-1h-12v-2l10-6 3-1v-4l-1-3-2-1v-2l-5-1-3-9h3v-5l-6-3v-2l-8-2h-33v6h-2v-8l4-1z" fill="#34328A"/>
<path transform="translate(1481,1030)" d="m0 0 12 12 2 8 3 24h-8v2l-13 4h-6l2-11 5-26 2-12z" fill="#FBDFD0"/>
<path transform="translate(1039,438)" d="m0 0h33l4 9v7l-5 5h-32l-1-20z" fill="#393A97"/>
<path transform="translate(584,1018)" d="m0 0h2l1 3 1 15 4 20 3 11 3 10 8 15 2 3v3h2l7 7-1 4-6-1-5-3v-2l-6-2-4-1-5-5-2-4v-11l-1-13v-7l-1-7-2-13v-7l-2-4z" fill="#34328A"/>
<path transform="translate(817,389)" d="m0 0 6 1 5 3 4 7v11l-5 6-4 2h-11l-6-4-3-6v-9l4-6 3-3z" fill="#393A96"/>
<path transform="translate(1705,1191)" d="m0 0h1l1 19 5 5v2h2v2l5 2 12 11 1 2 7 1v1l-36 2-4 1 1-11z" fill="#F6D9C9"/>
<path transform="translate(1494,1044)" d="m0 0 4 1 10 4 11 2 1 3-4 11-6 5-8 4h-4l-2-8-2-16z" fill="#201562"/>
<path transform="translate(1335,1398)" d="m0 0 2 1-3 6h-2l-2 9-5 15-1 4-3 10-1 4-2 9-1 7h-2v4h-2l1 9-3 8v5l-3 1-1 9-3 16-1 10h-2v9l-1 2v7l-1 3-1 10-1 2-2 13h-1v-13l7-43 9-44 7-31 5-16 5-12z" fill="#34338C"/>
<path transform="translate(1454,1212)" d="m0 0h23l3 1 18 36 6 9v5l-6-1-2-6h2l-6-11v-2h-2l-6-12-3-4-5-10v-2h-13l-36 2v6h-2v-8l4-1z" fill="#2D2A7F"/>
<path transform="translate(932,1450)" d="m0 0 9 1 9 3 1 16 2 9-10 1-4-16-7-12z" fill="#2C297D"/>
<path transform="translate(1159,1570)" d="m0 0h1l1 85v56h-1l-1-19-2-93 1-28z" fill="#373791"/>
<path transform="translate(1057,438)" d="m0 0h15l4 9v7l-4 4h-11l-1-4 3-2 1-5h2v-3l-3-2v-2l-3 1-3-1z" fill="#2A2679"/>
<path transform="translate(1374,1581)" d="m0 0h2l2 7 2 17v8h-8l-2-1 1-16 1-11z" fill="#078968"/>
<path transform="translate(803,1684)" d="m0 0h6l5 5v7l-4 4-5 1-5-3-2-2v-7z" fill="#3B3C98"/>
<path transform="translate(833,1684)" d="m0 0h7l4 4 1 5-2 5-3 2h-7l-5-5v-6z" fill="#393A97"/>
<path transform="translate(773,1684)" d="m0 0h6l5 5v6l-5 5h-7l-4-4v-8z" fill="#48489E"/>
<path transform="translate(1703,1237)" d="m0 0h17l-4 2-3 3-5 2-5 5-2 5-3 10-2 1-2 3 2-16 3-13z" fill="#16A089"/>
<path transform="translate(1535,1574)" d="m0 0 1 2 6 2v4l3-2 1 6h-8v2l-5 1v-3l4-2-1-3-7 2 1 3-3 2-2-1-6 1-1 2-2-4 2-4 9 1 1-4 2-2z" fill="#078868"/>
<path transform="translate(1360,1641)" d="m0 0h2v7l-4 16-1 7-4 4-3 10-2-4 4-13v-7l4-14 3-5z" fill="#2A277A"/>
<path transform="translate(1394,1371)" d="m0 0h41l3 2-19 2h-13l-11-1-6 4h-2v-2l-3 1-4-2 1-2z" fill="#34328B"/>
<path transform="translate(1463,1271)" d="m0 0 11 1 19 6 2 1v2l-11-2-15-3h-4v3l24 6-1 2-22-3-3-1z" fill="#2E2B81"/>
<path transform="translate(1050,438)" d="m0 0h7v2h6l1 2 4 2h-2v3h-2v5l-3 3 1 2 9 1v1h-18l3-1v-4h2l-2-6v-2l-1-5-6-1z" fill="#34328A"/>
<path transform="translate(783,1479)" d="m0 0h2v28h-5l-2-5v-14l3-6z" fill="#36358E"/>
<path transform="translate(1010,430)" d="m0 0 2 1v29h-5v-29z" fill="#2D2A7F"/>
<path transform="translate(1614,1937)" d="m0 0h1l1 19-1 1h-15l-3-2v-7h1l1 5 6-5 9 2z" fill="#09916F"/>
<path transform="translate(799,425)" d="m0 0 6 2 8 5h4l3 1-2 1h4v3h-12l-11-4-2-3v-4z" fill="#333189"/>
<path transform="translate(1460,1281)" d="m0 0 3 3 10 5 9 4-4 2-10-1-7-3-3-5 1-4z" fill="#34328B"/>
<path transform="translate(999,436)" d="m0 0h4v24h-5v-23z" fill="#261E6F"/>
<path transform="translate(1302,1510)" d="m0 0h1v15h-2v9l-1 2v7l-1 3-1 10-1 2-2 13h-1v-13l7-43z" fill="#363590"/>
<path transform="translate(1453,1736)" d="m0 0h1v39l-2 32-2 2-3-2 2-4 1-1 2-45z" fill="#292577"/>
<path transform="translate(846,964)" d="m0 0h1l1 8h2l1 8 1 5-1-2h-3l-2 4-5 1 3-6 3-5v-3l-3 1-3 4h-2l1-6 3-1 1-4z" fill="#FCE1D2"/>
<path transform="translate(940,1454)" d="m0 0 9 1v4h-6l2 5v4l5 5-4 1-4-1-3-9v-9z" fill="#1F1360"/>
<path transform="translate(1587,1531)" d="m0 0m-8 1h8v2l-16 2h-4v2l-12 1-3-2-7-1v-1z" fill="#10AF86"/>
<path transform="translate(1464,1195)" d="m0 0h2v13l-2 5h-8l2-6 4-9z" fill="#FACFBC"/>
<path transform="translate(715,1036)" d="m0 0 2 1 1 11-3 1-2 24-2 1-1-4v-3-12l4-12z" fill="#34328A"/>
<path transform="translate(989,440)" d="m0 0h4v20h-5v-19z" fill="#221866"/>
<path transform="translate(713,1078)" d="m0 0 2 4 7 22-1 3v-2l-2-1-1-5-3-1-4-10 1-9z" fill="#34328A"/>
<path transform="translate(1433,1216)" d="m0 0h11v1l-13 2-1 7 7 15 1 4h-2l-8-16-2-6 1-6z" fill="#34328A"/>
<path transform="translate(1627,1511)" d="m0 0h2l-2 4-8 6-12 6h-5l5-4h4l1-2 10-7z" fill="#2B277B"/>
<path transform="translate(837,959)" d="m0 0 5 2v2l4 1-5 3-5 6h-2l-1 4-3-1 2-4h2l2-6 1-4-5 3 2-4z" fill="#FCE1D2"/>
<path transform="translate(980,443)" d="m0 0h3l1 3v13l-5 1-1-3v-11z" fill="#272172"/>
<path transform="translate(889,1334)" d="m0 0h3l6 11 1 6-1 3h-2l-7-16z" fill="#0A685F"/>
<path transform="translate(1721,1948)" d="m0 0h2l1 2h2l1 2 6 1-1 4h-17v-1l5-1z" fill="#099270"/>
<path transform="translate(775,1684)" d="m0 0 6 1 3 4v6l-5 5h-7v-2l8-2v-5l-1-2 1-2h-6z" fill="#34328A"/>
<path transform="translate(950,1470)" d="m0 0 2 4 1 5-10 1-1-7h7z" fill="#2E2C81"/>
<path transform="translate(1309,1484)" d="m0 0 2 3-1 3h-2l-1 9-3 16h-1v-10l4-20z" fill="#35348D"/>
<path transform="translate(836,1684)" d="m0 0 5 1 3 3 1 5-2 5-3 2h-7l-1-2 3-1h7l-1-4-2-6-3-1z" fill="#323088"/>
<path transform="translate(970,447)" d="m0 0 4 1v12h-5v-12z" fill="#2F2B81"/>
<path transform="translate(1270,1739)" d="m0 0h1l1 6-1 9-4 7h-1v-8l3-13z" fill="#35338C"/>
<path transform="translate(1394,1371)" d="m0 0h8v1h-7v2l-6 4h-2v-2l-3 1-4-2 1-2z" fill="#35348D"/>
<path transform="translate(945,1458)" d="m0 0 4 1 1 13-3-1v-2l-3-1-1-9z" fill="#282476"/>
<path transform="translate(1298,1542)" d="m0 0 2 1-1 3-1 10-1 2-2 13h-1v-13l2-13z" fill="#36358E"/>
<path transform="translate(1460,1281)" d="m0 0 3 3 10 5-3 2-10-2-2-3 1-4z" fill="#333189"/>
<path transform="translate(1524,1564)" d="m0 0 1 2 4 1 3 4-3 3-4-2v-4h-8l-1-2 7-1z" fill="#078868"/>
<path transform="translate(1293,1790)" d="m0 0 3 1v2h6l-1 5-7-1-5-5z" fill="#2B287B"/>
<path transform="translate(1478,1274)" d="m0 0 13 3 4 2v2l-11-2-9-2z" fill="#393A97"/>
<path transform="translate(1487,1568)" d="m0 0 4 2 2 5-1 5h-2l-1-6-5-2z" fill="#10B086"/>
<path transform="translate(1601,1157)" d="m0 0 1 3-1 14-4 1-6-4h3l4 2 1-11z" fill="#35358F"/>
<path transform="translate(562,810)" d="m0 0h1v7h-2l2 11v4h-3l-1-4v-8z" fill="#2D2B80"/>
<path transform="translate(1455,1826)" d="m0 0h1v10l-2 6h-2l-1-3v-8l2 2z" fill="#B5D1D3"/>
<path transform="translate(1010,430)" d="m0 0 2 1-2 9-1 17h-1v-25z" fill="#1E115D"/>
<path transform="translate(1473,1282)" d="m0 0 8 1 8 2-1 2-22-3v-1z" fill="#373793"/>
<path transform="translate(785,1509)" d="m0 0 4 5 2 4-1 5-3-3-2-3z" fill="#35348D"/>
<path transform="translate(778,1488)" d="m0 0h1l1 6 2 2-1 11-2-2-1-3z" fill="#3A3B98"/>
<path transform="translate(1478,1265)" d="m0 0 10 2 8 4v2l-9-3-10-3z" fill="#3A3B98"/>
<path transform="translate(714,1051)" d="m0 0h1l1 14-2 8-2-1z" fill="#2E5A93"/>
<path transform="translate(1524,1397)" d="m0 0h12l3 3h-12z" fill="#2C297D"/>
<path transform="translate(817,959)" d="m0 0h5l1 3-3 7-1-3 2-5-9 3z" fill="#FCE1D2"/>
<path transform="translate(818,969)" d="m0 0 2 1v3l4-2 3 1-6 3h-6l2-5z" fill="#FCE1D2"/>
<path transform="translate(1425,1215)" d="m0 0h11l-3 2h-6v6h-2z" fill="#2A2679"/>
<path transform="translate(1461,1289)" d="m0 0 7 1 4 4-8-1-3-2z" fill="#3A3B98"/>
<path transform="translate(970,449)" d="m0 0 3 2v9h-4z" fill="#1E125D"/>
<path transform="translate(1039,438)" d="m0 0 4 1-2 6-1 10h-1l-1-16z" fill="#333189"/>
<path transform="translate(1276,1784)" d="m0 0 8 4v2l-12-3v-2z" fill="#2B277B"/>
<path transform="translate(1260,1774)" d="m0 0h2v4l3 1-1 4-5-3z" fill="#35348E"/>
<path transform="translate(603,1151)" d="m0 0 6 1 4 3-9 1z" fill="#34328A"/>
<path transform="translate(1298,1542)" d="m0 0 2 1-1 3-1 10h-2v-11z" fill="#34338C"/>
<path transform="translate(1453,1505)" d="m0 0 5 4-2 4-2 1-1-2z" fill="#AED5CF"/>
<path transform="translate(1430,1232)" d="m0 0 4 2 4 9v2h-2l-6-11z" fill="#35348E"/>
</svg>
