<?xml version="1.0" encoding="UTF-8"?>
<svg version="1.1" viewBox="0 0 1225 980" width="1225" height="980" xmlns="http://www.w3.org/2000/svg">
<path transform="translate(0)" d="m0 0h1225v980h-1225z" fill="#E9F7FC"/>
<path transform="translate(0)" d="m0 0h1225v980h-1225zm440 75-24 3-8 2-9 2-15 6v2l-4 1-7 5-5 3-8 8v2l-3 1v2l-4 2-1 4h-2l-7 10-4 6v2h-2l-6 12-11 16-5 9-8 11-3 3-3 5-6 7-5 5-2 4-4 2-4 4v2l-4 1-4 3v2l-5 2-8 6-3 2v2l-5 2-10 6-10 7-11 4-9 6-14 5-7 4-6 2v2l-5 2-9 6v2l-4 2-2 4-3 1-3 5v2h-2l-2 5v3h-2l-5 13-2 4-4 23v16l3 21 4 13 2 6h2l1 5 1 3h2l2 5 6 8 2 3h2l1 5 5 5h2v3h2l1 3h2l1 3h2l1 3h2v2l3 2 2 1 2 4 7 9 6 1 1 6 6 7h2l1 4 6 8 8 20 3 18v16l-3 16-5 16-3 9-1 6-3 1-4 8-7 11-3 5-4 5-6 9v2h-2l-4 6-3 3v2h-2v3h-2v2h-2l-16 20-6 7-8 11v2h-2l-7 10-5 6-13 26-5 14-3 11-2 10-1 19 2 16 5 16 9 15h2l1 4h2l1 3h2l2 4 4 4h2v2h2v2l14 9 5 3h3v2l6 3 10 3 12 5 25 6 19 4 11 1 11 2 32 3 44 1 24-1 22-3 19-4 12-3 24-7 5-3 17-4 9-4 14-5 18-6 15-4 36-7h39l27 4 6 2 15 3 8 3 8 1 8 3 20 6 7 3 21 6 16 4 8 1v2l14 2 10 2 9 2 23 2 8 1 32 1h16l24-1 29-3 10-1 9-3 16-3 25-7 20-7 15-6 7-3 8-4 12-5 9-6 8-4v-2l4-1 2-1v-2l5-2 10-6 11-8 4-4v-2l4-2 6-5 8-11 2-2v-4h2l6-10 6-14 2-5v-3l3-1 3-15 2-7 1-9 2-8v-24l-1-18-1-1-2-13-5-15-4-6-4-10-7-10-3-5-3-3h-3v-4h-2v-3l-7-6-1-2h-3l-2-4-16-10-14-6-13-4-4-2-8-2-15-6-19-10h-2v-2l-13-10-2-3h-2v-2l-8-7-6-8-4-7-4-5-3-8-5-8-8-24-3-18-1-14v-12l4-36 2-7 5-17 4-10 5-14 6-11 11-22 8-14 3-8 5-12 3-12 1-9v-20l-4-18-8-17-5-6-1-3h-2l-1-4-3-4h-2l-2-4-12-12-5-4-1-2h-2l-1-4-9-4h-2v-2h-2v-2l-9-5-10-7-12-5-14-7-16-6-16-5-19-5-20-3-16-1h-20l-29 2-28 4-14 1-9 2-24 2h-39l-13-1-32-6-12-3-9-3h-7v-2l-21-5-21-6-33-6-18-2z" fill="#FCFCFD"/>
<path transform="translate(671,399)" d="m0 0h9l12 3 13 7 7 6 7 10 3 9v14l-4 10h-3l-1 6-6 10v16l-1 1h-7l-2 7-3 4-4 2-3 8-5 2-9-2-8-6-4 1-13 12-6 6h-2v2l5 2 16 8 14 5 15 3 9 1h22l6-16 6-23 5-27 2-18 1-1 8-1h20l3 2 2 26 1 24v16l-2 26-3 12-5 8-10 6-15 5-20 4-23 3-20 1v2h2v2l4 2 9 8 13 9 5 3 4-2 11-12 9-9 13-10 12-7 10-2h10l13 4 9 6 7 8-1 5-4 15-2 9 1 6 9 11 3 7 2 4 10-2 13-7 3-1 10 15 16 26 12 20 8 13 3 5v2l10 1 32 5 40 5 4 8 1 5v17l-2 9-1 1h-54l10 6 10 5 14 3 15 1 5 3-1 4-9 6-12 4-6 1h-17l-17-2-11-4-9-3v9l-1 1-13 1h-17l-4-3-1-10-1-1 1-13 2-9h-140l-9 12-8 8-10 7-13 5-11 2h-32l-13-3-12-6-8-7-11-14-4-5-8 1-8-24-8-32-5-27-3-26v-48l2-21 5-24 7-24 7-16 8-14 8-11 10-9 9-6 11-9 1-2h2l2-5 4-11 2-16 1-20 3-10 7-8 8-6 10-4z" fill="#68AEE3"/>
<path transform="translate(442,436)" d="m0 0h21l11 4 4 4 3 5v2l6 2 5 9 2 12v9l-3 12-7 12-4 4 1 6 8 17 7 6v2l4 2 12 12 8 10 8 11 8 13 8 18 5 17 4 23 1 12v44l-3 52-1 8-3 1h-7l-3 9-5 9-7 9-13 10-9 4-17 3h-19l-19-3-16-7-12-8-13-13-10-15-9-17v6l3 1 2 5v3h2l2 4v3h2l4 6 1 3v3l-12 2-32 3-28 4-10 1-2-2-2 11-1 1h-28l-3-1-1-4-10 1-9 3-2 8h-30l-2-2v-3l-13 2-14 3h-13l-19-2-10-4-3-3-1-6 5-6 12-3 14-1 13-5 15-8 4 1 6 4 10 3h10l-4-4-4-2v-2l-5-2-10-6 6-9 7-10 8-13 2-4v-5l4-2v-5l5-3 2-5 4-2 18 6 6 1h17l2-1 3-7 16-8 26-14 9-6 5-3h2v-2l6-4 9-7h2v-2l14-11 14-14v-2h-8l-4 1h-42l-7-2-11-1-6-4-4-6-1-5v-16l4-23 7-24 10-24 8-17 5-8h6l2-6 5-11 6-15 5-8 7-6 18-7 9-4 8-2z" fill="#FD7C77"/>
<path transform="translate(841,642)" d="m0 0h2l10 15 16 26 12 20 8 13 3 5v2l10 1 32 5 40 5 4 8 1 5v17l-2 9-1 1h-54l10 6 10 5 14 3 15 1 5 3-1 4-9 6-12 4-6 1h-17l-17-2-11-4-9-3v9l-1 1-13 1h-17l-4-3-1-10-1-1 1-13 2-9h-140l-9 12-8 8-10 7-13 5-11 2h-32l-13-3-12-6-8-7-11-14-3-4 1-4 18-8 21-11 14-10 4-2v-2l5-5 8-11 10-19 9-21 5-16 2-1 31 11 21 5 8 1h20l-6 18 46 9h5l-12-14-9-11v-2h-2l-4-5v-2l16-8 12-7 3-2 1-3 12-4 11-6z" fill="#01273D"/>
<path transform="translate(434,688)" d="m0 0 3 1 1 14 9 10 7 8 8 8 2 1v2l4 2 12 9 13 8 13 6 16 5 15 2 3 3-8 16-7 9-13 10-9 4-17 3h-19l-19-3-16-7-12-8-13-13-10-15-9-17v6l3 1 2 5v3h2l2 4v3h2l4 6 1 3v3l-12 2-32 3-28 4-10 1-2-2-2 11-1 1h-28l-3-1-1-4-10 1-9 3-2 8h-30l-2-2v-3l-13 2-14 3h-13l-19-2-10-4-3-3-1-6 5-6 12-3 14-1 13-5 15-8 4 1 6 4 10 3h10l-4-4-4-2v-2l-5-2-10-6 6-9 7-10 7-11 4 1 7 4 11 4h13l12-3 14-7h6l5 7h12l10-1 30-10 11-5 16-8 9-5 19-12 7-5z" fill="#E9F7FC"/>
<path transform="translate(557,664)" d="m0 0h1l3 26 7 36 7 26 6 18v3l8-2 6 7 7 9 5 5 8 7 12 5 10 2h32l15-3 14-7 13-12 8-11h1v5 4l20 2h7l19 4 18 4 10 4 3 4-2 4-5 3-12 4-23 4-20 3-31 3-48 3-64 2h-88l-63-2-33-3-32-2-46-6-7-2h-7l-2-1v-2l-6-2-4-2v-4l13-1 2-15 2 4 1 1 10-1 36-5 36-3-2-6-3-4v-2h-2l-2-7h-2l-3-8-3-3v-6l3 4 11 20 9 12 11 11 13 8 14 6 19 3h19l17-3 12-6 8-7h2l2-4 6-8 6-13 2 4 1 4h35l3 1-2-5-4-1h2l-1-9h-2v-3h-2l-2-16-2-6-5-22-3-21-3-3 1-3v-7h-2v-6h2z" fill="#D8F2F6"/>
<path transform="translate(686,663)" d="m0 0 36 12 17 4 8 1h20l-6 18-11 22-5 8-4 10-9 17-10 16h-3l-1 5-8 10-7 7-10 7-13 5-11 2h-32l-13-3-12-6-8-7-11-14-3-4 1-4 18-8 21-11 14-10 4-2v-2l5-5 8-11 10-19 9-21 5-16z" fill="#013554"/>
<path transform="translate(335,254)" d="m0 0 14 1 13 4 2 2-5-1-11-3h-22l-1 3-1 1 4 1v2h2v10h-2l-1 4-4 4 2 1 1 2 6 3 5 4h11v-2h2v2l6 1 5 5 3 5v2l6 2 5 3 9 3 1-2 1 4 6 1 12 6 3 6v10l-4 6-6 7-6 4h-2v2h3l1 3 4 3v2h2v7l11-2-2 3-9 1-2 3-9 3-1 2h-31l-1-1-11-1-8-3-5-1v-2l-6-2-7 3h-11l-14-5-9-6v-2l-4-2-7-10-2-3-1-13-5-8-1-3v-13l2-4 1-6 1-7 3 1h10l-2-2-4 1h-5v-7l4-8 2-5h3l4-3h4l1-3 9-4-1-2h5v2h4l1 2h3v2l5-1v-3h-8v-1l11-1 8-5z" fill="#E4F2F8"/>
<path transform="translate(784,238)" d="m0 0h13l3 1 12 1 1 2 9 4 7-1h8l10 2 4 3-3 1v-2l-6-1h-14l-1 4 1 6-4 8-6-1v4l6-2 1 5 3 1 6 9 1 8-2 7-2 11-3 6-5 4h-2l-1 7-2 2-1-5-15 3 2 3-6-3-4 2-3 5-2 1 3 4 3 1v2l5 2 9 3 12 1 9-2h4l-1-3 6-1 3-5 2-5 4-1 9 1 8 6 6 1-3 3-5 1-2 4-8 5-10 5-11 3-1 2-4-1-1 5-7-1-3-2-10 1-6-3-8-2-4 4h-2v2l-5 1h-18l-21-7-1-2-3 1 1 16h-1l-2-10-4-10-3-15-2-2h2v-2l-4-2-5-8-2-8v-13l1-8-1-2v-9l5-10 2-3-1-2 1-2 8-3 12-7 8-3 4 1v10l4 4h5l3-4v-9l-3-2h-9l2-4 9-6 7-3zm63 92v2l2-1z" fill="#E2F0F6"/>
<path transform="translate(642,172)" d="m0 0h18l9 4 6 5 4 8 2 9-1 14-5 15-10 18-10 13-9 10-64 64h-3l-13-29-1-4 18-12-6-8-8-9 1-4 13-13 1-2-3-1v-2l-4-2-1-3-4-2-3-3 1-6 5-11 6-12 10-9 14-11 13-8 11-5z" fill="#FD7C77"/>
<path transform="translate(434,688)" d="m0 0 3 1 1 14 9 10 7 8 8 8 2 1v2l4 2 12 9 13 8 13 6 16 5 15 2 3 3-8 16-7 9-13 10-9 4-17 3h-19l-19-3-16-7-12-8-13-13-10-15-15-28-6-9v-3l16-8 13-7 19-12 7-5z" fill="#68AEE4"/>
<path transform="translate(483,171)" d="m0 0h11l16 4 16 8 16 11 14 12 4 4-1 7-8 18 1 4 8 7 5 5-1 4-12 12 1 5 9 10 3 4-1 3-17 11 5 13 8 17-1 3-68-68-9-11-7-10-6-10-6-13-3-10-1-7v-8l2-8 4-7 8-7z" fill="#FD7D77"/>
<path transform="translate(671,399)" d="m0 0h9l12 3 13 7 7 6 7 10 3 9v14l-4 10h-3l-1 6-6 10v16l-1 1h-7l-2 7-3 4-4 2-3 8-5 2-9-2-8-6-4 1-13 12-8 7-5-1-10-7-7-7-8-16 2-4 11-9 1-2h2l2-5 4-11 2-16 1-20 3-10 7-8 8-6 10-4z" fill="#FB9C85"/>
<path transform="translate(442,436)" d="m0 0h21l11 4 4 4 3 5v2l6 2 5 9 2 12v9l-3 12-7 12-4 4 1 6 8 17 2 3h-2l-3 9-4 6h-2l-2 4-5 4-8 3h-10l-3-2h3l-1-17-3-12h-13l-2-1v-9l-5-1-1-5-3-1v-7l-7-3 1-7 1-2v-9l-3-5v-3h-2l-5-7h-4l-2 4-8 7-6 5-5 13-1 5 3 3-4 43-4 24-3 11 34-12 3 1-9 4-13 5-8 2-2 2-6 1-1-2v-7l3-7 2-14 1-1 3-35v-15l-3-3-5-2-12-1-7 11-3 8-5 10v2h-2l-1 5-2 4h-2l3-9 7-16 9-17 1-1h6l2-6 5-11 6-15 5-8 7-6 18-7 9-4 8-2z" fill="#F8AE9D"/>
<path transform="translate(750,460)" d="m0 0h20l3 2 2 26 1 24v16l-2 26-3 12-5 8-10 6-15 5-20 4-23 3-21 1-3-3v-2h-2l-7-11-7-10-6-11-5-10v-2h-2l-3-11-3-5-6-4h3l28 14 16 5 20 3h22l6-16 6-23 5-27 2-18 1-1z" fill="#599FD2"/>
<path transform="translate(365,502)" d="m0 0 12 1 8 4 1 5v12l-3 35-2 7-1 9-3 6v9l7-3 9-3 13-5 9-3v-2l28-10h9l2 2-8 16-8 15-11 17-11 13-19 1-12 1h-22l-26-5-5-8-1-7v-17l5-24 3-6 2-9 2-10h2l3-9 6-12 4-10z" fill="#F26865"/>
<path transform="translate(841,642)" d="m0 0h2l10 15 16 26 12 20 8 13 5 9 6 9 6 10 5 10-3 3h-5l3 9-6 4-6 2h-17l-12-5-1-4-2 1-5-2v-2l-3-1v-2h-2l-2-5-4-2-6-9v-2l-3-1v-2h-2l-5-7-3-3-3-4v-2h-2l-8-10-4-2 2-1-12-14-9-11v-2h-2l-4-5v-2l16-8 12-7 3-2 1-3 12-4 11-6z" fill="#013554"/>
<path transform="translate(892,723)" d="m0 0 10 1 32 5 40 5 4 8 1 5v17l-2 9-1 1h-54l10 6 10 5 14 3 15 1 5 3-1 4-9 6-12 4-6 1h-17l-17-2-11-4-9-3v9l-1 1-13 1h-17l-4-3-1-10-1-1 1-13 2-9 3-5 4-1 10 4h17l10-4 1-3-2-4v-3l6-2v-3l-4-8-10-17z" fill="#013553"/>
<path transform="translate(336,627)" d="m0 0h15l7 2h42l4-1h8v4l-16 16-10 8h-2v2l-12 9-5 2v2l-15 9-28 16-15 7-3 7-2 1h-17l-13-3-6-3-5-1 2-6 10-15 8-11 8-10 9-10 7-7 13-10z" fill="#68AEE4"/>
<path transform="translate(410,471)" d="m0 0 3 1 4 5v2h2l4 8v9l-2 4v5l7 3v7l2 1 2 5 4 1v9h15l3 8 1 5v17l-29 10-34 12-11 4h-3l1-8 3-13 4-33 2-24-3-4 5-15 6-7 8-6 4-5z" fill="#E9F7FC"/>
<path transform="translate(828,247)" d="m0 0h14l11 4 5 2 4 4v2h2l6 12v6l4 3v2l3-1 2 2h-2l5 11 2 8v15l-5 13-6 7-6 1-6-4-4-3-12-1-3 8-3 3-5 1v2l-13 3-12-1h-4l-10-6v-2l-4-1-3-4 1-2 4-2 1-3 5-2 3 2-1-2 13-2 4-1 1 4 2-7 6-4 4-10 1-7 2-7-1-8-5-7v-2h-7l4-1v-2l-2-1h-1-4v-4l4-1h2l3-6-1-7zm19 83 2 2h-2z" fill="#E5F3F8"/>
<path transform="translate(743,449)" d="m0 0 3 3v9l-4 1-3 24-5 26-7 24-5 11h-22l-20-3-16-5-16-8-7-4v-2l8-7 8-8 6-5 4 1 7 5 9 2 5-1 3-9 4-2 3-4 2-7h7v-16l7-12 1-4 3-1 1-2 5 1 2-5h2v3l5-1 1-3 5 1z" fill="#E9F7FC"/>
<path transform="translate(671,399)" d="m0 0h9l12 3 13 7 7 6 7 10 3 9v14l-4 8-6 1-8-3-9-7-5 2-4 4h-2v2l-5 5-5 8h-1l-2-14-5-5h-8l-2 3-3 12-5 8h-2v2l-10 6-10 1 6-14 2-8 2-31 3-10 7-8 8-6 10-4z" fill="#013553"/>
<path transform="translate(278,765)" d="m0 0 10 4h18l8-2 4 7 1 7v14l-2 5h-28l-3-1-1-4-10 1-9 3-2 8h-30l-2-2v-3l-13 2-14 3h-13l-19-2-10-4-3-3-1-6 5-6 12-3 14-1 13-5 15-8 4 1 6 4 10 3h15l9 3 4-1 9-11z" fill="#013553"/>
<path transform="translate(495,436)" d="m0 0h11l12 3 10 6 6 7 3 6v11l-3 9v8l4 6 6 8 4 12v21l-3 12-5 11-6 9h-1l-1-13-4-6-15-6-8-7-5-9-1-6v-12l8-26 2-8-1-9-4-6-7-5-9-2-6-5-2-4 9-4z" fill="#023553"/>
<path transform="translate(770,577)" d="m0 0h10l13 4 9 6 7 8-1 5-4 15-3 12-5 1-17 6-11 3h-10l-15-3-14-5-16-8 2-4 11-12 9-9 13-10 12-7z" fill="#013554"/>
<path transform="translate(379,270)" d="m0 0 10 2 11 3 10 7 6 7 4 8 1 4 1 14 4 8 2 9v7l-2 6-1 7-1 5h-2l-2 5-1 2h-2l-1 6-4 1-13 1v-7h-2l-6-6 1-2h-3v-2l10-7 5-6 2-4v-10l-3-6-13-6-4-1-2-2-9-2-11-6-1-3 2-2 3-1 2 1v-4l-4-1v-3l-5-1-5-2h-6l2-2 11 1v-2l2-1-1-3 3-5 8-4h4z" fill="#E4F2F8"/>
<path transform="translate(1017,658)" d="m0 0 4 1 5 6 5 11 2 10v23l-2 14-6 17 7-1 3 1 1 4 1 25-2 5-1 1-10 1-7 1-14-2-7-4-1-3 4-13v-11l-4-11-2-6 13-24 5-10 2-8 2-24z" fill="#013553"/>
<path transform="translate(892,723)" d="m0 0 10 1 32 5 40 5 4 8 1 5v17l-2 9-1 1h-32l-26-1-6-3v-2h-8l1-4-2-4v-3l6-2v-3l-4-8-10-17z" fill="#01273D"/>
<path transform="translate(306,730)" d="m0 0h6l5 7h12l9-1-2 5-13 15-8 9h-24l-10-1-8 7-8 10-9-2-8-3-8-5v-2l-5-2-10-6 6-9 7-10 7-11 4 1 7 4 11 4h13l12-3z" fill="#67ADE3"/>
<path transform="translate(442,436)" d="m0 0h21l11 4 4 4 3 5v2l6 2 5 9 2 12v9l-3 12-7 12-5 4-4-13-7-7v-6l-3-3h-14l-5-4-4-8-9 1-7 3-7-7 12 1-4-4-9-3v-1l12-1v-3l-12-3 2-4 5-3 2-4 9-4z" fill="#013553"/>
<path transform="translate(313,283)" d="m0 0h9l10 5 5 4h11v-2h2v2l6 1 5 5 3 5v2l6 2 5 3 9 3 1-2 1 4 6 1-3 1-2-1v10l-2 1-3-7-5-4-4-1-4-3 1-2h-6l2 7 3 6-1 2-5-8-2-4-4-5-5-5h-6v1l7 1-1 2h-4l4 9 2 9h3l-7 14 20-1v-6l2-1v5l3 2-4 2-3 5h-2l-1 3h-7l-6-1-1 3 4 2h-5l-3-4v-2h2v-2l13 1 2-2 1-2h-18l1 2h-3l-1-2-8 2v-2l-2 1v2l-9-1-5-2 1 4-4-2 2-1-1-14-9-10-4-8h-1v13l1 5h2l1 4-7-4v-17l1-2h-2v-3h-2l1 3h-2l-1-9 3-8 4-4 5-2z" fill="#E6F6FA"/>
<path transform="translate(783,273)" d="m0 0h10l5 2 2 1 6 5 1-3 1 2-1 4 3 1 4 4v2l5 2 11 6-2 6 2 1-2 4-1 5-4 3h-2l-1 7-2 2-1-5-15 3 2 3-6-3-11 1v2l-6 1 2-1v-3l-9-1-9-7-4-5v-2h-2l2-15 5-7v-2l7-4 4-6-9 2-6 4-3-1h2v-2l10-4 11-1v2l4-1 1 2-8 3-4 3-1 11-1 4 4 9 2 1v-6l4-6 1-3h3v-5l3-5h2l-2 5 1 1 5-4 5-1-5-3h-3v-2l-4-1 3-1v-2l-9-1z" fill="#BECAD7"/>
<path transform="translate(421,443)" d="m0 0h5l-1 4-5 2-1 3 11 3 2 3-2 2-8 1 8 4 1 3h-10l5 4 1 3-11-2-2-1-1 2-1-2h-4l-2 4-8 7-6 5-5 13-1 5 3 3-4 43-4 24-3 11 34-12 3 1-9 4-13 5-8 2-2 2-6 1-1-2v-7l3-7 2-14 1-1 3-35v-15l-3-3-5-2-12-1-7 11-3 8-5 10v2h-2l-1 5-2 4h-2l3-9 7-16 9-17 1-1h6l2-6 5-11 6-15 5-8 7-6 18-7z" fill="#FBAF9D"/>
<path transform="translate(317,698)" d="m0 0 3 1-10 5-1 10 2 10 3 6-1 2-1-1h-6l-16 8-10 2h-13l-14-5-7-5 2-9 2-4h2v-5l5-3 2-5 4-2 18 6 6 1h17l2-1 3-7z" fill="#FCB2A0"/>
<path transform="translate(814,589)" d="m0 0 5 1 1 2v11l-1 2h8l4 4v3h5l3 4v4l4 1 2 7 3 3-1 7-4 2v2l-14 8-10 3-3-1-4-7-2-5-8-10-1-6 5-22 5-10z" fill="#FC9F86"/>
<path transform="translate(644,474)" d="m0 0h3l7 21 4 7v2l4 2-19 19-5 1-11-7-8-8-8-16 2-4 11-9 2-2 10-1z" fill="#FC9E86"/>
<path transform="translate(278,765)" d="m0 0 10 4h18l8-2 4 7 1 7v14l-2 5h-28l-3-1-1-4-10 1-6 2h-4v-14l-1-2 6-8z" fill="#04283E"/>
<path transform="translate(330,256)" d="m0 0h18l14 4-2-2 4-1 1 4 5 2 6 2 3 4v4l-11 4-3 5 1 6-1-2-2 3-7-1 12 5v2l3 1-1 4-5 1h-3l-3-4v-2l-9-3v-2h-2v2l-8 1-5-1-6-5-6-3 1-5 3-2 1-3h2v-10h-2v-2l-6-1 4-4z" fill="#E6F5FA"/>
<path transform="translate(769,457)" d="m0 0 5 2 2 9 2 43v22l-1 15-4 20-4 5 1 5-10 2-12 7-10 8-10 9-9 9-6 7-5-2-9-6-12-9-7-6v-2h-2v-2l36-4 22-4 18-5 11-6 5-8 3-12 2-26v-16l-2-38-1-12-6-2z" fill="#E6F4FA"/>
<path transform="translate(791,325)" d="m0 0h5l-5 7-2 1 3 4 3 1v2l5 2 9 3 12 1 9-2h4l-1-3 6-1 3-5 2-5 4-1 9 1 8 6 6 1-3 3-5 1-2 4-8 5-10 5-11 3-1 2-4-1-1 5-7-1-3-2-10 1-6-3-8-2-2 3-2-1 2-3-7-2-2-3 1-4 3-3h3l-2-5-1-2 2-2-2-4v-3h2v-2zm56 5v2l2-1z" fill="#D9E4EC"/>
<path transform="translate(832,305)" d="m0 0h4v4h5l5 8 2 12-4 2-1 5-4 5-5 1v2l-13 3-12-1h-4l-10-6v-2l-4-1-3-4 1-2 4-2 1-3 5-2 3 2-1-2 13-2 4-1 1 4 2-7 6-4z" fill="#E6F5FB"/>
<path transform="translate(732,419)" d="m0 0 6 1 7 3 7 4 10 10 4 9 1 12-1 2-20 1-1-9-2-2-4 2-5-1-3 3h-3v-3l-3 3-1 2-5-1 2-7v-17l9-11z" fill="#FC9F87"/>
<path transform="translate(306,730)" d="m0 0h6l5 7h12l9-1-2 5-13 15-8 9h-24l-11-2v-2h3l2-4 3-5 5-5 10-13-3 2-3-1z" fill="#599FD2"/>
<path transform="translate(313,283)" d="m0 0h9l10 5 5 4h11v-2h2v2l6 1 5 5 3 5v2l6 2 5 3 9 3 1-2 1 4 6 1-3 1-2-1v10l-2 1-3-7-5-4-4-1-4-3 1-2h-6l2 7 3 6-1 2-5-8-2-4-4-5-5-5h-6v1l7 1-1 2h-4l4 9 2 9h3l-2 4-2 1-5-18-3-5h-1l1-8-5-2-3 2 1 4 4 2h-2l2 4 2-1v24l-2-4-1-16-3-3v-4h-6l1-5-4-5-7-3h-6l-6 5-4 7 1 5 5 9-1 2-5-7-2-3v13l1 5h2l1 4-7-4v-17l1-2h-2v-3h-2l1 3h-2l-1-9 3-8 4-4 5-2z" fill="#DFECF1"/>
<path transform="translate(346,302)" d="m0 0h6l3 3v2l3 1 4 5 6 10-4-8v-5h6v2l4 3 5 1 6 7 2 11-3 9-7 6-11 3h-11l-4-2v-4l14 1 4-4 2-4 2-1-2-2v-4l-1 6-3 1h-17l3-9 4-5h-3l-6-16-1-3h5l-7-2z" fill="#E2ECF2"/>
<path transform="translate(478,514)" d="m0 0 3 3 8 17 2 3h-2l-3 9-4 6h-2l-2 4-5 4-8 3h-10l-3-2h3l-1-17-1-8h3l5-2 8-7 5-5 1-3h2z" fill="#FCB19F"/>
<path transform="translate(387,316)" d="m0 0 10 2 8 5 2 5v10l-4 6-6 7-8 5-8 4-9 1h-16l-4-2 8-1-4-2-1-4 15-2 10-3 1-3 3-3 2-9v-14z" fill="#DDDEE4"/>
<path transform="translate(782,674)" d="m0 0 4 1 3 3v2h2l10 13 8 9 4 6-11-1-41-8-1-2 6-16 5-3z" fill="#E3F2F8"/>
<path transform="translate(316,291)" d="m0 0h6l8 4 4 5-3 14h-2v8l-1 3h2l2 6-1 2h-3l9 4v2l-7 2h-6l-3-3-1-2v-6l2-1-2-3 4-18-3 4v1l-1 9-2 2-4-2v-2h-2l-7-12 1-6 6-8z" fill="#E1E9F0"/>
<path transform="translate(992,728)" d="m0 0 3 3 4 9 1 4v11l-4 13-2 2-17 1 1-7v-17l-2-10 13-7z" fill="#FC9E87"/>
<path transform="translate(478,441)" d="m0 0 4 2 5 5 7 2 8 4 6 7 2 7-1 9-7 22-4-1v2l-3 1-6-3 3-9 1-6v-9l-2-12-4-8-6-3-4-7z" fill="#E0F1F8"/>
<path transform="translate(760,283)" d="m0 0 1 2h2l1-2v2h2l1 3-5 7-2 13-1 2h2l4 6 9 7 5 2 1 2h-2v4l-3-1h-15l-6-2v-4l-6-2-2-8 1-11 4-10 5-5h2v-4z" fill="#E6F6FB"/>
<path transform="translate(783,273)" d="m0 0h10l5 2 2 1 6 5 1-3 1 2-1 4 3 1 4 4v2l5 2 11 6-2 6 2 1-2 4-1 5-4 3h-2l-1 7-2 2-1-5-15 3 2 3-6-3h-7l5-5 2-1-1-2 3-1v-7l-2-5 4 4 1 5-1 3 6-3 2 1-4 3-6 1-1 4 10-3 4-3-1-5 2-4 4 3-3-4-1-10-4-6-5-3 1 13-2 1-1-12 1-3-9 1 1-2 5-1-5-3h-3v-2l-4-1 3-1v-2l-9-1z" fill="#D8E9F2"/>
<path transform="translate(404,628)" d="m0 0h8v4l-16 16-6 4-1-3-13-9v-2l-6-2-5-3-12-3v-1h47z" fill="#599FD2"/>
<path transform="translate(777,274)" d="m0 0h5v2l4-1 1 2-8 3-4 3-1 11-1 4 6 12 1 11-1 2-5 1-9-7-4-5v-2h-2l2-15 5-7v-2l7-4 4-6-9 2-6 4-3-1h2v-2l10-4z" fill="#E2F4FA"/>
<path transform="translate(823,267)" d="m0 0 2 3v2l3 1 6 9 1 8-2 7-2 11-4 5 1-4v-3-3l1-4-15-8v-2l-4-2-3-3 1-7 4-3h5l1-4h-9l4-2h9z" fill="#CEBDC3"/>
<path transform="translate(797,286)" d="m0 0h7v9l1 4v-12l5 2 4 5 1 2 1 10 2 4-4-2-1 3 1 6-10 5h-5l1-4 9-4-4 2h-3l-1-8-4-6-5-4v-6l3-5z" fill="#D9E6EE"/>
<path transform="translate(420,440)" d="m0 0 4 1v2l-15 6-17 7-7 8-5 11-6 15-5 10-6 1-9 17-12 28-6 20-4 18-2 12v16l3 9 5 4 2 2-7-1-2-4-3-2-1-18 4-29 5-17 5-15 3-6v-6l3-1-1-3h2l7-14v-8l4-4 7-2 3-2 3-8 2-3 2-10 5-10h2l1-5 5-5 4-3 11-3 7-4 7-3z" fill="#FDFDFD"/>
<path transform="translate(313,283)" d="m0 0h9l10 5 4 5-2 3h-4l-8-4h-6l-6 5-4 7 1 5 5 9-1 2-5-7-2-3v13l1 5h2l1 4-7-4v-17l1-2h-2v-3h-2l1 3h-2l-1-9 3-8 4-4 5-2z" fill="#DBEFF6"/>
<path transform="translate(346,302)" d="m0 0h6l3 3v2l3 1 4 5 3 5 5 10v10l-3 1h-17l3-9 4-5h-3l-6-16-1-3h5l-7-2z" fill="#E2F3F9"/>
<path transform="translate(640,170)" d="m0 0h21l8 3v2l4 1 7 10 2 8v17l-3 13-3 7-3 3-5 11-5 3 2-5 9-16 5-15 1-14-3-12-6-8-8-4-3-1h-18l-13 4-16 8-11 7-13 11-4 2-1 3-4 4-9 20-1 6 6 5-1 2-5-2-2-4-2-7-2-3 4-1 3 1v-8l4-5 4-8 5-4 2-4 5-2 4-4 6-4 3-4 7-4 5-2 2-2 6-2 7-3z" fill="#FCFCFD"/>
<path transform="translate(341,340)" d="m0 0 4 1v2l2-1-1-2 19 1v4l-3 1h-7l-6-2v2h-2l5 5 3 1 2 3 4 2-1 2-10 1-17-6-1-3-6-1-2-1v-3l-4-2v-3l5 1 9 2-1-3 4 1z" fill="#DEE4EA"/>
<path transform="translate(379,270)" d="m0 0 10 2 4 2h-9l1 8-3 5h-2v2h-10l1 5 7 6 5 7-1 2-6-7-8-1 2 6-4-1-3-3 2-3 3-1 2 1v-4l-4-1v-3l-5-1-5-2h-6l2-2 11 1v-2l2-1-1-3 3-5 8-4h4z" fill="#D2E0EA"/>
<path transform="translate(782,273)" d="m0 0 10 2v2l-2 1 10 4 2 3-9 2-2 4-3-2 4-6h-2l-1 4-2 6-3 1v3h-2l-2 5-1 6-3-1-4-9 1-4 1-11 5-4 6-3h-3z" fill="#DEEAF1"/>
<path transform="translate(324,307)" d="m0 0 1 2-4 18 2 3h-3l2 10h8l7-1v-2l-9-3-4-2 3-1 4 2-1-8h-2l-1-3h2v-8l2 1v7l2 4 2 1 2-3 1 7-5-2 3 6 3 1 1-2h2l1 3 4-1 1 2 2-1v2l20-1v-6l2-1v5l3 2-4 2-3 5h-2l-1 3h-7l-6-1-1 3 4 2h-5l-3-4v-2h2v-2l13 1 2-2 1-2h-18l1 2h-3l-1-2-8 2v-2l-2 1v2l-9-1-5-2 1 4-4-2 2-1-1-14-6-6v-2h2l1 2h4l1-9-1-3h3z" fill="#A77C8A"/>
<path transform="translate(482,169)" d="m0 0h12l15 4 11 4 6 5-2 1-14-7-16-4h-11l-10 3-8 7-4 8-1 6v8l3 14 5 12 6 11 9 13 13 15 19 19h-3-4l-3-1 2-1-1-5-3-1-7-8-4-3v-2h-2l-8-11-6-5-8-15-4-7-5-14-2-12 1-13 2-7 11-11z" fill="#FCFCFD"/>
<path transform="translate(899,758)" d="m0 0 4 1 3 5-2 4-10 4h-17l-12-5v-4l29-4z" fill="#FB9E88"/>
<path transform="translate(1029,739)" d="m0 0 6 1 1 4 1 25-2 5-1 1h-10l2-6-2-27z" fill="#01273E"/>
<path transform="translate(860,794)" d="m0 0 2 3 10 1h21l1 1v8l-1 1-13 1h-17l-4-3v-9z" fill="#01273E"/>
<path transform="translate(769,457)" d="m0 0 5 2 2 9 2 43v22l-1 15-4 20-4 5 1 5-10 2-12 7-5 3-3-2 1-4 15-5 10-6 5-10 3-17 1-18v-16l-2-38-1-12-6-2z" fill="#D9F3F7"/>
<path transform="translate(545,611)" d="m0 0 4 4 3 16 3 17 2 13v13h-2l3 6v9h-1l-1 6v9l2 3-1 9-1 2-2 11v17l-2 17-4 4-6-1v-1l8-1 1-23 2-37v-44l-2-20-5-22z" fill="#F6FBFD"/>
<path transform="translate(810,242)" d="m0 0 6 1 6 3 7-1h8l10 2 4 3-3 1v-2l-6-1h-14l-1 4 1 6-4 8-3-1-9 1-4-5 1-6 4-3h1l4-4-1-3-7-2z" fill="#CED8E1"/>
<path transform="translate(734,462)" d="m0 0h7v9l-4 27-6 25-6 18-3 6h-22l-20-3-16-5-7-3v-1h6l5 3 16 3 5 2 11 1h22l1-9h2l1-5 3-11 4-20 2-2 2-25h2l-1-5 1-3h-5z" fill="#D9F3F7"/>
<path transform="translate(576,245)" d="m0 0 5 3 3 3-2 4-12 12 1 4 9 10 4 6-10 7-8 5 1 4 13 29 4-3h2l2-4 5-4-2 5-4 5h-2l-1 3h-6l-2-2-1-6h-2l-3-10-4-8v-4l-4-2 1-5 6-2 1-4h5l1-2 5-1v-3l-3-1-9-11-2-2v-6l5-5 2-3h4l1-7-3-3z" fill="#FCFCFD"/>
<path transform="translate(715,458)" d="m0 0h3l-1 6-3 3-5 8 4 2 1 3h-4v10l-4 4h-4l-3 7-4 2v3l-5 5-4 5-7 1-13-8-4 1-2 2h-3l-2 4-7 6-3 4-4 1v-2l8-7 8-8 6-5 4 1 7 5 9 2 5-1 3-9 4-2 3-4 2-7h7v-16l7-12z" fill="#FCFCFD"/>
<path transform="translate(385,327)" d="m0 0h1l1 7-3 9-7 6-11 3h-11l-4-2v-4l14 1 4-4 2-4 10-6z" fill="#E3F4F9"/>
<path transform="translate(327,305)" d="m0 0h4v2h-2l-2 4h-2v2h4v9l-1 3h2l2 6-1 2h-3l9 4v2l-7 2h-6l-3-3-1-2v-6l2-1-2-3 4-17z" fill="#DDF0F6"/>
<path transform="translate(314,294)" d="m0 0 3 1 1 11 3 7-1 9-2 2-4-2v-2h-2l-7-12 1-6 5-5z" fill="#E6F5FA"/>
<path transform="translate(557,664)" d="m0 0h1l3 26 7 36 7 26 6 18-1 3-3-2-3-1h2l-1-9h-2v-3h-2l-2-16-2-6-5-22-3-21-3-3 1-3v-7h-2v-6h2z" fill="#D9F3F7"/>
<path transform="translate(342,544)" d="m0 0h1l-1 9-3 11-3 9-4 19v17l1 9 2 1 2 4 16 3 10 2h32l5 1v1h-42l-7-2-11-1-6-4-4-6-1-5v-16l4-23 7-24z" fill="#FD9086"/>
<path transform="translate(304,309)" d="m0 0 2 1 5 9 8 9 1 11-1 3-5-1-6-7-1-6h-2l-2-5v-13z" fill="#D2E1E9"/>
<path transform="translate(335,254)" d="m0 0 14 1 13 4 2 2-5-1-11-3h-22l-1 3-1 1 4 1v2h2v10h-2l-1 4-3 1-2-2-3-1-1-1-3-4 2-5 2-4v-3l9-4z" fill="#CBD9E4"/>
<path transform="translate(811,276)" d="m0 0 8 1 4 2 3 5-1 6 4 1 1 6-6-2-10-4v-2l-4-2-3-3 1-6z" fill="#E1F0F6"/>
<path transform="translate(432,522)" d="m0 0h4v9h15l3 8 1 5v17l-29 10-20 7-3-1 4-2h3l1-4h8l10-5v-3l10 1 3-2 9-2 1-1 1-11v-4h-2l-1-8-2-1-12-1-2-3v-7h-2z" fill="#FDFDFD"/>
<path transform="translate(385,508)" d="m0 0 4 1-4 43-4 24-3 11 34-12 3 1-9 4-13 5-8 2-2 2-6 1-1-2v-7l3-7 2-14 1-1 3-35z" fill="#FD8D84"/>
<path transform="translate(227,763)" d="m0 0 6 1 5 4 2 1v2l6 2 3 4-1 1h-10l-12-4-7-5 5-4z" fill="#FC9C85"/>
<path transform="translate(328,627)" d="m0 0h8l-3 2-14 8-9 7-10 9-11 12-11 15-5 7-1-3 7-10 3-7 5-2 2-4 11-13h3l2-4 7-6 4-5 7-1v-2z" fill="#D9F3F7"/>
<path transform="translate(797,286)" d="m0 0h7v9l1 14 1 3h-2v4h-2l-1-8-4-6-5-4v-6l3-5z" fill="#E7F6FB"/>
<path transform="translate(351,521)" d="m0 0 1 2-10 23-6 20-4 18-2 12v16l3 9 5 4 2 2-7-1-2-4-3-2-1-18 4-29 5-17 5-15 3-6v-6l3-1-1-3z" fill="#FCFCFD"/>
<path transform="translate(303,288)" d="m0 0 3 1-1 5v7l4-3-2 4-1 6 6 10-1 2-5-7-2-3v13l1 5h2l1 4-7-4v-17l1-2h-2v-3h-2l1 3h-2l-1-9 3-8z" fill="#B4B0BC"/>
<path transform="translate(346,302)" d="m0 0h6l3 3v2l3 1 4 5 3 5v3h-3l-2-1-1 4-5 1-6-16-1-3h5l-7-2z" fill="#DFEFF5"/>
<path transform="translate(333,305)" d="m0 0h5l4 7v9l-2 2 1 2h-2l-1 2-1-1-2 2-4-3-1-3v-7z" fill="#E3F6FA"/>
<path transform="translate(534,182)" d="m0 0 4 1-4 4h2v2l4 1 11 9 9 8 1 2v11l-3 4h4l-2 4-3-2-3 6-1 7h4l1 3 3 3v2l4 1v3l-4-2-10-10-1-4 9-20v-5l-7-7-14-11-10-7 4-2z" fill="#FCFCFD"/>
<path transform="translate(399,481)" d="m0 0 2 1-1 3-5 3-4 8-2 3v7l1 2v16l-2 16 1 6-2 8-1 2-1 11-2 5h-1l1-12 4-37 1-14-3-4 5-15 6-7z" fill="#FCFCFD"/>
<path transform="translate(359,297)" d="m0 0 4 4 1 4 6 2 5 3 9 3 1-2 1 4 6 1-3 1-2-1v10l-2 1-3-7-5-4-4-1-4-3 1-2h-6l2 7 3 6-1 2-5-8-2-4-4-5 2-1 3 4 1-2-3-1 2-2z" fill="#C0C7D2"/>
<path transform="translate(798,304)" d="m0 0 4 4 1 5-1 3 6-3 2 1-4 3-6 1-1 4 10-3 8-4v-3h2l1-2 4 1-3 1 1 3-1 2 2 1h-2l-1 7-2 2-1-5-15 3 2 3-6-3h-7l5-5 2-1-1-2 3-1v-7z" fill="#A3A5B7"/>
<path transform="translate(814,586)" d="m0 0 7 2 2 7 3 3h-4l1 4 7 1 2 7h6l3 4 3 6 2 2 2 6 1 1v9h-2v-9l-3-1-1-7-4-1-3-7-5-1-3-5-1-1-8-1v-13l-1-2-5 1-4 4 1-4zm32 52m-1 1m-2 1 3 1-2 1-1 2z" fill="#FCFCFD"/>
<path transform="translate(477,513)" d="m0 0 1 3-1 3h-2l-1 4-16 14-3 1-3-2v-6l13-7 3-1v-2l7-5h2z" fill="#FC9E85"/>
<path transform="translate(732,417)" d="m0 0 11 2 10 6 3 1 2 5h2l2 5 3 1 3 8 1 13h-3l-1-12-4-9-4-4-5-4v-2l-6-2-4-3-6-2-6 1-8 10h-1l1-8 6-5z" fill="#FCFCFD"/>
<path transform="translate(781,299)" d="m0 0 1 2-1 3v7l9 7 4 2-1 4h-2v2h-4v2l-6 1 2-1v-3l-7-1 3-1-1-15 2-8z" fill="#AF95A2"/>
<path transform="translate(865,263)" d="m0 0 3 3 2 5v6l4 3v2l2 1-4 1-4-2-5 3-6-1-2-3v-5l4-3h8v2l2 1-4-11z" fill="#C3DAE8"/>
<path transform="translate(783,273)" d="m0 0h10l5 2 2 1 6 5 1-3 1 2-1 4 3 1 4 5-2 2-5-4-2-1 1 13-2 1-1-12 1-3-9 1 1-2 5-1-5-3h-3v-2l-4-1 3-1v-2l-9-1z" fill="#9395A7"/>
<path transform="translate(559,590)" d="m0 0h1l-2 26-1 45-2-3-1-18v-12l-2-1v-2h3v-22z" fill="#D9F3F7"/>
<path transform="translate(554,704)" d="m0 0 3 1 1 7-2 6-2 11v17l-2 17-4 4-6-1v-1l8-1 1-23 2-36z" fill="#FDFDFD"/>
<path transform="translate(281,763)" d="m0 0 10 1 22 1 1 2-8 3h-18l-9-4v-2z" fill="#FAAA9A"/>
<path transform="translate(366,285)" d="m0 0 5 2 6 1v1h-7l1 5 7 6 5 7-1 2-6-7-8-1 2 6-4-1-3-3 2-3 3-1 2 1v-4l-4-1v-3l-5-1-5-2h-6l2-2 11 1v-2z" fill="#C3B3BE"/>
<path transform="translate(390,360)" d="m0 0 5 1 2 4h2v7l11-2-2 3-9 1-2 3h-5l4-2v-2l-7-2-2-3v-5z" fill="#CCDDE8"/>
<path transform="translate(319,358)" d="m0 0 7 1 2 3-1 9h3v2l6 2-4 2-1-3-6-2-4 1-2-5-3-4 1-4z" fill="#E6F3F6"/>
<path transform="translate(852,330)" d="m0 0 7 1 6 5 6 1-3 3-5 1-2 4-4 2 2-6-6-1-2-4h2l-2-5z" fill="#CCE2ED"/>
<path transform="translate(732,340)" d="m0 0 3 4 2 5 4 2 3 2v2l6 2 1 2h-5l-4-2-1-2-3 1 1 16h-1l-2-10-4-10-1-11z" fill="#BED3E1"/>
<path transform="translate(556,293)" d="m0 0 2 1-4 4-3 2 1 7 5 12 4 8 1 7-2 1-8-7-5-3 1-4 11 11-2-6-11-25 5-5z" fill="#FCFCFD"/>
<path transform="translate(790,283)" d="m0 0h2l-2 5 1 1 4-2-2 5v6l2 3-3-1-1 5-1-4h-3v2h-3l2 10-3-3v-11-3l1-3h3v-5z" fill="#B49AA7"/>
<path transform="translate(565,252)" d="m0 0h1l-1 7-3 3-4 1-3 4 1 5 1 3h6l1 3 1 4 2 6-4 4-5 1 4-4 2-1-2-4-9-11-2-3 1-4 12-12z" fill="#FDFDFD"/>
<path transform="translate(335,292)" d="m0 0 9 1-1 2 4 1-1 3-6-2-3 2 1 4 4 2h-2l2 4 2-1v24l-2-4-1-16-3-3v-4h-6l1-5-2-3h2l1-2z" fill="#59627E"/>
<path transform="translate(373,724)" d="m0 0 2 1-3 3-3 1h7l-1 4-6 1-8-1-12 2-2 4h-3v-2l-4-1 8-3 23-8z" fill="#FCFCFD"/>
<path transform="translate(479,512)" d="m0 0h2l5 9 5 12 5 3 1 2 4 1 5 10 4 2-1 3-11-11-2-1v-2l-4-2-4-4-9-19z" fill="#FCFCFD"/>
<path transform="translate(341,321)" d="m0 0h1l1 11 3 1v-3l6 2 1-2-1 6-5 3-3-3-1 2-1-4h-2l-1 3-4-2-2-3v-3l4 1v-3h2l1-5z" fill="#CED9E2"/>
<path transform="translate(678,593)" d="m0 0h8v5l5 3 3 2v2l6 3 2 3 6 3v2l6 2-1 2-5-2-9-6-12-9-7-6v-2h-2z" fill="#D8F2F6"/>
<path transform="translate(371,331)" d="m0 0 1 2v3l3 2-4 2-3 5h-2l-1 3h-7l-6-1-1 3 4 2h-5l-3-4v-2h2v-2l13 1 2-2 1-2h-14l4-2 15-1v-6z" fill="#87A2C1"/>
<path transform="translate(446,495)" d="m0 0 5 2 1 1v6l-3 3-7-1-2-1v-9z" fill="#FD9E85"/>
<path transform="translate(417,479)" d="m0 0h2l4 8v9l-2 4v5l7 3v7l2 1v4l-4-2-2-6v-3l-5-2-2-3 1-5 2-4-1-9z" fill="#FDFDFD"/>
<path transform="translate(816,321)" d="m0 0 2 1 1 2-2 6-4 2-6-1-3-1-3-6 13-2z" fill="#D2DBE3"/>
<path transform="translate(362,501)" d="m0 0h9l3 2h-9l-7 11-3 8-5 10v2h-2l-1 5-2 4h-2l3-9 7-16z" fill="#FD8981"/>
<path transform="translate(647,474)" d="m0 0 2 2v4h2l8 16 3 4v2h2l-1 4-5-2-6-11-5-15z" fill="#FD7B76"/>
<path transform="translate(768,571)" d="m0 0 1 4 1 3-10 2-12 7-5 3-3-2 1-4 15-5 10-6z" fill="#C9E4EE"/>
<path transform="translate(227,763)" d="m0 0 6 1 5 4 2 1v2l6 2 3 4-1 1h-10l-3-3h8l-14-9-4 1 1 6-7-4 5-4z" fill="#FAA898"/>
<path transform="translate(736,585)" d="m0 0 4 1h-2l-1 3-5 1-17 2-15 1h-14v-1l28-3z" fill="#D9F3F7"/>
<path transform="translate(313,283)" d="m0 0h9l10 5 3 4-18-4h-8l-3 1v-2z" fill="#A9A0B1"/>
<path transform="translate(777,274)" d="m0 0h5v2l4-1 1 2-8 3-4 3-1 11-2 2-1-10-5 4v-4l7-4 4-6-9 2-6 4-3-1h2v-2l10-4z" fill="#967D8C"/>
<path transform="translate(808,269)" d="m0 0 10 1 1 3-4 2-5 1-4 5-4-2-3-3 2-4 6 1 3-1-2-1z" fill="#D7E3EA"/>
<path transform="translate(613,491)" d="m0 0 2 2 2 9 6 9 2 4 3 1 3 3 6 4h7l-3 3-5-1-10-7-7-7-8-16z" fill="#FCB3A1"/>
<path transform="translate(798,304)" d="m0 0 4 4 1 5-1 3 6-3 2 1-4 3-6 1-1 4 10-3 6-2-3 3-6 3h-5l3 5-6-3h-7l5-5 2-1-1-2 3-1v-7z" fill="#756277"/>
<path transform="translate(267,328)" d="m0 0 3 3 4-1 2-2h7l-1 7-1 1h-9v8h-1l-1-10-3-4z" fill="#CBE6F1"/>
<path transform="translate(722,325)" d="m0 0 5 5 4 2 3-5 1-2 6 1 1 2-2 6-2 1h-7l-6-4-3-4z" fill="#C9E5F2"/>
<path transform="translate(774,276)" d="m0 0h3l-2 5-6 5-8-1-3-2 10-6z" fill="#D7EEF7"/>
<path transform="translate(601,497)" d="m0 0 3 1-10 9-7 10-7 12h-1v-5l3-5 3-4 4-8 5-3 2-5h5z" fill="#D9F3F7"/>
<path transform="translate(359,290)" d="m0 0 7 2 2 1v2l3 1-1 4-5 1h-3l-3-4v-2l-2-1z" fill="#E1F2F8"/>
<path transform="translate(359,297)" d="m0 0 4 4 1 4 6 2 2 3h-8l2 7 3 6-1 2-5-8-2-4-4-5 2-1 3 4 1-2-3-1 2-2z" fill="#7E6D83"/>
<path transform="translate(338,737)" d="m0 0v3l-3 7-3 1-1 2-6 9-4 1-2 4-4 1 6-8 10-11z" fill="#D9F3F7"/>
<path transform="translate(1032,712)" d="m0 0h2v10l-3 9v4 4l-6 1 2-9 4-12z" fill="#BBDFEF"/>
<path transform="translate(545,611)" d="m0 0 4 4 3 16 3 17v7h-2l-4-25-4-16z" fill="#FAFCFD"/>
<path transform="translate(831,610)" d="m0 0h7l3 4 3 6 2 2 2 6 1 1v9h-2v-9l-3-1-1-7-4-1-3-7-5-1zm15 28m-1 1m-2 1 3 1-2 1-1 2z" fill="#FCFAFA"/>
<path transform="translate(345,299)" d="m0 0 1 2h2l1-2 6 3-2 2-1-1h-6v1l7 1-1 2h-4l4 9 2 9h3l-2 4-2 1-5-18-3-5h-1z" fill="#6B637C"/>
<path transform="translate(833,284)" d="m0 0 2 4-1 8-2 5-2 9-3 3 1-4v-3-3l1-4-11-6 2-1 10 5 1-5h2z" fill="#C48B94"/>
<path transform="translate(568,550)" d="m0 0h2l-2 10-6 24-1 5h-2v-7l5-18 2-5v-6z" fill="#D9F3F7"/>
<path transform="translate(510,554)" d="m0 0 6 2 2 2v3l5 1 2 1v7l2 1-1 4-16-20z" fill="#FCFCFD"/>
<path transform="translate(329,314)" d="m0 0 2 1v7l2 4 2 1 2-3 1 7-5-2 3 6 2 2-6-1-8-4 3-1 4 2-1-8h-2l-1-3h2z" fill="#AB747F"/>
<path transform="translate(807,278)" d="m0 0 1 2-1 4 3 1 4 5-2 2-5-4-2-1 1 13-2 1-1-12 1-3-9 1 1-2 5-1-1-2 5 2-1-3h2z" fill="#AF6F77"/>
<path transform="translate(712,415)" d="m0 0 4 2 1 2h3 2l2-3h5l-1 3-4 4h-2l-1 7-2-2-5-9z" fill="#CEE8F0"/>
<path transform="translate(284,765)" d="m0 0 23 1-1 4h-18l-3-2z" fill="#FB9984"/>
<path transform="translate(326,333)" d="m0 0 9 3 2 1v2l-7 2h-6l-2-2v-3-2z" fill="#D9F0F8"/>
<path transform="translate(787,301)" d="m0 0h3l3 12-1 4-6-4-2-10h3z" fill="#E5F6FB"/>
<path transform="translate(340,296)" d="m0 0 6 2-1 9-1 3-2 1-2-6-4-3 1-4z" fill="#95B7CF"/>
<path transform="translate(527,575)" d="m0 0 2 1v2l4 2 3 5 3 7 6 12v7l-2-3-8-18-6-10z" fill="#FDFDFD"/>
<path transform="translate(727,287)" d="m0 0 5 2-1 5-5 2-6 1-1-5 5-3z" fill="#ADCFE4"/>
<path transform="translate(803,295)" d="m0 0h1l1 14 1 3h-2v4h-2l-1-8-3-4v-5h3z" fill="#D8F0F5"/>
<path transform="translate(640,273)" d="m0 0 1 3-4 4h-2l-1 3h-2v2l-5 5-1 2-5 3-10 10-2-1z" fill="#FBFCFD"/>
<path transform="translate(381,572)" d="m0 0h1v12l13-5 8-1-3 2-19 7h-3l1-8z" fill="#FBFCFD"/>
<path transform="translate(370,297)" d="m0 0h5l8 10-1 2-6-7-8-1 2 6-4-1-3-3 2-3 3-1 2 1z" fill="#D1C9CD"/>
<path transform="translate(409,308)" d="m0 0 6 1-1 6h2v2h-8l-2-3 1-5z" fill="#E6F6FB"/>
<path transform="translate(743,449)" d="m0 0 3 3v7l-2-1v-4h-11l3 3 4 1v2h-6l-1-3-3-1 1-3h2l1-3 5 1z" fill="#FBFCFD"/>
<path transform="translate(813,310)" d="m0 0m-1 1 1 4v3l-9 4h-5l1-4 9-4 3-1z" fill="#D8EDF6"/>
<path transform="translate(333,305)" d="m0 0h5v4h-2l-2 11-3 1v-11z" fill="#E6F4F9"/>
<path transform="translate(412,575)" d="m0 0 3 1-9 4-13 5-8 2-2 2-2-3z" fill="#FD9086"/>
<path transform="translate(335,292)" d="m0 0 9 1-1 2 4 1-1 3-6-2-3 2-1 5h-2l-2-5-1-2h2l1-2z" fill="#96ACBE"/>
<path transform="translate(924,806)" d="m0 0h30l-1 2-8 2-17-1-4-2z" fill="#C3E5F1"/>
<path transform="translate(478,441)" d="m0 0 4 2 8 8h-2l-1 3-6-3-4-7z" fill="#F99287"/>
<path transform="translate(270,286)" d="m0 0h1l1 5 5-3 6 1v5l-4 2-8-1v-1h10l-2-2-4 1h-5z" fill="#96C3E0"/>
<path transform="translate(317,262)" d="m0 0 3 1-4 6 2 4 4 4 1-2 1 4h-7l-3-4v-8z" fill="#E5F5F9"/>
<path transform="translate(420,301)" d="m0 0h1l1 16-3-1-3 1v-2h-2l-1-3h2v-3h-8l1-2h6l6 4z" fill="#B5D0E1"/>
<path transform="translate(385,508)" d="m0 0 4 1-2 24-2 4z" fill="#FD847C"/>
<path transform="translate(327,305)" d="m0 0h4v2h-2l-2 4h-2v2h4v9l-2-3h-2v-2h-2l1-8z" fill="#DFF3F9"/>
<path transform="translate(763,293)" d="m0 0v3 14l3 5 9 7-1 2-9-7-4-5v-2h-2l2-15z" fill="#B78994"/>
<path transform="translate(791,279)" d="m0 0 9 3 2 3-9 2-2 4-3-2 3-4z" fill="#C8E2ED"/>
<path transform="translate(204,770)" d="m0 0h3v2h4v2l-15 7-4 1 2-5h3l6-3 3-3z" fill="#C7E4EF"/>
<path transform="translate(782,674)" d="m0 0 4 1 2 3-10-1v2l-3 2-7 1-1 4-3 2 2-7 5-3z" fill="#CFE9F1"/>
<path transform="translate(320,341)" d="m0 0 5 1 6 2v5l-5 1-2-1v-3l-4-2z" fill="#D0DDE5"/>
<path transform="translate(336,309)" d="m0 0h2l-1 13-1 6-5-3-1-3v-7h1v6l2-1z" fill="#CCC6CF"/>
<path transform="translate(316,291)" d="m0 0h6l8 4 1 2-6-2-7-1 1 9-2 1-1-9-4 2h-3z" fill="#B18F9C"/>
<path transform="translate(785,344)" d="m0 0 5 1 2 4-5-3 1 9-5-1-2-3 1-4z" fill="#B9CDDD"/>
<path transform="translate(368,301)" d="m0 0h8l4 4v2h-2l-1 2v-2h-7l-1-3-2-1z" fill="#E8F7FC"/>
<path transform="translate(324,359)" d="m0 0 3 1 1 2-1 9h3v2l6 2-4 2-1-3-6-2-4 1-2-6 7 2v-6z" fill="#A5B6CC"/>
<path transform="translate(804,590)" d="m0 0 5 5-1 5-4 15-2 9-1-4 1-8 4-17z" fill="#012940"/>
<path transform="translate(443,564)" d="m0 0h3v2l-17 6-5 1-1 2-3-3z" fill="#FD8D82"/>
<path transform="translate(697,449)" d="m0 0 4 2 7 4 8 1 3-1-1 3h-3l-1 6-2-4-11-6-4-3z" fill="#F5A79A"/>
<path transform="translate(860,333)" d="m0 0 7 4 4 1-6 3h-2l-2 4-4 2 2-6-4-1 7-1z" fill="#A3B9CF"/>
<path transform="translate(782,317)" d="m0 0 12 4-1 3-3 1-8-1z" fill="#E1EEF5"/>
<path transform="translate(1e3 703)" d="m0 0h2l-2 6-7 13-1-4v-6h2v-2l4-4v-2z" fill="#C4E5F1"/>
<path transform="translate(802,625)" d="m0 0 9 12 5 8-1 4-3-4-2-5-8-10-1-4z" fill="#FCB3A1"/>
<path transform="translate(355,518)" d="m0 0 1 3-3 4-3 9h-2l-1 5-2 4h-2l3-9 7-14z" fill="#FD8B82"/>
<path transform="translate(450,480)" d="m0 0h16l4 4 1 7 5 5 1 4-9-9v-6l-3-3h-14z" fill="#012941"/>
<path transform="translate(384,311)" d="m0 0 2 4 6 1-3 1-2-1v10l-2 1-3-7-4-4 1-2 5 4 1-3-4-2h3z" fill="#807E98"/>
<path transform="translate(244,731)" d="m0 0v3l-7 11-4 6-1-3 2-8 4-2z" fill="#D9F3F7"/>
<path transform="translate(434,688)" d="m0 0 3 1v13l-2-3-4-5-2-2z" fill="#599FD2"/>
<path transform="translate(346,330)" d="m0 0 6 2 1-2-1 6-5 3-3-3-1 2-1-5h4z" fill="#A7B7C8"/>
<path transform="translate(824,278)" d="m0 0 1 2 6 1 2 6v5l-3 1-4-10-2-2z" fill="#E0F3FA"/>
<path transform="translate(260,703)" d="m0 0 2 1-3 1-1 5-5 3-1 5h-3l1-5 3-5h2l2-4z" fill="#FDFDFD"/>
<path transform="translate(536,457)" d="m0 0h2l2 6 2 1-2 8-5 2 1-5z" fill="#C3E1EE"/>
<path transform="translate(746,452)" d="m0 0h1v6h18v-2h2l-1 4-20 1z" fill="#FCB3A1"/>
<path transform="translate(340,334)" d="m0 0h2l1 3 4-1 1 2 2-1v2h5v1l-8 1 1 2h-3l-1-2-7-3z" fill="#685264"/>
<path transform="translate(791,325)" d="m0 0h5l-5 7-2 1 2 4-5-5-1-4h2v-2z" fill="#BDCAD7"/>
<path transform="translate(838,642)" d="m0 0h2v2l-16 8-7 1-2-4h9l9-4z" fill="#F99F91"/>
<path transform="translate(732,417)" d="m0 0m-4 1h4v2l-5 5-5 6h-1l1-8z" fill="#F8FBFD"/>
<path transform="translate(806,602)" d="m0 0h2l-1 7-3 16-3 1 4-20z" fill="#F99C8E"/>
<path transform="translate(372,306)" d="m0 0 9 1 3 4v2l-9-2-5-3z" fill="#D9F0F8"/>
<path transform="translate(531,305)" d="m0 0 7 6 9 9h-3l-2-1-4 1-1-7-3-3-3-1-1-3z" fill="#FDFDFD"/>
<path transform="translate(375,724)" d="m0 0 4 5 4 6-1 2-5-4v-4l-9 1 1-2 5-1z" fill="#DCF4F8"/>
<path transform="translate(622,480)" d="m0 0 3 1-5 5-7 6h-2l1-4 4-3h2l2-4z" fill="#FDFDFD"/>
<path transform="translate(352,341)" d="m0 0h13v4l-3 1h-7v-3z" fill="#E4F6FB"/>
<path transform="translate(380,571)" d="m0 0h1l-1 8-2 8h4l-1 3h-4l-1-2v-7l3-7z" fill="#FD8980"/>
<path transform="translate(515,289)" d="m0 0 7 6 9 9h-3l-5-3-1-4-5-2v-2l-3-1z" fill="#FDFDFD"/>
<path transform="translate(922,773)" d="m0 0 9 2v3l4 2 3 2-1 2-16-9z" fill="#C5E2EE"/>
<path transform="translate(354,299)" d="m0 0 2 1v2h3v2l4 2-2 2 2 1-1 3-3-3v-2h-4l-1-5z" fill="#B7C0CD"/>
<path transform="translate(301,263)" d="m0 0h4l1 2h3v2l4-1v3h-2l-1 3v-2h-6l-1-4-2-1z" fill="#CEEBF3"/>
<path transform="translate(761,247)" d="m0 0 2 1-2 2 9 2 2 4v6l-2 2-1-9-3-2h-9l2-4z" fill="#B1A6B2"/>
<path transform="translate(988,728)" d="m0 0 4 1-10 6-4 1v-2h-2l-1-4 10 1z" fill="#FDFDFD"/>
<path transform="translate(841,642)" d="m0 0h2l-1 3-18 9h-6l1-2 10-3 11-6z" fill="#012940"/>
<path transform="translate(505,434)" d="m0 0h8l7 3-2 3-15-4z" fill="#C8E8F2"/>
<path transform="translate(349,344)" d="m0 0 13 1 3 1-7 2-6-1-1 3 4 2h-5l-3-4v-2h2z" fill="#BB929C"/>
<path transform="translate(267,328)" d="m0 0 3 3 4-1 2-2h5l-5 4-3 1v2l3 1h-4v8h-1l-1-10-3-4z" fill="#83A8CA"/>
<path transform="translate(302,309)" d="m0 0 2 1v13l1 5h2l1 4-7-4v-17z" fill="#A28791"/>
<path transform="translate(787,297)" d="m0 0h3v4h-3v2h-3l2 10-3-3v-10z" fill="#CCB6BE"/>
<path transform="translate(776,278)" d="m0 0 3 2-4 3-1 11-2 2-1-10-5 4v-4l7-4z" fill="#A77280"/>
<path transform="translate(328,612)" d="m0 0h2l3 9 5 4 2 2-7-1-2-4-3-2z" fill="#FCFCFC"/>
<path transform="translate(295,304)" d="m0 0 2 2v3l1-3 3-1-1 4h2v10l-2 1-1-4 1-2-2-1v-2l-3-3-1-3z" fill="#B4D9ED"/>
<path transform="translate(332,560)" d="m0 0 2 1-3 18h-2v-10z" fill="#D9F3F7"/>
<path transform="translate(428,512)" d="m0 0 6 1 3 2-2 5h-3l-4-6z" fill="#FE7B76"/>
<path transform="translate(657,510)" d="m0 0m-1 1 1 3-9 8-3 4-4 1v-2l8-7z" fill="#FCFBFA"/>
<path transform="translate(353,353)" d="m0 0h2l2 2 4 2-1 2h-8l-3-4z" fill="#E3F3F8"/>
<path transform="translate(783,298)" d="m0 0 1 2v10l2 5-5-3-1-1v-7z" fill="#DAF1F8"/>
<path transform="translate(359,297)" d="m0 0 4 4 1 4 6 2 2 3h-7l-4-6z" fill="#A97682"/>
<path transform="translate(397,365)" d="m0 0h2v7l11-2-2 3-9 1-2 3h-5l4-2v-2l-2-1h4z" fill="#7DA3C8"/>
<path transform="translate(322,317)" d="m0 0h3v2l3-1v6l-3 1-4-1z" fill="#CAD6E1"/>
<path transform="translate(733,263)" d="m0 0 2 1-1 3-4 1-6 7v-3-3l1-3z" fill="#AACEE5"/>
<path transform="translate(344,318)" d="m0 0 2 2 2 4 3 1-1 3-1 1-3-1v2h-2l-1-8z" fill="#C6D3DE"/>
<path transform="translate(795,312)" d="m0 0 5 5-4 4-6-2-4-4 9 3-1-4z" fill="#CAE7F3"/>
<path transform="translate(861,808)" d="m0 0 18 1v2l-4-1-1 2h-4v-2l-10 3z" fill="#D3EFF5"/>
<path transform="translate(330,613)" d="m0 0 1 3h2v2l2 1 2 4 12 2v1h-8l-6-2-4-5z" fill="#FD8C82"/>
<path transform="translate(545,611)" d="m0 0 4 4 2 11v5l-2-1-4-16z" fill="#FDFDFD"/>
<path transform="translate(328,303)" d="m0 0h4l1 4-2 7-6-1v-2l4-4h2v-2l-3-1z" fill="#B3BCCE"/>
<path transform="translate(461,483)" d="m0 0 4 1-2 3-1 6h-2l-2 2-1-3 1-2h3v-2l-4-1z" fill="#FD9983"/>
<path transform="translate(787,346)" d="m0 0 4 2 1 1v6l-6-1 2-1v-2l-2-1z" fill="#E3F6FA"/>
<path transform="translate(608,305)" d="m0 0 1 2-1 2h-2l-1 3-5 4-4 5-3-1z" fill="#FCFCFD"/>
<path transform="translate(572,537)" d="m0 0h3l-3 10-2 3-1-9z" fill="#D9F3F7"/>
<path transform="translate(414,472)" d="m0 0 11 2-2 3-5 1-4-3z" fill="#012F4A"/>
<path transform="translate(337,338)" d="m0 0 4 2-1 2-4 1v-2l-2 1v2h-6l2-4z" fill="#889ABA"/>
<path transform="translate(722,325)" d="m0 0 5 5 4 2 3-5 2 1-3 6h5v1h-7l-6-4-3-4z" fill="#ABA1B2"/>
<path transform="translate(349,313)" d="m0 0h2l3 12h3l-2 4-2 1-4-15z" fill="#AD8A9A"/>
<path transform="translate(321,283)" d="m0 0 10 4 4 5-12-3 2-2-5-2z" fill="#9D717B"/>
<path transform="translate(865,763)" d="m0 0h6l-1 3 6 3v2l-9-3-2-1z" fill="#FAA193"/>
<path transform="translate(1014,664)" d="m0 0h1v12l-1 9-2-2-1-8 2-2z" fill="#A5D1E9"/>
<path transform="translate(657,447)" d="m0 0 3 1-4 4-3 12-3 3 3-14z" fill="#01273E"/>
<path transform="translate(346,340)" d="m0 0h5l5 3v2l-7-1v2h-2v-2l-2-1 2-1z" fill="#C7DEEA"/>
<path transform="translate(326,333)" d="m0 0 4 2-3 4 3 2h-6l-2-2v-3-2z" fill="#D5EEF6"/>
<path transform="translate(776,323)" d="m0 0 14 1 1 2h-4v2l-6 1 2-1v-3l-7-1z" fill="#787792"/>
<path transform="translate(813,292)" d="m0 0 3 3v3h2l3 10h-2l-2-4-2 2-1-10z" fill="#866E82"/>
<path transform="translate(807,278)" d="m0 0 1 2-1 4 3 1 4 5-2 2-5-4-3-7h2z" fill="#385C79"/>
<path transform="translate(855,276)" d="m0 0 5 5 5 1h3l-5 3-6-1-2-3z" fill="#9DC4DD"/>
<path transform="translate(270,687)" d="m0 0h2l-2 5-7 11-1-2 4-8z" fill="#D9F3F7"/>
<path transform="translate(516,552)" d="m0 0h6l2 2v3h-6l-3-2z" fill="#D9F3F7"/>
<path transform="translate(505,483)" d="m0 0 1 3-4 13-2-3 2-9z" fill="#C3E5F1"/>
<path transform="translate(551,627)" d="m0 0 3 1 1 4v8l-2 4z" fill="#EAF8FD"/>
<path transform="translate(788,579)" d="m0 0 12 1 2 1-1 5-13-6z" fill="#C6E2ED"/>
<path transform="translate(814,307)" d="m0 0 3 3 1 6-4 1-2-3v-5z" fill="#C7CDD6"/>
<path transform="translate(786,308)" d="m0 0 6 2 1 7-7-4z" fill="#CFECF4"/>
<path transform="translate(831,297)" d="m0 0 1 4-2 9-3 3 1-4v-3-3l1-5z" fill="#7F6D81"/>
<path transform="translate(228,775)" d="m0 0 10 2 10 1v1h-16l-4-2z" fill="#01283F"/>
<path transform="translate(992,728)" d="m0 0 3 3 4 9v2l-3-1-2-6-2-3-3-2z" fill="#F99E90"/>
<path transform="translate(768,571)" d="m0 0 1 4 1 3-10 1 5-5z" fill="#D0E3EB"/>
<path transform="translate(500,499)" d="m0 0 1 3-2 16h-1l-1-11v-5h2z" fill="#D5F0F5"/>
<path transform="translate(693,459)" d="m0 0 8 1 5 4 1 3-4-2-7-3-3-1z" fill="#01283F"/>
<path transform="translate(672,454)" d="m0 0 4 6h3l-5 8h-1z" fill="#012941"/>
<path transform="translate(650,403)" d="m0 0 4 2-12 9v-3z" fill="#CAD2DC"/>
<path transform="translate(333,329)" d="m0 0 6 2 1 5-2 1-5-5z" fill="#B3D2E1"/>
<path transform="translate(797,286)" d="m0 0h7l-1 4-4-2-1 1-2 3-3 2 1-6z" fill="#D7F1F6"/>
<path transform="translate(828,275)" d="m0 0 4 4 2 5-1 3-3-1h2l-1-4h-3l-1-2h-2v-2l3-1z" fill="#BBBBC6"/>
<path transform="translate(184,806)" d="m0 0h26l-4 2-17 1v-2h-5z" fill="#A7D2EA"/>
<path transform="translate(905,802)" d="m0 0 14 3v1h-14l-2-3z" fill="#C1E3F0"/>
<path transform="translate(527,546)" d="m0 0 4 2 2 4v10l-2-2v-9l-4-2z" fill="#CBE9F3"/>
<path transform="translate(642,526)" d="m0 0 4 1 10 5 1 3-6-2-9-6z" fill="#D9F3F7"/>
<path transform="translate(348,326)" d="m0 0h2v2h3l-1 4-3 1-3-3v-2l2-1zm-4 4 3 1-1 3z" fill="#DCEAF0"/>
<path transform="translate(803,298)" d="m0 0h1l1 11 1 3h-2v4h-2v-9l1-2z" fill="#E5F6FB"/>
<path transform="translate(348,290)" d="m0 0h2v2l6 1 3 2-1 2-6-2-4-1-4-2h4z" fill="#AA91A0"/>
<path transform="translate(771,285)" d="m0 0h1v9l-4-2-2 2-2-1 1-3z" fill="#CDE3EA"/>
<path transform="translate(399,578)" d="m0 0 4 1-16 6-2-1 6-4z" fill="#FDFDFD"/>
<path transform="translate(539,556)" d="m0 0 3 3-2 5-4 1-2-2z" fill="#C2E4F1"/>
<path transform="translate(342,544)" d="m0 0h1l-1 9-3 6-2 1 3-11z" fill="#FD9388"/>
<path transform="translate(410,471)" d="m0 0 3 1-1 2h-3l-2 5-5 1 6-8z" fill="#FDFDFD"/>
<path transform="translate(319,358)" d="m0 0h5l-3 5-2 2-1 2-2-3 1-4z" fill="#ACC8DD"/>
<path transform="translate(418,353)" d="m0 0h2v3h2l1-2 1 3h-2l-2 5-1 2-2-1 1-5-2-1v-2l2-1z" fill="#BAD2E1"/>
<path transform="translate(732,340)" d="m0 0 3 4 2 5-3-1-2 4-1-11z" fill="#8AB6D7"/>
<path transform="translate(387,330)" d="m0 0h1v8l-4 7-4 2 1-3 3-3 2-10z" fill="#BC818B"/>
<path transform="translate(338,297)" d="m0 0h2l2 3v4l-5-1-1-4z" fill="#D2EDF5"/>
<path transform="translate(344,293)" d="m0 0 5 1 1 4-1 2-3 1-1-4-3-3z" fill="#C4D5E4"/>
<path transform="translate(335,292)" d="m0 0 9 1-1 2 4 1-1 3-6-2h-2z" fill="#425F7C"/>
<path transform="translate(783,273)" d="m0 0h10l4 2-1 4-4-1v-3l-9-1z" fill="#B59BA8"/>
<path transform="translate(826,247)" d="m0 0 2 1-1 7-2 1-2-4-2-1v-2zm-1 6m-2 3 2 1z" fill="#CCE2ED"/>
<path transform="translate(1028,732)" d="m0 0 3 4v3l-6 1 2-7z" fill="#BFE2F0"/>
<path transform="translate(824,587)" d="m0 0h4l-1 6-4 1v-6z" fill="#D9F3F7"/>
<path transform="translate(324,331)" d="m0 0 5 1 2 1 1-2 6 5-3 1-11-5z" fill="#C98C92"/>
<path transform="translate(378,330)" d="m0 0h5l-2 4-4 3h-2v-3h2z" fill="#A8B2BF"/>
<path transform="translate(340,316)" d="m0 0 2 2-1 4v3h-2l-1 2-2-4 3-6z" fill="#DCF2F8"/>
<path transform="translate(798,304)" d="m0 0 4 4 1 5-1 3 6-3 2 1-4 3-5 1-1-2v-7z" fill="#B96E73"/>
<path transform="translate(283,270)" d="m0 0 2 1-3 1-2 4-3 4h-3l2-7h3z" fill="#B8C8D7"/>
<path transform="translate(812,265)" d="m0 0 6 1v3h-9v-3z" fill="#D5EDF7"/>
<path transform="translate(335,563)" d="m0 0 1 3-3 10-2 1 1-9z" fill="#FBFCFD"/>
<path transform="translate(493,531)" d="m0 0 7 1 1 3-2 2-4-1-2-1z" fill="#D9F3F7"/>
<path transform="translate(385,508)" d="m0 0 4 1-1 14h-1l-2-14z" fill="#FD8F85"/>
<path transform="translate(363,316)" d="m0 0 3 4-3 2-3-2-1 4-2 1 2-6 1-2z" fill="#C8B6BA"/>
<path transform="translate(823,280)" d="m0 0 5 5 2 5-1 3v-2l-4-1v-6z" fill="#A39EAF"/>
<path transform="translate(222,802)" d="m0 0 3 1-2 3-10 1v-2z" fill="#BBDAEA"/>
<path transform="translate(1e3 774)" d="m0 0 13 2v2l-8 1z" fill="#BADFEF"/>
<path transform="translate(789,701)" d="m0 0 10 3 1 2-8-1-5-1z" fill="#BBDAE9"/>
<path transform="translate(869,677)" d="m0 0h2l1 7-2 2-4-7z" fill="#C7E7F2"/>
<path transform="translate(507,461)" d="m0 0 2 2 1 9-2 4-1-6z" fill="#B5DBED"/>
<path transform="translate(666,449)" d="m0 0 4 2 3 7v4h-2v-6l-2-1-3-4z" fill="#F29A8F"/>
<path transform="translate(686,400)" d="m0 0h8l1 2 6 2-1 3-10-5z" fill="#BCD0DF"/>
<path transform="translate(824,359)" d="m0 0h3l-1 5-7-1-2-2h7z" fill="#D9F3F7"/>
<path transform="translate(351,346)" d="m0 0 7 1v5l-5-1-2-1z" fill="#DCEFF5"/>
<path transform="translate(329,326)" d="m0 0 3 4-1 3-6-2-1-2z" fill="#E3F6FA"/>
<path transform="translate(828,305)" d="m0 0 2 1-2 4-1 5-4 2 2-3v-7z" fill="#A7BCCA"/>
<path transform="translate(327,305)" d="m0 0h4v2h-2l-2 4h-2l-1 3-1-2 3-6z" fill="#E0F5F9"/>
<path transform="translate(303,288)" d="m0 0 3 1-2 9-2-2v-4l-3 2 2-5z" fill="#AD8390"/>
<path transform="translate(868,281)" d="m0 0 4 2 1 3-5 2-2-5zm5 2 2 1z" fill="#E2F5FA"/>
<path transform="translate(814,270)" d="m0 0h4l1 3-4 2-5-1z" fill="#DDF4F8"/>
<path transform="translate(998,755)" d="m0 0h1l-1 8-3 7h-1v-6h2l1-8z" fill="#F39A90"/>
<path transform="translate(728,454)" d="m0 0h2l2 3v4l-5-1v-5z" fill="#D9F3F7"/>
<path transform="translate(640,414)" d="m0 0 2 1-4 8-1 5h-1v-10z" fill="#BDE0EF"/>
<path transform="translate(768,243)" d="m0 0h2v2l-4 3-2 1 2 2h-6l4-6z" fill="#BEDCEC"/>
<path transform="translate(899,758)" d="m0 0 4 1v2l-13 1-2-2z" fill="#F79387"/>
<path transform="translate(556,678)" d="m0 0 2 2v9l-3-1v-8z" fill="#EAF8FD"/>
<path transform="translate(420,301)" d="m0 0h1l1 16-5-5v-3l3 2z" fill="#749BC1"/>
<path transform="translate(681,218)" d="m0 0h1v7l-3 3-1-4 2-5z" fill="#D9F3F7"/>
</svg>
