<?xml version="1.0" encoding="UTF-8"?>
<svg version="1.1" viewBox="0 0 2048 1555" width="258" height="196" xmlns="http://www.w3.org/2000/svg">
<path transform="translate(0)" d="m0 0h2048v1555h-2048z" fill="#F9FBFD"/>
<path transform="translate(1163,601)" d="m0 0h3v13l-5 26-8 31-3 15-6 25-4 16-3 8-1 1-9-1-3-1-2 5v10l5 5 6 7-2 11-3 11-2 6 1 4 18 6 18 8 26 12 24 13 23 14 8 5 7 4-1-13-4-10-3-4-13-1-3-5-1-14-8-18-9-10-8-8-3-6v-17h12l8 2 20 9 22 11 5 3 9 8 20 11 10 4 1-4v-12l-1-13v-13l-18-2-15-3-4-3 1-7 3-7 3-3 17-5 9-1 16 6 6 4 9 11 5 9 7 17 2 4 25 4 20 2h12l20 2 18 5 6 4 9 10 5 9 1 4v11l-3 9-6 7-5 4-6 3-6 1h-11l-12-5-5 1-7 6-5 5-12 11-13 9-10 6-13 7h-6l9 22 4 10 12 20 3 7v3l3-1 5-6 20-14 10-8 19-13 17-13 19-14 13-10 16-11 17-13 17-12 12-9 14-10 18-13 17-12 38-28 9-6 5-1 7 10 14 22 9 15 15 27 25 50 14 34 13 36 10 33 7 24 6 27 5 24 7 49 3 27 2 35 1 34-1 1-43 1h-262l-16-2-1-1-5-51-8-46-5-20-6-20-6-17-6-13-7-16-13-26-10-18-7-12-6-9 2 6 5 10 4 24 2 16 15 37 6 15 9 27 8 32 5 27 5 41 4 11 11 13 7 7 7 8 18 20 9 11 9 10 3 5 2 6 4 11 2 10v7l-1 1h-77l2-9 16-4 16-3h3l-2-4-6-3v-2l-5-2-9-5v-2h-3v-2l-4-1-12-9-3-2v-2l-4-2-14-12-11-8-14-12-11-9-10-8-5-5-5-6-5-5-1-3h-2l-13-17-9-10-11-14-9-11-4-5-2 59-1 45-1 1h-7v2l4 2 1 19 3 22v9l-5 1h-61v5l-1 1-41 2h-33l-2-1 1-8 3-2 21-6 5-2 13-3v-2l-2-1v-4h10l11-1 7-2 6 8h8l21-5 3-2 1-3-1-22 5-4-7-2-2-2-1-21-1-41v-40l-16 5-35 12h-2l8 30 7 27 10 35 1 6-5 3-23 6-9 3h-4l-5-11-6-18-5-12-9-26-10-26-10-28-6-17v-7l9-7 17-10 23-9 16-5h10l30-3h15l19 3 41 9h9l3-11-1-18-1-6 4 2-2-13-4-13-3-10-6-9-4-2v-2h-2l-20-35-9-17v-2h-2l-13-21-5-11-3-9-9-10-6-5v-2l-5-2v-2l-6-2-10-7-7-4-10-7-11-6-4-3-9-3 3 10-1 5h-2l-1-6-4-2h-4l-1 2v7l3 5h5v16l2 8-3 3-10 4-5 1h-9l-6-3-4-8v-5l19-1 4-2v-15l-4-7-1-8-8-1-5-1-6 5-6 1-8-3v-8l1-5-2-3v-3l5 1 2 2 5-1 1-3h3l-1-5-13-3-12-6v2h2l-1 5-1 4h2l1-3h3l1 10-4 10 2 7v7l-7 24-7 25-5 12-3 2h-3l-2-3 1-11 4-13 3-8 1-9 2-17h3l3-14 1-6-2-1-6 24-4 15-10 42-3 13-21 3-21 5-3 2v7l5 3 13 1 21 1-1 6-11 43-4 13-14 54-8 25-6 12-10 13-12 9-12 5-7 2-8 1h-13l-15-3-14-6-10-8-9-10-7-12-5-15-1-14 2-14 5-15 16-33 52-104 9-17 10-21 8-16 8-15 16-32 1-3-18-1h-48l-36 3-30 5-18 5-12 6-16-1-10 3-2 1-2 13-6 3-2-15-5 2-2 5-1 6-4 4-2 3-2-3-7 1-20 10-20 12-18 13-13 10-10 9-8 7-11 11-8 7-7 7-7 8-11 13-10 14-8 11-9 14-12 21-13 27-10 25-9 29-7 30-5 32-4 34-2 1h-41l-1-1v-14l3-27 6-37 7-31 5-17 9-25 10-23 8-17 10-18 12-20 10-15 14-18 14-17 12-13 26-26 11-9 13-11 14-10 17-12 25-15 27-14 17-8 16-6 18-6 10-4 30-8 27-5 22-3 28-2h30l35 2 18 2h6l8-16 9-17 8-16 13-24 8-16 13-24 6-11 13-24 11-20 5-6z" fill="#252F3E"/>
<path transform="translate(1636,758)" d="m0 0 4 2 10 16 14 22 20 36 24 48 14 34 13 36 10 33 7 24 6 27 5 24 7 49 3 27 2 35 1 34-1 1-43 1h-262l-16-2-1-1-5-51-8-46-5-20-6-20-6-17-6-13-7-16-13-26-10-18-7-12-6-9-4-4 5-5 13-10 10-7 12-9 17-12 16-12 19-14 13-10 16-11 17-13 17-12 12-9 14-10 18-13 17-12 38-28 9-6z" fill="#F93E52"/>
<path transform="translate(353,754)" d="m0 0 4 2 14 11 19 14 17 12 18 13 19 14 36 26 17 12 19 14 18 13 20 15 19 14 18 13 19 13 7 5-2 4-13 20-9 15-13 23-9 20-11 29-8 24-7 27-6 28-7 50-2 17-2 4h-288l-27-1v-32l2-37 3-31 7-46 8-39 9-34 13-42 12-32 14-32 14-29 15-29 12-21 12-19 15-22z" fill="#6EC774"/>
<path transform="translate(972,420)" d="m0 0h58l35 2 13 2 19 2 19 3 15 3 2 1 17 2 17 4 20 4 32 9 34 10-1 6-5 11-12 36-3 10-5 12-6 16-5 15-3 7-4 12-4 10-3 10-4 10-6 17-6 16-7 24-2 7-4 1-8-6-10-5-2-4 9-36 3-17 1-13-9 3-2 4-6 9-12 23-8 14-6 11-9 17-20 38-12 22-8 16-3 5-10-3-42-4-13-1h-53l-29 4-31 6-18 5-10 1-4-11-4-13-6-20-5-16-4-11-14-41-5-17-13-38-5-17-11-32-5-17-5-16-6-18-6-21-7-18-2-6v-5l21-6 10-2 13-4 20-4 16-4 38-7 35-4 28-2z" fill="#FEC46A"/>
<path transform="translate(740,463)" d="m0 0h4l7 25 14 43 12 39 33 99 14 45 15 49 4 12-1 4-21 8-24 11-28 14-23 13-24 16-13 10-14 11-14 12-27 27-7 8-12 14-3 5-4-2-10-8-15-10-34-24-13-10-17-12-16-12-17-12-19-14-18-13-17-12-18-13-17-12-11-8-14-10-19-14-7-6 3-5 20-26 9-10 9-11 24-26 12-11 17-17 8-7 7-7 11-9 14-12 14-11 18-14 22-15 22-14 27-16 25-14 27-14 23-11 30-12 28-10z" fill="#A7C36B"/>
<path transform="translate(1271,471)" d="m0 0h3v2l10 3 25 11 7 3 9 3v2l6 2 27 13 22 12 15 9 10 5v2l5 2 17 11 2 1v2l5 2 14 9v2l4 2 8 5v2l5 2 17 14 14 12 8 6v2l4 2 11 9 13 12 10 9 7 8 7 6 5 6v2l4 2 10 12 5 5 2 4 3 1 4 6 12 14 12 15 5 7 5 5v3l-15 10-5 2v2l-5 3-3 3h-2v2l-11 7-14 10-3 3-12 8-3 1v2l-5 2-3 3-22 15-9 7h-2v2l-4 1v2l-4 1v2l-4 1v2l-11 7-6 4-4 4-5 4h-2v2l-4 1v2l-4 1v2h-3v2l-6 4h-2v2l-15 10h-2v2l-5 3h-2v2l-6 4-3 1v2l-4 1v2l-4 1v2l-7 4-4 2v2h-3v2l-4 1v2l-7 4-19 12-6 1-1 4-7-12-6-16-4-10v-2l8-2 18-10 17-12 12-11 8-7 4-4 6 1 10 4h11l14-4 1-3 5-5 3-4 2-7v-11l-3-8-8-11-7-6-16-5-11-2-16-1h-9l-35-4-10-2-3-5-8-20-12-16-6-4-16-6-9 1-17 5-4 5-2 6v5l7 3 17 3 10 1 2 1 2 26v12l-1 5-15-6-17-10-10-9-23-11-17-8-5-2-4-9-6-7-8-10-9-11-4-3 1-5 5-12 3-12 1-2h2l1-8h2l1-8h2l1-8h2l1-6 16-45 18-49 13-35 7-22 3-9 2-7z" fill="#FDA564"/>
<path transform="translate(1296,724)" d="m0 0 6 1 14 5 6 4 9 11 5 9 7 17 2 4 25 4 20 2h12l20 2 18 5 6 4 9 10 5 9 1 4v11l-3 9-6 7-5 4-6 3-6 1h-11l-12-5-5 1-7 6-5 5-12 11-13 9-10 6-13 7h-6l9 22 4 10 12 20 4 10 3 3 4 9 4 8 4 24 2 16 15 37 6 15 9 27 8 32 5 27 5 41 4 11 11 13 7 7 7 8 18 20 9 11 9 10 3 5 2 6 4 11 2 10v7l-1 1h-77l2-9 16-4 16-3h3l-2-4-6-3v-2l-5-2-9-5v-2h-3v-2l-4-1-12-9-3-2v-2l-4-2-14-12-11-8-14-12-11-9-10-8-5-5-5-6-5-5-1-3h-2l-13-17-9-10-11-14-9-11-4-5-2 59-1 45-1 1h-7v2l4 2 1 19 3 22v9l-5 1h-61v5l-1 1-41 2h-33l-2-1 1-8 3-2 21-6 5-2 13-3v-2l-2-1v-4h10l11-1 7-2 6 8h8l21-5 3-2 1-3-1-22 5-4-7-2-2-2-1-21-1-41v-40l-16 5-35 12h-2l8 30 7 27 10 35 1 6-5 3-23 6-9 3h-4l-5-11-6-18-5-12-9-26-10-26-10-28-6-17v-7l9-7 17-10 23-9 16-5h10l30-3h15l19 3 41 9h9l3-11-1-18-1-6 4 2-2-13-4-13-3-10-6-9-4-2v-2h-2l-20-35-9-17v-2h-2l-13-21-5-11-3-9-1-2h2l-1-5-1-18-2-20-2-19v-13l-4-10-3-4-13-1-3-5-1-14-8-18-9-10-8-8-3-6v-17h12l8 2 20 9 22 11 5 3 9 8 20 11 10 4 1-4v-12l-1-13v-13l-18-2-15-3-4-3 1-7 3-7 3-3 17-5z" fill="#426085"/>
<path transform="translate(816,881)" d="m0 0h20l24 3 36 6-1 8v9l5 10v7l-3 1-14 1-5 5-1 7 3 13-20 1-3 6-9 37-6 23-6 20 1 4 11 14 10 11 9 11 11 12 7 8 9 10 3 5 8 32 13 62 6 29v6l-14 4-15 3h-5l-3-5-9-27-5-18-10-30-7-16-6-9-15-15-8-7-8-8-8-7-14-13-5-4-4 1-9 11-14 18-14 17-9 12-18 22-12 14-35 35-9 10-31 31-3 2-12-4-8-3-8-4 2-5 9-17 11-18 5-9 10-17 12-19 8-11 13-18 15-24 9-14 13-21 12-20 8-16 10-24 24-58 17-41 8-18 6-12 8-7z" fill="#1F3C57"/>
<path transform="translate(1115,837)" d="m0 0 6 2 8 4 11 2 2 4-1 2-3 1-1 2-6 2-3-3-3-1 3 6-1 11-1 2 6 1 4 1 7-3 4-3 12 3 3 11 3 4v15l-5 3h-19l3 10 2 3 5 2h9l13-4 4-1-2-10v-15l-5-1-3-5v-7l2-3 5 1 3 2 1 6h2l-1-10-2-6 10 3 11 7 9 6 5 3 11 7 12 7v2l5 2 14 14 4 8 4 11 8 14 6 9v2h2l13 25 10 17 6 10v2h2v2l5 2 7 11 5 18 2 6 1 10h-3-1l2 16-1 10-3 8h-9l-51-11-9-1h-15l-30 3h-6l-2-1-1-16-3-9-4-14-4-9-6-12v-4h-2l-8-15-8-14-3-4-7 4-4 5-5 5-5 6-3 5-11 12-9 6h-6l-12-6h-8l-1 10-3 7-4 2-5-1-2-1-4-12 2-6 3-2h8l6 1 2-5 1-6v-6l4-11 6-12 1-4-11-2-15-2-27-1-9-2-4-3v-7l4-3 26-6 16-1 1-8 14-60 5-18 3-9 3 3-3 15-2 4h-3l-1 22-3 11-3 6-3 14v5l1 3 5-2 7-18 8-30 4-13v-7l-2-8 4-9-1-8 1-2-3 1-1 2h-2l-1-3 2-2 1-4h-2z" fill="#FEC46A"/>
<path transform="translate(1296,724)" d="m0 0 6 1 14 5 6 4 9 11 5 9 7 17 2 4 25 4 20 2h12l20 2 18 5 6 4 9 10 5 9 1 4v11l-3 9-6 7-5 4-6 3-6 1h-11l-12-5-5 1-7 6-5 5-12 11-13 9-10 6-13 7h-6l9 22 4 10 12 20 3 8-7 4-53 5-31 2-4-4-12-20-4-9-3-9-1-2h2l-1-5-1-18-2-20-2-19v-13l-4-10-3-4-13-1-3-5-1-14-8-18-9-10-8-8-3-6v-17h12l8 2 20 9 22 11 5 3 9 8 20 11 10 4 1-4v-12l-1-13v-13l-18-2-15-3-4-3 1-7 3-7 3-3 17-5z" fill="#6FC774"/>
<path transform="translate(816,881)" d="m0 0h20l24 3 36 6-1 8v9l5 10v7l-3 1-14 1-5 5-1 7 3 13-20 1-3 6-9 37-6 23-6 20 1 4 5 6-1 2-6-5-9 6-21 4-22 3h-45l-11-2 10-23 18-43 12-29 17-41 8-18 6-12 8-7z" fill="#6FC774"/>
<path transform="translate(1367,950)" d="m0 0h2l4 5 4 9 4 8 4 24 2 16 15 37 6 15 9 27 8 32 2 10 3 26 1 9v14l-5 1-9-7-6-6v-2h-2v-2h-2l-9-13-12-13-13-17-12-17-20-26-7-10-2-3-3-1v-13h-2l-5-16-3-10-6-9-4-2v-2h-2l-20-35-9-17 1-2 41-3 42-4z" fill="#1E3B56"/>
<path transform="translate(1296,724)" d="m0 0 6 1 14 5 6 4 9 11 5 9 7 17 2 4 25 4 20 2h12l20 2 18 5 6 4 9 10 5 9 1 4v11l-3 9-6 7-5 4-6 3-6 1h-11l-12-5-5 1-7 6-5 5-12 11-13 9-10 6-13 7h-6l-1 3-1-1-3-14-8-26-7-27-3-12-12-12-5-3-1-2 4 1 1-4v-12l-1-13v-13l-18-2-15-3-4-3 1-7 3-7 3-3 17-5z" fill="#38393E"/>
<path transform="translate(1249,949)" d="m0 0 5 1 7 12 7 8 3 5 5 7 5 9 8 13 11 16 7 12 5 6 4 9 3 17 1 8-2 12-7 8-7 1-5 1-36-8-9-1h-15l-30 3h-6l-2-1-1-16-3-9-4-14-4-9-6-12v-4h-2l-7-13 2-4 7-1 19-10 11-8 7-6 5-5 10-11 7-9 5-6z" fill="#FEC36A"/>
<path transform="translate(353,754)" d="m0 0 4 2 14 11 19 14 17 12 18 13 19 14 36 26 17 12 19 14 18 13 20 15 19 14 18 13 19 13 7 5-2 4-13 20-9 15-13 23-9 20-11 29-8 24-7 27-6 28-7 50-2 17-2 4h-288l-27-1v-32l2-37 1-14h3l2 10 1 14 1 8 2 14v8l2 10 3 5-1 8 13 2 5 1h45l49 1h25l26-1h34l3-1 22-1 4-2h25v-2l6-4 2-2 8-2 5-4 3-9 2-13 3-28 6-31 10-40 13-40 8-24 6-17 6-8 5-5h2l2-4 5-7 5-1 3-9 7-8 1-3v-7l-2-4-4-2-11-8-19-14-13-10-15-10-16-13-12-8-14-10-16-12-17-12-10-7-5-3-11-9-19-13-14-11-17-12-9-7-6-3-2-4h-4z" fill="#61BB6F"/>
<path transform="translate(1153,669)" d="m0 0 15 8 5 4 4 1 3 5 2 18-1 6v2l3-1 2-5 4-8 3-7 1 3-5 12-1 5 7 6 10 13 9 11 3 4 1 5-20-2 1 17 5 8 13 13 8 16 2 5 1 14 2 4 13 1 6 9 2 6v13l-5-2-9-5-16-10-21-12-21-11-23-10-19-8-10-3-2-2 1-8 3-9 3-11-1-4-6-7-4-4v-10l3-5 12 1 4-11 8-35 3-11z" fill="#F7DAC9"/>
<path transform="translate(1285,1128)" d="m0 0h9l2 2-1 108-1 1h-7v2l4 2 1 19 3 22v9l-5 1h-61v5l-1 1-41 2h-33l-2-1 1-8 3-2 21-6 5-2 13-3v-2l-2-1v-4h10l11-1 7-2 6 8h8l21-5 3-2 1-3-1-22 5-4-7-2-2-2-1-21-1-41v-41l5-2 15-3z" fill="#1E3B56"/>
<path transform="translate(999,851)" d="m0 0h17l3 1 1 2v10l-8 15-8 16-11 23-5 9-2-1h-12l-19 6-18 7-20 8-15 4-8 1h-12l-4-4-2-10 1-7 4-5 2-1 17-1-1-7-5-10v-9l2-8 21-9 26-8 20-10 15-6 5-4z" fill="#F7DAC9"/>
<path transform="translate(974,819)" d="m0 0h48l19 1-5 13-8 16-7 12-2-1v-8h-20l-16 2-7 5-20 8-11 6-33 11-14 6h-9l-39-7v-1l18-2 1-4 3-19 4-18 17-8 25-6 29-4z" fill="#F9FBFD"/>
<path transform="translate(1115,837)" d="m0 0 6 2 8 4 11 2 2 4-1 2-3 1-1 2-6 2-3-3-3-1 3 6-1 11-1 2 6 1 4 1 7-3 4-3 12 3 3 11 3 4v15l-5 3h-19l3 10 2 3 5 2h9l13-4 4-1-2-10v-15l-5-1-3-5v-7l2-3 5 1 3 2 1 6h2l-1-10-2-6 10 3 11 7 9 6 5 3 11 7v2l-13 5-16 9-5 5-1 11-3 5-6 3-16 1-14 5-6 2-6 8-8 2-5 5-5 8-2 3-18-6-12-3v-10l14-60 5-18 3-9 3 3-3 15-2 4h-3l-1 22-3 11-3 6-3 14v5l1 3 5-2 7-18 8-30 4-13v-7l-2-8 4-9-1-8 1-2-3 1-1 2h-2l-1-3 2-2 1-4h-2z" fill="#F9FBFD"/>
<path transform="translate(987,718)" d="m0 0h19l33 3 38 6 3 4-1 9h-2l-2 4-3 3h-2l-1 3-4 1h-10l-11-1h-37l-8 2v1l-30 1h-16l-2-2-9-1-10 1h-16l-5 1h-8l-8 1-9-3-8-1-4 2-7-6-1-2v-8l9-3 26-5 40-6 32-3z" fill="#EAB672"/>
<path transform="translate(1249,1136)" d="m0 0h4l2 81 1 21 2 2 7 1-5 5 1 22-3 5-13 4-10 2h-8l-5-7-2-4-6-3-2-5-3-3 7-3 9-3-4-16-8-29-6-23-7-27v-3l16-6z" fill="#F9FBFD"/>
<path transform="translate(1086,949)" d="m0 0h1v7l12 2 13 4 5 2 5-9 5-4 2 2 7 1 5 3 22 5 10 1 6 4 4 12-5 5-10 5h-3l-1 4-2-3-7 4-4 5-5 5-5 6-3 5-11 12-9 6h-6l-12-6h-8l-1 10-3 7-4 2-5-1-2-1-4-12 2-6 3-2h8l6 1 2-5 1-6v-6l4-11 6-12 1-4-11-2-15-2-27-1-9-2-4-3v-7l4-3 26-6 16-1z" fill="#FDD090"/>
<path transform="translate(1276,1239)" d="m0 0h11v2l4 2 1 19 3 22v9l-5 1h-61v5l-1 1-41 2h-33l-2-1 1-8 3-2 21-6 5-2 13-3v-2l-2-1v-4h10l11-1 7-2 6 8h8l21-5 3-2 1-3-1-22 5-4-6-1v-1z" fill="#FDD190"/>
<path transform="translate(917,237)" d="m0 0h30l10 2 9 5 5 4v2h2l5 10 2 8v17l-3 8-3 6-4 5h-2v2l-10 5-4 1 1 6 10 14 12 18 10 14 7 10 2 5-7-1-9-7-10-13-8-12-10-14-8-14h-37l4 59v5l-4 1h-7v-14l-4-49-5-79 3-2zm3 9-18 2 1 30 3 33 19-1 24-3 8-3 3-2v-2l4-2 4-6 3-9v-9l-3-13-4-6-7-6-5-2-9-1z" fill="#293544"/>
<path transform="translate(1071,237)" d="m0 0h9l42 5 23 3 6 2-2 4-3 2h-11l-45-6-11-1-1 16-3 31v7l27 4 33 4 4 2-1 6h-10l-55-7-1 15-3 26-2 21 1 1 48 5 19 3v8h-8l-36-5-35-3 1-19 9-84 4-37z" fill="#2B3846"/>
<path transform="translate(1320,821)" d="m0 0 2 4 8 31 9 29 1 7h2l12 30 12 20 3 8-7 4-53 5h-5l1-2 7-1h-31l-5-6-5-5-2-7 1-2h6l1 2 6 3 6 2h3l2 1 1-2 5 1 5-1 4 2 9-1 10-6h9l-1-6-7-9-3-6-1-5v-7l1-3-1-12v-36l-4-2-3-9z" fill="#61BA6F"/>
<path transform="translate(969,1073)" d="m0 0h14l9 4 6 4 5 6 3 7v15l-3 9-2 3h-2l-2 4-3 1v2l-7 4-4 1h-14l-8-3-8-6v-2h-2l-4-8-1-4v-16l6-11 7-6z" fill="#F9FAFB"/>
<path transform="translate(1253,928)" d="m0 0 5 1v2h2l8 15 8 12v2h2l13 25 10 17 6 10v2h2v2l5 2 7 11 5 18 2 6 1 10h-3-1l2 16-1 10-3 8h-9l-13-3 3-2 7-1 6-8 2-12-3-19-2-7-5-10-5-6-8-14-10-14-9-15-7-11-6-8-8-11-2-6-7 1-10 12-9 11-6 5-4 5-13 10-18 10-5 2-9 2-2-4v-3l5-1 2-4 10-2 9-4 7-5h2v-2l9-7 3-3h2l2-4 4-4h2v-2l5-4 9-11 5-8 4-10h2z" fill="#FDA664"/>
<path transform="translate(1403,331)" d="m0 0h15l12 3 14 8 10 8 8 7 5 7v2h-7l-8-5-10-8v-2l-5-2-7-4-8-3-5-1h-11l-9 3-5 5h-2l-2 5-3 7v7l3 9 7 10 11 13 9 10 8 13 3 7 1 10-4 13-6 8-8 7-8 4-7 2-12-1-17-5-18-10-9-7-8-8-2-4v-3l8 1 9 8 17 11 9 4 9 3h14l8-3 8-6 4-8 2-6-1-8-7-13-6-8v-2l-3-1-5-6v-2h-2l-10-13-6-12-1-3v-12l4-9 3-6 7-8 10-5z" fill="#2A3B48"/>
<path transform="translate(638,307)" d="m0 0 5 1v6l-5 2-21 4-12 5-9 6-8 8-2 5-1 12 2 7 5 8 6 5 8 2h56l11 3 8 7 6 9 3 7 1 5v10l-4 11-10 12h-2v2l-13 8-15 7-19 6-7 1-3-4v-5l10-2 24-8 11-6 7-5 8-11 2-8v-7l-3-10-7-8-7-3h-57l-11-3-10-7-6-9-4-10v-9l3-11 5-9 9-9 14-7 16-5z" fill="#182132"/>
<path transform="translate(1251,270)" d="m0 0h17l13 3 12 5 14 10 5 5 1 3-7-1-21-10-14-5-10-2-9 1-8 3-6 5-5 9-1 5v8l2 7 9 10 9 7v2l5 2v2l4 2 5 3v2l5 2 7 8 4 4 5 9 1 11-3 11-4 8-7 8-12 6-8 2h-13l-14-3-20-8-13-7-4-4v-5l3-1 19 9 10 5 6 2 7 1h22l11-5 6-8 2-7v-13l-5-8-11-11-9-6v-2l-4-2-14-11-8-11-3-5-1-8 2-12 5-10 6-7 8-5z" fill="#182031"/>
<path transform="translate(1146,767)" d="m0 0h2l4 6 3 5 10 10 14 9 10 9 12 11 13 7 14 2 1-3 1 3 13 1 6 9 2 6v13l-5-2-9-5-16-10-21-12-21-11-23-10-19-8-10-3-2-2 1-8 4-12 6 2 3 5 4-4 3-6z" fill="#F9FBFD"/>
<path transform="translate(1017,864)" d="m0 0 1 3-9 19-8 15-6 12-13-3h-12l-17 6-29 6h-8l1-4 8-7 17-10 13-8 15-9 5-4 5-5 9-2 21-3z" fill="#F9FBFD"/>
<path transform="translate(1387,1021)" d="m0 0h2l4 6 12 29 10 28 8 30 4 19 3 26v17l-2 3-4-2-3-4-4-7-2-14-4-18-3-9-5-20-1-5-4-14-5-17-3-9-5-18 1-14 1-3z" fill="#263341"/>
<path transform="translate(865,808)" d="m0 0 12 1h12l6 1h3l2 7 8 5-1 4h6v1l-20 5-15 7-16-1-10 3-2 1-2 13-6 3-2-15-5 2-3 4-1-2-3-1v-3h-5v-9l3-7 12-9 7-4 15-3z" fill="#203D57"/>
<path transform="translate(810,252)" d="m0 0h2v6l-3 3-18 5-19 5h-4l2 7 4 20 24 96 2 5v5h-9l-1-1-2-9-8-32-5-18-7-27-8-36-1-7-16 4-21 5h-11l-2-4 9-4 30-8 27-7 21-5z" fill="#182031"/>
<path transform="translate(1177,865)" d="m0 0 10 3 11 7 9 6 5 3 11 7v2l-13 5-16 9-5 5-1 11-3 5-6 3-16 1-14 5-6 2-6 8-8 2-5 5-5 8-2 3-9-3 4-2 8-5 8-8 14-11 15-10 17-9 4-3-2-6-1-5v-15l-5-1-3-5v-7l2-3 5 1 3 2 1 6h2l-1-10z" fill="#FDD193"/>
<path transform="translate(1081,976)" d="m0 0 18 3 7 2-1 6-7 14-2 7v10l-4 7h-14l-3 2-1 5 3 9v3l7 1 4-2 4-16 2-1h6l15 7-4 3-25 11-18 9h-6l-1-3-2-1 7-24 6-22 6-24z" fill="#F6DAC9"/>
<path transform="translate(1178,739)" d="m0 0h2l7 10 5 12 5 2 2 3 5 8 13 13 8 16 2 5v14h-3l-1-3-5-1-8-4-7-7-9-7-4-5v-2h-2l-7-8-8-10-4-10 1-7 5-8z" fill="#FDD08F"/>
<path transform="translate(834,805)" d="m0 0 2 1-4 5-13 6-2 3-13 4-6 2-1 2-2-1v2l-8 5-4 4-9 4-8 6-9 2v2h-2v2l-7 5-6 7-12 8h-3-2l-2 4-5 6h-2l-1 3-8 7-10 9-5 5-5 6-6 5-5 5-11 12-3 2v-2h-4l-1-5 9-11 33-33 11-9 13-11 14-10 17-12 25-15 27-14 17-8z" fill="#161E2E"/>
<path transform="translate(862,837)" d="m0 0 14 2-2 13-3 15-1 12-2 2-18 2-29-2 2-1 2-13 3-8 4-5 1-7 5-5 3 1 2 13 5-1 1-13 5-3z" fill="#F6DAC7"/>
<path transform="translate(750 1e3)" d="m0 0h2l-1 13-3 5-4 8-5 16-4 5v3l6-7 4-8 6-8 7-1v3l5 1h6l8 7v9l7-3 7 1-2 7-1 1h9l1-4h5v-2h5v4l8-2 1-4-12 1-1-2 9-3 6-7h2v2l4-2-1 13 6-4 4-8h1l2 6 5 6-1 2-6-5-9 6-21 4-22 3h-45l-11-2 10-23z" fill="#61BB6F"/>
<path transform="translate(1219,1270)" d="m0 0 4 2 3 4 2 10 1 13-1 1-41 2h-33l-2-1 1-8 3-2 21-6 5-2 13-3v-2l-2-1v-4h10l11-1z" fill="#383A40"/>
<path transform="translate(1417,1267)" d="m0 0h11l8 4 5 2 4 2v2h3v2l5 2 5 3-4 2-5 3-9 1v2l-31 2-28 1-10-3-2-1 2-4 6-4 34-9 4-2 1-4z" fill="#FEC46D"/>
<path transform="translate(1367,950)" d="m0 0h2l4 5 1 14-6 2h-42l-18 1h-9l-12 3-4-4-5-10 1-1 41-3 42-4z" fill="#111528"/>
<path transform="translate(1269,750)" d="m0 0 12 1 14 2 9 2 2 26v12l-1 5-15-6-17-10-6-5 1-5z" fill="#FCCE8E"/>
<path transform="translate(1251,270)" d="m0 0h17l13 3 12 5 14 10 5 5 1 3-7-1-21-10-14-5-10-2-9 1-8 3-6 5-5 9-1 5v8l2 7 9 10 9 7v2l5 2v2l4 2 1 2-5-1-4-3-1 4 1 2-5-2-16-13-7-10-3-5-1-8 2-12 5-10 6-7 8-5z" fill="#181F30"/>
<path transform="translate(899,1257)" d="m0 0h18l3 4 2 5 1 1 25 5 4 4 1 7-1 1-19 1h-41v-14l2-10z" fill="#436385"/>
<path transform="translate(918,924)" d="m0 0h13l9 2 2 2v9l-25 10-15 4-8 1h-12l-4-4-2-10v-5l2 4h3l9-4 4-2 9-2 5-3z" fill="#FDD192"/>
<path transform="translate(600,1276)" d="m0 0 25 2 2 5 11 3 9 2 11 4 5 5v4h-68l-1-5 4-17z" fill="#436484"/>
<path transform="translate(1107,985)" d="m0 0 12 1 14 3 8 1 5 5 4 2-2 4-8 11-12 2-11 7-7 1-3-2-4-16-2-6 4-10z" fill="#FEC46A"/>
<path transform="translate(1505,1290)" d="m0 0h3l2 6 1 14-1 1h-77l2-9 11-3 19-2 13-2 1-1 19-2z" fill="#2A3947"/>
<path transform="translate(1296,724)" d="m0 0 6 1 14 5 6 4 9 11 5 9 3 9-1 2h-2l-3-5v-3l-3-1v-2h-2v-2l-3-1-6-9-6-5-8-3h-4l1 6-3 2 2 6 3 4v2h-12l-21-4-4-3 1-7 3-7 3-3 17-5z" fill="#252E3D"/>
<path transform="translate(1151,678)" d="m0 0 2 4 6 1 4 5v2l4 1 1 8-2 7-3 9-5 12-3 14-2 4-8-3-7-3-1-1h-5l-4 2-1-5h9l4-11 8-35z" fill="#FDC26A"/>
<path transform="translate(638,307)" d="m0 0 5 1v6l-5 2-21 4-12 5-9 6-8 8-2 5-1 12 2 7 5 8 6 5 6 3 1 5 2 3h-9l-9-5-5-5-5-7-4-10v-9l3-11 5-9 9-9 14-7 16-5z" fill="#171E30"/>
<path transform="translate(1193,692)" d="m0 0 1 3-5 12-1 5 7 6 10 13 9 11 3 4 1 5-20-2v14h-4l-4-4-5-12-5-6v-2h-2l-2 11-2 2 3-21 5-14 3-3 1-7 4-8z" fill="#FDD194"/>
<path transform="translate(1114,837)" d="m0 0 1 2h2l-1 5-1 4h2l1-3h3l1 10-4 10 2 7v7l-7 24-7 25-5 12-3 2h-3l-2-3 1-11 4-13 3-8 1-9 2-17h3l3-14 1-6-3-1 1-7z" fill="#6FC875"/>
<path transform="translate(1105,985)" d="m0 0 2 1-4 8-1 6 4 11 2 9 4 1 9-3 7-5 3-1h9l-6 8-9 9-7 4h-6l-12-6h-8l-1 10-3 7-4 2-5-1-2-1-4-12 2-6 3-2h8l6 1 2-5 1-6v-6l4-11z" fill="#FDD192"/>
<path transform="translate(978,945)" d="m0 0 2 3-2 6-2 1-9 19-8 16-8 19-3 5-4 9-9 19-8 15-5 15-4 13-1 10 2 4v7l4 12 5 5 4 8 8 9 7 4 1 5 20 6 7 1h10l13-2 13-4 3 1-12 5-7 2-8 1h-13l-15-3-14-6-10-8-9-10-7-12-5-15-1-14 2-14 5-15 16-33z" fill="#325767"/>
<path transform="translate(1146,867)" d="m0 0 13 3 3 11 3 4v15l-5 3h-19l-1 2-8-22 1-2v-8l7-1z" fill="#FDCB8D"/>
<path transform="translate(1081,976)" d="m0 0 18 3 7 2-1 6-10 20-7 6-11 3-6 3-2 6-1-4 10-39z" fill="#FAFCFE"/>
<path transform="translate(1262,1268)" d="m0 0 9 2 5 5v6l-5 4-11 7-8 2h-24l-2-16h9l21-5z" fill="#FEC36A"/>
<path transform="translate(1177,865)" d="m0 0 10 3 11 7 9 6 5 3 11 7v2l-13 5-5 3-11 4-5-1-2-11-1-11-3-1-5-12z" fill="#F9FAFB"/>
<path transform="translate(1071,237)" d="m0 0h9l42 5 23 3 6 2-2 4-3 2h-11l-45-6-11-1v8l-2 7h-1l-1-5-3 1-2 3v-20z" fill="#1C2333"/>
<path transform="translate(1403,331)" d="m0 0h15l12 3 14 8 10 8 8 7 5 7v2h-7l-8-5-10-8v-2l-5-2-7-4-8-3-5-1h-11l-10 2-8-2 4-6z" fill="#181F31"/>
<path transform="translate(903,238)" d="m0 0h9v1l17 1 1 2h-3v2l15 1v1l-40 2 1 7 1 30-2-1-1 5-2 1-2-1-1 15h-1l-4-63 3-2z" fill="#2B3745"/>
<path transform="translate(1166,877)" d="m0 0h1l3 9 6 2v15l2 8-3 3-10 4-5 1h-9l-6-3-4-8v-5l19-1 4-2v-15-4z" fill="#373C43"/>
<path transform="translate(917,237)" d="m0 0h30l10 2 9 5 5 4v2h2l5 10 1 5v9l-3-3-2-3-2 3h-2l-4-12-7-8-7-3-9-1-1-1-16-1 1-3 2-1-25-1v-1z" fill="#191F30"/>
<path transform="translate(1065,372)" d="m0 0 34 3 31 4 5 1v8h-8l-36-5-35-3 1-6 7-1z" fill="#1E2737"/>
<path transform="translate(941,311)" d="m0 0h11v5l-2 2 3 7 2 3v3h2l2 5v2l4 2 2 6 4 1-2-5-4-5-5-8v-2l4 1 7 10 8 12 10 14 7 10 2 5-7-1-9-7-10-13-8-12-10-14-8-14-5-3z" fill="#182032"/>
<path transform="translate(353,754)" d="m0 0 4 2 14 11 19 14 17 12 18 13 19 14 36 26 17 12 19 14 18 13 20 15 19 14 5 4v2l-5-2-11-9-14-10-16-12-9-6-15-12-12-8-14-10-16-12-17-12-10-7-5-3-11-9-19-13-14-11-17-12-9-7-6-3-2-4h-4z" fill="#64BE70"/>
<path transform="translate(1178,739)" d="m0 0h2l7 10 5 12 5 2 2 3 5 8 13 13 2 5-8-6-10-6-12-7-7-4-9-7-1-6 4-9z" fill="#FDA664"/>
<path transform="translate(906,318)" d="m0 0h1l4 59v5l-4 1h-7v-14l-3-34v-10h1l1 9 2-12h3z" fill="#2A495E"/>
<path transform="translate(1191,387)" d="m0 0 6 2 16 8 15 6 7 1 20 1-4 3v4l7 1-4 2h-13l-14-3-20-8-13-7-4-4v-5z" fill="#182133"/>
<path transform="translate(1072,295)" d="m0 0h1v5l39 5 23 3 4 2-1 6h-10l-39-5-16-1-3 1 1-14z" fill="#1D2635"/>
<path transform="translate(601,378)" d="m0 0h61v1l-8 1 4 1v5l4 2-26 1h-30l-5-1v-1l5-1-3-5 1-2z" fill="#2D404C"/>
<path transform="translate(617,1257)" d="m0 0 5 1 12 4 1 2-4 4-4 7-1 7-2-3-21-2-2-2 1-11 4-5h10z" fill="#F7D8C2"/>
<path transform="translate(1187,719)" d="m0 0 6 2 4 5 2 5 5 2 2 5 1 8 7 1v3l-9-1-6-3-1-4h-3l2 13v7l-3-1-4-10-4-9v-8l-1-4 1-2z" fill="#F7DBCA"/>
<path transform="translate(1169,872)" d="m0 0 5 1 3 2 1 6h2v-7l2 1 2 6 3 3 2 18-4 6-4 3-4-1-2-7v-15l-5-1-3-5v-7z" fill="#415E81"/>
<path transform="translate(935,884)" d="m0 0h10l5 5 1 4-4 4-12 3-19 1-4-1v-5l5-5z" fill="#FED190"/>
<path transform="translate(577,343)" d="m0 0 1 2 5-2 2 3v10l2 7 5 8 6 5 6 3 1 5 2 3h-9l-9-5-5-5-5-7-4-10v-9z" fill="#1A2534"/>
<path transform="translate(1328,436)" d="m0 0 8 1 9 8 17 11 2 1v3l5 1 4 4 9 3 1 2-16-1-20-11-9-7-8-8-2-4z" fill="#1A2634"/>
<path transform="translate(973,1066)" d="m0 0 7 1 13 3 8 6 6 2v3l9 1v1l-5 1v4l-9-3-3-4-16-7h-14l-10 4-5 3-8 1 4-9 3-1v-2l4-2 5 1 9-2z" fill="#234259"/>
<path transform="translate(995,855)" d="m0 0h7l10 5 1 4-4 4-12 3-2 1h-7l-8-5-1-2v-6l6-3z" fill="#FED190"/>
<path transform="translate(1373,958)" d="m0 0 2 3 1 4v10l-7 2-19-2-16 1-9-1-8 1h-25l-5 2-2-4 10-2 4-1h11l16-1h42l5-1z" fill="#242D3D"/>
<path transform="translate(1180,715)" d="m0 0 1 3-3 13-4 23-3 2-6-1-3-9 2-2 1-4-2-1 1-7h2l2-5 4-7h2l2-4z" fill="#F9FBFD"/>
<path transform="translate(915,1095)" d="m0 0h2l2 4v7l4 12 5 5 4 8 8 9 7 4 1 5 20 6 7 1h10l13-2 13-4 3 1-12 5-7 2-8 1h-13l-15-3-14-6-10-8-9-10-7-12-3-12z" fill="#25465B"/>
<path transform="translate(1042,964)" d="m0 0 5 1 3 1 2-2h17l4 1 1 6 4 2 7 1 11 3 3 2-19-2-27-1-9-2-2-3z" fill="#F6D5C0"/>
<path transform="translate(1399,781)" d="m0 0 23 2 18 5 6 4 9 10 5 9 1 4v11l-1 3-4 2 1-14-6-7-4-8-10-8-12-5-7-2-11-3-8 1-2-2z" fill="#262F3E"/>
<path transform="translate(1165,1294)" d="m0 0h11l1 3 31-1 17-1 3 1v4l-41 2h-33l-2-1 1-4z" fill="#2D414C"/>
<path transform="translate(964,913)" d="m0 0 10 1 11 1 6 4-1 5-3 3-1-1h-12l-9 3h-9l-1-4 3-5 4-6z" fill="#FDD195"/>
<path transform="translate(1156,702)" d="m0 0 6 1 2 2-5 12-7 21-1 1h-5l4-1-5-7v-12l1-8 6-7z" fill="#FEA664"/>
<path transform="translate(902,279)" d="m0 0h1l2 10 2 22v7l-3 5h-2l-1 3-1 12-2-4-2-14v-33l1 2h3z" fill="#171C2D"/>
<path transform="translate(1276,1239)" d="m0 0h11v2l4 2 1 19 3 22v9l-5 1h-38v-1l41-1-3-26-5-16-4-6-14 1-6 2-2 4v-5l5-4-6-1v-1z" fill="#F5D9C6"/>
<path transform="translate(1208,1256)" d="m0 0 5 4 2 5 6 3v3l-7 2-19 1-2-1-1 3-2-5 9-5 1-5-2-2z" fill="#F7D9C1"/>
<path transform="translate(1373,863)" d="m0 0h10l2 1-2 4-13 9-10 6-9 5h-4l1-4 4-2 3-6 10-4 2-4z" fill="#262F3E"/>
<path transform="translate(1635,757)" d="m0 0 5 1-1 2-3-1-8 4-38 28-54 39-22 16-14 10-4 2 4-5 15-11 14-10 8-6 14-10 11-8 20-14 16-12 14-10 18-13z" fill="#F8D8BB"/>
<path transform="translate(1309,1016)" d="m0 0 5 2 7 11 5 18 2 6 1 10h-3l-5-10-12-36z" fill="#F9F8F7"/>
<path transform="translate(630,1210)" d="m0 0h1l-1 7-10 21-1 4h-2l-1 5v4l-1 4-6-1-3-2 2-5 9-17 11-18z" fill="#273243"/>
<path transform="translate(1094,1026)" d="m0 0h6l15 7-4 3-25 11-2-1 4-3 4-16z" fill="#F7DBCA"/>
<path transform="translate(819,1035)" d="m0 0h2v2l4-2-1 13 6-4 4-8h1l2 6 5 6-1 2-6-5-9 6-12 2-2-1 4-3 1-3-12 1-1-2 9-3z" fill="#61BB6F"/>
<path transform="translate(1183,883)" d="m0 0 1 2 2 10 1 1v5l-4 9-5 1-2-3-1-5v-11l4-6h3z" fill="#E7B673"/>
<path transform="translate(1126,753)" d="m0 0 4 2 12 7 3 2 2 6-7 10-4-4-1-2-4-2 1-11z" fill="#DDB772"/>
<path transform="translate(1253,339)" d="m0 0 6 2v2l4-1 3 2v2l5 2 6 8-7 3-4-1-9-8-6-4v-3z" fill="#25303F"/>
<path transform="translate(1200,447)" d="m0 0 16 4 30 9 7 2-1 6-3 7-1-3 1-3-12-6-15-5-8-5-13-4z" fill="#FCD39C"/>
<path transform="translate(1141,846)" d="m0 0 6 2 5 4 4 4-5 1-1 5-4-1-1-2-4 1-6 1v-4l-5 1-1 3-2-1-2-5v-3l5 1 2 2 5-1 1-3h3z" fill="#3A4044"/>
<path transform="translate(1142,970)" d="m0 0h6l5 4-1 5-6 3-7 1-8-4 1-4 5-4z" fill="#F7DBCA"/>
<path transform="translate(1062,350)" d="m0 0h3l2 5h1l-1 17-3 2h-7l-1 3 2-25 2 3z" fill="#27465B"/>
<path transform="translate(978,945)" d="m0 0 2 3-2 6-2 1-9 19-8 16-8 19-7 6 2-6z" fill="#355F66"/>
<path transform="translate(982,775)" d="m0 0h19l22 1 4 2-13 1h-70l2-2z" fill="#131A2E"/>
<path transform="translate(1417,1267)" d="m0 0h11l8 4 5 2 4 2v2h3v2l5 2 5 3-4 2-5 3h-3v-4l-4-5-8-6-6-3-12-2z" fill="#FDD193"/>
<path transform="translate(1328,436)" d="m0 0 8 1 9 8 7 5-2 1-4 1v3h-3l-8-7-6-7z" fill="#2B404F"/>
<path transform="translate(1138,748)" d="m0 0h5l8 7-2 8-4 3v-2l-5-2-11-7 9-3z" fill="#FED08F"/>
<path transform="translate(1231,404)" d="m0 0 24 1-4 3v4l7 1-4 2h-13l-7-1 3-2-1-3-5-1z" fill="#33484F"/>
<path transform="translate(1067,949)" d="m0 0 7 2 2 3-4 2-20 4h-8l5-5 4-3z" fill="#213A52"/>
<path transform="translate(680,1214)" d="m0 0 1 3-5 4-7 8-32 32-3-1 1-3 5-2v-2h2v-2h2v-2h2l2-4 5-5 3-1 2-4h2v-2h2l1-4 7-6h2v-2z" fill="#2A3545"/>
<path transform="translate(1253,1136)" d="m0 0 3 6v96h-1l-1-21-1-41z" fill="#537781"/>
<path transform="translate(937,1143)" d="m0 0 5 1 8 5 18 6 7 1h10l13-2 13-4 3 1-12 5-7 2-8 1h-13l-15-3-14-6-8-6z" fill="#52867F"/>
<path transform="translate(905,1246)" d="m0 0 4 1 2 3v5l6 1v1l-18 1-3 1v-2l2-1-8-6v-1z" fill="#F5D5BC"/>
<path transform="translate(1252,889)" d="m0 0h1v5h2l1 23-4-2-9-9-3-2v-2h-2v-2l6 1 1 3h2l1 2 2-1v-8z" fill="#161C30"/>
<path transform="translate(970,909)" d="m0 0h12l9 2 4 3-3 5-5-2-2-1-15-2-5-1 2-3z" fill="#F6D9C7"/>
<path transform="translate(941,311)" d="m0 0h11v5l-2 2 3 7 2 3v3h2l2 5v2h2v2l-4-1-7-10-6-11-5-3z" fill="#151A2D"/>
<path transform="translate(1167,884)" d="m0 0 4 3h5l-2 18-2 4-5 2-2-1-1-5h6v-3l-3 1v-9h2l1-5h-3z" fill="#222938"/>
<path transform="translate(925,309)" d="m0 0h8v1l-6 1v3l-7 2 12 1v1h-25v-7z" fill="#2A485E"/>
<path transform="translate(1163,692)" d="m0 0h3l2 4-1 5-2 9-7 17-3 14-2 3v-3l-7-1v-1l5-1 9-27 4-8 1-6z" fill="#E4B673"/>
<path transform="translate(952,315)" d="m0 0h2l5 9 1 3h-2l7 12 5 6-1 3-4-2-4-7-3-3-1-5h-2l-3-6-3-8z" fill="#252F3F"/>
<path transform="translate(1151,678)" d="m0 0 2 4 6 1 4 5v2l4 1-1 3v-2l-17 1-1 5h-1l1-9z" fill="#FCCD8D"/>
<path transform="translate(1377,1283)" d="m0 0 3 1-4 2 1 6h21l23-1h19v1l-31 2-28 1-10-3-2-1 2-4z" fill="#FAD5AB"/>
<path transform="translate(1029,1131)" d="m0 0 4 2-8 10-10 7-9 3-4-1 8-4v-2l5-2 3-3 8-7z" fill="#2C4F60"/>
<path transform="translate(789,385)" d="m0 0 4 1 2 5 2-1 3 9v5h-9l-1-1-2-12 1-3z" fill="#283646"/>
<path transform="translate(1130,772)" d="m0 0 6 2 3 5h2l-1 5-4 4-5-2-5-1z" fill="#F6D9C6"/>
<path transform="translate(879,1093)" d="m0 0 7 6 7 8 3 3 6 22 9 42-1 4-9-39-6-24-4-7-12-13z" fill="#52867F"/>
<path transform="translate(1145,934)" d="m0 0 2 1-6 7-5 6-7 1-5 5-5 8-2 3-9-3 4-2 8-5 8-8 14-11z" fill="#FCD39D"/>
<path transform="translate(620,456)" d="m0 0h8l-3 2-4 2 9-2 8-2h5l-4 3 2 2-18 5-3-1-2-3v-5z" fill="#314854"/>
<path transform="translate(1012,1096)" d="m0 0h3l1 4-1 5 3 1-2 2v3l-3 4-3 6-3 1-1 2-2-3-1-5 6-1 2-8v-7z" fill="#1E3A54"/>
<path transform="translate(1280,389)" d="m0 0 4 2-1 5-7 9-7 5h-2l2-6 5-6 2-4z" fill="#2C3D47"/>
<path transform="translate(933,309)" d="m0 0h8l-1 6 2 2h-23l1-2 7-2v-3z" fill="#242E3F"/>
<path transform="translate(1219,1270)" d="m0 0 4 2 2 4-22 1-7 3-3-3v-4h10l11-1z" fill="#426086"/>
<path transform="translate(1169,872)" d="m0 0 5 1 2 3 1 9-4 3-4-2-2-4v-7z" fill="#F7DFD3"/>
<path transform="translate(887,1239)" d="m0 0 2 1 2 3 3-1 11 1 14-1-2 2-22 5h-5l-3-5z" fill="#2A3243"/>
<path transform="translate(838,842)" d="m0 0 3 1 1 13-5 2-4-2-1-7 4-6z" fill="#FAFCFE"/>
<path transform="translate(577,343)" d="m0 0 1 2 5-2 2 3v14l-1-2-2 2h-3l-2-5-1-9z" fill="#293843"/>
<path transform="translate(1191,387)" d="m0 0 6 2 12 6-1 3-9-1v2l-5-2-4-4v-5z" fill="#283A4B"/>
<path transform="translate(699,887)" d="m0 0 3 1-36 36-1-3z" fill="#2F4B53"/>
<path transform="translate(1165,887)" d="m0 0h1v14l-5 3h-19l4 10 6 2h11l6-2 4 1-13 4h-9l-6-3-4-8v-5l19-1 4-2z" fill="#4C7782"/>
<path transform="translate(1136,660)" d="m0 0 3 1-2 7-5 8-2 5-4 4-3-1 8-16z" fill="#1E3B56"/>
<path transform="translate(1420,843)" d="m0 0 10 2 3-1 7 1v3l-5 2h-11l-5-2-1-3z" fill="#283141"/>
<path transform="translate(897,247)" d="m0 0h3v2h2l1 6v14h-1l-1-11-3 8-2-2-1-7v-8z" fill="#29455B"/>
<path transform="translate(1200,1269)" d="m0 0h22l-1 2-7 2-19 1-2-1-1 3-1-4z" fill="#EAB673"/>
<path transform="translate(956,1149)" d="m0 0 11 1 3-1 2 2 4 1 1 3 8 1v1h-10l-14-3-8-3z" fill="#1E3B56"/>
<path transform="translate(1276,784)" d="m0 0 5 2 16 8 6 5 4 2-2 1-6-2-4-4-8-1-12-7z" fill="#6CBD6E"/>
<path transform="translate(1159,603)" d="m0 0 2 1-4 5h-2l-2 6-11 19-5 9-2 3-2-1 14-26 6-10 4-5z" fill="#15182A"/>
<path transform="translate(905,320)" d="m0 0h1v17l-2-4 1-2h-2v6l-4 4-2-6v-10h1l1 9 2-12h3z" fill="#2B3543"/>
<path transform="translate(1239,904)" d="m0 0 5 2 10 10 4 8-1 3v-2l-3-1v-2l-3-1-11-14z" fill="#FBCE90"/>
<path transform="translate(1307,1012)" d="m0 0 8 4 4 3 3 1 1 2 2 18 1 7-2-2-5-18-6-9-4-2v-2h-2z" fill="#4D7A81"/>
<path transform="translate(1109,859)" d="m0 0 3 3-3 15-2 4h-3v5h-2l3-15 3-11z" fill="#FAFCFE"/>
<path transform="translate(1133,873)" d="m0 0 2 1v2l4 1 2 1-1 7-3 9-2-3-3-8 1-2z" fill="#F6DAC8"/>
<path transform="translate(1501,1280)" d="m0 0 4 2v2h-3v3l-2 2v2l-11 1-1-2h2l1-4 9-5z" fill="#6FC875"/>
<path transform="translate(848,842)" d="m0 0h1v8l-1 5-6 3v-15z" fill="#293547"/>
<path transform="translate(1215,753)" d="m0 0h8l4 2v2h-2l-1 6-8 2-2-2 6-2-1-2-3-1z" fill="#66BC6F"/>
<path transform="translate(1083,743)" d="m0 0 1 3-4 9-5 9-5 2 2-6 6-12h3z" fill="#24405C"/>
<path transform="translate(1061,1043)" d="m0 0 1 2-3 12-3 7-2 8h-1v-7l1-2v-11l3-7z" fill="#24435C"/>
<path transform="translate(1259,1271)" d="m0 0v3l-11 4-11 3-7 3-2 2-2-6 1-2h8l21-5z" fill="#FAD09E"/>
<path transform="translate(1164,893)" d="m0 0h1v7l-5 3h-19l-1 2v-3l9-1 5-3 10-1z" fill="#E8B673"/>
<path transform="translate(825,882)" d="m0 0h10v3 2h-2l-2 4-6 4v-3l3-3-4 1 1-3v-3z" fill="#61BB6F"/>
<path transform="translate(1169,860)" d="m0 0 9 3 1 6 2 10-1 2h-2l-1-6-2-1h2l-1-4-2-1v-4l-5-1z" fill="#2F3B46"/>
<path transform="translate(1119,836)" d="m0 0 13 1 6 5v1h-8l-9-3-2-1z" fill="#182231"/>
<path transform="translate(1349,916)" d="m0 0h2l11 19 3 5-1 3-6-7-8-16z" fill="#324A65"/>
<path transform="translate(831,849)" d="m0 0 2 1-1 6-4 4-2 3-2-3-5-1 5-5z" fill="#24435C"/>
<path transform="translate(1434,1271)" d="m0 0 7 2 4 2v2h3v2l5 2 5 3-4 2-5 2-1-6-5-4-9-6z" fill="#F6DAC5"/>
<path transform="translate(1587,790)" d="m0 0h2v2l-17 12-18 13-4 1 4-4 15-11 16-11z" fill="#F8D9C0"/>
<path transform="translate(1125,785)" d="m0 0 2 1-1 6 16 6-3 1 1 1-4 1-12-5-1-5z" fill="#25465C"/>
<path transform="translate(1127,735)" d="m0 0h12l7 4 7 2-1 4-14-6-1-1h-5l-4 2z" fill="#FACC8B"/>
<path transform="translate(1188,902)" d="m0 0 5 4-9 6-9 7-7 4-3-1 12-7v-4l7-3z" fill="#F6DAC8"/>
<path transform="translate(1505,1299)" d="m0 0h4l1 9-11-3v-2l-2-1z" fill="#101326"/>
<path transform="translate(1011,1150)" d="m0 0 3 1-12 5-7 2-8 1h-13v-1l11-1 1-1 12-2z" fill="#59977D"/>
<path transform="translate(1185,882)" d="m0 0 2 2 2 18-4 6-2 1 2-8h2l-4-13 1-4z" fill="#547981"/>
<path transform="translate(608,943)" d="m0 0 5 1 1 2-4 7-3 2-2-4 1-1v-6z" fill="#81C671"/>
<path transform="translate(955,995)" d="m0 0 1 3-6 12-6 5 2-6 6-12z" fill="#2F5562"/>
<path transform="translate(1375,962)" d="m0 0 3 4 3 6 3 17v7h-1l-2-11v-5h-2l-4-15z" fill="#5FA57A"/>
<path transform="translate(1354,778)" d="m0 0 16 1 12 1 2 2-5 1-7-1-12-1-6-2z" fill="#272F3D"/>
<path transform="translate(1061,957)" d="m0 0 4 1-12 4-8 1-3 1 1 7 1 2-4-2v-7l4-3z" fill="#FB715D"/>
<path transform="translate(875,933)" d="m0 0h1l2 7 2 11-8-1 2-8z" fill="#A8C46B"/>
<path transform="translate(1376,365)" d="m0 0h2l3 12 3 5-1 4-4-4-2-5z" fill="#181F32"/>
<path transform="translate(603,1277)" d="m0 0h7l9 3 3 2-4 1h-8l-1-4h-5z" fill="#233B54"/>
<path transform="translate(1198,749)" d="m0 0h12l-3 2-4 2-3 6-1 7h-1z" fill="#A8C46B"/>
<path transform="translate(1166,877)" d="m0 0h1l1 7-1 5h3v5l-2 1-1 5h-1l-1-13-2-5z" fill="#7C3C49"/>
<path transform="translate(1417,1267)" d="m0 0h11l6 3 2 4-6-2-9-2-5-1z" fill="#FBD4A5"/>
<path transform="translate(1195,742)" d="m0 0h3l2 4 5 2v1h-7v12h-1l-2-15z" fill="#FED190"/>
<path transform="translate(1293,1219)" d="m0 0h1v19h-9l4-3h2z" fill="#242D3D"/>
<path transform="translate(1178,887)" d="m0 0h3l-1 7-3 8-2-1v-9z" fill="#71C774"/>
<path transform="translate(1201,772)" d="m0 0 7 6 9 9 2 5-8-6-4-4-2-4-4-4z" fill="#EAB673"/>
<path transform="translate(1126,753)" d="m0 0 4 2 10 6 1 3h-6l-4-4z" fill="#FC9261"/>
<path transform="translate(898,339)" d="m0 0 4 1v12l-2 8h-1z" fill="#394E57"/>
<path transform="translate(1182,654)" d="m0 0h2l-2 11-4 12h-1v-8z" fill="#F9D6AF"/>
<path transform="translate(1121,954)" d="m0 0 1 2-5 9-9-3 4-2 8-5z" fill="#F7DBCA"/>
<path transform="translate(959,1153)" d="m0 0 16 3 10 1v1h-18l-8-2z" fill="#4B7582"/>
<path transform="translate(1367,950)" d="m0 0h2l1 3-3 2-14 1h-14v-1l23-2z" fill="#3A4A60"/>
<path transform="translate(850,798)" d="m0 0h6v3l2 1-7 3h-4l2-5z" fill="#151B2C"/>
<path transform="translate(1130,772)" d="m0 0 6 2 3 6-5 1-4-4-1-2z" fill="#FCCE8D"/>
<path transform="translate(1306,781)" d="m0 0h1l1 11v10l-6-3-2-3 4 1z" fill="#3E5B80"/>
<path transform="translate(594,1296)" d="m0 0 4 1 5-1 8 2v1l-7 1h-10z" fill="#22405A"/>
<path transform="translate(1462,1287)" d="m0 0 12 3 5 2-3 2-6 1-2-4-6-3z" fill="#9BC479"/>
<path transform="translate(1502,1284)" d="m0 0h4l1 6-5 2-3-1 1-4h2z" fill="#486684"/>
<path transform="translate(993,1151)" d="m0 0 9 1v2l-7 2h-5l-1-4z" fill="#1E3B56"/>
<path transform="translate(834,1042)" d="m0 0h3l5 6-1 2-6-5-9 6-8 1 12-6z" fill="#486E83"/>
<path transform="translate(978,945)" d="m0 0 2 3-2 6-2 1-3 7-3 1 2-6z" fill="#366066"/>
<path transform="translate(907,312)" d="m0 0 1 4 10-1 1 1 13 1v1h-25z" fill="#364F5C"/>
<path transform="translate(1043,975)" d="m0 0 12 2 4 3v2l-7-2-2-2h-7l-3-2z" fill="#1E3B56"/>
<path transform="translate(1162,602)" d="m0 0h3v11h-5l1-5z" fill="#101326"/>
<path transform="translate(1125,852)" d="m0 0 5 1 2 2 4-1-3 3-3 1-1 3-2-1-2-5z" fill="#6ABD76"/>
<path transform="translate(350,759)" d="m0 0 2 1-6 9-7 9v-3l10-15z" fill="#66BF71"/>
<path transform="translate(1619,733)" d="m0 0 5 5-5 5-9 6-2-1 10-8 3-1z" fill="#FAD5A9"/>
<path transform="translate(1176,672)" d="m0 0h1v9l-4 1-4-4 6-4z" fill="#F5C68A"/>
<path transform="translate(834,1047)" d="m0 0h5l3 3v2l-5 1-5-2z" fill="#232D3D"/>
<path transform="translate(1247,911)" d="m0 0 4 2 6 8 1 6-1-2-3-1-1-6h-2z" fill="#F9F0EA"/>
<path transform="translate(831,854)" d="m0 0v3l-3 3-2 3-2-3-5-1v-1l6-2z" fill="#436285"/>
<path transform="translate(864,838)" d="m0 0h7l5 1v3l-3 1-9-3z" fill="#F9CC8E"/>
<path transform="translate(771,953)" d="m0 0 1 4-4 8-4 9-1-4 7-16z" fill="#65BF71"/>
<path transform="translate(656,932)" d="m0 0 1 3-10 11-5 5 2-4 8-10z" fill="#3A5D60"/>
<path transform="translate(1373,919)" d="m0 0 2 1-14 10-2 2v-6l8-3z" fill="#F9D5AF"/>
<path transform="translate(1173,866)" d="m0 0 1 3 3 1v4l-4-1v-2h-4l1-4z" fill="#12172B"/>
<path transform="translate(831,856)" d="m0 0v3l-2 8h-2l-1 6h-1l1-10 3-5z" fill="#E8BE7B"/>
<path transform="translate(1085,974)" d="m0 0 11 3 3 2-19-2v-2z" fill="#F3DAC7"/>
<path transform="translate(1125,785)" d="m0 0 2 1-1 6 8 3 3 2-10-1-4-2z" fill="#548180"/>
<path transform="translate(1011,1150)" d="m0 0 3 1-12 5-6 1v-2z" fill="#52857F"/>
<path transform="translate(757,985)" d="m0 0h2l-3 13-3 2 1-7z" fill="#65BF71"/>
<path transform="translate(1378,982)" d="m0 0 1 2h2v11h-2l-2-6z" fill="#232E3F"/>
<path transform="translate(1198,391)" d="m0 0 5 1 6 3-1 3-7-1 1-2z" fill="#243043"/>
<path transform="translate(1349,916)" d="m0 0h2l5 10 1 6-3-3-5-11z" fill="#426086"/>
<path transform="translate(1328,436)" d="m0 0 8 1 2 3-4-1v2h-5z" fill="#466984"/>
<path transform="translate(983,935)" d="m0 0 3 1-2 6-3 4-2-1 2-6z" fill="#315660"/>
<path transform="translate(1120,380)" d="m0 0h15l-1 2-4 1h-9l-3-2z" fill="#253041"/>
<path transform="translate(1084,955)" d="m0 0 12 2 7 2v1h-8l-10-3z" fill="#F7DBCA"/>
<path transform="translate(785,363)" d="m0 0 2 1 2 8v4h-2l-2-6z" fill="#242D3D"/>
<path transform="translate(611,942)" d="m0 0 5 2v4l-4 6-1-4 2-5-2-1z" fill="#68C172"/>
<path transform="translate(1175,702)" d="m0 0 4 1-1 5-1 3h-3z" fill="#6FC875"/>
<path transform="translate(1155,662)" d="m0 0h1l2 9 3 1-3 1-5-4z" fill="#FBCE8D"/>
<path transform="translate(1386,342)" d="m0 0 2 1-1 3h-2l-2 5-2 3h-2l1-5z" fill="#14182A"/>
<path transform="translate(1069,977)" d="m0 0h10l-1 5-4-1-1-3z" fill="#111427"/>
<path transform="translate(1187,893)" d="m0 0h1l1 9-4 6-2 1 2-8h2z" fill="#6FC875"/>
<path transform="translate(1169,860)" d="m0 0 9 3v6l-3-3v-2l-6-1z" fill="#4C6E83"/>
<path transform="translate(959,986)" d="m0 0 1 3-3 6-4 2 2-6 2-4z" fill="#335B64"/>
<path transform="translate(1164,864)" d="m0 0h2v7l-4 2v-7z" fill="#383A40"/>
<path transform="translate(1444,846)" d="m0 0 4 1-8 4h-7l2-2 7-2z" fill="#F8C987"/>
<path transform="translate(854,834)" d="m0 0 5 1v2l3 1-9 2z" fill="#486F83"/>
<path transform="translate(834,1036)" d="m0 0h1l1 6-7 6-2-1 4-4z" fill="#63BD6F"/>
<path transform="translate(1163,692)" d="m0 0h3l2 4-1 5-2 4-1-2 1-6z" fill="#EAB673"/>
</svg>
