<?xml version="1.0" encoding="UTF-8"?>
<svg version="1.1" viewBox="0 0 1600 960" width="633" height="380" xmlns="http://www.w3.org/2000/svg">
<path transform="translate(0)" d="m0 0h1600v960h-1600z" fill="#FCFCFC"/>
<path transform="translate(1103,249)" d="m0 0 23 3 25 4 4 1v12l-6 47-7 47-5 34-2 18-2 14-2 26-4 12-1 2h-2l-2 4-8 9h-2l-2 4-4 5-5 5-5 6h-2l-2 4-3 4h-2l-2 4-3 4h-2l-2 4-9 10-3 4h-2l-2 4-3 4h-2l-2 4-11 12-9 11h-2l-2 4-5 6h-2l-1 3h-2l-2 4-11 11-7 8-7 6-7 8-6 5h10l7-1 74-5 36-3 45-3 9-1 8-7 7-8h2l2-4 5-6 5-5 7-8h2v-2l5-5 5-6 13-13 7-8 5-5 9-10 7-8 6-7 5-5 6-7 5-5 10-11 5-2 15 13 8 7 14 12 1 4-9 12h-2l-2 5h-2l-2 4-5 7h-2l-3 6h-2l-3 6h-2l-2 5h-2l-2 4-6 7-1 2h-2l-2 4-11 13-9 11-3 4h-2l-2 4-2 3h-2l-3 6h-2l-2 4-11 13-4 6h-2l-3 6h-2l-2 5-10 14h-2l-2 4-4 2v2l-9 4-18 3-16 2-51 8-52 8-24 3-34 4-12 1h-12l2 5 7 2 45 3 27 3 59 5 41 3 32 3 6 1h12l9-6 7-4 7-5 11-6 9-6 14-9 11-7 13-8 7-5 7-4 16-10 7-5 9-5 10-7 7-4 12-8 5 1 26 39 3 4-1 3-7 5h-2v2l-9 6h-2v2l-6 4-20 14-5 2v2l-11 7-11 8-10 7-15 10-28 20-20 14h-2v2l-8 6-10 8-12 6-3 1-63-1-1-44-2-6-6-2h-298l-5 3-3 6v181h-89l-4-10-4-12-4-10-6-18-4-13-8-24-4-14-8-24v-6h-3l-2 6-4 8-3 7-4 8-9 21-8 16-10 21-6 14-4 8-3 9-5 10-2 2-5 1h-222l-2-4-11 3-1 1h-77v-4l-4 3h-19l2-10 11-13 11-14 13-16 9-11 11-15 10-13h2l2-5 3-4h2l1-4h2l2-4 5-7h2l2-5 6-3h7l4 4 1 8-4 7-5 7h-2l-2 5h-2l-2 5h-2l-2 5-5 5-3 5h-2l-2 4-2 3h-2l-2 4-4 6 1-1h8l13 3 11 7 10 9 4 1 1-15 16-2 47-3 95-4 19-2 8-20 4-12 4-9 6-16 5-15 5-12 6-16 5-13-14 5-11 5-12 4-8 3-17 7-14 5-10 4-7 3-14 5-13 5-12 5-22 8-11 5-8 3-8-1-10-6-6-5-7-8-13-13-7-5v-2l-4-2-5-5-9-7-5-5-11-10-2-1v-2l-4-2-9-8-3-2v-2l-4-2-12-11-10-8-5-5-10-9-2-1v-2l-4-2-12-11-2-1v-2l-4-2-5-4 1-4 11-13 12-14 9-11 5-1v2l4 1v2l4 2 12 9 6 4v2l4 2 10 7v2l4 2 16 13 12 9v2l4 2 9 7 7 5v2l4 2 7 5v2l4 2 13 10 2 1v2l4 2 12 9 34-16 8-4 23-11 16-8 17-8 7-4 10-3v-2l-7-1-47-7-37-6-26-4-25-4-15-1-8-3-7-6-7-21-4-16-5-16-4-10-4-13-4-12-4-11-2-10 3-1-7-9-4-11-9-28-3-8-12-36-1-5 8-4 36-13 5-2h4l12 29 6 16 19 49 18 47 9 23 2 2 132 9 64 8h3l-14-19-4-5v-2h-2l-10-14-32-42-12-16v-2h-2l-7-10-10-13-7-9-5-7v-2h-2l-8-11-8-9-3-6v-12l6-14 6-9 10-19 5-11 10-21 8-16 9-20 16-32 11-24 13-26 4-1 28 13 17 7 2 2-2 9-10 25-6 14-4 10-7 16-4 9-8 20-5 10-10 25-10 23v6l6 7 5 5 54 60 8 9 9 11 10 11 9 11 6 7v2h2l8 11 12 15 7 10-2 4-10 14-12 17-4 5 27 4 18 2 17 5 8 3-4 1-6-2 8 19 5 12 6 14 8 19 6 15 6 13 6 15 3 5 5-12 10-22 10-26 5-11 7-18 5-11 5-12 1-2-22 7-10 3-4-1 27-9 13-4 11-2 24-3 4-1h9l-4-7-4-5-4-4-5-6v-2h-2l-7-9-3-6 2-5 8-7 11-11 8-7 21-21 7-6 4-5 8-7 12-11 18-18 8-7 5-6 8-7 13-13 10-9 7-7 8-7 6-7 8-7 6-6 6-28 4-24 5-27 4-21 7-36 5-26 3-17z" fill="#191D29"/>
<path transform="translate(619,253)" d="m0 0 5 1 44 20 1 4-4 12-4 9-4 10-6 14-4 10-7 16-4 9-8 20-5 10-10 25-10 23v6l6 7 5 5 54 60 8 9 9 11 10 11 9 11 6 7v2h2l8 11 12 15 7 10-2 4-7 10-13 5-18 8-11 8-9 8-5 9-2 11-4 7-4 10-6 13-13 30-9 23-6 13-5 8-10 4-13 5-10 4-11 4-17 7-14 5-10 4-7 3-14 5-13 5-12 5-22 8-11 5-8 3-8-1-10-6-6-5-7-8-13-13-7-5v-2l-4-2-5-5-9-7-5-5-11-10-2-1v-2l-4-2-9-8-3-2v-2l-4-2-12-11-10-8-5-5-10-9-2-1v-2l-4-2-12-11-2-1v-2l-4-2-5-4 1-4 11-13 12-14 9-11 5-1v2l4 1v2l4 2 12 9 6 4v2l4 2 10 7v2l4 2 16 13 12 9v2l4 2 9 7 7 5v2l4 2 7 5v2l4 2 13 10 2 1v2l4 2 12 9 34-16 8-4 23-11 16-8 17-8 7-4 10-3v-2l-7-1-47-7-37-6-26-4-25-4-15-1-8-3-7-6-7-21-4-16-5-16-4-10-4-13-4-12-4-11-2-10 3-1-7-9-4-11-9-28-3-8-12-36-1-5 8-4 36-13 5-2h4l12 29 6 16 19 49 18 47 9 23 2 2 132 9 64 8h3l-14-19-4-5v-2h-2l-10-14-32-42-12-16v-2h-2l-7-10-10-13-7-9-5-7v-2h-2l-8-11-8-9-3-6v-12l6-14 6-9 10-19 5-11 10-21 8-16 9-20 16-32 11-24 13-26z" fill="#181C29"/>
<path transform="translate(115,672)" d="m0 0h61l8 6 2 5 1 54 7-6 3-1h70l6 4 4 6 1 158v34l-2 9-1 3h18l19-1 4-2v4l77-1 8-3 5-1 1 5 222-1 6-2 6-12 3-10 6-12 11-24 12-24 4-10 4-9 5-9 4-10 4-8h3l2 8 7 22 6 19 8 25 10 30 8 23 1 4 90-1 74 1h378v-2l-5-2-15-8-8-2h-17l-34 2-41 1h-18v-62h38l65 2 2 5 16-5h2l2-6 15-29h-4v-13l16-1h78v14l-1 1h-73v13l-2 6 65 1 1 2-1 12 4 2 3 5v5l-11 9-10 3-5 5-1 5v3h-48l2 18 1 16h303v15h-1600v-15h109l-4-7v-255l3-5z" fill="#CDD6E0"/>
<path transform="translate(895,610)" d="m0 0 10 3 21 9 2 6 3 20v11l-19 4h-4l13 28-1 4-18 14-18 13-16 12-19 14-7 4 285 1v1l-291 1-5 3-3 6v181h-89l-4-10-4-12-4-10-6-18-4-13-8-24-4-14-8-24v-6h-3l-2 6-4 8-3 7-4 8-9 21-8 16-10 21-6 14-4 8-3 9-5 10-2 2-5 1h-222l-2-4-11 3-1 1h-77v-4l-4 3h-19l2-10 11-13 11-14 13-16 9-11 11-15 10-13h2l2-5 3-4h2l1-4h2l2-4 5-7h2l2-5 6-3h7l4 4 1 8-4 7-5 7h-2l-2 5h-2l-2 5h-2l-2 5-5 5-3 5h-2l-2 4-2 3h-2l-2 4-4 6 1-1h8l13 3 11 7 10 9 4 1 1-15 16-2 47-3 95-4 19-2 8-20 4-12 4-9 6-16 5-15 5-12 6-16 4-10 1-7h2l8-20 12-29 9-21 6-13 5-11 4-10 2-10 7-9 9-8 13-8 21-9 5-1-4 7-12 17-2 2 27 4 18 2 17 5 8 3-4 1-6-2 8 19 5 12 6 14 8 19 6 15 6 13 6 15 3 5 5-12 10-22 10-26 5-11 7-18 5-11 5-12 1-2-22 7-10 3-4-1 27-9 13-4 11-2 24-3 4-1h9l-4-7-4-5-4-4-5-6v-2h-2z" fill="#212636"/>
<path transform="translate(804,318)" d="m0 0h19l17 3 16 6 14 7 12 8 13 11 7 7 11 15 7 12 6 16 4 21-1 16-4 20-7 18-8 16-8 14-12 16-7 9-5 4-5 5-10 9-14 9v34l1 6 17 5-2 4-12 14-11 13-9 11-13 14-3 4-5-1-7-8-28-30-11-12-6-7 1-3 13-4 1-9v-25l-1-7-13-10-11-10-5-5-11-12-14-21-9-17-7-18-5-18-1-8v-22l3-14 6-16 7-13 4-7 4-4 7-8 11-11 13-9 14-8 10-4 17-5z" fill="#FBAF7F"/>
<path transform="translate(115,672)" d="m0 0h61l8 6 2 5 1 54 7-6 3-1h70l6 4 4 6 1 158v34l-2 9-1 3-2 1h-84l-3-7-4 7h-73l-4-7v-255l3-5z" fill="#D34C3F"/>
<path transform="translate(236,445)" d="m0 0 8 6 14 12 11 9 14 12 11 9 14 12 39 33 11 9 4 2 6 7v2l-2 1 3 12 4 11 4 13 6 19 9 27 4 16 4 11 7 6 7 2 15 1 30 5 21 3 62 10 22 3 7 2v2l-16 7-32 16-17 8-16 8-34 16-13-10-3-2v-2l-5-2-12-10-2-1v-2l-4-2-7-5v-2l-5-2-9-8-6-4v-2l-4-2-28-22v-2l-5-2-9-7v-2l-5-2-11-9-6-4v-2l-4-1v-2l-5 2-12 14-8 10-8 9-2 2-10-4-14-10-14-11-11-9-5-6-1-2-1-11v-26l-10-9-2-4-8-4-1-5-6-1-1-3 2-8-6 5-4-2-1-4 2-2-1-4-6 5-4-4v-2h2v-5l-5 2-5-1-1-2 2-6-4 2-5-1-1-4 2-4-5-2-3-4 12-14 22-26 9-11 13-15 11-13 9-11z" fill="#97C14A"/>
<path transform="translate(1318,237)" d="m0 0 6 2 25 12 27 16 17 12 16 13 8 7 10 9 16 16 9 11 1 4-17 11-24 15-39 26-14 10-8 6-1 2 10 3 4 5v6l-1 2 5-2 7 1 3 5-1 7-3 3 7 2 3 3 9 4 15 4 5 5 2 3v11l-4 26-6 6-4 1h-10l-28-11-4 2-6 4-14 4-10 2-8 5-11-9-11-10-10-8 5-5 14-21-4-6-2-1v-2h-3l-2 4-8 5-3 1h-11l-11-4-8-8-4-10v-11l4-10 12-26 13-31 11-31 10-33 10-35z" fill="#EA5A67"/>
<path transform="translate(804,318)" d="m0 0h19l17 3 16 6 14 7 12 8 13 11 7 7 11 15 7 12 6 16 4 21-1 16-4 20-7 18-8 16-8 14-12 16-7 9-5 4-5 5-10 9-9 6-2-1 9-11 8-13 9-17 2-4 6-2 7-9 8-16 3-9v-13l-9-1 1-21-13 3-8 1h-27l-19-3-19-5-15-6-21-11-17-12-13-11-3-2-3 10-4 13-3 14-1 17v12l-6-2h-5l-2 3v13l6 15 9 14 5 5 3 1 1-3h2l12 25 12 18 5 6h-3l-9-7-10-9-5-5-11-12-14-21-9-17-7-18-5-18-1-8v-22l3-14 6-16 7-13 4-7 4-4 7-8 11-11 13-9 14-8 10-4 17-5z" fill="#442A1F"/>
<path transform="translate(185,683)" d="m0 0h1l1 54 7-6 3-1h70l6 4 4 6 1 158v34l-2 9-1 3-2 1h-84l-3-7-2 2z" fill="#FC9E3D"/>
<path transform="translate(1295,825)" d="m0 0h78v14l-1 1h-73v13l-2 6 65 1 1 2-1 12 4 2 3 5v5l-11 9-10 3-5 5-1 5v3h-48l2 18 1 15-3 1h-11l-22-12-8-2h-17l-34 2-41 1h-18v-62h38l65 2 2 5 16-5h2l2-6 15-29h-4v-13z" fill="#FBAF7F"/>
<path transform="translate(364,561)" d="m0 0h2l5 17 8 22 4 14 9 27 4 16 4 11 7 6 7 2 15 1 30 5 21 3 62 10 22 3 7 2v2l-16 7-32 16-17 8-16 8-34 16-13-10-3-2v-2l-5-2-12-10-2-1v-2l-4-2-7-5v-2l-5-2-9-8-6-4v-2l-4-2-28-22v-2l-5-2-9-7v-2l-5-2-11-9-6-4v-2l-4-1v-2l-5 2-3 1-4-10-3-6 9-10 9-11 11-13 24-28z" fill="#FCFBFB"/>
<path transform="translate(895,610)" d="m0 0 10 3 21 9 2 6 3 20v11l-19 4h-4l13 28-1 4-18 14-18 13-16 12-19 14-7 4 285 1v1l-291 1-5 3-3 4-7 6-1 2-5-2-13-10-13-9-13-10-15-11-18-13-13-10-14-10 1-6 10-22 1-4-22-3-1-1 1-10 3-23 2-4 15-7 3 1-14 20-4 5 27 4 18 2 17 5 8 3-4 1-6-2 8 19 5 12 6 14 8 19 6 15 6 13 6 15 3 5 5-12 10-22 10-26 5-11 7-18 5-11 5-12 1-2-22 7-10 3-4-1 27-9 13-4 11-2 24-3 4-1h9l-4-7-4-5-4-4-5-6v-2h-2z" fill="#414758"/>
<path transform="translate(118,689)" d="m0 0h55l1 1v187h-57v-187z" fill="#FBFBFB"/>
<path transform="translate(198,743)" d="m0 0h61l1 1v149h-62z" fill="#FDFBFA"/>
<path transform="translate(1348,408)" d="m0 0 9 3 5 3 2 3v6l-1 2 5-2 7 1 3 5-1 7-3 3 7 2 3 3 9 4 15 4 5 5 2 3v11l-4 26-6 6-4 1h-10l-28-11-4 2-6 4-14 4-10 2-8 5-11-9-11-10-10-8 5-5 14-21 2-4 11-12 18-18 1-3-3-1 2-4z" fill="#FAAE7F"/>
<path transform="translate(927,623)" d="m0 0 7 3 10 6 10 8 7 9 2 7 1 22v31l1 3-2 3-2 2-3 11-2 7v10l-4 5-3 1 4 2h-112l3-3 16-11 18-14 17-12 21-16 4-3-1-5-11-24v-2l20-4h3l-3-25z" fill="#202535"/>
<path transform="translate(694,814)" d="m0 0h3l2 8 7 22 6 19 8 25 10 30 8 23v4h-104l2-5 6-13 4-11 4-8 11-24 12-24 4-10 4-9 5-9 4-10z" fill="#FCFBFB"/>
<path transform="translate(364,293)" d="m0 0 5 1 6 9 8 16 4 10 15 32 1 8-4 4-16 8-9 4-1 2-5 1-5-6 5-3-1-6-2-4h-6l-1-5 3-2-5-10-14 7-1 1-1 8-2-4-2-2-9 2-3 2v7l-8 1-5 2 3 6v2l-4-2-1-1h-5l-2 2 1 8 1 6-5-1-11-25-13-28v-8l6-4 23-11 20-9 15-7z" fill="#8ED1EC"/>
<path transform="translate(389,820)" d="m0 0h7l4 4 1 8-4 7-5 7h-2l-2 5h-2l-2 5h-2l-2 5-5 5-3 5h-2l-2 4-2 3h-2l-2 4-4 6 1-1h8l13 3 11 7 10 9 5 1 1 16v18l-13 3-1 1h-77v-4l-4 3h-19l2-10 11-13 11-14 13-16 9-11 11-15 10-13h2l2-5 3-4h2l1-4h2l2-4 5-7h2l2-5z" fill="#FBB080"/>
<path transform="translate(1396,563)" d="m0 0 7 1 4 7v7l-3 17 6-2 17-11 22-14 9-5h5l5 6-2 6-10 9-14 10-8 6 7-4 7 1 3 4v6l-5 5-18 12 4-2 11-7 6-1 4 5v5l-4 5h6l3 4-1 7-18 13-16 11-9 6h-14l-2-1h-6l-6 3h-4l-20-30 2-6 7-9 8-20 12-39z" fill="#FBB080"/>
<path transform="translate(1143,872)" d="m0 0h38l65 2 1 1 1 13v41l-1 1-25 2-20 1-41 1h-18z" fill="#232837"/>
<path transform="translate(657,166)" d="m0 0h10l12 3 4 2-1 10 3 3 2 1v2h9l7 4 7-1 6-6 4 2 5 4 6 10 6 12 1 3v11l-6 12-8 6-11 4h-21l-10-2-15-6-12-7-12-11-6-7-1-3-2-2v-2l-3-7v-16l3-6 8-7 12-5z" fill="#E4FBFE"/>
<path transform="translate(726,615)" d="m0 0 3 1-14 20-4 5 27 4 18 2 17 5 8 3-4 1-6-2 8 19 5 12 6 14 8 19 6 15 6 13 6 15 4 6v3l-5-2-13-10-13-9-13-10-15-11-18-13-13-10-14-10 1-6 10-22 1-4-22-3-1-1 1-10 3-23 2-4z" fill="#404656"/>
<path transform="translate(776,560)" d="m0 0 7 6 10 6 9 4 4 1h13l11-4 12-7 5-3 2 31 1 6 17 5-2 4-12 14-11 13-9 11-13 14-3 4-5-1-7-8-28-30-11-12-6-7 1-3 13-4 1-9v-22z" fill="#EA9F7A"/>
<path transform="translate(213,571)" d="m0 0 10 4 14 11 10 9 9 7 1 1 13 1 11 4 9 6v2h2l10 13 8 16 1 5-18 22-8 9-2 2-10-4-14-10-14-11-11-9-5-6-1-2-1-11v-26l-10-9-2-4-8-4-2-7 4-6z" fill="#FBAF7F"/>
<path transform="translate(356,351)" d="m0 0 3 4 3 8-3 2v4l6-1 4 8-1 4-4 3 5 4h4l1 10v15l2 21v12l-33 12h-2l-5-9-10-8-8-6-3-5-4-12-9-16-2-6 4 2-3-9v-5l3-3h5l5 4-3-6v-2l5-3 6-1 2 1-1-7 4-3 9-2 3 3 2-5 8-5z" fill="#FAAE7F"/>
<path transform="translate(1095,150)" d="m0 0 16 2 9 2-3 5-3 6-5 28-3 14 12-3 36-12 37-12 11-4-22-5-11-2 2-5h8l33 6 1 3-5 27-6 30h-10l-60-11-45-8-2-2 9-51z" fill="#1A1E2A"/>
<path transform="translate(1296,860)" d="m0 0h66l1 2-1 12 4 2 3 5v5l-11 9-10 3-5 5-1 5v3h-48l-3-22-1-17 4-10z" fill="#9F513A"/>
<path transform="translate(389,820)" d="m0 0h7l4 4 1 8-4 7-5 7h-2l-2 5h-2l-2 5h-2l-2 5-5 5-3 5h-2l-2 4-2 3h-2l-2 4-13 16-8 10-13 16-16 20h-19l2-10 11-13 11-14 13-16 9-11 11-15 10-13h2l2-5 3-4h2l1-4h2l2-4 5-7h2l2-5z" fill="#141219"/>
<path transform="translate(1318,237)" d="m0 0 6 2 25 12 27 16 17 12 16 13 8 7 10 9 16 16 9 11 1 4-2 1-10-3-21-9-23-12-4-3 1-8v-10l-4-6-4-3h-13l-10 5-17-16-10-10-8-10-9-13-2-2z" fill="#FC9C35"/>
<path transform="translate(978,824)" d="m0 0h14l8 3 9 8 6 12v11l-3 7-6 8-8 6-8 3h-9l-11-4-8-7-5-9-1-4v-12l4-9 7-8 8-4z" fill="#CDD6E0"/>
<path transform="translate(1358,894)" d="m0 0 1 2 4 2 3 7-2 5-5 4-11 3v2l10-1 6 4 1 1v7l-2 4-7 4h-3v2h-2l-1 4h-53l-2-15-1-18h48l-1-6 4-6 5-3z" fill="#FDE6C8"/>
<path transform="translate(1203,175)" d="m0 0h2l-1 12-6 34-1 3-9-1-49-9-32-6v-1l17-5 69-23z" fill="#5587A5"/>
<path transform="translate(1116,159)" d="m0 0h1l1 9 11-1 7-4 1 8h9l8-1 3 1h11l2-2 10 1 23 5-1 2-41 14-35 11-14 5h-6l1-9 4-21 3-15z" fill="#8CD0EB"/>
<path transform="translate(634,211)" d="m0 0 3 1 4 7 10 10 14 9 14 6 6 2 7 1 26 1 2 3v5l-2 2h-39l-9 10-2 6-13-5-25-11 1-9 3-8-1-28z" fill="#FBAF7F"/>
<path transform="translate(1259,409)" d="m0 0h13l13 5 9 6 6 8 3 7 1 8-3 5h-2l-2 4-8 5-3 1h-11l-11-4-8-8-4-10v-11l4-10z" fill="#FC9C35"/>
<path transform="translate(1101,213)" d="m0 0 8 1 56 10 16 3-3 1v2l-14 4-6 4-6 12-2 6-24-3-20-3 2-2v-16l-7-17z" fill="#FBAF80"/>
<path transform="translate(1383,445)" d="m0 0 4 1 21 6 5 5 2 3v11l-4 26-6 6-4 1h-10l-28-11v-3l16-16 8-7 4-5-1-6-4-3-4 2-8 7-6 6h-2l2-4 10-9 5-6z" fill="#252225"/>
<path transform="translate(1299,840)" d="m0 0h65l1 3v8l8-2h8l4 4 1 7-5 4-18 8h-1v-11l-65-1-1-2 2-5z" fill="#FEE6C7"/>
<path transform="translate(361,302)" d="m0 0h3l14 30 16 34-3 3-17 8-8-16-13-28-10-21 3-3z" fill="#FBFCFD"/>
<path transform="translate(389,820)" d="m0 0h7l4 4 1 8-4 7-5 7h-2l-2 5h-2l-2 5h-2l-2 5-5 5-3 5h-2l-2 4-2 3h-14l2-7-4-2-3 2 2-5 10-12 1-2h2l2-5 3-4h2l1-4h2l2-4 5-7h2l2-5z" fill="#272527"/>
<path transform="translate(1295,825)" d="m0 0h78v14h-75l-5-3-6 1-3 2h-5v-13z" fill="#A0523A"/>
<path transform="translate(1171,164)" d="m0 0h8l33 6 1 3-5 27-6 30h-10l-93-17-2-2 7-2 1-2 28 5 50 9 14 3 2-13 6-36h-7l-24-5-5-1z" fill="#20212C"/>
<path transform="translate(827,761)" d="m0 0 1 3v180h-15l4-2h3l1-9-1-10-1-55 1-56 1-17v-22l-1-2h2l1-4 2-4h2z" fill="#1A1E2B"/>
<path transform="translate(1183,145)" d="m0 0h6l4 3v6l-6 10-2 1-14-1-2 7-1 1h-11l-6-1-11 1-3-1-2-7-6 4h-11l-1-2v-8l2-3h2l1-4 2-2 6 1 4 5 4 2 4-4h7l5 6 4-2 3-3 4-1 6 5v2l4-4 6-10z" fill="#F5AB7D"/>
<path transform="translate(1144,873)" d="m0 0h76l26 1 1 1 1 13v41l-4-1h2l-1-5h-1l-2-21v-16l1-3-2-7-3 1-1 2-7 1-11-1h-46l-21-1-2-1-1 11v31l-2 5-1 5 9 3v1h-11z" fill="#191D2B"/>
<path transform="translate(718,185)" d="m0 0 7 5 6 10 6 12 1 3v11l-4 6-16-8-10-4-5-1-7-2v-6l1-1 7 1 4 2 3-10 6-13z" fill="#8BD0EC"/>
<path transform="translate(518,885)" d="m0 0 11 1-3 4-10 1-25 1-16 2h-9l-22 2h-23l-9-1-2 12v18l2 9-1 7h-2v3h-2l-1-21v-31l16-2 47-3z" fill="#22242E"/>
<path transform="translate(325,886)" d="m0 0h9l-6 8-11 14-13 16-5 7-8-2-5-5 1-4 7-8 12-14 10-8z" fill="#FBAF7F"/>
<path transform="translate(142,898)" d="m0 0h7l8 4 3 7v7l-3 7-5 4-9 1-7-3-4-5-1-3v-7l4-8z" fill="#42291F"/>
<path transform="translate(1290,816)" d="m0 0h60l12 1 1 8-84 1v-1h10v-8z" fill="#F9AD7F"/>
<path transform="translate(230,908)" d="m0 0 9 2 5 5 2 4v7l-4 7-6 4h-9l-6-4-3-4-1-3v-7l4-7 4-3z" fill="#2B2324"/>
<path transform="translate(731,171)" d="m0 0h6l4 5-1 5-8 8-4 3h-3v-2l-4-2-3-3-4 2-6 5-7-1-4-4 2-7 5-5 8-1 7 7 10-9z" fill="#FBAF7F"/>
<path transform="translate(1171,164)" d="m0 0h8l33 6 1 3-5 27-4 21-2 2v-2l-3-1v-9l6-36h-7l-24-5-5-1z" fill="#1D212D"/>
<path transform="translate(341,907)" d="m0 0 4 2 9 11 9 10v2h-40l1-4 13-16z" fill="#FCF8F4"/>
<path transform="translate(1373,285)" d="m0 0h13l7 6 2 4v10l-2 6-6-2-17-13-5-3 1-4z" fill="#A4523A"/>
<path transform="translate(1361,872)" d="m0 0 1 2 4 2 3 5v5l-9 7-10 1-5-4-1-2v-7l5-5 7-3z" fill="#FAAE7F"/>
<path transform="translate(1358,894)" d="m0 0 1 2 4 2 3 7-2 5-5 4-7 2-7-1-4-7 1-5 4-5 8-3z" fill="#FBAF7F"/>
<path transform="translate(1335,418)" d="m0 0 5 2-1 4-25 25-5 6h-2l-6-7 3-4h2v-2l8-6 11-10z" fill="#22181B"/>
<path transform="translate(1354,918)" d="m0 0 6 1 5 4v7l-2 4-10 5-6-1-5-5-1-6 3-5 6-3z" fill="#FCB080"/>
<path transform="translate(1373,849)" d="m0 0h8l4 4 1 7-5 4-18 8h-1v-13l2-6 5-3z" fill="#FBAF7F"/>
<path transform="translate(1326,867)" d="m0 0 4 1 5 4 4 8v10l-5 9-3 3h-2l-1-11-4-6v-14z" fill="#F9F4F0"/>
<path transform="translate(1320,868)" d="m0 0h3v18l4 7v10l-7-1-6-7-1-3v-14l3-6z" fill="#FAF1EB"/>
<path transform="translate(230,908)" d="m0 0 7 1v1l-11 1-2 3 4-1 7 3 3 4-1 7-6 3-6-1-2-4h-2v-2l-4 3v-7l4-7 4-3z" fill="#472B1F"/>
<path transform="translate(1124,149)" d="m0 0 6 1 4 5 3 2h-2l-1 5 1 2-6 4h-11l-1-2v-8l2-3h2l1-4z" fill="#FBAF80"/>
<path transform="translate(1098,187)" d="m0 0 5 1 2 7 2 4-1 8-2 3-10 2v-2l-2-1v-7l4-14z" fill="#252225"/>
<path transform="translate(1241,875)" d="m0 0h6l1 13v41l-4-1h2l-1-5h-1l-2-21v-16l1-3-2-5z" fill="#2A232A"/>
<path transform="translate(227,906)" d="m0 0h9l7 4 4 5 2 5-1 9-3 5-6 4-3 1h-11l-7-5-4-9 1-9 7-8zm3 2-6 2-5 5-2 4v7l3 6 5 4 2 1h9l6-4 4-7v-7l-4-7-5-3z" fill="#FCDAB8"/>
<path transform="translate(690,168)" d="m0 0h6l4 6-2 6-7 6-6-1-4-4 1-7 6-5z" fill="#FCB080"/>
<path transform="translate(1103,249)" d="m0 0 23 3 25 4 4 1v3l-6 1v-2l-3 1-4-1-12-2v-2l-10 1-14-1-2 4-3 1 1-10z" fill="#21181C"/>
<path transform="translate(1351,861)" d="m0 0h12l-1 11-9 3-6 3-2 3-1 9-4-1-1-2v-7l6-3 3-1v-2l5-2 1-7-1-3z" fill="#4E2E21"/>
<path transform="translate(1102,160)" d="m0 0h6l1 8-5 10 2 1v6l-1 1h-5l-2-2v-5l2-1-1-8 1-4z" fill="#242225"/>
<path transform="translate(1171,164)" d="m0 0h8l19 4 2 5 3 1h-8l-26-5z" fill="#1D1C25"/>
<path transform="translate(1383,445)" d="m0 0 4 1 6 2 2 5 1 1-1 9-5 6-5 1 6-8-1-6-4-3-4 2-8 7-6 6h-2l2-4 10-9 5-6z" fill="#231F26"/>
<path transform="translate(306,328)" d="m0 0 4 1 4 7-1 4-9 4-3-1-3-7 1-5z" fill="#F7FCFD"/>
<path transform="translate(1095,150)" d="m0 0 10 1 2 2-5 1-2 3h-2v7l-2 5h-2l1 14-3 7-2 6h-1v-10z" fill="#1B1A21"/>
<path transform="translate(317,346)" d="m0 0 3 3 3 8-8 5-5-1-4-10z" fill="#F5FCFD"/>
<path transform="translate(323,320)" d="m0 0h3l3 8-1 5-7 3-4-1-3-7v-4z" fill="#F5FCFD"/>
<path transform="translate(288,336)" d="m0 0 5 1 3 6v5l-8 3h-4l-4-11z" fill="#F6FCFD"/>
<path transform="translate(298,354)" d="m0 0 3 1 4 8-1 4-10 3-3-5-2-6z" fill="#F6FCFD"/>
<path transform="translate(332,339)" d="m0 0h2l4 9-1 3-8 4-3-1-4-7 1-4z" fill="#F3FCFD"/>
<path transform="translate(297,932)" d="m0 0 5 2 12 7-2 3h-19l2-10z" fill="#1D1C26"/>
<path transform="translate(337,314)" d="m0 0h3l5 10-1 2-8 3h-3l-4-10z" fill="#E9686A"/>
<path transform="translate(347,332)" d="m0 0h2l4 11-10 5-3-3-2-8z" fill="#52809C"/>
<path transform="translate(1311,439)" d="m0 0h5v5l-4 8-3 3h-2l-6-7 3-4h2v-2z" fill="#1D161A"/>
<path transform="translate(1405,452)" d="m0 0 5 1 5 7v11l-2 8h-3l-1-17-4-7z" fill="#1A1D29"/>
<path transform="translate(389,820)" d="m0 0h6l-2 1 3 3-3 10-3 1v2l-6 3v-4l3-12 3-2z" fill="#222736"/>
<path transform="translate(227,906)" d="m0 0h9l7 4 4 5 2 5-1 9-3 5-6 4h-3v-2l6-4 3-6v-7l-4-7-8-3-7-1z" fill="#FCDFC1"/>
<path transform="translate(152,899)" d="m0 0 6 1 4 6 1 3v7l-5 9-3 3-3 1h-12l-6-4-3-4 1-4 4 7 7 3 9-1 5-4 2-6v-7l-2-6z" fill="#A3533B"/>
<path transform="translate(189,552)" d="m0 0 4 1 2 2-1 5-8 8-4-2-1-4h2l2-5z" fill="#1A191E"/>
<path transform="translate(180,545)" d="m0 0 5 1 2 4-7 8-6 1-2-3 4-7z" fill="#1A191F"/>
<path transform="translate(197,560)" d="m0 0 5 1 2 4-7 8-4 2-3-3 1-4z" fill="#1A191F"/>
<path transform="translate(142,900)" d="m0 0h6l6 3 3 4v7l-3-6-5-3-9 1-4 4v7l3 5-4-2-2-3 1-9 6-7z" fill="#242227"/>
<path transform="translate(172,538)" d="m0 0 4 1 1 5-7 8-5-1-1-4 7-8z" fill="#19171D"/>
<path transform="translate(206,567)" d="m0 0 4 1 3 2-2 4-4 4-3 4-4-1-1-3 4-8z" fill="#1C171D"/>
<path transform="translate(1373,285)" d="m0 0h13l7 6 2 4v10l-2 6-3-1 2-1v-13l-4-6-5-3h-8l-10 5 1-3z" fill="#653627"/>
<path transform="translate(1130,254)" d="m0 0h11l14 3v3l-6 1v-2l-3 1-4-1-12-2z" fill="#19151A"/>
<path transform="translate(407,915)" d="m0 0 2 1 2 12 1 7-1 6h-2v3h-2z" fill="#1D1C25"/>
<path transform="translate(697,210)" d="m0 0 7 1 4 2-1 5-1 2-10-3v-6z" fill="#353430"/>
<path transform="translate(307,374)" d="m0 0h3l4 8v2l-4-2-1-1h-5l-4 2-2-2 1-4z" fill="#F6F8F6"/>
<path transform="translate(1371,830)" d="m0 0h1v9h-14l-20-1v-1l10-1h22v-5z" fill="#442A1F"/>
<path transform="translate(874,537)" d="m0 0h2l-2 4-11 10-9 6-2-1 7-8 4-2h2l6-7z" fill="#241C1F"/>
<path transform="translate(1189,167)" d="m0 0 9 1 2 5 3 1h-8l-12-3v-1h5z" fill="#17161F"/>
<path transform="translate(363,368)" d="m0 0 3 1 3 7-1 4-4 1-4-10v-2z" fill="#4C6678"/>
<path transform="translate(395,820)" d="m0 0 4 2 2 5-1 8-4-3h-2l1-6 1-2-3-1v-2z" fill="#28272E"/>
<path transform="translate(1201,208)" d="m0 0h4v8l-2 7-1-2-3-1v-9z" fill="#16151D"/>
<path transform="translate(674,160)" d="m0 0 6 1 3 4-1 3-2-1-12-1 2-4z" fill="#FBAF7F"/>
<path transform="translate(1106,180)" d="m0 0 2 4 1 9-2 6-3-4-2-6 3-4z" fill="#1B1E2A"/>
<path transform="translate(1351,872)" d="m0 0m-1 1m-2 1h2l-1 3-4 4-1 9-4-1-1-2v-7l6-3 3-1z" fill="#502F22"/>
<path transform="translate(355,871)" d="m0 0 5 1 1 3 6-1-1 4h-14l2-6z" fill="#1A1E28"/>
<path transform="translate(564,883)" d="m0 0 11 1-1 2-9 1-19-1v-1z" fill="#191D2A"/>
<path transform="translate(356,351)" d="m0 0 3 4 3 8-5-1-3-5v-2h-5l3-2z" fill="#4B5565"/>
<path transform="translate(1100,178)" d="m0 0 6 1v6l-1 1h-5l-2-2v-5z" fill="#6B8365"/>
<path transform="translate(698,552)" d="m0 0h3l10 13-1 2-1-3-4-1-8-9z" fill="#17151D"/>
<path transform="translate(376,444)" d="m0 0h5l-3 2-5 1v2l-8 3h-8l2-2z" fill="#21181B"/>
<path transform="translate(1369,486)" d="m0 0 2 3 3 6 2 2-6-1-6-4 1-2h2z" fill="#1B1B25"/>
<path transform="translate(1099,276)" d="m0 0h1v8l-4 12h-1v-10l3-9z" fill="#191B21"/>
<path transform="translate(1313,439)" d="m0 0h3v5l-2 3-6 1-1-4h3l2-4z" fill="#1A1D28"/>
<path transform="translate(1100,259)" d="m0 0h3l-1 13-1 4-3 1 1-10z" fill="#24262A"/>
<path transform="translate(234,910)" d="m0 0 7 1 4 5v8l-3-4-1-5-4-2z" fill="#271A1C"/>
<path transform="translate(353,861)" d="m0 0 2 4 2 5-2 1-5-2-3 2 2-5z" fill="#24292F"/>
<path transform="translate(405,940)" d="m0 0 2 1v4h-13v-2z" fill="#FDF6ED"/>
<path transform="translate(341,737)" d="m0 0 5 3 1 3h2l1 5h-3l-5-5v-2z" fill="#232935"/>
<path transform="translate(619,253)" d="m0 0 5 1 7 4-2 1-7-1-5 1 1-5z" fill="#1C1B1F"/>
<path transform="translate(857,603)" d="m0 0 8 1 2 1-2 4-5 1z" fill="#FCB080"/>
<path transform="translate(1315,506)" d="m0 0 4 2 7 6-1 4-3 2-1-8h-2l-4-4z" fill="#19151B"/>
<path transform="translate(314,941)" d="m0 0h2v4l2 1-25-1v-1l19-1z" fill="#C4C0BE"/>
<path transform="translate(1381,452)" d="m0 0 3 1-12 11-4 4h-2l2-4 10-9z" fill="#512F23"/>
<path transform="translate(320,367)" d="m0 0h3l1 6h-7l-2-1 1-3z" fill="#F6F8F6"/>
<path transform="translate(871,531)" d="m0 0 1 2-3 6-4 6-2-1 2-5 4-7z" fill="#24191C"/>
<path transform="translate(1383,445)" d="m0 0 4 1 4 2-3 4h-6z" fill="#211C1E"/>
<path transform="translate(1323,869)" d="m0 0h2v17h-3v-16z" fill="#603627"/>
<path transform="translate(760,546)" d="m0 0 4 1 7 6 1 3-4-2-8-6z" fill="#33221E"/>
<path transform="translate(697,180)" d="m0 0h2l-1 7 1 2-12-2 4-2z" fill="#FDF4E8"/>
<path transform="translate(1109,153)" d="m0 0h8l3 2-3 4-5-2v-3z" fill="#19161C"/>
<path transform="translate(294,938)" d="m0 0 1 2 9 2-1 2h-10z" fill="#252B36"/>
<path transform="translate(1039,457)" d="m0 0 2 1-6 7-10 8-2-1 10-9z" fill="#2A2D30"/>
<path transform="translate(342,319)" d="m0 0 2 3 1 3-10 4v-2l5-5z" fill="#E7A378"/>
<path transform="translate(874,537)" d="m0 0h2l-2 4-6 6h-2l2-5z" fill="#1C181D"/>
<path transform="translate(1373,285)" d="m0 0h11l1 2h-10l-10 5 1-3z" fill="#472B1F"/>
<path transform="translate(607,822)" d="m0 0 2 4-4 5-2 3 1-8z" fill="#1C1F2C"/>
<path transform="translate(1393,458)" d="m0 0 2 2-1 4-4 5-5 1 5-6 2-1z" fill="#151823"/>
<path transform="translate(300,395)" d="m0 0 4 2 4 11-1 2-7-13z" fill="#97C14A"/>
<path transform="translate(1393,297)" d="m0 0h2v8l-2 6-3-1 2-1z" fill="#472B1F"/>
<path transform="translate(1146,219)" d="m0 0 16 3v1h-9l-7-2z" fill="#1F181C"/>
<path transform="translate(697,210)" d="m0 0 7 1 4 2v4l-5-2v-2h-3v-2z" fill="#313E4B"/>
<path transform="translate(1324,886)" d="m0 0h2l3 5-1 11h-1l-1-9-3-6z" fill="#AF6046"/>
<path transform="translate(1197,168)" d="m0 0 3 3v2l3 1h-8l-2-5zm-2 2 1 2z" fill="#171925"/>
<path transform="translate(185,937)" d="m0 0 3 3v5h-5l1-5z" fill="#F4FAFB"/>
<path transform="translate(1347,893)" d="m0 0h12l-1 2-11 2z" fill="#543124"/>
<path transform="translate(1144,929)" d="m0 0 11 3v1h-11z" fill="#171B28"/>
<path transform="translate(346,455)" d="m0 0 3 1-4 1v2l-9 2-1-2z" fill="#1F181A"/>
<path transform="translate(844,750)" d="m0 0 10 1v1l-5 1h-8z" fill="#1A1E2C"/>
<path transform="translate(1286,481)" d="m0 0 4 2v2l-8 2 1-4z" fill="#1D1F1E"/>
<path transform="translate(1410,455)" d="m0 0h2l3 5v7l-2-2-3-7z" fill="#17161E"/>
<path transform="translate(1139,368)" d="m0 0h1v10l-2 2-1-9z" fill="#16141D"/>
<path transform="translate(1092,313)" d="m0 0 1 2-2 9-2 4v-9z" fill="#15141D"/>
<path transform="translate(1109,178)" d="m0 0h1v11l-2 1-1-10z" fill="#15151E"/>
<path transform="translate(1196,175)" d="m0 0h7l-1 2-6 2h-5z" fill="#B7E6F6"/>
<path transform="translate(1116,159)" d="m0 0h1l1 9-4 1v-7z" fill="#DBECED"/>
</svg>
