<?xml version="1.0" encoding="UTF-8"?>
<svg version="1.1" viewBox="0 0 1024 819" width="1024" height="819" xmlns="http://www.w3.org/2000/svg">
<path transform="translate(0)" d="m0 0h1024v819h-1024z" fill="#FCFAF8"/>
<path transform="translate(536,548)" d="m0 0 22 1 2 1 110 1 4 7v2l17 1 22 4 21 6 18 7 14 8 8 6v2l4 2 4 4v2h2l8 13 5 14 2 15v-7l-2-13-6-13-4-7-10-11-9-7-5-3 3-2h94l4 8 2 9 2 6v4h2l3 12v4h2l4 15 7 21v4h2l1 7 3 9 1 8h2l4 16 3 8 4 11 3 12 3 7 1 9 2 1 4 15 4 9 4 13v4l-275 1-4-1-6 3h-2l-1 5-8 4h-8l-4-4-3-7-6-1-136 1-23 1 1 6-2 7-3 2-5 1h-10l-8-6-2-4-4-1-2-6-304-1 1-4 3-7 5-10 4-11 2-3 2-6 4-8 3-8h2l1-5 1-3h2l3-11 8-16 1-5h2l1-6 2-2 4-10 4-9 1-5h2l2-7 3-2 1-7h2l1-7 2-6h2l1-5 7-14 3-8 5-11 2-5h2l1-5 3-6h86l16 1v2l-5 1v2l21-8 35-9 30-5 3-13 1-1h129v-2z" fill="#FCDAD0"/>
<path transform="translate(536,548)" d="m0 0 22 1 2 1 110 1 4 7v2l17 1 22 4 21 6 18 7 14 8 8 6v2l4 2 4 4v2h2l8 13 5 14 1 7v12l-3 10-7 10-7 7-10 7-21 11-26 10-32 9-22 5-30 6-24 4-19 3-3 1v3l4 2-2 3-44-2h-13l-27 3-23 1-1-3 2-9v-9l-3-17-2-9-5 1-12 6h-4v2l-14 2h-34l-8 3-6 7-2 5-14-1-26-5-32-8-16-5-24-9-15-8-9-7-8-8-4-8-1-3v-18l5-14 8-11 11-11 11-7h2v-2l21-10 20-7 31-8 30-5 3-13 1-1h129v-2z" fill="#2F6488"/>
<path transform="translate(536,228)" d="m0 0h14l14 6 10 7 16 9 5 1h11l11-3v8l-4 16-4 9-7 11-4 4h-2v3l4-1 3 3 1 6-4 9-6 7-9 3-1 26-10 11v13h-3v2l-5 4h-2v2l-7 6-5 2v2l-3 2 1 4 7 7 4 3v2h2l1 4h-4l-2 5-5 4 1 10 2 15 5 25 2 9 1 4v9l-5 5h-2v2h-2l-1 3h-2l-2 4-1 1h-5v35l-2 2h-19v2l-129 1-3 13-7 2-24 4-35 9-10 3-4-2-19-2-11-4-1-2-5-1-5-4-7-4-1-3-5-2-3-5-3-3-5-6h-1l-1-9-4 1-8-16-4-11-1-6v-8h-2l-1-12h2v3l9-3 5-1v-2l10-6 3-3h3l2-5 2-3h4l4 10 3 5 4 4 1 5 4 1 2 6 6 2 1 3 12 5 3 1h20l7-5 4-1 1-4 7-3 1-3 6-4h2v-5l1-1h5l2-5 7-6 2-5 3-1 8-10 5-5h3l2-4h2l2-4 5-4 2-4 5-2 7-6h3l1-3 4-3h3v-2h3v-2l5-1v-2l13-6 13-5h6v-2l26-5 4-1v-2h2v-2l4-4h4l1-4 4-2v-2h3l2-4 1 2 5 2v-3l-3-1-1-2v-17h-2l-2-5-2-22-8-4-5-5-4-8v-6l4-5h5l-3-7-5-9-1-4v-14l6-12 5-5 6-2 9 1 1-6 7-8z" fill="#D1E9FD"/>
<path transform="translate(207,581)" d="m0 0h86l16 1v2l-5 1v3l-13 7h-3v2l-14 9-11 11-6 9-5 14v18l4 9 7 8 7 6 16 9 20 8 11 4 35 9 29 6 19 3 1-5 7-8 8-3h40l5 12 3 11v13l-3 7-5 2h-4l-1 3v16l2 16v7l-9-2-19-1-8 4-1 1h-304l1-4 3-7 5-10 4-11 2-3 2-6 4-8 3-8h2l1-5 1-3h2l3-11 8-16 1-5h2l1-6 2-2 4-10 4-9 1-5h2l2-7 3-2 1-7h2l1-7 2-6h2l1-5 7-14 3-8 5-11 2-5h2l1-5z" fill="#FBDBD1"/>
<path transform="translate(571,376)" d="m0 0h5v2l8 4v2h3v2l4 2 5 4 12 6 12 4 9 5 3 4 1 3 7 2 8 6v2h2l5 5v3l4 2 4 4v2l4 2 4 5 19 19 9 7 2 3 3 2-1 1 9 3 1 2 7 3 3 3 7 1h22l9-2 7-1 1-3 4-2h5v-2l5-2 2-5 5-5h2l2-5 5-5 5-8 6 2 4 5 7 5 3 1v2l16 3 1-2-1 12-3 9-3 8-2 2-5 14-7 9-5 12-4 2-1 4-4 5-4 2-4 5-11 9-12 6-5 1h-2v2l-8 2-15 1-3 2-6-1-11-4-21-5-30-4-4-8-110-1-2-1-15-1 1-37 6-2 5-6h2v-2l6-5v-9l-2-6-4-23-3-14-2-15v-5l5-4 3-5h4l-1-4h-2l-13-13 1-4 3-1v-2l6-4h2l2-4h2v-2l5-4h2z" fill="#D1EAFD"/>
<path transform="translate(169,152)" d="m0 0h7l6 8 46 69 80 1-2 6-11 9-3 3-3 1-5 5-4 2-2 4-6 4-5 5-14 11-9 8h-2v2l-8 6h-2l-2 4-5 4h-3l-2 4-12 10h-2v2l-5 4h-25l-53-2-5-5-6-9-13-20-18-27-7-11-4-6v-8l5-5 11-10 11-9 5-4h2v-2l14-11 8-7h2v-2h2v-2l9-7 11-9h2v-2l14-11z" fill="#FAF9F8"/>
<path transform="translate(783,675)" d="m0 0 2 4 4 2 3 4v3h2l1 9-3 9-4 2-2 4-8 4-5 1-2 3-4 2h-7v2l-8 4-16 3-8 2h-8v2l-4 1h-12v2l-16 1-4 1-2 20-2 8-3 3-5 13-5 4-3 4-4 2h-8l-4-1-6 3h-2l-1 5-8 4h-8l-4-4-3-7-6-1-136 1-23 1 1 6-2 7-3 2-5 1h-10l-8-6-2-4-4-1-2-8 5-3 4-2 19 1 9 3-3-23v-16l2-4 7-1 2-1 2-6v-13l-5-17-2-3v-3l8-1v-2l11-4 8-4 3 3 4 16 1 8v9l-2 11 23-1 27-3h13l44 2 1-2-4-2 1-4 38-7 24-4 32-7 23-6 21-7 22-9 15-8h5l3-3z" fill="#FCDBD1"/>
<path transform="translate(684,100)" d="m0 0h26l26 1 13 1 15 3 13 5 8 6 5 4 26 14 6 3v2h4l2 4-1 7-14 26-15 28-7 14-8 13-2 2h-7l-14-8-8-1-16 3h-7l-9-2-11-1-13-6v-2l-5-1-3-2-1-4-5-1v-2h-2l-8-11v-3l-4-2-4-6v-2h-2l-9-14-1-8-3 1-3-4-3-8-3-6-1-23 5-8h2v-2l10-5 8-1v-2z" fill="#B6D9FB"/>
<path transform="translate(536,13)" d="m0 0h18l16 4 11 6 3 2v2l6 2 15 1 11 4v2l4 2 4 4 1 5 3 1 4 11 2 8 1 9v12l-1 8h-2l-1 8h-2l-1 5-2 3h-2v3h-2l-2 4-10 9-10 6-4 2h-4v2l-22 8-10 3-8 1h-16l-20-3-4-1v-2l-8-1-12-5-12-8v-2l-4-2-3-4 2-5 13-4 8-1 5-1-9-13-4-10-2-11v-13l4-16 7-12 5-6h2v-2l11-8 9-4z" fill="#F7F7F6"/>
<path transform="translate(536,228)" d="m0 0h14l14 6 10 7 16 9 5 1h11l11-3v8l-4 16-4 9-7 11-4 4h-2v3l4-1 3 3 1 6-4 9-6 7-9 3-1 26-10 11v13h-3v2l-5 4h-2v2l-7 6-5 2v2l-3 2 1 4 7 7 4 3v2h2l1 4h-4l-2 5-5 4 1 10 2 15 5 25 2 9 1 4v9l-5 5h-2v2h-2l-1 3h-2l-2 4-1 1h-5v8h-1l-1-8-6-8-6-7-3-1 1-12 5-22 2-14h2l1-8 1-5v-10l-6-5-4-4v-2l-2-1 5-5 8-7 4-4-5-5-3-2v-2h-2l-4-4v-2l-5-2-2-1v-2h-2l-1-4-3-1-1-2v-17h-2l-2-5-2-22-8-4-5-5-4-8v-6l4-5h5l-3-7-5-9-1-4v-14l6-12 5-5 6-2 9 1 1-6 7-8z" fill="#F8A78D"/>
<path transform="translate(169,152)" d="m0 0h7l6 8 46 69 80 1-2 6-11 9-3 3-3 1-5 5-4 2-2 4-6 4-5 5-14 11-9 8h-2v2l-8 6h-2l-2 4-5 4h-3l-2 4-12 10h-2v2l-5 4h-25l-53-2-5-5-6-9-13-20-18-27-7-11-4-6v-8l5-5 11-10 11-9 5-4h2v-2l14-11 8-7h2v-2h2v-2l9-7 11-9h2v-2l14-11zm3 5-14 11v2l-4 2-13 11-11 9-14 12-11 9-13 11-11 9-5 4 1 4 29 44 12 18 5 7 4-2 9-7v-2l6-3v-2h2v-2l5-2 10-9 9-7v-2l5-2 11-10 8-6v-2l4-2 11-9 9-7v-2l4-2v-3l-9-14-28-42-9-14z" fill="#2F6487"/>
<path transform="translate(861,171)" d="m0 0 3 1-1 5-3 8-2 7-3 9-2 7-4 9-2 9-3 8-4 14-1 8 9 1 5 4 1 3-5 3v9l8 4v2h6l9 3 53 13 1 4-9 34-3 11-7-1-28-7-31-8-1-3-7-3v-2l-4-1-4-2v-2l-4-2-6-4-8-10-6-10v-4h-2l-5-16v-26l6-17 8-12 7-9h2l1-4 5-5 9-10 4-5 10-8h3v-2z" fill="#B6D9FB"/>
<path transform="translate(536,13)" d="m0 0h18l16 4 11 6 3 2v2l6 2 15 1 11 4v2l4 2 4 4 1 5 3 1 4 11 2 8 1 9v12l-1 8h-2l-1 8h-2l-1 5-2 3h-2v3h-2l-2 4-10 9-10 6-4 2h-4v2l-22 8-10 3-8 1h-16l-20-3-4-1v-2l-8-1-12-5-12-8v-2l-4-2-3-4 2-5 13-4 8-1 5-1-9-13-4-10-2-11v-13l4-16 7-12 5-6h2v-2l11-8 9-4zm6 1-13 2-12 5-8 6-8 7-7 11-5 11-1 6v18l4 13 5 10 11 12 12 8 16 5h15l13-3 13-7 10-9 7-9 5-12 2-8v-18l-4-14-6-10-9-10-10-7-12-5z" fill="#B7DAFB"/>
<path transform="translate(224,389)" d="m0 0h8l16 4 10 9 6 11v11l-4 16h-2v21h3l-1 5-4 6-5 3-9 6h-2v2l-6 3-8 1v-9l-3-11-3-6-11-4-9-2-8-4-1-2-7-3-13-6v-2l-4-1-2-4 1-1 19-1-9-7-5-5-5-3-1-5 5-2 1-3 8-1 26 6h3l-1-9 1-5 9-5z" fill="#F9A88D"/>
<path transform="translate(536,228)" d="m0 0h14l14 6 10 7 16 9 5 1h11l11-3v8l-4 16-4 9-7 11-8 7-5 3h-3l-5-18-13 1h-10l-14-2-10-4-9-7v-2h-2l-1 9-4 11-8 11-4 1-5-7-6-11-2-6v-14l6-12 5-5 6-2 9 1 1-6 7-8z" fill="#533038"/>
<path transform="translate(778,120)" d="m0 0h6l15 8 1 6h6l3-1 15 8 2 2-1 5-6 12-10 18-7 14-6 10-8 16-5 8-6-2-12-7-16-8-14-8 9-19 10-18 9-17 12-22 1-3h2z" fill="#FBFAF8"/>
<path transform="translate(841,378)" d="m0 0h8l8 3 7 3 3 6v12l21-2 16-2 5 2 3 4v5l-8 5-8 3-15 4-1 2h11l13 1 5 3v3l-13 5-8 1v2l-12 3-11 1-13 3h-4v3h-2l-1 4-4 9-1 8h-8l-8-3v-2l-4-1-7-5v-2l-3-1v-2h-2l-1-6 3-4 3-10 1-1v-24l-1-8 3-8h3v-2l11-8h2v-2l8-1v5l-5 5-5 7 2 5v4l11-2 6-3h5v-11l-11-6z" fill="#F9A98E"/>
<path transform="translate(783,675)" d="m0 0 2 4 4 2 3 4v3h2l1 9-3 9-4 2-2 4-8 4-5 1-2 3-4 2h-7v2l-8 4-16 3-8 2h-8v2l-4 1h-12v2l-16 1-4 1-2 20-2 8-3 3-5 13-5 4-3 4-10 1v-2l-3-1 3-5 2-1 5-10 1-6h2l1-5 5-12 3-11-6-1-3-1v-2h-2l-4-5v-2h-2l-1-8 9-2 1-2 23-5 23-6 21-7 22-9 15-8h5l3-3z" fill="#FDC5B5"/>
<path transform="translate(341,114)" d="m0 0h3v3h2l5 5 6 3h13l14 35v2l-10 4 2 5-6-2-8 7-2-1 4-5-24 10-29 12-4-1-18-45-3-9 36-15z" fill="#306488"/>
<path transform="translate(291,151)" d="m0 0 2 3 6 14 9 23 5-1 29-12 22-9 2 1-5 5-3 5-10 9-4 4 24-1h25l2 2-3 1v2h-2l-1 3-3 3h-2l-2 4-12 9-10 5-9 3h-30l-18-6-12-6-3-2v-2l-4-1-4-2v-2l-4-2-12-11-7-11-1-9 6-4 5-2h5v-2l17-7h2z" fill="#B6DAFB"/>
<path transform="translate(416,704)" d="m0 0h40l5 12 3 11v13l-3 7-5 2h-4l-1 3v16l2 16v7l-9-2-19-1-9 4h-4l-4-7-2-5v-4h-2l-3-8-1-2-1-12-1-3v-19l1-1 9-1 4-2h4l2-4 5-8 2-4v-7h-9z" fill="#FCFAF9"/>
<path transform="translate(264,680)" d="m0 0 3 1 3 3 7 1 16 8 24 9 35 9 29 6 12 2 6 2-2 12-1 11h-12v-2h-16l-32-4v-2h-13l-3-1v-2l-8-1-17-4-4-3-5-2-9-3-5-3-4-4-4-1-2-7-2-1v-16h2l1-5z" fill="#FDC5B5"/>
<path transform="translate(536,548)" d="m0 0 22 1 2 1 110 1 3 5v4l-49 2-46 1-21 1-1 3h-32l-3-2h-44l-86 2v-7l3-9h129v-2z" fill="#61454F"/>
<path transform="translate(870,160)" d="m0 0h6l9 3 18 5 3 2 6 1v2l8 1 8 2v2h5l1 6-2 8-3 9-1 7-8-6-4-2-4-4 1-5-6-3v-2h5l1 2 12 2h3l-1-5-15-4v-2l-7-1-9-2v-2l-8-1-8-3-10-2 1 5 13 4 1 2-5 1v7l8 1 9 3 7 1 3 2-2 5-4 5-4-1-9-2v2l8 1 1 4-9-2v-2h-6l-2-1v2l5 1 11 3v2l-7 1-1-3-10-1-6-2v-2h-6-2l16 5v2l8 1 4 1v2l-3 3-4 6-5 1v7l-5 5-9 11-4 6-3 1-1 4-4 1-3-4h-12v-8l4-14 4-10 2-9 4-9 3-13 2-3 3-11 2-4h2l2-11z" fill="#FCDBD1"/>
<path transform="translate(859,283)" d="m0 0 9 1 57 14 1 4-9 34-3 11-7-1-28-7-31-8 1-8z" fill="#306588"/>
<path transform="translate(482,693)" d="m0 0 3 1 4 13 2 13v9l-2 11 23-1 27-3h13l44 2 1-2-4-2 1-4 11-2 9-1 1 1v14l5 1-4 3-16 1-61 2-42-1h-18l-15 1-1 3h-3v2h-2l1 14 2 5v3h3v8h2v3l3 2v3l2 1h-16l-1-6-3-21v-17l5-1 5-2 2-6v-13l-5-17-2-3v-3l8-1v-2l11-4z" fill="#FDC5B6"/>
<path transform="translate(400,130)" d="m0 0h16v4l2 1 1 9 1 22 2 22-1 2-3-1-1 2-7-1-18 1-25 1h-23l5-5 10-9 5-5 6-5 5 2-2-4 9-4h2l-8-18-3-8v-3l3-2z" fill="#ECCAC2"/>
<path transform="translate(650,460)" d="m0 0h2l3 12 1 8 5 9 2 3 1 4h2l2 5v3h2l7 11 3 2v3h2l4 5 2 1v2h2l4 4 2 1v3l4 1 4 2v2l5 2 3 1v2l8 1v2l16 3 1 1h23l12-2 7-2 10-3v-2l7-2 4-1v-2l4-3h4l2-5 3-3h3l-1 5-4 2-1 4-4 5-4 2-4 5-11 9-12 6-5 1h-2v2l-8 2-15 1-3 2-6-1-11-4-12-3-5-5-7-3-13-8v-2l-2-1-2-2-5-3-7-6v-3l-5-2v-3l-1 1 1 5-1 2h-2l-2-5-6-35-2-8-3-16z" fill="#B6D9FA"/>
<path transform="translate(414,464)" d="m0 0h2l-1 8-4 18-3 12-6 28-2 6h-2v-7l-3 1-2 5-3 3-3 6h-3v3h-2l-1 3-11 7-3 5-10 5-2 3 1 2-31 8-10 3-4-2-19-2-11-4-1-2-5-1-5-4-7-4-1-3-5-2-3-5-3-3-5-6h-1v-5l3 2v2l5 1 9 6 13 5 12 3 9 1h40v-2l8-1v-2l10-4 3-2h3v-2l5-3h3l1-3 8-7 6-6 2-4 3-3 5-6 1-3h3l1-5 2-1 3-10h2l2-6 4-15 2-10z" fill="#B5D9FA"/>
<path transform="translate(661,718)" d="m0 0 4 1-1 1-9 1 1 5v3h2l1 4 3 1v2h2v2l9 2-1 9-4 9-4 10h-2l-1 5-4 6-2 5-5 5-5 1-9-5h-17l1-9 5-16v-16l-5-2-4-2-2-13 8-2z" fill="#FCFAF9"/>
<path transform="translate(690,110)" d="m0 0 9 6 10 8 28 20 6 5-5 5-10 6-9 5-1 2 5 18-1 3-10-5-13-5-4 1-20 10h-3l3-15 2-6h3v-2l5-4 3-8-1-10-3-6 1-10 4-17z" fill="#316588"/>
<path transform="translate(545,400)" d="m0 0 5 3 6 6v2l4 2v5l-5 6-2 1 1 10 2 15 5 25 2 9 1 4v9l-5 5h-2v2h-2l-1 3h-2l-2 4-1 1h-5v8h-1l-1-8-6-8-6-7-3-1v-6l3-8 8-37 3-14v-7l-9-9 1-4 8-8z" fill="#FA8919"/>
<path transform="translate(193,256)" d="m0 0 2 1zm-1 1 1 2-2-1zm-2 2m-1 1 1 3 6 1-1 3-4 4h8v-6l5-3 1-2h5l-4 4 5-1v2l6-1v2l5-1h2l6-1v2h-2v2l-11 8-5 5-8 7h-2v2l-9 6-5 5-3 1v2l-5 3-1 2h-3v2h-2l-1 3-3 2h-38l-1-4h-2l-1 3h-2l2-4 14-12 4-3h2v-2l4-1 2-4 5-4 11-9 4-4-2-1 8-4 6-4zm27 6v2h-3v2l4-1z" fill="#245372"/>
<path transform="translate(434,10)" d="m0 0 6 1v3h2v2l3 1 3 3v3h2l4 6 2 1v2l2 1h-2v2l-8 2-15 5 1 14-7 4-3 1-1 3-5 2v2l11-8 3-1-2 4-3 2 4-2 3-3 2-1 5 13 6 22-2 4-4-1-1 2 2 1-3 1-1-4-4-2-4-6-2-1-3-5-1-3h-2l-4-5v-2l-2-1-2-5-3-1-3-4v-3h-2l-3-4v-2l-3-1v-4l-4-1-1-7 5-2v-2l5-4h3v-2l11-9 7-5 5-2 1-3z" fill="#FCDBD1"/>
<path transform="translate(136,220)" d="m0 0 4 2v2l3 1 3 6 2 1 3 6 5 5 4 7v4l-8 6-7 5-5 5h-2v2h-2v2l-6 4h-2v2h-2l-2 4-4 3-4-2-2-3-2-6-5-5-8-14-3-2v-6l4-1 1-3 8-6 7-6h2l2-4 7-5 6-2z" fill="#FCDAD0"/>
<path transform="translate(125,149)" d="m0 0h11l7 1 9 3 8 3v2l2 1-8 7h-2v2l-14 11-6 5h-2v2h-2v2l-10 8-11 9-3 1v2l-9 7-4 2 1-17 2-16h2v-8l8-15 5-5 5-4z" fill="#B6D9FB"/>
<path transform="translate(383,101)" d="m0 0 9 1v2l8 1 16 8 11 8 5 3 1 3 4 1 3 3v2l4 2 4 3 1 5 3 1 1 5-1 3h-2l-2 4-22 14-3-1-2-7-2-27-3-1v-4l-40 2-4 1-2-5 1-4 5-4h2l2-5 2-6z" fill="#B7DAFA"/>
<path transform="translate(400,647)" d="m0 0h245v1l-98 14h-11l-48-5-75-8-13-1z" fill="#FDC6B6"/>
<path transform="translate(112,795)" d="m0 0h304v6h-304z" fill="#B5D9FB"/>
<path transform="translate(536,548)" d="m0 0 22 1 2 1 110 1 3 5v4l-49 2-46 1-17 1-9 1-29-1v-12l-2-1h2v-2z" fill="#604751"/>
<path transform="translate(646,795)" d="m0 0h282v6h-288l2-1 2-4z" fill="#B5D9FB"/>
<path transform="translate(455,456)" d="m0 0h46v16l-1 14-2 4-12 4-6 1h-8l-9-2-9-5-1-2 1-27z" fill="#CFE9FD"/>
<path transform="translate(193,176)" d="m0 0 12 6 10 6 4 2v2l5 1 24 13v2l6 1 12 8 4 5 1 6 2 2h-45l-8-11-12-19-8-11-7-11z" fill="#B7DAFB"/>
<path transform="translate(804,451)" d="m0 0 6 2 4 5 7 5 3 1v2l16 3 1-2-1 12-3 9-3 8-2 2-2 7-9-2-5-4-3-1v-2l-4-2-3-2v-2l-3-1-5-6v-3h-2l-3-5-1-8 7-8z" fill="#D0E9FD"/>
<path transform="translate(860,283)" d="m0 0 8 1 57 14-1 4-11 7-4 3h-3v2l-9 5v3l3 4v2h2l4 6v2h2l-1 4-8-10v-2h-2l-1-4h-2v-2h-4v2h-2v2h-6v-4h-2v-3l-6 1-21 10h-3v-2h3v-2l20-9 3-3-4-7v-3h-2l-4-7v-3h-2l-2-6h-2z" fill="#2F6488"/>
<path transform="translate(482,693)" d="m0 0 3 1 4 13 2 13v9l-2 12-12 2-13 2-1-18-5-17-2-3v-3l8-1v-2l11-4z" fill="#F9AA90"/>
<path transform="translate(664,131)" d="m0 0h11l6 3 4 4 4 10-1 9-3 6-3 3h-2v2h-3l-1 4v-2l-8 1-9-3-7-6-2-5v-13l6-9z" fill="#6888A2"/>
<path transform="translate(359,87)" d="m0 0 12 1 3 4 5 2 3 9v9l-4 8-7 5-5 1h-9l-8-4-3-3v-2h-2l-1-5v-12l1-4 7-6 1-2z" fill="#FA891B"/>
<path transform="translate(70,273)" d="m0 0 6 1 4 4 11 18 10 16 1 5 2 3-1 8-7 4-6-1-5-5-11-18-13-20-1-5 2-5z" fill="#FAFAF9"/>
<path transform="translate(169,152)" d="m0 0h7l6 8 34 51 7 11-3 3-3-1-7-11-36-54v-2l-13 10-3 1v2l-22 18-14 12-11 9-13 11-11 9-10 8-4 4h-2l-1 3v-8l5-5 11-10 11-9 5-4h2v-2l14-11 8-7h2v-2h2v-2l9-7 11-9h2v-2l14-11z" fill="#3A6B8C"/>
<path transform="translate(778,117)" d="m0 0h6l2 1v2l6 1 24 13 6 3v2h4l2 4-1 7-14 26-15 28-7 14-8 13-2 2h-7l-14-8-16-8-11-6-2-2v-7l11-21 10-19 1-2h2l1-5 15-29 6-8zm0 3v2h-2l-8 16-8 14-8 16-12 22-5 11 22 12 20 11 6 2 9-15 7-14 9-16 6-12 10-18 2-4-1-5-14-8-3-1-6 1h-2l-1-6-15-8z" fill="#3D6886"/>
<path transform="translate(260,464)" d="m0 0h4l4 10 4 6-1 6-5 6-15 11-9 5-8 3h-6l-1-7v-8h-2l-1-12h2v3l9-3 5-1v-2l10-6 3-3h3l2-5z" fill="#D2EAFD"/>
<path transform="translate(265,269)" d="m0 0h2l-1 8-6 11-3 1-1 5-8 10-16 12-12 6-20 6-8 1h-16l-16-2-10-2-1-2h52l3-3h2v-2l14-11 2-3 5-3 8-7 5-4h2v-2l22-18z" fill="#B8DBFB"/>
<path transform="translate(517,358)" d="m0 0 4 2 5 5 2 1v2l3 1v2l5 1h28l4-1 1-3 4-1v6l-2 5-5 4h-2v2l-7 6-5 2v2l-3 2 1 4 7 7 4 3v2h2l1 4h-4l-2-4-5-5-7-6-8 6-5 5 1 4 7 6 1 2-1 13-9 39-3 12-1-4 5-22 2-14h2l1-8 1-5v-10l-6-5-4-4v-2l-2-1 5-5 8-7 4-4-5-5-3-2v-2h-2l-4-4v-2l-5-2-2-1v-2h-2l-1-4-3-1z" fill="#E0886D"/>
<path transform="translate(388,167)" d="m0 0 4 1 5 3v2l5 2 1 3 5 1 10 8-1 4-7-1-18 1-25 1h-23l5-5 10-9 5-5 6-5 5 2 5 5 5-5z" fill="#FBD9CF"/>
<path transform="translate(455,795)" d="m0 0h159l2 1v5l-162 1v-6z" fill="#B5D9FB"/>
<path transform="translate(536,13)" d="m0 0h18l16 4 11 6 3 2v2l4 2 8 9 6 10 4 16v16l-5 16-6 10-5 6h-2v2l-8 6-12 6-12 3h-20l-11-2-12-6-8-6-1-3-4-2-9-14-3-8-2-11v-13l4-16 7-12 5-6h2v-2l11-8 9-4zm6 1-13 2-12 5-8 6-8 7-7 11-5 11-1 6v18l4 13 5 10 11 12 12 8 16 5h15l13-3 13-7 10-9 7-9 5-12 2-8v-18l-4-14-6-10-9-10-10-7-12-5z" fill="#2A4D66"/>
<path transform="translate(400,130)" d="m0 0h16l-1 5-10 11-6 8h-2l-2 4-11 12-2 3-4-1-5-5 3-3 8-2-8-18-3-8v-3l3-2z" fill="#FBDAD0"/>
<path transform="translate(778,120)" d="m0 0h6l15 8 1 6h2v2h5v2l-13 7h-2v2l-6 3h-2v2h-4v2l-17 9-6 3 1-6 9-16 2-4h2l1-6 3-6 1-6h2z" fill="#FBDCD3"/>
<path transform="translate(287,140)" d="m0 0 6 1 8 4 16 7 8 4 1 4-5 8-10 19h-2v4l2 1-4-1-18-45z" fill="#306589"/>
<path transform="translate(801,182)" d="m0 0h2l-1 5-2 9-7 12-6 12-4 6-3-1v-2l-4-2-18-10-3-3 6-2 7 2 1-8h2v-2l5-1v-2l13-6h3v-2l8-4z" fill="#FBD9CF"/>
<path transform="translate(366,125)" d="m0 0h4l10 25 3 7-1 3-6-1-8-3-10-3-6-1v-2l-5-1 1-7 5-14 1-1h12z" fill="#306488"/>
<path transform="translate(400,647)" d="m0 0h245v1l-98 14h-11l-48-5v-1h17l15 1 16 2 16-1 32-4 7-2 23-2v-2l-129 1h-37l1 1 23 2v2h6v1h-9l-56-6-13-1z" fill="#EDE5E7"/>
<path transform="translate(223,232)" d="m0 0 2 1 25 1h14v4l-2 2-10 1h-5l-3 1v2l4 1-3 1h-6v-2h3v-3l-5 1-2 4-3 2 4 2-3 3h-2v2h10l-1 3-5 2-1 3-3-1 1-2h2v-2l2-1h-10l-1-2 4-3-4-1-1 2v-2l-4 1v2l4 2-4 2h-3v-2h-6l5-4-5 2-3 1 2-4h2v-2l-5 2 5-5v2h2l1-2 5-2v-2l-4 1v-2l4-1h1v-3l-4 2zm26 9m-37 4 2 1zm18 12m-14 1m13 0m-15 1h2l-1 3h-3v-2z" fill="#255676"/>
<path transform="translate(396,532)" d="m0 0h1v8l-1 7 1 4-3 1-3 13-7 2-24 4h-8l5-5 10-5 3-5 7-5h2l1-2 4-2v-3h3l2-6 4-4h3z" fill="#FAF9F8"/>
<path transform="translate(221,233)" d="m0 0m-1 1m-1 1m-1 1m3 0 1 4-1 2-5-1v2l4-1v2l-5 3h-4l-2 3 3-1v2l-4 4 6-4 4 1-5 3 4 1v2l4-2-2-4 5-1h7l-5 5h11l-1 2h-2v2h-2l-1 5h-7l-1 2-2-1-10-1h-3l-4-1h2l1-3-2-1-1 3-5 2 1 4-1 2h-8l2-4 2-2-6-1 2-5h2v-2h2l1-3 11-9 4-4 6-3zm9 21m-14 1m13 0 1 2zm-15 1-2 1v2l4-1v-2zm3-22m-5 9h2v2h-2zm4 20 1 3-4 1v-2h3z" fill="#27597A"/>
<path transform="translate(738,191)" d="m0 0 1 3-3 7 25 13 16 9 6 2v3h-2v2l2 1-2 2h-7l-14-8-16-8-11-6-2-2v-7l5-10z" fill="#37698B"/>
<path transform="translate(665,528)" d="m0 0h2v3l5 2v3l4 2 6 5 5 3 1 4 5 2 3 1v2l5 2 14 7v1l-11-1-30-4-4-8-4-2 3-2-3-8-1-4 1-3z" fill="#FAF9F8"/>
<path transform="translate(536,548)" d="m0 0 22 1 2 1v2h-2v12l-5 1-30-1v-12l-2-1h2v-2z" fill="#F18835"/>
<path transform="translate(187,199)" d="m0 0h2l-1 6-2 10h12l-1 4h-2v3l-7 4-3 3-3 1-2 2-4 3-2-1v-2h-2l-3-5-2-4-1-5 2-4 5-4 1-2 5-3 6-4v3h2z" fill="#FBD6CB"/>
<path transform="translate(172,274)" d="m0 0m-1 1m3 0 2 1-1 2 2 1-5 4-4 4 3 1-2 4h-2v3l4-1 1 2-4 1v3h2l-2 4 5 1 1 3-2 4-5 1 2-3h-4l-1 3-4-1v-5l2-3-3 2-3 1-1 3h-3l2-4 1-1-3-2v-2l-6 4-5-1 5-6 5-3 2-5 6-5 9-7 4-1z" fill="#265777"/>
<path transform="translate(412,705)" d="m0 0h13l1 7-6 11-4 5-8 3-11 1 1-10-3-2h5l1-5 7-8z" fill="#FBDBD1"/>
<path transform="translate(193,256)" d="m0 0 2 1zm-1 1 1 2-2-1zm-2 2m-1 1 1 3 6 1-1 3-4 4h8v1h-5v2h-2v2l2 1-7 1 1-3h2v-2l-3-2h2v-3l-4 2-4 5h3v2h-2v2l-2 1 4 1v3l-3 1-1 3 4-1v2l-5 2v2l5-1-1 2h-2l-1 3 4 2-3 3-5 4-4 1v-1l-6-1 4-5h-2v-3l2-2h-3v-3l4-4-4 1 2-6 6-3v-4l-4 3-2-1 6-6-3-1 8-4 6-4z" fill="#23516F"/>
<path transform="translate(842,376)" d="m0 0 9 1 5 2-4 1-11-2 2 4 11 6 1 1v8l-1 3-9 3-5 2h-8l-3-9 9-12h2v-5l-8 1v2l-6 4-5 4h-2v2h-3l2-4 6-4h2v-2l6-4z" fill="#FDF8F6"/>
<path transform="translate(742,661)" d="m0 0 3 1-9 6-29 11-32 8-39 7-36 5-40 4-32 2h-8l2 7 1 8v9l-2 7-1-4v-18l-4-16-6-15-3-5 1-2 6 9 5 14 1 5 2-1 54-4 35-4 52-8 33-8 26-8 11-5h3v-2z" fill="#6989A3"/>
<path transform="translate(685,713)" d="m0 0 3 1v1l-8 2h-4v2l4 1h-3v16l-2 5-2 9-5 11-3 7-1-4 6-13 3-11-6-1-3-1v-2h-2l-4-5v-2h-2l-1-8 9-2 1-2z" fill="#FADBD2"/>
<path transform="translate(79,296)" d="m0 0h7l6 8 10 16v5l-4 4-6 1-4-2-2-5-1-5-9-14 1-6z" fill="#FBFAF9"/>
<path transform="translate(944,351)" d="m0 0 7 1 2 3-1 8-6 19-4 6h-7l-2-2v-8l8-25z" fill="#4C5062"/>
<path transform="translate(693,128)" d="m0 0h2l5 16 4 10 3 10 4 9 7 8v2h2l1 3-6-1-9-4-7-3-2-6-4-39z" fill="#163A51"/>
<path transform="translate(104,247)" d="m0 0 4 1 2 3v3h2l6 10v2h2v3l3 1 1 8-1 4-3 3h-2l-4-5-4-7-5-5-4-8-5-5v-4l5-1z" fill="#FAAA8F"/>
<path transform="translate(435,16)" d="m0 0h5l-1 5-4 3h-3l1 3 3 2-1 4-3 1v2l-6 4h-2v2l-7 5-4-1v-4h3v-2l-10 6-1 2h-5v-5l6-4 9-7h2v-2l4-1 1-3 6-4z" fill="#FCFAF8"/>
<path transform="translate(456,457)" d="m0 0 42 1v9l-2 1-9 1h-15l-14-2-2-1z" fill="#CEE8FD"/>
<path transform="translate(150,293)" d="m0 0h2l-1 3-8 6-1 1 4 1 4-3h2l1 2 3 2-4 5 3-1 3-4 4-1-2 5 2 1v2h2l1-2 6-1-3 3h4v-2h2l-1 4-3 2h-38l-1-4h-2l-1 3h-2l2-4 14-12 4-3h2v-2z" fill="#255575"/>
<path transform="translate(177,155)" d="m0 0 5 5 34 51 7 11-3 3-3-1-7-11-36-54 1-2z" fill="#3B6B8D"/>
<path transform="translate(466,673)" d="m0 0 7 1 7 8 5 10-10 6-11 4h-5l4-2v-20z" fill="#15384F"/>
<path transform="translate(934,276)" d="m0 0h4l3 9v7l-4 6-5 6-3 1-1 4-1 3h-3l-2 4 2-10 1-7-9-2 1-2 4-1 1-5 5-2 1-4h2l2-5z" fill="#B9DBFB"/>
<path transform="translate(127,228)" d="m0 0 1 4-2 20-1 14h-4l-5-8v-2l-3-1-4-9 1-4h2v-2l8-6 5-5z" fill="#FAA98E"/>
<path transform="translate(70,273)" d="m0 0 6 1 4 4 11 18 10 16 1 5 2 3-1 8-7 4-6-1-5-5-11-18-13-20-1-5 2-5zm0 2-6 3-2 3 1 7 9 14 3 3 1-7 4-3h6l2 1-2-5-7-11-5-5zm9 21-3 4 1 6 9 14 1 6 3 3 6 1 4-2 2-3-1-7-13-20-2-2z" fill="#426986"/>
<path transform="translate(787,174)" d="m0 0h6v2l-8 4-1 2-5 2h-3v2l-5 3h-3v2l-7 2v2h-2v2h-2l-2 5-10 2-5-3 3-7 3-5h8l4 1 7-4h3v-2l7-3z" fill="#FCDAD0"/>
<path transform="translate(555,287)" d="m0 0h11l8 4-1 4h-4l3 1v8l-2 3-10 1-5-2-1-5-1-3v-10z" fill="#D4826A"/>
<path transform="translate(532,384)" d="m0 0 4 2 7 5 2 3 4-2 11-8 2 1-5 5-5 2v2l-3 2 1 4 7 7 4 3v2h2l1 4h-4l-2-4-5-5-7-6-8 6-5 5 1 4 7 6 1 2-1 13-9 39-3 12-1-4 5-22 2-14h2l1-8 1-5v-10l-6-5-4-4v-2l-2-1 5-5 8-7 4-4-5-5-3-2v-2h-2z" fill="#CE8F7F"/>
<path transform="translate(305,231)" d="m0 0h2l-1 5-11 9-3 3-3 1-5 5-4 2-2 4-6 4-5 5-14 11-9 8h-2v2l-8 6h-2l-2 4-6 4 2-4v-3l5-4 5-3 2-3 5-3 13-11 2-3 4-2 1-2 4-2 1-2h2l1-3 7-4 8-7h2v-2l11-9 5-4z" fill="#2D5470"/>
<path transform="translate(114,202)" d="m0 0h2v3l-11 9-13 11-11 9-8 7h-2l-1 3v-8l5-5 11-10 11-9 7-5 5-3z" fill="#38698A"/>
<path transform="translate(240,263)" d="m0 0h16l-5 4-3 1v2l-7 5-5 5-4 3h-12l-3-2 5-4h2v-2l12-9z" fill="#2E6488"/>
<path transform="translate(527,290)" d="m0 0h7l1 4-2 3h2v8l-5 4h-7l-6-3v-6l-2-1v-3l7-4z" fill="#D0806A"/>
<path transform="translate(237,399)" d="m0 0 3 1 4 8 4 5v3l-7 6-6-4v-2h-3l-5-5-4-3v-3l12-5z" fill="#FDFBF9"/>
<path transform="translate(923,299)" d="m0 0h2l-2 4-7 4-7 5h-3v2l-9 5v3l3 4v2h2l4 6v2h2l-1 4-8-10v-2h-2l-1-4h-2v-2h-4v2h-2v2h-6v-4h-2v-3l-6 1-21 10h-3v-2h3v-2l20-9 3-3-4-7v-3h2l4 8 5 8 1 2 4 1 1-3 4-2h3v-2l15-9 4-3 7-4z" fill="#235271"/>
<path transform="translate(614,648)" d="m0 0h9l-3 3-31 5-42 6h-11l-48-5v-1h17l15 1 16 2 16-1 32-4 7-2 23-2z" fill="#E4E4EC"/>
<path transform="translate(524,16)" d="m0 0h2v2l-14 7-10 9-7 11-5 11-1 6v18l4 13 5 10 10 11 12 8 16 5v1h-7l-13-5-10-7-2-4-4-2-9-14-3-8-2-11v-13l4-16 7-12 5-6h2v-2l11-8z" fill="#41627D"/>
<path transform="translate(242,234)" d="m0 0h22v4l-2 2-10 1h-5l-3 1v2l4 1-3 1h-6v-2h3v-3h-5v-2zm-6 7m13 0m-15 1h2l-1 4-3 2 4 2-3 3h-2v2h10l-1 3-5 2-1 3-3-1 1-2h2v-2l2-1h-10l-1-2 4-3-4-1-1 2v-3l4-1v-2h2v-3z" fill="#204C69"/>
<path transform="translate(778,117)" d="m0 0h6l2 1v2l6 1 9 5-4 2-13-7-6-1v2h-2l-1 5-9 16-7 14-12 22-7 13h-3l2-6 8-14 6-12h2l1-5 15-29 6-8z" fill="#426D8B"/>
<path transform="translate(455,456)" d="m0 0h46v16l-2 10-2-3 1-9-6 1h-25l-11-2-1 3zm1 1v9l8 2 8 1h15l9-1 2-1v-9z" fill="#93B5D3"/>
<path transform="translate(220,251)" d="m0 0h11l-5 5h11l-1 2h-2v2h-2l-1 5h-7l-1 2-2-1-10-1h-3l-4-1h2l1-3-3-1v-2h3v-2h10v2l4-2-2-4zm10 6m-14 1m13 0 1 2zm-15 1-2 1v2l4-1v-2zm2 7 1 3-4 1v-2h3z" fill="#255575"/>
<path transform="translate(616,593)" d="m0 0h16l24 2 36 5 25 5 17 5 16 7 10 9-1 2-5-4v-2l-5-2-10-5-17-6-26-6-27-4-29-3-24-2z" fill="#6989A3"/>
<path transform="translate(526,552)" d="m0 0h28v4h-15v2h15v3l-5 1h-21l-2-2z" fill="#6B4147"/>
<path transform="translate(187,199)" d="m0 0h2l-1 6-2 10h12l-1 4h-2v3l-7 4-3 3-3 1-2 2-4 3 1-8 2-7h-11v-2h15z" fill="#BFA2A0"/>
<path transform="translate(240,240)" d="m0 0 4 1h-2v3h-3l1 1h7l-3-1v-2l3-2h12l-1 3-6 5h-2v2l-5 3-4 3-10-1v-2l4-3-4-2 4-2 2-5z" fill="#27597A"/>
<path transform="translate(907,204)" d="m0 0 5 2v2l4 1 6 6 3 1v2l3 1 2 4 6 1 5 5 8 7 2 4h-5l-10-9-5-3v-2l-4-1-10-8-2-1v-2l-3-1-5-5-1-2z" fill="#FCDBD1"/>
<path transform="translate(673,137)" d="m0 0 5 1-1 11-3 10-5 1-13-3v-6l13 1 3-14z" fill="#F9F9F8"/>
<path transform="translate(256,260)" d="m0 0 3 1v3h-2v2h-3v2l-5 3-5 5h-2v2h-2v2l-5 3-3 2-19-1 1-3 8-7h2v-2l7-5 3-3 5-3zm-16 3-16 12v2l-4 2-3 3 7 1h8l8-6 5-5 3-2v-2l5-2 3-3z" fill="#235271"/>
<path transform="translate(517,50)" d="m0 0h3v2l5 2 14 12 4 3h7l11-7 7-4v4l-17 11-3 5-5-1-1-5-4-2-10-9-10-8z" fill="#314F66"/>
<path transform="translate(286,137)" d="m0 0 15 5v2l6 1 13 6 8 4 8 3v2l-5-1-3-1-4 10h-2l-1 4-8 16-2 1v2h-2v-4h2l2-6 9-16 3-5v-3l-10-5-21-9-8-4z" fill="#245270"/>
<path transform="translate(259,461)" d="m0 0h2l-1 5-4 6-5 3-2 2-9 3-6 4h-3v-3h-3l1-4h2l8-3h3v-2l7-4 4-2v-2h3l1-2v2h2z" fill="#DA876F"/>
<path transform="translate(149,323)" d="m0 0h27l22 1-1 3h-5v2h-16l-16-2-10-2z" fill="#BDDEFB"/>
<path transform="translate(186,268)" d="m0 0h3v3l3 2h-2v2l-3 3h4l-2 4-1 1 3 2-3 3 4 1v2h-3l-1 3-5 3-4 1 2-4 1-1h-3v-2l5-2-4-1 1-4h3v-3h-6l4-2v-2h-4l6-7z" fill="#295C7E"/>
<path transform="translate(364,169)" d="m0 0 2 1-10 10-10 8-4 4h-2v-13z" fill="#FBD7CD"/>
<path transform="translate(357,91)" d="m0 0h6l1 1 1 8v10 2l2 5-2 3-5-1v-8l-2-4-2-11z" fill="#F3AA93"/>
<path transform="translate(214,234)" d="m0 0 2 1-4 5-6 7-11 9-8 7-3 3-5 3-4 1-2-1 11-10 6-5h2v-2l14-11z" fill="#37698B"/>
<path transform="translate(110,240)" d="m0 0h2v2l-2 1 1 6 3 6 4 4 4 7h2l2-26h1v25l3 1 3 7-5 3-1-7h-2l-1 4-4-4v-3h-2l-6-10v-2h-2l-2-6-4-1v-2z" fill="#FDC5B5"/>
<path transform="translate(594,302)" d="m0 0 4 2v3l2 2-2 5-2 4-4 4-5 1-1-3 1-13 4-4z" fill="#DF876C"/>
<path transform="translate(494,647)" d="m0 0h151v1l-21 3-4-1 1-1-127-1z" fill="#F1F5F9"/>
<path transform="translate(612,727)" d="m0 0h2v13l-11-3-4 1h-3l1-2-4-2 1-4 11-2z" fill="#FAAA8F"/>
<path transform="translate(70,273)" d="m0 0 6 1 4 4-2 2-4-4-6 1-4 1-1 8 7 11 4 7h3l10 16 1 8-4-4-12-19-11-17-1-5 2-5z" fill="#4B6C88"/>
<path transform="translate(181,248)" d="m0 0 4 1 1 4-2 3h-3v2h-2l-1 3-4 2-5 5-7 1 1-6 8-7 4-1 1-3z" fill="#FCDBD1"/>
<path transform="translate(204,316)" d="m0 0m-1 1m-1 1m-72 1h30l9 1h23l10-1-2 4-64-1-7-1z" fill="#15384F"/>
<path transform="translate(483,33)" d="m0 0 3 1-1 3-17 5-11 4-5 2-13 2-1-3 10-3 5-2 6-2 5-1 16-5z" fill="#FCDBD1"/>
<path transform="translate(498,303)" d="m0 0h6l3 2 1 4v13l-4-1-5-5-3-4v-8z" fill="#DF876C"/>
<path transform="translate(560,659)" d="m0 0h8v1l-60 9h-4v3l-2-1-32 2v-1l38-6 16-2h8v-2h-8v-1h23z" fill="#6989A3"/>
<path transform="translate(376,601)" d="m0 0h8v2l-27 4-28 7-19 7-11 6-3 1v2h-2v2h-2l2-4 10-7 8-4 10-3 9-3 10-3z" fill="#6989A3"/>
<path transform="translate(598,395)" d="m0 0h2l-1 4h-2l-1 3h-2v2l-5 4-5 5-11 10-4-1-8-5 3-1-1-3 4 1 3 4 4-1 8-8 8-7z" fill="#B0D4F5"/>
<path transform="translate(268,608)" d="m0 0 3 1-8 8-6 9-5 14v18l4 9 7 8 3 4-4-2-3-2v-2l-4-2-4-7-2-8v-16l4-12 6-10h2l2-4z" fill="#F3F6F9"/>
<path transform="translate(497,479)" d="m0 0 3 1-1 9-10 4-9 2h-8l-9-2-9-5-1-2v-6h2l1 5 7 4 6 2h14l9-3h4z" fill="#B3D7F9"/>
<path transform="translate(270,481)" d="m0 0h2l-1 5-5 6-15 11-9 5-8 3h-6l2-3 12-4 10-6 8-7h2v-2l5-5z" fill="#B3D7F9"/>
<path transform="translate(226,298)" d="m0 0 2 1-4 5h-2l-2 4-12 10h-2v2l-5 4h-25l-27-1v-1h51l9-10h2v-3l6-3 5-6z" fill="#345D7A"/>
<path transform="translate(792,467)" d="m0 0h3l3 9 4 6 4 4v2l4 2v2l5 2v2l5 2 10 5v2l-9-2-5-4-3-1v-2l-4-2-3-2v-2l-3-1-5-6v-3h-2l-3-5z" fill="#B2D6F8"/>
<path transform="translate(482,693)" d="m0 0 2 3 1 2v7h2l2 9v18h-1l-2-10-3-10-3-6v-2h-2l-2-4 4-3v-3z" fill="#DF876C"/>
<path transform="translate(765,584)" d="m0 0 6 3 14 13 6 8 4 9 3 7 2 13v7l-2 4-2-19-5-14-7-11v-2h-2l-6-7-2-1v-2l-4-2-5-4z" fill="#EDF3F9"/>
<path transform="translate(911,219)" d="m0 0 6 2 12 10 9 7v2h-6l-9-7-3-1v-3l-4-2-5-3z" fill="#FCDBD1"/>
<path transform="translate(942,366)" d="m0 0 5 2-4 16-3 3-4-1-2-2v-4h2l3-12z" fill="#F7F8F9"/>
<path transform="translate(400,130)" d="m0 0h16v2l-35 2h-4v5l2 3-1 2h2l2 6 2 5v5l-2-3-6-13-3-8v-3l3-2z" fill="#F9F9F9"/>
<path transform="translate(842,376)" d="m0 0 9 1 5 2-4 1-11-2 2 4 11 6 1 1v8l-1 3-4-1 2-2 1-7-5-2-8-5v-4l-8 1v2l-6 4-5 4h-2v2h-3l2-4 6-4h2v-2l6-4z" fill="#FCD0C3"/>
<path transform="translate(224,389)" d="m0 0h8l16 4 10 9 6 11v11l-4 16h-1v-8l3-11-1-9-2-6h-2l-1-4h-2v-2l-4-2-4-3-7-1-4-2h-17l2-2z" fill="#FCD1C4"/>
<path transform="translate(194,289)" d="m0 0h3l-1 3-3 2-1 4-5 4h-2v2l-5 3-1 2h-3v2l-4-2 5-5 6-5v-3l1-2 4-1 1-2z" fill="#245473"/>
<path transform="translate(761,145)" d="m0 0 3 2-11 21-12 22-2 2h-2l2-6 8-14 6-12h2l1-5z" fill="#4A728E"/>
<path transform="translate(488,656)" d="m0 0h17l15 1 16 2h24v1l-13 2h-11l-48-5z" fill="#E7E4EA"/>
<path transform="translate(205,260)" d="m0 0h5l-4 4 5-1v2l6-1-1 4h-3v2l3 1-1 2h-2v2l-3-1-1-1-5-1-2-2 1-2h-4v-3l5-3z" fill="#235170"/>
<path transform="translate(807,183)" d="m0 0 1 3-10 18-7 14-7 12h-3v-2l2-1 3-7 8-15 6-12 5-9z" fill="#3A617D"/>
<path transform="translate(863,175)" d="m0 0h1v7l-2 4-3 12-5 13-3 9-3 4v-7l4-9 4-15 2-3 3-11z" fill="#FDFBF9"/>
<path transform="translate(221,233)" d="m0 0m-1 1m-1 1m-1 1m3 0 1 4-1 2-5-1v2l4-1v2l-5 3h-4l-12 10h-3l2-4 13-12 6-3zm-4 1m-5 9h2v2h-2z" fill="#27597A"/>
<path transform="translate(943,353)" d="m0 0h6l3 4-3 10-2 1-2-3h-6z" fill="#F7F8F9"/>
<path transform="translate(152,241)" d="m0 0 4 2 4 7v4l-6 5-5-1z" fill="#FDCEC1"/>
<path transform="translate(533,419)" d="m0 0 5 2 4 3-1 13-9 39-3 12-1-4 5-22 2-14h2l1-8 1-5v-10l-6-5z" fill="#F4AC95"/>
<path transform="translate(271,322)" d="m0 0 2 2v8l4 7 7 4h6l5-2v4l-2 1h-11l-8-5-4-7v-11z" fill="#FCD6CB"/>
<path transform="translate(158,304)" d="m0 0h4l-2 5 2 1v2h2l1-2 6-1-3 3h4v-2h2l-1 4-3 2h-11l-7-1v-1l5-1v-1l-5-1 6-6z" fill="#1F4B68"/>
<path transform="translate(432,48)" d="m0 0h1l1 8-7 4-7 2v2l-4-1 5-5h2v-2l-2-1 3-1v-3l3-2z" fill="#FCE3DC"/>
<path transform="translate(559,416)" d="m0 0v3l-4 5-2 1 1 10 2 15 4 19v5l-2-4-9-42 1-4h2l2-4z" fill="#F4AD96"/>
<path transform="translate(527,290)" d="m0 0h7l1 4-2 2-16 3h-2v-3l7-4z" fill="#6B4046"/>
<path transform="translate(190,201)" d="m0 0 4 4 4 7v3h-12l1-10z" fill="#FBD7CC"/>
<path transform="translate(539,736)" d="m0 0h13v4l-12-1-24 2-8 1h-9v-2z" fill="#F2E1E0"/>
<path transform="translate(776,205)" d="m0 0h5l3 2v7l-2 2h-7l-2-3v-5z" fill="#6989A3"/>
<path transform="translate(212,245)" d="m0 0 2 1zm-1 1 1 2h2l1-2 2 1v2h6l-3 1v4l4 2-4 2h-3v-2h-6l5-4-5 2-3 1 2-4h2v-2l-5 2zm5 12m-2 1h2l-1 3h-3v-2z" fill="#1E4864"/>
<path transform="translate(555,287)" d="m0 0h11l6 3v3h-16l-3-1v-4z" fill="#6B4047"/>
<path transform="translate(986,392)" d="m0 0h4l2 2-4 5-8 7-3 3-6 3v-3l3-3h2l2-4 6-5z" fill="#FCCEC1"/>
<path transform="translate(978,384)" d="m0 0 3 1 2 1v2l-8 4-7 8-4 1-2 5-2-3 1-3h2l2-4 3-1v-2l8-7z" fill="#FCD3C7"/>
<path transform="translate(39,344)" d="m0 0 1 3 5 2 3 1v2l5 1 4 4 7 1-2 2-9-1-9-6-7-3-1-3h2z" fill="#FCD0C3"/>
<path transform="translate(169,152)" d="m0 0h7l2 3-3 3-4 1-9 7h-2l-1-3 4-2 2-5z" fill="#396A8C"/>
<path transform="translate(815,392)" d="m0 0 1 3-2 5 1 8v24l-3 8-3 6-3 4 1-5 5-14 1-5v-16l-2-12z" fill="#FCD0C3"/>
<path transform="translate(495,100)" d="m0 0 5 5 7 8 13 9 16 5v1h-7l-13-5-10-7-2-4-4-2-5-7z" fill="#416782"/>
<path transform="translate(44,335)" d="m0 0 7 3 8 4v2h2v2l3 1-1 3-7-4v-2l-6-1-9-3 2-4z" fill="#FCD0C3"/>
<path transform="translate(71,241)" d="m0 0 4 5v2h2l7 12 2 1 3 7 2 1 1 5-4-2-14-22-3-4z" fill="#264E68"/>
<path transform="translate(560,737)" d="m0 0 38 1 2-1-2 4h-2v2l-4 1 1-3-38-2v-1z" fill="#F3DFDB"/>
<path transform="translate(125,225)" d="m0 0m-1 1m-1 1v3l-3 5-6 5-5 2-3 3h-2l-1 4-5 3-2-1 1-3h3l1-3 8-6 7-6h2l2-4z" fill="#FCD2C6"/>
<path transform="translate(491,392)" d="m0 0 4 1v2h2l9 11 6 7v3l-4-2-2-4h-2v-2h-2l-3-4v-2h-2l-6-8z" fill="#B0D4F6"/>
<path transform="translate(305,231)" d="m0 0h2l-1 5-11 9-3 3-3 1-5 5-3 2 1-4 4-4h2v-2l11-9 5-4z" fill="#274D67"/>
<path transform="translate(96,306)" d="m0 0 4 4 2 7 2 3-1 8-7 4-6-1-2-1v-2l8 1 4-1 1-8-7-11v-2z" fill="#426987"/>
<path transform="translate(475,44)" d="m0 0h3l-1 4-11 2-9 3h-5l1-3 10-3 6-2z" fill="#FCDBD1"/>
<path transform="translate(157,289)" d="m0 0v3l-2 2 2 2-9 8-4 1-3-2 8-7 2-1 2-5z" fill="#295C7D"/>
<path transform="translate(228,248)" d="m0 0 8 1-3 4h-2v2h10l-1 3-5 2-1 3-3-1 1-2h2v-2l2-1h-10l-1-2 4-3-4-1-1 2v-3z" fill="#1D4763"/>
<path transform="translate(173,404)" d="m0 0 13 1 6 1v2l-16-2h-5l-1 4-4 1v5l5 2 5 4-1 2-10-7-2-2 1-6 5-1 1-3z" fill="#FDCEC1"/>
<path transform="translate(251,266)" d="m0 0m-1 1v3l-6 6h-2v2h-2v2l-5 3-3 2-16-1 1-3 7 1h8l6-5h2l2-4 4-3h2v-2z" fill="#245372"/>
<path transform="translate(562,484)" d="m0 0 2 4v9l-5 5h-2v2h-2l-1 3h-2l-2 4-1 1h-5v8h-1l-1-8-5-6 1-2 6 6h3l5-5 10-9z" fill="#EA957A"/>
<path transform="translate(495,297)" d="m0 0h5l-1 2-4 2-1 2v6l4 8 1 3 12 6v10h-1l-1-8-8-4v-2l-4-2-4-6-1-3v-10z" fill="#FCD2C6"/>
<path transform="translate(747,191)" d="m0 0h5l4 1v5l-6 4-5-1v-6z" fill="#FAA98E"/>
<path transform="translate(254,473)" d="m0 0h5l2 3-1 6-1 1h-6l-2-4 1-4z" fill="#BDDDFB"/>
<path transform="translate(532,384)" d="m0 0 4 2 7 5 2 3 4-2 11-8 2 1-5 5-5 2v2l-4 4-4-1-5-5-3-2v-2h-2z" fill="#FAAE95"/>
<path transform="translate(364,169)" d="m0 0 2 1-4 4-13 4-5 3h-2l1 8-1 3h-2v-13z" fill="#EEF2F6"/>
<path transform="translate(502,296)" d="m0 0 4 5v2l2 1-2 1-2-1h-8v8l-3-3v-6l4-5h5z" fill="#F8AA90"/>
<path transform="translate(247,240)" d="m0 0h12l-1 3-6 5h-2v2l-6 1 4-4-1-2-3-1v-2z" fill="#255575"/>
<path transform="translate(847,224)" d="m0 0h1v8l-3 7-3 12v5h-3v-8l4-14z" fill="#FDFBF9"/>
<path transform="translate(172,274)" d="m0 0m-1 1m3 0 2 1-1 2 2 1-5 4-5 5-4 1 1-7 5-4 4-2z" fill="#285A7C"/>
<path transform="translate(207,256)" d="m0 0h10l-1 3-4 1v2l5 1-1 2h-5-3l-4-1h2l1-3-3-1v-2h3z" fill="#2A5D7F"/>
<path transform="translate(542,512)" d="m0 0h1l1 8v27l-3 1v-25z" fill="#AACDEE"/>
<path transform="translate(803,464)" d="m0 0h5l2 2-1 6-3 2-5-1-1-4 1-4z" fill="#B1D3F2"/>
<path transform="translate(150,293)" d="m0 0h2l-1 3-8 6-1 1 2 2h-3l-1 4-4 1 1-2h2l-1-2-5 4-3-1 11-9 5-4h2v-2zm-21 17 1 2-2 3h-2l2-4z" fill="#1F4B68"/>
<path transform="translate(521,564)" d="m0 0h35v3h-32z" fill="#374558"/>
<path transform="translate(142,310)" d="m0 0h10l6 1 1 5h-15l2-1v-2h-6z" fill="#275879"/>
<path transform="translate(572,189)" d="m0 0 4 1v2l3 1 7 10 5-1-1 4-4 1-6-5-4-5-1-4-4-2z" fill="#FCD1C4"/>
<path transform="translate(899,528)" d="m0 0h14l5 3 1 3-2 1-8-4h-7l-4 2h-3l-1 2h-2v-2h2v-2z" fill="#FCDBD2"/>
<path transform="translate(559,464)" d="m0 0h2l2 8 1 2 1 11v13l-3 3-2-1 3-3v-9l-2-6-2-13z" fill="#FCE0D7"/>
<path transform="translate(596,296)" d="m0 0 6 2 3 4v7l-3 7-8 9-7 2-2 2v-4l9-3 5-6 4-9-1-6-4-2h-2z" fill="#FCD0C4"/>
<path transform="translate(799,127)" d="m0 0 6 1 11 6v2l-5-1-3-1-6 1-3-3z" fill="#3A6888"/>
<path transform="translate(290,632)" d="m0 0h2l-1 5v11l3 6v2h2l1 3 4 4 3 1 4 5-5-2-9-8-5-9-1-12z" fill="#6989A3"/>
<path transform="translate(75,304)" d="m0 0h2l10 16 1 8-4-4-4-6-2-6-4-7z" fill="#4F7592"/>
<path transform="translate(775,125)" d="m0 0 1 3-5 12-2 1-6 12-4 7h-2l2-5 6-12z" fill="#F1F5F9"/>
<path transform="translate(524,16)" d="m0 0h2v2l-14 7-10 9-5 7-1-3 6-8h2v-2l11-8z" fill="#416885"/>
<path transform="translate(541,400)" d="m0 0 1 2-7 8-2 2 1 4 7 6-1 2-11-8v-2l-2-1 5-5 8-7z" fill="#DC907A"/>
<path transform="translate(218,240)" d="m0 0 6 1v2h3l-2 5 1 2-6 1-4-4 2-3h2v-2l-4 1v-2z" fill="#245473"/>
<path transform="translate(572,120)" d="m0 0 2 1 1 2-10 4-9 2h-20v-1l21-2 11-4z" fill="#2B516B"/>
<path transform="translate(443,649)" d="m0 0h5l1 1 23 2v2h6v1h-9l-19-2-7-2z" fill="#EFE3E3"/>
<path transform="translate(536,548)" d="m0 0 11 2 1 2h-27l2-1v-2z" fill="#F9C1B0"/>
<path transform="translate(241,286)" d="m0 0 4 1-3 1v2l-8 6h-2l-2 4-6 4 2-4v-3l5-4 5-3 2-3z" fill="#2E5671"/>
<path transform="translate(268,608)" d="m0 0 3 1-8 8-6 9-4 11h-2l1-7 6-11 3-1 2-4z" fill="#E7F0F9"/>
<path transform="translate(742,189)" d="m0 0 2 2-1 7-2 3 2 4-8-4 5-11z" fill="#F3F5F7"/>
<path transform="translate(376,93)" d="m0 0 3 1 3 9v9l-4 8-7 5-4-1 8-5 4-7v-11l-2-5z" fill="#F2A289"/>
<path transform="translate(527,411)" d="m0 0 1 3-1 4-9 5-4-2-2-2v-3l4 2 4-1 3-1 1-3z" fill="#AFD3F4"/>
<path transform="translate(237,397)" d="m0 0h3l-1 3-5 2-8 3h-3l1 3 8 6v2l-4-2-8-7 1-3 12-5z" fill="#FCD1C4"/>
<path transform="translate(94,226)" d="m0 0h3l-1 4h-2v2h-3l-1 3-8 6h-2l-1-3 6-4 5-5z" fill="#FCDBD1"/>
<path transform="translate(130,319)" d="m0 0h20l6 1v2h-20l-7-1z" fill="#153951"/>
<path transform="translate(579,181)" d="m0 0 5 5 7 8v5l-2-1v-3l-4-2-4-4h-4v-3l2-1z" fill="#FCD0C3"/>
<path transform="translate(563,413)" d="m0 0 4 1 3 4 4-1 4-2 1 3-6 5-4-1-8-5 3-1z" fill="#B5D9FB"/>
<path transform="translate(860,202)" d="m0 0 12 2v2l16 3 1 2 3 2-7-1-5-1v-2l-8-1-12-5z" fill="#FDFBF9"/>
<path transform="translate(343,114)" d="m0 0 1 3h2l5 5 6 3 9 1-2 2h-10l-2 5-1-3-1-5-7-6-1-4z" fill="#364052"/>
<path transform="translate(483,694)" d="m0 0h2l4 13 2 13v9l-2 2-1-17-1-9h-2l-1-9-2-1z" fill="#FAA98E"/>
<path transform="translate(210,263)" d="m0 0 1 2 6-1-1 4h-3v2l3 1-1 2h-2v2l-3-1-1-1-4-1h3v-3h2v-2h-2z" fill="#1F4A67"/>
<path transform="translate(567,58)" d="m0 0 1 4-16 10h-2v-3l11-7z" fill="#2C4D66"/>
<path transform="translate(614,648)" d="m0 0h9l-3 3-12 2-19 1 2-2 23-2z" fill="#F5DFDB"/>
<path transform="translate(799,192)" d="m0 0 2 1-6 12-10 18-1-3 8-16 5-9z" fill="#EFF4F9"/>
<path transform="translate(749,168)" d="m0 0h2l-1 5-10 19h-3l2-6 8-14z" fill="#44708F"/>
<path transform="translate(250,499)" d="m0 0m-1 1m-1 1m-3 1 3 1-3 4-11 4h-6l2-3 12-4z" fill="#B5D9FB"/>
<path transform="translate(350,131)" d="m0 0 2 4-4 9v5l4 1v2l-8-1 1-7z" fill="#245372"/>
<path transform="translate(357,93)" d="m0 0h5l1 5v11l-3-1-2-11z" fill="#FCF9F6"/>
<path transform="translate(807,183)" d="m0 0 1 3-11 19-2 1 1-5 9-17z" fill="#38607B"/>
<path transform="translate(812,160)" d="m0 0h3l-2 4-5 2v2h-4v2l-4 1v-4l8-4 1-2z" fill="#FCDBD1"/>
<path transform="translate(543,70)" d="m0 0h7l1 3-3 5-5-1-1-5z" fill="#396888"/>
<path transform="translate(163,432)" d="m0 0 3 1 2 4 3 1v2l5 1 11 6-3 1-16-8-5-4z" fill="#FCD1C5"/>
<path transform="translate(252,234)" d="m0 0h12v4l-4 2-5-2-4-1z" fill="#245373"/>
<path transform="translate(244,477)" d="m0 0 2 1-4 3h-2v2l-6 3-8 1 1-6h4v3l6-3z" fill="#BD9A95"/>
<path transform="translate(809,447)" d="m0 0 4 2v2l3 1v2l5 2 2 5-4-1-8-7z" fill="#DF876C"/>
<path transform="translate(860,284)" d="m0 0h3l9 18v2h-2l-4-7v-3h-2l-2-6h-2z" fill="#235170"/>
<path transform="translate(275,685)" d="m0 0 5 2 13 6 8 3-1 2h-3v-2l-7-1-9-4v-2l-6-2z" fill="#F1E1DF"/>
<path transform="translate(793,618)" d="m0 0 3 1 2 5 2 13v7l-2 4-2-19z" fill="#EFF4F9"/>
<path transform="translate(195,264)" d="m0 0v3l-4 4h8v1h-5v2h-2v2l2 1-7 1 1-3h2v-2l-3-2h2v-3l3-3z" fill="#1D4662"/>
<path transform="translate(119,314)" d="m0 0 4 3v2l5-1h8v1l-6 1 6 1v1h-13l-4-4z" fill="#335973"/>
<path transform="translate(138,305)" d="m0 0 1 3-2 1v4l-2 3-4-1-1-5 7-4zm2 3 1 2-3-1z" fill="#265777"/>
<path transform="translate(257,272)" d="m0 0 3 1-3 2-1 3-10 8-4-1 10-9z" fill="#234963"/>
<path transform="translate(864,384)" d="m0 0 4 5 1 6v6l9-1h10v1l-21 2-1-3v-10l-2-3z" fill="#FCD0C3"/>
<path transform="translate(832,378)" d="m0 0h5l-1 2h-4v2l-6 4-5 4h-2v2h-3l2-4 6-4h2v-2z" fill="#FCD1C4"/>
<path transform="translate(494,261)" d="m0 0 2 3v16l-2 2-1-4v-14z" fill="#53637A"/>
<path transform="translate(200,260)" d="m0 0h2v2l-3 3 1 4-1 2h-8l2-4 2-1 1-4z" fill="#265676"/>
<path transform="translate(527,232)" d="m0 0h5l-2 3h-2l-1 3h-2l-2 6-4 1 2-7z" fill="#808898"/>
<path transform="translate(495,40)" d="m0 0 1 3-6 13-2 13h-1v-10l4-13z" fill="#395971"/>
<path transform="translate(320,703)" d="m0 0 16 4 11 3v1h-7l-15-4-5-2z" fill="#EFE1E1"/>
<path transform="translate(220,251)" d="m0 0h11l-4 4h-2l-1 3-6 2v-2l3-2-2-4z" fill="#2B5F82"/>
<path transform="translate(177,424)" d="m0 0 5 2 8 4v2h2v2h-10l-3-2 6-1-8-6z" fill="#FDCEC1"/>
<path transform="translate(896,416)" d="m0 0 4 1-12 4 8 2v1l-16-1 1-3z" fill="#FCD1C5"/>
<path transform="translate(144,307)" d="m0 0 6 1h2v2l-10 1-1 1 5 1v2h-10l2-5z" fill="#1B445E"/>
<path transform="translate(352,152)" d="m0 0 11 1 12 4 1 2-8-1-11-3-5-2z" fill="#245372"/>
<path transform="translate(814,496)" d="m0 0 5 1 11 6v2l-9-2-5-4-3-2z" fill="#ADD0F1"/>
<path transform="translate(240,240)" d="m0 0 4 1h-2v3h-3l1 3-4 2h-5l2-3h2l2-5z" fill="#295B7D"/>
<path transform="translate(245,234)" d="m0 0h7v3h4v2l4 1-8 1-6-1 2-1v-3h-5z" fill="#1C445F"/>
<path transform="translate(815,392)" d="m0 0 1 3-2 5 1 8v16h-1l-1-14-2-12z" fill="#FCD4C9"/>
<path transform="translate(942,352)" d="m0 0h5l-4 1-3 11h5l2 4-9-1-1-2 4-12z" fill="#4C7390"/>
<path transform="translate(789,666)" d="m0 0v3l-7 8-5 3h-2l-1 3h-3l1-3 6-4 10-9z" fill="#F9E8E4"/>
<path transform="translate(810,455)" d="m0 0 3 1 4 4 7 4v2l13 3v1l-10-1-6-3-11-9z" fill="#FCF8F6"/>
<path transform="translate(544,356)" d="m0 0h8l4 2v2h-14v-2h2z" fill="#DF876C"/>
<path transform="translate(648,792)" d="m0 0 16 2v1l-18 1-4 4h-2v-4z" fill="#FDFBF9"/>
<path transform="translate(529,475)" d="m0 0h1l-1 9-2 12-3-1 2-10z" fill="#FCEAE3"/>
<path transform="translate(456,466)" d="m0 0 16 2v3l-12-1-4-1z" fill="#A8CCED"/>
<path transform="translate(152,243)" d="m0 0 4 4v7l-3 3h-1z" fill="#FAA98E"/>
<path transform="translate(390,162)" d="m0 0h2v6l-5 1-6 7-4-2-1-3 6 2 2-4z" fill="#705761"/>
<path transform="translate(754,690)" d="m0 0h3v2l-16 7-3-1 1-2z" fill="#F2DFDD"/>
<path transform="translate(567,656)" d="m0 0h7l-3 2-3 1-24 1v-1z" fill="#F5E0DB"/>
<path transform="translate(523,552)" d="m0 0h3l1 8 1 4h-5z" fill="#F5882A"/>
<path transform="translate(257,465)" d="m0 0 3 1-4 6-5 3-2 2-3-1 4-6 6-1z" fill="#FAAD95"/>
<path transform="translate(842,376)" d="m0 0 9 1 5 2-4 1-11-2 2 4 2 2-5-1v-4l-3-1z" fill="#FDCEC1"/>
<path transform="translate(376,139)" d="m0 0 3 3-1 2h2l2 6 2 5v5l-2-3-6-13z" fill="#EDF3F9"/>
<path transform="translate(512,119)" d="m0 0 5 1 8 4 11 3v1h-7l-13-5z" fill="#335C78"/>
<path transform="translate(232,416)" d="m0 0h3l5 5 3-1 3-4h2l-2 4-4 4-5-2-5-4z" fill="#FDCFC2"/>
<path transform="translate(978,384)" d="m0 0 3 1 2 1v2l-8 4h-4l6-7z" fill="#FCCFC1"/>
<path transform="translate(104,292)" d="m0 0 3 2v2h2l5 9v3l-5-5-5-7z" fill="#274C66"/>
<path transform="translate(92,275)" d="m0 0 3 1v2h2v3h2l4 7-1 2-5-5-5-7z" fill="#254D68"/>
<path transform="translate(126,199)" d="m0 0h2l-1 5-4 4-6 2-1-2 5-4z" fill="#FCDBD1"/>
<path transform="translate(359,176)" d="m0 0v3l-11 10-7 5-1-2 8-7z" fill="#6C5D69"/>
<path transform="translate(360,113)" d="m0 0h6l1 4-2 3-5-1z" fill="#FCD5C9"/>
<path transform="translate(285,595)" d="m0 0h3v2l-14 9-2 1 1-4 4-3 5-3z" fill="#EBF2F9"/>
<path transform="translate(254,473)" d="m0 0h5l2 5-3 1v-3l-3 1-1 3-3-1 1-4z" fill="#AED1F2"/>
<path transform="translate(220,231)" d="m0 0h3v2l-8 7h-4l4-5 1-3z" fill="#2E6284"/>
<path transform="translate(673,744)" d="m0 0 1 3-9 21-1-4 6-13z" fill="#FCDBD1"/>
<path transform="translate(980,400)" d="m0 0 1 4-2 4-8 4v-3l3-3h2l2-4z" fill="#FCD3C6"/>
<path transform="translate(233,256)" d="m0 0 4 1-3 1v2h-2l-1 5h-7l6-7z" fill="#295C7E"/>
<path transform="translate(754,193)" d="m0 0 2 1-1 4-5 3-4-1 1-3z" fill="#DF876C"/>
<path transform="translate(208,456)" d="m0 0 12 4 4 7v5l-2-2-3-7-11-5z" fill="#FCD2C6"/>
<path transform="translate(212,245)" d="m0 0 2 1zm-1 1 1 2h2l1-2 2 2-5 5-4 2 2-4h2v-2l-5 2z" fill="#204C69"/>
<path transform="translate(167,156)" d="m0 0 2 1-1 4-6 5h-2l-1-3 4-2 2-4z" fill="#2E5F7F"/>
<path transform="translate(412,705)" d="m0 0 4 1-8 4-5 8-2-1 2-5 7-6z" fill="#F3F6F9"/>
<path transform="translate(722,336)" d="m0 0h2v8l-4 8-2-3 3-9z" fill="#FCDBD1"/>
<path transform="translate(357,91)" d="m0 0h6l1 1v17h-1l-1-16h-5l-1 3z" fill="#FAC1AF"/>
<path transform="translate(481,692)" d="m0 0 2 1-8 5-11 4h-5l4-2 10-4z" fill="#4F3741"/>
<path transform="translate(824,459)" d="m0 0 12 6-4 2-8-4z" fill="#DF876C"/>
<path transform="translate(814,458)" d="m0 0 10 2v3l5 2v3l-5-2v-2l-4-1-6-4z" fill="#FAB19A"/>
<path transform="translate(124,274)" d="m0 0h1l1 8-6 5-4-2-2-5 4 3v2l4-1z" fill="#FCD0C3"/>
<path transform="translate(762,213)" d="m0 0 14 7 4 4-4-1-14-7z" fill="#EBF2F9"/>
<path transform="translate(789,120)" d="m0 0 12 6-4 2-11-6z" fill="#4B738F"/>
<path transform="translate(542,548)" d="m0 0 16 1 2 1v2l-6-1-1 1h-5l-6-2z" fill="#EA9F87"/>
<path transform="translate(537,504)" d="m0 0 7 6 5-1h3l-3 3h-5v8h-1l-1-8-5-6z" fill="#D6A194"/>
<path transform="translate(938,366)" d="m0 0h2l-3 12-3 1 2-10z" fill="#4B4757"/>
<path transform="translate(944,351)" d="m0 0 7 1 2 3-1 8-2 5-2-1 3-11-4-3z" fill="#3C637F"/>
<path transform="translate(186,268)" d="m0 0h3l-1 6-10 3 6-7z" fill="#285A7B"/>
<path transform="translate(899,528)" d="m0 0h9v1l-9 3-4 1-1 2h-2v-2h2v-2z" fill="#FCD4C8"/>
<path transform="translate(583,352)" d="m0 0v3l-7 9-1 7h-1l-1-8z" fill="#FCD3C7"/>
<path transform="translate(596,296)" d="m0 0 6 2 3 4v7l-2 6h-1l1-11-3-5h-4z" fill="#FCD2C5"/>
<path transform="translate(236,248)" d="m0 0 4 2v3l-3 2h-6v-2z" fill="#265676"/>
<path transform="translate(326,158)" d="m0 0h2l-4 10h-2l-1 4h-2l2-6z" fill="#245372"/>
<path transform="translate(257,622)" d="m0 0 1 3-5 12h-2l1-7z" fill="#E9F2F9"/>
<path transform="translate(495,297)" d="m0 0h5l-1 2-4 2-1 2v6l1 5h-2l-1-3v-10z" fill="#FDD0C3"/>
<path transform="translate(294,241)" d="m0 0m-1 1m-1 1m-1 1m-1 1 1 3-8 7-2 1 1-4 4-4h2v-2z" fill="#21455D"/>
<path transform="translate(816,135)" d="m0 0 6 2v2h4l2 5-2 1-4-4-7-4z" fill="#47708D"/>
<path transform="translate(797,648)" d="m0 0h1l1 8h-2l-1 4-1 2h-2l-2 4v-3l5-10z" fill="#E2EEF9"/>
<path transform="translate(531,561)" d="m0 0 13 1v2h-16v-2z" fill="#FBCFC1"/>
<path transform="translate(163,411)" d="m0 0 1 3h2v2l5 2 5 4-1 2-10-7-2-2z" fill="#FCD5CA"/>
<path transform="translate(904,398)" d="m0 0 5 2 3 4-1 4-5-7-14-1v-1z" fill="#FDCEC0"/>
<path transform="translate(560,384)" d="m0 0 2 1-5 5-5 2v2l-4 2 2-4 7-6z" fill="#FBB29B"/>
<path transform="translate(49,352)" d="m0 0 5 2 3 3 7 1-2 2-9-1-3-3 2-1z" fill="#FCDBD1"/>
<path transform="translate(101,325)" d="m0 0 2 1v2l-7 4-6-1-2-1v-2l8 1 4-1z" fill="#4E7591"/>
<path transform="translate(271,322)" d="m0 0 2 2v8l1 4h-3l-1-2v-11z" fill="#FCD5C9"/>
<path transform="translate(170,305)" d="m0 0 3 1v3l-1 3-5 1 2-3-3-1z" fill="#295C7E"/>
<path transform="translate(231,293)" d="m0 0 3 1-4 6-6 4 2-4v-3z" fill="#2F5975"/>
<path transform="translate(232,255)" d="m0 0h9l-1 3-5 2-1 3-3-1 1-2h2v-2l2-1h-4z" fill="#1E4965"/>
<path transform="translate(767,134)" d="m0 0h2l-1 6-3 6h-3l2-6z" fill="#3D6684"/>
<path transform="translate(524,16)" d="m0 0h2v2l-14 7-2-1 5-4z" fill="#3E607A"/>
<path transform="translate(556,545)" d="m0 0 2 4h-15v-2h13z" fill="#FCF0EB"/>
<path transform="translate(453,480)" d="m0 0h2l1 5 6 5-3 1-5-3-1-2z" fill="#A2C5E5"/>
<path transform="translate(240,400)" d="m0 0 3 3 7 10v3h-2l-4-7-4-6z" fill="#FDCDC0"/>
<path transform="translate(370,425)" d="m0 0 9 3 3 2v2l-5-1-7-4z" fill="#FCDBD1"/>
<path transform="translate(239,393)" d="m0 0h9l8 7v2h-2v-2l-4-2-4-3-7-1z" fill="#FDCEC1"/>
<path transform="translate(558,388)" d="m0 0 2 1-7 6h-2l1 7-4-3 1-4 3-1v-2z" fill="#F8F7F7"/>
<path transform="translate(273,336)" d="m0 0 3 1 5 5v2l-5-1-4-5z" fill="#FCDAD0"/>
<path transform="translate(75,304)" d="m0 0h2l5 8v5l-2 1-2-6-4-7z" fill="#627E97"/>
<path transform="translate(84,263)" d="m0 0 3 1 2 4 2 1 1 5-4-2-4-6z" fill="#2C516B"/>
<path transform="translate(761,145)" d="m0 0 3 2-5 10h-2l1-6z" fill="#446F8D"/>
<path transform="translate(428,54)" d="m0 0 2 2-6 4-4 2v2l-4-1 7-6z" fill="#FDFBF9"/>
<path transform="translate(808,447)" d="m0 0 2 1 3 6 3 2v2h-3v-2l-3-1v-2h-2l-1-5z" fill="#FAAB91"/>
<path transform="translate(847,400)" d="m0 0 2 1-9 4h-8v-2l7-1z" fill="#FDCFC2"/>
<path transform="translate(598,395)" d="m0 0h2l-1 4h-2l-1 3h-2v2h-3l2-4z" fill="#AACEEF"/>
<path transform="translate(933,378)" d="m0 0 3 2h-2l2 5 4 1 4-2-2 4h-7l-2-2z" fill="#416884"/>
<path transform="translate(205,249)" d="m0 0 2 1-8 7h-3l2-4 4-3z" fill="#295B7D"/>
<path transform="translate(743,194)" d="m0 0h1v6h2v2h5v1l-6 1-5-3z" fill="#FCDAD0"/>
<path transform="translate(746,189)" d="m0 0h6l2 3-2 1v-2l-5 1-2 8h-1v-9z" fill="#FDCDC0"/>
<path transform="translate(827,144)" d="m0 0 1 4-4 8h-3l2-5z" fill="#436C8A"/>
<path transform="translate(517,50)" d="m0 0h3v2l5 2 2 3-3 1-7-6z" fill="#2B506A"/>
<path transform="translate(684,20)" d="m0 0 2 1v6h-6v-5z" fill="#FCD9CE"/>
<path transform="translate(734,698)" d="m0 0h2l-1 3-9 3h-6l4-2z" fill="#F7E1DC"/>
<path transform="translate(302,698)" d="m0 0 7 1 7 3v2l-5-1-9-4z" fill="#F4E1DD"/>
<path transform="translate(523,546)" d="m0 0h3v2l14-1 2 2h-19z" fill="#FCF4F0"/>
<path transform="translate(253,472)" d="m0 0 3 1-9 7-7 3v-2l10-6z" fill="#FCF4F1"/>
<path transform="translate(650,460)" d="m0 0h2l2 11-3 1z" fill="#AACDEE"/>
<path transform="translate(874,212)" d="m0 0 9 1 5 2v1h-8l-6-3z" fill="#FDFBF9"/>
<path transform="translate(342,152)" d="m0 0h2l-1 5-2 5h-5v-2h4l1-5z" fill="#245372"/>
<path transform="translate(346,144)" d="m0 0h1l1 5 4 1v2l-8-1v-5z" fill="#235270"/>
<path transform="translate(192,450)" d="m0 0 5 1 11 4v1l-8-1-8-4z" fill="#FDCFC2"/>
<path transform="translate(208,408)" d="m0 0 4 4v4l-6-2-4-3 6 1z" fill="#FDCEC1"/>
<path transform="translate(520,373)" d="m0 0 4 2 4 3 2 4-5-2-2-1v-2h-2z" fill="#FBB29B"/>
<path transform="translate(811,173)" d="m0 0 2 1-2 6-3 4h-2l2-6z" fill="#4A6F8B"/>
<path transform="translate(343,114)" d="m0 0 1 3h2l5 5 1 2-5-1-5-6z" fill="#4D3E4A"/>
<path transform="translate(595,731)" d="m0 0h5l-1 5-6-2v-2z" fill="#E38C71"/>
<path transform="translate(483,694)" d="m0 0h2l4 14h-2v-3h-2l-1-9-2-1z" fill="#F8A68B"/>
<path transform="translate(672,533)" d="m0 0 8 6v2l3 1-2 2-7-7-2-1z" fill="#D4EBFD"/>
<path transform="translate(244,477)" d="m0 0 2 1-4 3h-2v2l-6 3h-2v-2l8-5z" fill="#FAAD93"/>
<path transform="translate(571,376)" d="m0 0h3v2h-2v2l-5 3h-2v2l-4 1 1-2h2v-2l5-4h2z" fill="#FCECE7"/>
<path transform="translate(302,320)" d="m0 0 2 3v11l-2 2-1-3 1-5-1-6z" fill="#FCD6CB"/>
<path transform="translate(177,304)" d="m0 0 3 1-1 4h-3v2l-4-2z" fill="#265777"/>
<path transform="translate(678,254)" d="m0 0 3 1-4 5-5-1 1-3h5z" fill="#FCDBD1"/>
<path transform="translate(794,205)" d="m0 0h3l-2 5-3 6-2-4z" fill="#49708C"/>
<path transform="translate(880,203)" d="m0 0 8 1v2l5 1v1l-8-1-5-2z" fill="#FDFBF9"/>
<path transform="translate(755,197)" d="m0 0 1 4-4 2-6-1 1-2 4-1z" fill="#FCC2B0"/>
<path transform="translate(586,189)" d="m0 0 5 5v5l-2-1v-3l-4-2v-3z" fill="#FCCEC0"/>
<path transform="translate(567,58)" d="m0 0 1 4-5 3h-3l2-4z" fill="#3D4B5F"/>
<path transform="translate(528,496)" d="m0 0 4 2 4 5-5-1-3-2z" fill="#FBC8B7"/>
<path transform="translate(529,413)" d="m0 0 6 4 6 5-1 2-11-8z" fill="#F2A289"/>
<path transform="translate(281,252)" d="m0 0m-1 1 1 3-5 5h-3z" fill="#345972"/>
<path transform="translate(845,250)" d="m0 0 11 2 2 3-10-2z" fill="#FDFBF9"/>
<path transform="translate(114,152)" d="m0 0 3 1-8 6-3 4h-2l2-5z" fill="#D1EAFE"/>
</svg>
